M48
;DRILL file {KiCad 4.1.0-alpha+201607190716+6983~46~ubuntu14.04.1-product} date Mon Jan  9 09:03:29 2017
;FORMAT={-:-/ absolute / inch / decimal}
FMAT,2
INCH,TZ
T1C0.016
T2C0.024
T3C0.031
T4C0.039
T5C0.043
T6C0.063
T7C0.087
T8C0.118
T9C0.130
%
G90
G05
M72
T1
X2.4733Y-4.9092
X2.6533Y-5.2517
X2.6733Y-5.3892
X2.7133Y-5.1492
X2.7333Y-4.8592
X2.7433Y-4.8892
X2.7733Y-4.7142
X2.7833Y-3.9217
X2.8033Y-5.1917
X2.8233Y-4.9592
X2.8433Y-3.9017
X2.8833Y-5.1092
X2.9133Y-5.0392
X2.9383Y-4.7142
X2.9833Y-3.8492
X3.0233Y-5.5392
X3.0333Y-3.8217
X3.0333Y-4.1542
X3.0333Y-4.4292
X3.0833Y-4.2292
X3.0933Y-3.5417
X3.1083Y-5.0142
X3.1133Y-5.4592
X3.1833Y-4.1692
X3.2683Y-3.9192
X3.2683Y-4.1792
X3.2933Y-5.1992
X3.3033Y-5.0492
X3.3083Y-4.3742
X3.3533Y-4.3692
X3.3533Y-4.5642
X3.3933Y-3.6142
X3.3933Y-4.4892
X3.3933Y-4.5792
X3.3983Y-3.9242
X3.3983Y-4.1042
X3.3983Y-4.2742
X3.4433Y-3.9792
X3.4433Y-4.5742
X3.4833Y-4.7142
X3.4933Y-4.3592
X3.5133Y-4.7542
X3.5133Y-5.0892
X3.5233Y-5.7192
X3.5433Y-4.7842
X3.5433Y-5.1292
X3.5733Y-4.7542
X3.5733Y-5.0892
X3.5983Y-4.5692
X3.6233Y-3.7492
X3.6233Y-4.5342
X3.6433Y-4.4642
X3.6533Y-4.7142
X3.6533Y-5.6792
X3.6833Y-4.5692
X3.6933Y-5.6792
X3.7433Y-5.4792
X3.8333Y-5.0392
X4.1233Y-5.1292
X4.2033Y-5.0792
X4.2433Y-5.0392
X4.2533Y-5.1842
X4.3083Y-4.4242
X4.3383Y-4.5442
X4.4233Y-4.4392
T2
X3.5933Y-3.2217
X3.7933Y-3.2217
X4.4633Y-3.3417
X4.5733Y-4.8517
T3
X2.9697Y-2.9862
X3.5633Y-6.0592
X3.6633Y-6.0592
X4.1169Y-2.9862
T4
X2.4933Y-3.6417
X2.4933Y-3.7417
X2.4933Y-3.8417
X2.4933Y-3.9417
X2.4933Y-4.0417
X2.4933Y-4.1417
X2.4933Y-4.5417
X2.4933Y-4.6417
X2.5933Y-3.6417
X2.5933Y-3.7417
X2.5933Y-3.8417
X2.5933Y-3.9417
X2.5933Y-4.0417
X2.5933Y-4.1417
X2.5933Y-4.3417
X2.5933Y-4.4417
X2.5933Y-4.5417
X2.5933Y-4.6417
X2.5933Y-4.7417
X2.5933Y-4.8417
X4.4933Y-3.6417
X4.4933Y-3.7417
X4.4933Y-3.8417
X4.4933Y-3.9417
X4.4933Y-4.0417
X4.4933Y-4.1417
X4.4933Y-4.2417
X4.4933Y-4.3417
X4.4933Y-4.5017
X4.4933Y-4.6017
X4.4933Y-4.7017
X4.4933Y-4.8017
X4.4933Y-4.9017
X4.4933Y-5.0017
X4.4933Y-5.1017
X4.4933Y-5.2017
X4.5933Y-4.2417
T5
X2.9709Y-4.8031
X2.9709Y-5.6693
X3.0709Y-4.8031
X3.0709Y-5.6693
X3.1709Y-4.8031
X3.1709Y-5.6693
X3.9157Y-4.8031
X3.9157Y-5.6693
X4.0157Y-4.8031
X4.0157Y-5.6693
X4.1157Y-4.8031
X4.1157Y-5.6693
T6
X3.3433Y-5.885
X3.3433Y-6.1606
T7
X2.8937Y-4.5276
X2.8937Y-5.3937
X3.248Y-4.5276
X3.248Y-5.3937
X3.8386Y-4.5276
X3.8386Y-5.3937
X4.1929Y-4.5276
X4.1929Y-5.3937
T8
X2.5933Y-5.5917
X4.4933Y-5.5417
T9
X2.4961Y-2.9862
X4.4933Y-6.1909
X4.5906Y-2.9862
T0
M30
