G04 #@! TF.FileFunction,Legend,Top*
%FSLAX46Y46*%
G04 Gerber Fmt 4.6, Leading zero omitted, Abs format (unit mm)*
G04 Created by KiCad (PCBNEW 4.1.0-alpha+201607190716+6983~46~ubuntu14.04.1-product) date Fri Sep 16 20:27:53 2016*
%MOMM*%
%LPD*%
G01*
G04 APERTURE LIST*
%ADD10C,0.100000*%
%ADD11C,0.150000*%
%ADD12C,0.200000*%
%ADD13C,0.050000*%
G04 APERTURE END LIST*
D10*
D11*
X81634095Y-117098380D02*
X82300761Y-117098380D01*
X81872190Y-118098380D01*
X83110285Y-117431714D02*
X83110285Y-118098380D01*
X82872190Y-117050761D02*
X82634095Y-117765047D01*
X83253142Y-117765047D01*
X83538857Y-117098380D02*
X84205523Y-117098380D01*
X83776952Y-118098380D01*
X85015047Y-117431714D02*
X85015047Y-118098380D01*
X84776952Y-117050761D02*
X84538857Y-117765047D01*
X85157904Y-117765047D01*
X96032904Y-141720380D02*
X96032904Y-140720380D01*
X96366238Y-141434666D01*
X96699571Y-140720380D01*
X96699571Y-141720380D01*
X97747190Y-141625142D02*
X97699571Y-141672761D01*
X97556714Y-141720380D01*
X97461476Y-141720380D01*
X97318619Y-141672761D01*
X97223380Y-141577523D01*
X97175761Y-141482285D01*
X97128142Y-141291809D01*
X97128142Y-141148952D01*
X97175761Y-140958476D01*
X97223380Y-140863238D01*
X97318619Y-140768000D01*
X97461476Y-140720380D01*
X97556714Y-140720380D01*
X97699571Y-140768000D01*
X97747190Y-140815619D01*
X98175761Y-141720380D02*
X98175761Y-140720380D01*
X98556714Y-140720380D01*
X98651952Y-140768000D01*
X98699571Y-140815619D01*
X98747190Y-140910857D01*
X98747190Y-141053714D01*
X98699571Y-141148952D01*
X98651952Y-141196571D01*
X98556714Y-141244190D01*
X98175761Y-141244190D01*
X99604333Y-141053714D02*
X99604333Y-141720380D01*
X99366238Y-140672761D02*
X99128142Y-141387047D01*
X99747190Y-141387047D01*
X100175761Y-141720380D02*
X100366238Y-141720380D01*
X100461476Y-141672761D01*
X100509095Y-141625142D01*
X100604333Y-141482285D01*
X100651952Y-141291809D01*
X100651952Y-140910857D01*
X100604333Y-140815619D01*
X100556714Y-140768000D01*
X100461476Y-140720380D01*
X100271000Y-140720380D01*
X100175761Y-140768000D01*
X100128142Y-140815619D01*
X100080523Y-140910857D01*
X100080523Y-141148952D01*
X100128142Y-141244190D01*
X100175761Y-141291809D01*
X100271000Y-141339428D01*
X100461476Y-141339428D01*
X100556714Y-141291809D01*
X100604333Y-141244190D01*
X100651952Y-141148952D01*
X101032904Y-140815619D02*
X101080523Y-140768000D01*
X101175761Y-140720380D01*
X101413857Y-140720380D01*
X101509095Y-140768000D01*
X101556714Y-140815619D01*
X101604333Y-140910857D01*
X101604333Y-141006095D01*
X101556714Y-141148952D01*
X100985285Y-141720380D01*
X101604333Y-141720380D01*
X102556714Y-141720380D02*
X101985285Y-141720380D01*
X102271000Y-141720380D02*
X102271000Y-140720380D01*
X102175761Y-140863238D01*
X102080523Y-140958476D01*
X101985285Y-141006095D01*
X99937904Y-123654714D02*
X99937904Y-124321380D01*
X99699809Y-123273761D02*
X99461714Y-123988047D01*
X100080761Y-123988047D01*
X100652190Y-123321380D02*
X100747428Y-123321380D01*
X100842666Y-123369000D01*
X100890285Y-123416619D01*
X100937904Y-123511857D01*
X100985523Y-123702333D01*
X100985523Y-123940428D01*
X100937904Y-124130904D01*
X100890285Y-124226142D01*
X100842666Y-124273761D01*
X100747428Y-124321380D01*
X100652190Y-124321380D01*
X100556952Y-124273761D01*
X100509333Y-124226142D01*
X100461714Y-124130904D01*
X100414095Y-123940428D01*
X100414095Y-123702333D01*
X100461714Y-123511857D01*
X100509333Y-123416619D01*
X100556952Y-123369000D01*
X100652190Y-123321380D01*
X101842666Y-123321380D02*
X101652190Y-123321380D01*
X101556952Y-123369000D01*
X101509333Y-123416619D01*
X101414095Y-123559476D01*
X101366476Y-123749952D01*
X101366476Y-124130904D01*
X101414095Y-124226142D01*
X101461714Y-124273761D01*
X101556952Y-124321380D01*
X101747428Y-124321380D01*
X101842666Y-124273761D01*
X101890285Y-124226142D01*
X101937904Y-124130904D01*
X101937904Y-123892809D01*
X101890285Y-123797571D01*
X101842666Y-123749952D01*
X101747428Y-123702333D01*
X101556952Y-123702333D01*
X101461714Y-123749952D01*
X101414095Y-123797571D01*
X101366476Y-123892809D01*
X102556952Y-123321380D02*
X102652190Y-123321380D01*
X102747428Y-123369000D01*
X102795047Y-123416619D01*
X102842666Y-123511857D01*
X102890285Y-123702333D01*
X102890285Y-123940428D01*
X102842666Y-124130904D01*
X102795047Y-124226142D01*
X102747428Y-124273761D01*
X102652190Y-124321380D01*
X102556952Y-124321380D01*
X102461714Y-124273761D01*
X102414095Y-124226142D01*
X102366476Y-124130904D01*
X102318857Y-123940428D01*
X102318857Y-123702333D01*
X102366476Y-123511857D01*
X102414095Y-123416619D01*
X102461714Y-123369000D01*
X102556952Y-123321380D01*
X71235904Y-123527714D02*
X71235904Y-124194380D01*
X70997809Y-123146761D02*
X70759714Y-123861047D01*
X71378761Y-123861047D01*
X71950190Y-123194380D02*
X72045428Y-123194380D01*
X72140666Y-123242000D01*
X72188285Y-123289619D01*
X72235904Y-123384857D01*
X72283523Y-123575333D01*
X72283523Y-123813428D01*
X72235904Y-124003904D01*
X72188285Y-124099142D01*
X72140666Y-124146761D01*
X72045428Y-124194380D01*
X71950190Y-124194380D01*
X71854952Y-124146761D01*
X71807333Y-124099142D01*
X71759714Y-124003904D01*
X71712095Y-123813428D01*
X71712095Y-123575333D01*
X71759714Y-123384857D01*
X71807333Y-123289619D01*
X71854952Y-123242000D01*
X71950190Y-123194380D01*
X73140666Y-123194380D02*
X72950190Y-123194380D01*
X72854952Y-123242000D01*
X72807333Y-123289619D01*
X72712095Y-123432476D01*
X72664476Y-123622952D01*
X72664476Y-124003904D01*
X72712095Y-124099142D01*
X72759714Y-124146761D01*
X72854952Y-124194380D01*
X73045428Y-124194380D01*
X73140666Y-124146761D01*
X73188285Y-124099142D01*
X73235904Y-124003904D01*
X73235904Y-123765809D01*
X73188285Y-123670571D01*
X73140666Y-123622952D01*
X73045428Y-123575333D01*
X72854952Y-123575333D01*
X72759714Y-123622952D01*
X72712095Y-123670571D01*
X72664476Y-123765809D01*
X73854952Y-123194380D02*
X73950190Y-123194380D01*
X74045428Y-123242000D01*
X74093047Y-123289619D01*
X74140666Y-123384857D01*
X74188285Y-123575333D01*
X74188285Y-123813428D01*
X74140666Y-124003904D01*
X74093047Y-124099142D01*
X74045428Y-124146761D01*
X73950190Y-124194380D01*
X73854952Y-124194380D01*
X73759714Y-124146761D01*
X73712095Y-124099142D01*
X73664476Y-124003904D01*
X73616857Y-123813428D01*
X73616857Y-123575333D01*
X73664476Y-123384857D01*
X73712095Y-123289619D01*
X73759714Y-123242000D01*
X73854952Y-123194380D01*
X62504904Y-138037380D02*
X62504904Y-137037380D01*
X62838238Y-137751666D01*
X63171571Y-137037380D01*
X63171571Y-138037380D01*
X64219190Y-137942142D02*
X64171571Y-137989761D01*
X64028714Y-138037380D01*
X63933476Y-138037380D01*
X63790619Y-137989761D01*
X63695380Y-137894523D01*
X63647761Y-137799285D01*
X63600142Y-137608809D01*
X63600142Y-137465952D01*
X63647761Y-137275476D01*
X63695380Y-137180238D01*
X63790619Y-137085000D01*
X63933476Y-137037380D01*
X64028714Y-137037380D01*
X64171571Y-137085000D01*
X64219190Y-137132619D01*
X64647761Y-138037380D02*
X64647761Y-137037380D01*
X65028714Y-137037380D01*
X65123952Y-137085000D01*
X65171571Y-137132619D01*
X65219190Y-137227857D01*
X65219190Y-137370714D01*
X65171571Y-137465952D01*
X65123952Y-137513571D01*
X65028714Y-137561190D01*
X64647761Y-137561190D01*
X66076333Y-137037380D02*
X65885857Y-137037380D01*
X65790619Y-137085000D01*
X65743000Y-137132619D01*
X65647761Y-137275476D01*
X65600142Y-137465952D01*
X65600142Y-137846904D01*
X65647761Y-137942142D01*
X65695380Y-137989761D01*
X65790619Y-138037380D01*
X65981095Y-138037380D01*
X66076333Y-137989761D01*
X66123952Y-137942142D01*
X66171571Y-137846904D01*
X66171571Y-137608809D01*
X66123952Y-137513571D01*
X66076333Y-137465952D01*
X65981095Y-137418333D01*
X65790619Y-137418333D01*
X65695380Y-137465952D01*
X65647761Y-137513571D01*
X65600142Y-137608809D01*
X66790619Y-137037380D02*
X66885857Y-137037380D01*
X66981095Y-137085000D01*
X67028714Y-137132619D01*
X67076333Y-137227857D01*
X67123952Y-137418333D01*
X67123952Y-137656428D01*
X67076333Y-137846904D01*
X67028714Y-137942142D01*
X66981095Y-137989761D01*
X66885857Y-138037380D01*
X66790619Y-138037380D01*
X66695380Y-137989761D01*
X66647761Y-137942142D01*
X66600142Y-137846904D01*
X66552523Y-137656428D01*
X66552523Y-137418333D01*
X66600142Y-137227857D01*
X66647761Y-137132619D01*
X66695380Y-137085000D01*
X66790619Y-137037380D01*
X67743000Y-137037380D02*
X67838238Y-137037380D01*
X67933476Y-137085000D01*
X67981095Y-137132619D01*
X68028714Y-137227857D01*
X68076333Y-137418333D01*
X68076333Y-137656428D01*
X68028714Y-137846904D01*
X67981095Y-137942142D01*
X67933476Y-137989761D01*
X67838238Y-138037380D01*
X67743000Y-138037380D01*
X67647761Y-137989761D01*
X67600142Y-137942142D01*
X67552523Y-137846904D01*
X67504904Y-137656428D01*
X67504904Y-137418333D01*
X67552523Y-137227857D01*
X67600142Y-137132619D01*
X67647761Y-137085000D01*
X67743000Y-137037380D01*
X68457285Y-137132619D02*
X68504904Y-137085000D01*
X68600142Y-137037380D01*
X68838238Y-137037380D01*
X68933476Y-137085000D01*
X68981095Y-137132619D01*
X69028714Y-137227857D01*
X69028714Y-137323095D01*
X68981095Y-137465952D01*
X68409666Y-138037380D01*
X69028714Y-138037380D01*
X75077904Y-112764380D02*
X75077904Y-111764380D01*
X75411238Y-112478666D01*
X75744571Y-111764380D01*
X75744571Y-112764380D01*
X76792190Y-112669142D02*
X76744571Y-112716761D01*
X76601714Y-112764380D01*
X76506476Y-112764380D01*
X76363619Y-112716761D01*
X76268380Y-112621523D01*
X76220761Y-112526285D01*
X76173142Y-112335809D01*
X76173142Y-112192952D01*
X76220761Y-112002476D01*
X76268380Y-111907238D01*
X76363619Y-111812000D01*
X76506476Y-111764380D01*
X76601714Y-111764380D01*
X76744571Y-111812000D01*
X76792190Y-111859619D01*
X77220761Y-112764380D02*
X77220761Y-111764380D01*
X77601714Y-111764380D01*
X77696952Y-111812000D01*
X77744571Y-111859619D01*
X77792190Y-111954857D01*
X77792190Y-112097714D01*
X77744571Y-112192952D01*
X77696952Y-112240571D01*
X77601714Y-112288190D01*
X77220761Y-112288190D01*
X78649333Y-112097714D02*
X78649333Y-112764380D01*
X78411238Y-111716761D02*
X78173142Y-112431047D01*
X78792190Y-112431047D01*
X79220761Y-112764380D02*
X79411238Y-112764380D01*
X79506476Y-112716761D01*
X79554095Y-112669142D01*
X79649333Y-112526285D01*
X79696952Y-112335809D01*
X79696952Y-111954857D01*
X79649333Y-111859619D01*
X79601714Y-111812000D01*
X79506476Y-111764380D01*
X79316000Y-111764380D01*
X79220761Y-111812000D01*
X79173142Y-111859619D01*
X79125523Y-111954857D01*
X79125523Y-112192952D01*
X79173142Y-112288190D01*
X79220761Y-112335809D01*
X79316000Y-112383428D01*
X79506476Y-112383428D01*
X79601714Y-112335809D01*
X79649333Y-112288190D01*
X79696952Y-112192952D01*
X80077904Y-111859619D02*
X80125523Y-111812000D01*
X80220761Y-111764380D01*
X80458857Y-111764380D01*
X80554095Y-111812000D01*
X80601714Y-111859619D01*
X80649333Y-111954857D01*
X80649333Y-112050095D01*
X80601714Y-112192952D01*
X80030285Y-112764380D01*
X80649333Y-112764380D01*
X81030285Y-111859619D02*
X81077904Y-111812000D01*
X81173142Y-111764380D01*
X81411238Y-111764380D01*
X81506476Y-111812000D01*
X81554095Y-111859619D01*
X81601714Y-111954857D01*
X81601714Y-112050095D01*
X81554095Y-112192952D01*
X80982666Y-112764380D01*
X81601714Y-112764380D01*
X74537904Y-91015714D02*
X74537904Y-91682380D01*
X74299809Y-90634761D02*
X74061714Y-91349047D01*
X74680761Y-91349047D01*
X75252190Y-90682380D02*
X75347428Y-90682380D01*
X75442666Y-90730000D01*
X75490285Y-90777619D01*
X75537904Y-90872857D01*
X75585523Y-91063333D01*
X75585523Y-91301428D01*
X75537904Y-91491904D01*
X75490285Y-91587142D01*
X75442666Y-91634761D01*
X75347428Y-91682380D01*
X75252190Y-91682380D01*
X75156952Y-91634761D01*
X75109333Y-91587142D01*
X75061714Y-91491904D01*
X75014095Y-91301428D01*
X75014095Y-91063333D01*
X75061714Y-90872857D01*
X75109333Y-90777619D01*
X75156952Y-90730000D01*
X75252190Y-90682380D01*
X76442666Y-90682380D02*
X76252190Y-90682380D01*
X76156952Y-90730000D01*
X76109333Y-90777619D01*
X76014095Y-90920476D01*
X75966476Y-91110952D01*
X75966476Y-91491904D01*
X76014095Y-91587142D01*
X76061714Y-91634761D01*
X76156952Y-91682380D01*
X76347428Y-91682380D01*
X76442666Y-91634761D01*
X76490285Y-91587142D01*
X76537904Y-91491904D01*
X76537904Y-91253809D01*
X76490285Y-91158571D01*
X76442666Y-91110952D01*
X76347428Y-91063333D01*
X76156952Y-91063333D01*
X76061714Y-91110952D01*
X76014095Y-91158571D01*
X75966476Y-91253809D01*
X77014095Y-91682380D02*
X77204571Y-91682380D01*
X77299809Y-91634761D01*
X77347428Y-91587142D01*
X77442666Y-91444285D01*
X77490285Y-91253809D01*
X77490285Y-90872857D01*
X77442666Y-90777619D01*
X77395047Y-90730000D01*
X77299809Y-90682380D01*
X77109333Y-90682380D01*
X77014095Y-90730000D01*
X76966476Y-90777619D01*
X76918857Y-90872857D01*
X76918857Y-91110952D01*
X76966476Y-91206190D01*
X77014095Y-91253809D01*
X77109333Y-91301428D01*
X77299809Y-91301428D01*
X77395047Y-91253809D01*
X77442666Y-91206190D01*
X77490285Y-91110952D01*
X95373619Y-124845809D02*
X95373619Y-125512476D01*
X94373619Y-125083904D01*
X94468857Y-125893428D02*
X94421238Y-125941047D01*
X94373619Y-125893428D01*
X94421238Y-125845809D01*
X94468857Y-125893428D01*
X94373619Y-125893428D01*
X95373619Y-126274380D02*
X95373619Y-126893428D01*
X94992666Y-126560095D01*
X94992666Y-126702952D01*
X94945047Y-126798190D01*
X94897428Y-126845809D01*
X94802190Y-126893428D01*
X94564095Y-126893428D01*
X94468857Y-126845809D01*
X94421238Y-126798190D01*
X94373619Y-126702952D01*
X94373619Y-126417238D01*
X94421238Y-126322000D01*
X94468857Y-126274380D01*
X95373619Y-127226761D02*
X95373619Y-127893428D01*
X94373619Y-127464857D01*
X95278380Y-128226761D02*
X95326000Y-128274380D01*
X95373619Y-128369619D01*
X95373619Y-128607714D01*
X95326000Y-128702952D01*
X95278380Y-128750571D01*
X95183142Y-128798190D01*
X95087904Y-128798190D01*
X94945047Y-128750571D01*
X94373619Y-128179142D01*
X94373619Y-128798190D01*
X94373619Y-129750571D02*
X94373619Y-129179142D01*
X94373619Y-129464857D02*
X95373619Y-129464857D01*
X95230761Y-129369619D01*
X95135523Y-129274380D01*
X95087904Y-129179142D01*
X94373619Y-130179142D02*
X95373619Y-130179142D01*
X94659333Y-130512476D01*
X95373619Y-130845809D01*
X94373619Y-130845809D01*
X94373619Y-131322000D02*
X95373619Y-131322000D01*
X94897428Y-131322000D02*
X94897428Y-131893428D01*
X94373619Y-131893428D02*
X95373619Y-131893428D01*
X95040285Y-132274380D02*
X95040285Y-132798190D01*
X94373619Y-132274380D01*
X94373619Y-132798190D01*
X85054952Y-131758476D02*
X85007333Y-131853714D01*
X84959714Y-131901333D01*
X84864476Y-131948952D01*
X84816857Y-131948952D01*
X84721619Y-131901333D01*
X84674000Y-131853714D01*
X84626380Y-131758476D01*
X84626380Y-131568000D01*
X84674000Y-131472761D01*
X84721619Y-131425142D01*
X84816857Y-131377523D01*
X84864476Y-131377523D01*
X84959714Y-131425142D01*
X85007333Y-131472761D01*
X85054952Y-131568000D01*
X85054952Y-131758476D01*
X85102571Y-131853714D01*
X85150190Y-131901333D01*
X85245428Y-131948952D01*
X85435904Y-131948952D01*
X85531142Y-131901333D01*
X85578761Y-131853714D01*
X85626380Y-131758476D01*
X85626380Y-131568000D01*
X85578761Y-131472761D01*
X85531142Y-131425142D01*
X85435904Y-131377523D01*
X85245428Y-131377523D01*
X85150190Y-131425142D01*
X85102571Y-131472761D01*
X85054952Y-131568000D01*
X85531142Y-130948952D02*
X85578761Y-130901333D01*
X85626380Y-130948952D01*
X85578761Y-130996571D01*
X85531142Y-130948952D01*
X85626380Y-130948952D01*
X84626380Y-130282285D02*
X84626380Y-130187047D01*
X84674000Y-130091809D01*
X84721619Y-130044190D01*
X84816857Y-129996571D01*
X85007333Y-129948952D01*
X85245428Y-129948952D01*
X85435904Y-129996571D01*
X85531142Y-130044190D01*
X85578761Y-130091809D01*
X85626380Y-130187047D01*
X85626380Y-130282285D01*
X85578761Y-130377523D01*
X85531142Y-130425142D01*
X85435904Y-130472761D01*
X85245428Y-130520380D01*
X85007333Y-130520380D01*
X84816857Y-130472761D01*
X84721619Y-130425142D01*
X84674000Y-130377523D01*
X84626380Y-130282285D01*
X84626380Y-129329904D02*
X84626380Y-129234666D01*
X84674000Y-129139428D01*
X84721619Y-129091809D01*
X84816857Y-129044190D01*
X85007333Y-128996571D01*
X85245428Y-128996571D01*
X85435904Y-129044190D01*
X85531142Y-129091809D01*
X85578761Y-129139428D01*
X85626380Y-129234666D01*
X85626380Y-129329904D01*
X85578761Y-129425142D01*
X85531142Y-129472761D01*
X85435904Y-129520380D01*
X85245428Y-129568000D01*
X85007333Y-129568000D01*
X84816857Y-129520380D01*
X84721619Y-129472761D01*
X84674000Y-129425142D01*
X84626380Y-129329904D01*
X84626380Y-128377523D02*
X84626380Y-128282285D01*
X84674000Y-128187047D01*
X84721619Y-128139428D01*
X84816857Y-128091809D01*
X85007333Y-128044190D01*
X85245428Y-128044190D01*
X85435904Y-128091809D01*
X85531142Y-128139428D01*
X85578761Y-128187047D01*
X85626380Y-128282285D01*
X85626380Y-128377523D01*
X85578761Y-128472761D01*
X85531142Y-128520380D01*
X85435904Y-128568000D01*
X85245428Y-128615619D01*
X85007333Y-128615619D01*
X84816857Y-128568000D01*
X84721619Y-128520380D01*
X84674000Y-128472761D01*
X84626380Y-128377523D01*
X85626380Y-127615619D02*
X84626380Y-127615619D01*
X85340666Y-127282285D01*
X84626380Y-126948952D01*
X85626380Y-126948952D01*
X85626380Y-126472761D02*
X84626380Y-126472761D01*
X85626380Y-126044190D02*
X85102571Y-126044190D01*
X85007333Y-126091809D01*
X84959714Y-126187047D01*
X84959714Y-126329904D01*
X85007333Y-126425142D01*
X85054952Y-126472761D01*
X84959714Y-125663238D02*
X84959714Y-125139428D01*
X85626380Y-125663238D01*
X85626380Y-125139428D01*
D12*
X108923095Y-156389000D02*
X108827857Y-156341380D01*
X108685000Y-156341380D01*
X108542142Y-156389000D01*
X108446904Y-156484238D01*
X108399285Y-156579476D01*
X108351666Y-156769952D01*
X108351666Y-156912809D01*
X108399285Y-157103285D01*
X108446904Y-157198523D01*
X108542142Y-157293761D01*
X108685000Y-157341380D01*
X108780238Y-157341380D01*
X108923095Y-157293761D01*
X108970714Y-157246142D01*
X108970714Y-156912809D01*
X108780238Y-156912809D01*
X109399285Y-157341380D02*
X109399285Y-156341380D01*
X109970714Y-157341380D01*
X109970714Y-156341380D01*
X110446904Y-157341380D02*
X110446904Y-156341380D01*
X110685000Y-156341380D01*
X110827857Y-156389000D01*
X110923095Y-156484238D01*
X110970714Y-156579476D01*
X111018333Y-156769952D01*
X111018333Y-156912809D01*
X110970714Y-157103285D01*
X110923095Y-157198523D01*
X110827857Y-157293761D01*
X110685000Y-157341380D01*
X110446904Y-157341380D01*
X97366476Y-160278380D02*
X97699809Y-161278380D01*
X98033142Y-160278380D01*
X98271238Y-160278380D02*
X98890285Y-160278380D01*
X98556952Y-160659333D01*
X98699809Y-160659333D01*
X98795047Y-160706952D01*
X98842666Y-160754571D01*
X98890285Y-160849809D01*
X98890285Y-161087904D01*
X98842666Y-161183142D01*
X98795047Y-161230761D01*
X98699809Y-161278380D01*
X98414095Y-161278380D01*
X98318857Y-161230761D01*
X98271238Y-161183142D01*
X99318857Y-161183142D02*
X99366476Y-161230761D01*
X99318857Y-161278380D01*
X99271238Y-161230761D01*
X99318857Y-161183142D01*
X99318857Y-161278380D01*
X99985523Y-160278380D02*
X100080761Y-160278380D01*
X100176000Y-160326000D01*
X100223619Y-160373619D01*
X100271238Y-160468857D01*
X100318857Y-160659333D01*
X100318857Y-160897428D01*
X100271238Y-161087904D01*
X100223619Y-161183142D01*
X100176000Y-161230761D01*
X100080761Y-161278380D01*
X99985523Y-161278380D01*
X99890285Y-161230761D01*
X99842666Y-161183142D01*
X99795047Y-161087904D01*
X99747428Y-160897428D01*
X99747428Y-160659333D01*
X99795047Y-160468857D01*
X99842666Y-160373619D01*
X99890285Y-160326000D01*
X99985523Y-160278380D01*
X101461714Y-160373619D02*
X101509333Y-160326000D01*
X101604571Y-160278380D01*
X101842666Y-160278380D01*
X101937904Y-160326000D01*
X101985523Y-160373619D01*
X102033142Y-160468857D01*
X102033142Y-160564095D01*
X101985523Y-160706952D01*
X101414095Y-161278380D01*
X102033142Y-161278380D01*
X102652190Y-160278380D02*
X102747428Y-160278380D01*
X102842666Y-160326000D01*
X102890285Y-160373619D01*
X102937904Y-160468857D01*
X102985523Y-160659333D01*
X102985523Y-160897428D01*
X102937904Y-161087904D01*
X102890285Y-161183142D01*
X102842666Y-161230761D01*
X102747428Y-161278380D01*
X102652190Y-161278380D01*
X102556952Y-161230761D01*
X102509333Y-161183142D01*
X102461714Y-161087904D01*
X102414095Y-160897428D01*
X102414095Y-160659333D01*
X102461714Y-160468857D01*
X102509333Y-160373619D01*
X102556952Y-160326000D01*
X102652190Y-160278380D01*
X103937904Y-161278380D02*
X103366476Y-161278380D01*
X103652190Y-161278380D02*
X103652190Y-160278380D01*
X103556952Y-160421238D01*
X103461714Y-160516476D01*
X103366476Y-160564095D01*
X104795047Y-160278380D02*
X104604571Y-160278380D01*
X104509333Y-160326000D01*
X104461714Y-160373619D01*
X104366476Y-160516476D01*
X104318857Y-160706952D01*
X104318857Y-161087904D01*
X104366476Y-161183142D01*
X104414095Y-161230761D01*
X104509333Y-161278380D01*
X104699809Y-161278380D01*
X104795047Y-161230761D01*
X104842666Y-161183142D01*
X104890285Y-161087904D01*
X104890285Y-160849809D01*
X104842666Y-160754571D01*
X104795047Y-160706952D01*
X104699809Y-160659333D01*
X104509333Y-160659333D01*
X104414095Y-160706952D01*
X104366476Y-160754571D01*
X104318857Y-160849809D01*
D11*
X74794591Y-97773000D02*
G75*
G03X74794591Y-97773000I-288591J0D01*
G01*
X82761000Y-94544200D02*
X82761000Y-98455800D01*
X82761000Y-98455800D02*
X73871000Y-98455800D01*
X73871000Y-94544200D02*
X73871000Y-98455800D01*
X73871000Y-94544200D02*
X82761000Y-94544200D01*
X73871000Y-95992000D02*
X73871000Y-97262000D01*
D13*
X64600000Y-124250000D02*
X64600000Y-109010000D01*
X64600000Y-109010000D02*
X67140000Y-109010000D01*
X67140000Y-109010000D02*
X67140000Y-124250000D01*
X67140000Y-124250000D02*
X64600000Y-124250000D01*
X104986000Y-94595000D02*
X108542000Y-94595000D01*
X108542000Y-94595000D02*
X108542000Y-99421000D01*
X108542000Y-99421000D02*
X104986000Y-99421000D01*
X104986000Y-99421000D02*
X104986000Y-94595000D01*
X108542000Y-110343000D02*
X104986000Y-110343000D01*
X104986000Y-110343000D02*
X104986000Y-105517000D01*
X104986000Y-105517000D02*
X108542000Y-105517000D01*
X108542000Y-105517000D02*
X108542000Y-110343000D01*
D11*
X84452640Y-122908380D02*
X84452640Y-134607620D01*
X89451360Y-134607620D02*
X89451360Y-122908380D01*
X84452640Y-134607620D02*
X85301000Y-134607620D01*
X89451360Y-134607620D02*
X88603000Y-134607620D01*
X84452640Y-122908380D02*
X85301000Y-122908380D01*
X89451360Y-122908380D02*
X88603000Y-122908380D01*
X90548640Y-122908380D02*
X90548640Y-134607620D01*
X95547360Y-134607620D02*
X95547360Y-122908380D01*
X90548640Y-134607620D02*
X91397000Y-134607620D01*
X95547360Y-134607620D02*
X94699000Y-134607620D01*
X90548640Y-122908380D02*
X91397000Y-122908380D01*
X95547360Y-122908380D02*
X94699000Y-122908380D01*
X102983160Y-93817760D02*
X102934900Y-93817760D01*
X100184180Y-94518800D02*
X100184180Y-93817760D01*
X100184180Y-93817760D02*
X100433100Y-93817760D01*
X102983160Y-93817760D02*
X103183820Y-93817760D01*
X103183820Y-93817760D02*
X103183820Y-94518800D01*
X100384840Y-109850240D02*
X100433100Y-109850240D01*
X103183820Y-109149200D02*
X103183820Y-109850240D01*
X103183820Y-109850240D02*
X102934900Y-109850240D01*
X100384840Y-109850240D02*
X100184180Y-109850240D01*
X100184180Y-109850240D02*
X100184180Y-109149200D01*
D13*
X94775600Y-109073000D02*
X94775600Y-109581000D01*
X96400400Y-109073000D02*
X96400400Y-109581000D01*
X69984400Y-96754000D02*
X69984400Y-96246000D01*
X68359600Y-96754000D02*
X68359600Y-96246000D01*
X76284000Y-88321600D02*
X75776000Y-88321600D01*
X76284000Y-89946400D02*
X75776000Y-89946400D01*
X71407600Y-96246000D02*
X71407600Y-96754000D01*
X73032400Y-96246000D02*
X73032400Y-96754000D01*
X92540000Y-151160400D02*
X93048000Y-151160400D01*
X92540000Y-149535600D02*
X93048000Y-149535600D01*
X92032000Y-108006600D02*
X91524000Y-108006600D01*
X92032000Y-109631400D02*
X91524000Y-109631400D01*
X108237600Y-128758000D02*
X108237600Y-129266000D01*
X109862400Y-128758000D02*
X109862400Y-129266000D01*
X70391600Y-128504000D02*
X70391600Y-129012000D01*
X72016400Y-128504000D02*
X72016400Y-129012000D01*
X71280600Y-106914000D02*
X71280600Y-107422000D01*
X72905400Y-106914000D02*
X72905400Y-107422000D01*
X87714000Y-137343600D02*
X87206000Y-137343600D01*
X87714000Y-138968400D02*
X87206000Y-138968400D01*
X87663600Y-141458000D02*
X87663600Y-141966000D01*
X89288400Y-141458000D02*
X89288400Y-141966000D01*
X70492400Y-102469000D02*
X70492400Y-101961000D01*
X68867600Y-102469000D02*
X68867600Y-101961000D01*
X85123600Y-141458000D02*
X85123600Y-141966000D01*
X86748400Y-141458000D02*
X86748400Y-141966000D01*
X92794000Y-137343600D02*
X92286000Y-137343600D01*
X92794000Y-138968400D02*
X92286000Y-138968400D01*
X68867600Y-106914000D02*
X68867600Y-107422000D01*
X70492400Y-106914000D02*
X70492400Y-107422000D01*
X100109600Y-135362000D02*
X100109600Y-135870000D01*
X101734400Y-135362000D02*
X101734400Y-135870000D01*
X97162400Y-120376000D02*
X97162400Y-119868000D01*
X95537600Y-120376000D02*
X95537600Y-119868000D01*
X78265600Y-135362000D02*
X78265600Y-135870000D01*
X79890400Y-135362000D02*
X79890400Y-135870000D01*
X78316000Y-118293600D02*
X77808000Y-118293600D01*
X78316000Y-119918400D02*
X77808000Y-119918400D01*
X86647600Y-107168000D02*
X86647600Y-107676000D01*
X88272400Y-107168000D02*
X88272400Y-107676000D01*
X97315600Y-109073000D02*
X97315600Y-109581000D01*
X98940400Y-109073000D02*
X98940400Y-109581000D01*
X98940400Y-105136000D02*
X98940400Y-104628000D01*
X97315600Y-105136000D02*
X97315600Y-104628000D01*
X93860400Y-105136000D02*
X93860400Y-104628000D01*
X92235600Y-105136000D02*
X92235600Y-104628000D01*
X94775600Y-104628000D02*
X94775600Y-105136000D01*
X96400400Y-104628000D02*
X96400400Y-105136000D01*
X99855600Y-104628000D02*
X99855600Y-105136000D01*
X101480400Y-104628000D02*
X101480400Y-105136000D01*
X86647600Y-102850000D02*
X86647600Y-103358000D01*
X88272400Y-102850000D02*
X88272400Y-103358000D01*
X96400400Y-94468000D02*
X96400400Y-93960000D01*
X94775600Y-94468000D02*
X94775600Y-93960000D01*
X97315600Y-98278000D02*
X97315600Y-98786000D01*
X98940400Y-98278000D02*
X98940400Y-98786000D01*
X92235600Y-98278000D02*
X92235600Y-98786000D01*
X93860400Y-98278000D02*
X93860400Y-98786000D01*
X96400400Y-98786000D02*
X96400400Y-98278000D01*
X94775600Y-98786000D02*
X94775600Y-98278000D01*
X101480400Y-98786000D02*
X101480400Y-98278000D01*
X99855600Y-98786000D02*
X99855600Y-98278000D01*
X102141600Y-135362000D02*
X102141600Y-135870000D01*
X103766400Y-135362000D02*
X103766400Y-135870000D01*
X109100400Y-121646000D02*
X109100400Y-121138000D01*
X107475600Y-121646000D02*
X107475600Y-121138000D01*
X76233600Y-135362000D02*
X76233600Y-135870000D01*
X77858400Y-135362000D02*
X77858400Y-135870000D01*
X84462400Y-120376000D02*
X84462400Y-119868000D01*
X82837600Y-120376000D02*
X82837600Y-119868000D01*
X84107600Y-107168000D02*
X84107600Y-107676000D01*
X85732400Y-107168000D02*
X85732400Y-107676000D01*
X88272400Y-97516000D02*
X88272400Y-97008000D01*
X86647600Y-97516000D02*
X86647600Y-97008000D01*
X84107600Y-97008000D02*
X84107600Y-97516000D01*
X85732400Y-97008000D02*
X85732400Y-97516000D01*
X84107600Y-102850000D02*
X84107600Y-103358000D01*
X85732400Y-102850000D02*
X85732400Y-103358000D01*
X93860400Y-94468000D02*
X93860400Y-93960000D01*
X92235600Y-94468000D02*
X92235600Y-93960000D01*
X81618000Y-89210600D02*
X81110000Y-89210600D01*
X81618000Y-90835400D02*
X81110000Y-90835400D01*
X86190000Y-92639600D02*
X85682000Y-92639600D01*
X86190000Y-94264400D02*
X85682000Y-94264400D01*
X79636400Y-150602000D02*
X79636400Y-150094000D01*
X78011600Y-150602000D02*
X78011600Y-150094000D01*
D11*
X74794591Y-108273000D02*
G75*
G03X74794591Y-108273000I-288591J0D01*
G01*
X82761000Y-105044200D02*
X82761000Y-108955800D01*
X82761000Y-108955800D02*
X73871000Y-108955800D01*
X73871000Y-105044200D02*
X73871000Y-108955800D01*
X73871000Y-105044200D02*
X82761000Y-105044200D01*
X73871000Y-106492000D02*
X73871000Y-107762000D01*
X86478591Y-116315000D02*
G75*
G03X86478591Y-116315000I-288591J0D01*
G01*
X94445000Y-113086200D02*
X94445000Y-116997800D01*
X94445000Y-116997800D02*
X85555000Y-116997800D01*
X85555000Y-113086200D02*
X85555000Y-116997800D01*
X85555000Y-113086200D02*
X94445000Y-113086200D01*
X85555000Y-114534000D02*
X85555000Y-115804000D01*
X74159591Y-130285000D02*
G75*
G03X74159591Y-130285000I-288591J0D01*
G01*
X83396000Y-127056200D02*
X83396000Y-130967800D01*
X83396000Y-130967800D02*
X73236000Y-130967800D01*
X73236000Y-127056200D02*
X73236000Y-130967800D01*
X73236000Y-127056200D02*
X83396000Y-127056200D01*
X73236000Y-128504000D02*
X73236000Y-129774000D01*
X97527591Y-130285000D02*
G75*
G03X97527591Y-130285000I-288591J0D01*
G01*
X106764000Y-127056200D02*
X106764000Y-130967800D01*
X106764000Y-130967800D02*
X96604000Y-130967800D01*
X96604000Y-127056200D02*
X96604000Y-130967800D01*
X96604000Y-127056200D02*
X106764000Y-127056200D01*
X96604000Y-128504000D02*
X96604000Y-129774000D01*
X91143000Y-145268000D02*
G75*
G03X91143000Y-145268000I-254000J0D01*
G01*
X90254000Y-142042200D02*
X90254000Y-145953800D01*
X95334000Y-142042200D02*
X95334000Y-145953800D01*
X90254000Y-142042200D02*
X95334000Y-142042200D01*
X95334000Y-145953800D02*
X90254000Y-145953800D01*
X63965000Y-133330000D02*
G75*
G03X63965000Y-133330000I-254000J0D01*
G01*
X63076000Y-130104200D02*
X63076000Y-134015800D01*
X68156000Y-130104200D02*
X68156000Y-134015800D01*
X63076000Y-130104200D02*
X68156000Y-130104200D01*
X68156000Y-134015800D02*
X63076000Y-134015800D01*
D13*
X112860000Y-111550000D02*
X112860000Y-91230000D01*
X112860000Y-91230000D02*
X115400000Y-91230000D01*
X115400000Y-91230000D02*
X115400000Y-111550000D01*
X115400000Y-111550000D02*
X112860000Y-111550000D01*
X112860000Y-133394000D02*
X112860000Y-113074000D01*
X112860000Y-113074000D02*
X115400000Y-113074000D01*
X115400000Y-113074000D02*
X115400000Y-133394000D01*
X115400000Y-133394000D02*
X112860000Y-133394000D01*
X64600000Y-106470000D02*
X64600000Y-91230000D01*
X64600000Y-91230000D02*
X67140000Y-91230000D01*
X67140000Y-91230000D02*
X67140000Y-106470000D01*
X67140000Y-106470000D02*
X64600000Y-106470000D01*
X102395600Y-104628000D02*
X102395600Y-105136000D01*
X104020400Y-104628000D02*
X104020400Y-105136000D01*
X104020400Y-98786000D02*
X104020400Y-98278000D01*
X102395600Y-98786000D02*
X102395600Y-98278000D01*
X62060000Y-106470000D02*
X62060000Y-91230000D01*
X62060000Y-91230000D02*
X64600000Y-91230000D01*
X64600000Y-91230000D02*
X64600000Y-106470000D01*
X64600000Y-106470000D02*
X62060000Y-106470000D01*
X87920000Y-145480000D02*
X81920000Y-145480000D01*
X87420000Y-159980000D02*
X87420000Y-162480000D01*
X82420000Y-162480000D02*
X87420000Y-162480000D01*
X82420000Y-162480000D02*
X82420000Y-159980000D01*
X87920000Y-159980000D02*
X81920000Y-159980000D01*
X81920000Y-159980000D02*
X81920000Y-145480000D01*
X87920000Y-145480000D02*
X87920000Y-159980000D01*
D11*
X71839095Y-99000380D02*
X71839095Y-99809904D01*
X71886714Y-99905142D01*
X71934333Y-99952761D01*
X72029571Y-100000380D01*
X72220047Y-100000380D01*
X72315285Y-99952761D01*
X72362904Y-99905142D01*
X72410523Y-99809904D01*
X72410523Y-99000380D01*
X73362904Y-99000380D02*
X72886714Y-99000380D01*
X72839095Y-99476571D01*
X72886714Y-99428952D01*
X72981952Y-99381333D01*
X73220047Y-99381333D01*
X73315285Y-99428952D01*
X73362904Y-99476571D01*
X73410523Y-99571809D01*
X73410523Y-99809904D01*
X73362904Y-99905142D01*
X73315285Y-99952761D01*
X73220047Y-100000380D01*
X72981952Y-100000380D01*
X72886714Y-99952761D01*
X72839095Y-99905142D01*
X65393809Y-108224190D02*
X65393809Y-108700380D01*
X65060476Y-107700380D02*
X65393809Y-108224190D01*
X65727142Y-107700380D01*
X66489047Y-107700380D02*
X66298571Y-107700380D01*
X66203333Y-107748000D01*
X66155714Y-107795619D01*
X66060476Y-107938476D01*
X66012857Y-108128952D01*
X66012857Y-108509904D01*
X66060476Y-108605142D01*
X66108095Y-108652761D01*
X66203333Y-108700380D01*
X66393809Y-108700380D01*
X66489047Y-108652761D01*
X66536666Y-108605142D01*
X66584285Y-108509904D01*
X66584285Y-108271809D01*
X66536666Y-108176571D01*
X66489047Y-108128952D01*
X66393809Y-108081333D01*
X66203333Y-108081333D01*
X66108095Y-108128952D01*
X66060476Y-108176571D01*
X66012857Y-108271809D01*
X106597333Y-93269380D02*
X106121142Y-93269380D01*
X106121142Y-92269380D01*
X107454476Y-93269380D02*
X106883047Y-93269380D01*
X107168761Y-93269380D02*
X107168761Y-92269380D01*
X107073523Y-92412238D01*
X106978285Y-92507476D01*
X106883047Y-92555095D01*
X106597333Y-104191380D02*
X106121142Y-104191380D01*
X106121142Y-103191380D01*
X106883047Y-103286619D02*
X106930666Y-103239000D01*
X107025904Y-103191380D01*
X107264000Y-103191380D01*
X107359238Y-103239000D01*
X107406857Y-103286619D01*
X107454476Y-103381857D01*
X107454476Y-103477095D01*
X107406857Y-103619952D01*
X106835428Y-104191380D01*
X107454476Y-104191380D01*
X86269476Y-119574380D02*
X86936142Y-120574380D01*
X86936142Y-119574380D02*
X86269476Y-120574380D01*
X87840904Y-120574380D02*
X87269476Y-120574380D01*
X87555190Y-120574380D02*
X87555190Y-119574380D01*
X87459952Y-119717238D01*
X87364714Y-119812476D01*
X87269476Y-119860095D01*
X92111476Y-119574380D02*
X92778142Y-120574380D01*
X92778142Y-119574380D02*
X92111476Y-120574380D01*
X93111476Y-119669619D02*
X93159095Y-119622000D01*
X93254333Y-119574380D01*
X93492428Y-119574380D01*
X93587666Y-119622000D01*
X93635285Y-119669619D01*
X93682904Y-119764857D01*
X93682904Y-119860095D01*
X93635285Y-120002952D01*
X93063857Y-120574380D01*
X93682904Y-120574380D01*
X63023809Y-71976190D02*
X63023809Y-72452380D01*
X62690476Y-71452380D02*
X63023809Y-71976190D01*
X63357142Y-71452380D01*
X64214285Y-72452380D02*
X63642857Y-72452380D01*
X63928571Y-72452380D02*
X63928571Y-71452380D01*
X63833333Y-71595238D01*
X63738095Y-71690476D01*
X63642857Y-71738095D01*
X116066809Y-72156190D02*
X116066809Y-72632380D01*
X115733476Y-71632380D02*
X116066809Y-72156190D01*
X116400142Y-71632380D01*
X116685857Y-71727619D02*
X116733476Y-71680000D01*
X116828714Y-71632380D01*
X117066809Y-71632380D01*
X117162047Y-71680000D01*
X117209666Y-71727619D01*
X117257285Y-71822857D01*
X117257285Y-71918095D01*
X117209666Y-72060952D01*
X116638238Y-72632380D01*
X117257285Y-72632380D01*
X100945904Y-92634380D02*
X100945904Y-91634380D01*
X101184000Y-91634380D01*
X101326857Y-91682000D01*
X101422095Y-91777238D01*
X101469714Y-91872476D01*
X101517333Y-92062952D01*
X101517333Y-92205809D01*
X101469714Y-92396285D01*
X101422095Y-92491523D01*
X101326857Y-92586761D01*
X101184000Y-92634380D01*
X100945904Y-92634380D01*
X102469714Y-92634380D02*
X101898285Y-92634380D01*
X102184000Y-92634380D02*
X102184000Y-91634380D01*
X102088761Y-91777238D01*
X101993523Y-91872476D01*
X101898285Y-91920095D01*
X100945904Y-111938380D02*
X100945904Y-110938380D01*
X101184000Y-110938380D01*
X101326857Y-110986000D01*
X101422095Y-111081238D01*
X101469714Y-111176476D01*
X101517333Y-111366952D01*
X101517333Y-111509809D01*
X101469714Y-111700285D01*
X101422095Y-111795523D01*
X101326857Y-111890761D01*
X101184000Y-111938380D01*
X100945904Y-111938380D01*
X101898285Y-111033619D02*
X101945904Y-110986000D01*
X102041142Y-110938380D01*
X102279238Y-110938380D01*
X102374476Y-110986000D01*
X102422095Y-111033619D01*
X102469714Y-111128857D01*
X102469714Y-111224095D01*
X102422095Y-111366952D01*
X101850666Y-111938380D01*
X102469714Y-111938380D01*
X95421333Y-112446380D02*
X95088000Y-111970190D01*
X94849904Y-112446380D02*
X94849904Y-111446380D01*
X95230857Y-111446380D01*
X95326095Y-111494000D01*
X95373714Y-111541619D01*
X95421333Y-111636857D01*
X95421333Y-111779714D01*
X95373714Y-111874952D01*
X95326095Y-111922571D01*
X95230857Y-111970190D01*
X94849904Y-111970190D01*
X95754666Y-111446380D02*
X96421333Y-111446380D01*
X95992761Y-112446380D01*
X68529142Y-94158380D02*
X68195809Y-93682190D01*
X67957714Y-94158380D02*
X67957714Y-93158380D01*
X68338666Y-93158380D01*
X68433904Y-93206000D01*
X68481523Y-93253619D01*
X68529142Y-93348857D01*
X68529142Y-93491714D01*
X68481523Y-93586952D01*
X68433904Y-93634571D01*
X68338666Y-93682190D01*
X67957714Y-93682190D01*
X69481523Y-94158380D02*
X68910095Y-94158380D01*
X69195809Y-94158380D02*
X69195809Y-93158380D01*
X69100571Y-93301238D01*
X69005333Y-93396476D01*
X68910095Y-93444095D01*
X69957714Y-94158380D02*
X70148190Y-94158380D01*
X70243428Y-94110761D01*
X70291047Y-94063142D01*
X70386285Y-93920285D01*
X70433904Y-93729809D01*
X70433904Y-93348857D01*
X70386285Y-93253619D01*
X70338666Y-93206000D01*
X70243428Y-93158380D01*
X70052952Y-93158380D01*
X69957714Y-93206000D01*
X69910095Y-93253619D01*
X69862476Y-93348857D01*
X69862476Y-93586952D01*
X69910095Y-93682190D01*
X69957714Y-93729809D01*
X70052952Y-93777428D01*
X70243428Y-93777428D01*
X70338666Y-93729809D01*
X70386285Y-93682190D01*
X70433904Y-93586952D01*
X71831142Y-89650380D02*
X71497809Y-89174190D01*
X71259714Y-89650380D02*
X71259714Y-88650380D01*
X71640666Y-88650380D01*
X71735904Y-88698000D01*
X71783523Y-88745619D01*
X71831142Y-88840857D01*
X71831142Y-88983714D01*
X71783523Y-89078952D01*
X71735904Y-89126571D01*
X71640666Y-89174190D01*
X71259714Y-89174190D01*
X72783523Y-89650380D02*
X72212095Y-89650380D01*
X72497809Y-89650380D02*
X72497809Y-88650380D01*
X72402571Y-88793238D01*
X72307333Y-88888476D01*
X72212095Y-88936095D01*
X73354952Y-89078952D02*
X73259714Y-89031333D01*
X73212095Y-88983714D01*
X73164476Y-88888476D01*
X73164476Y-88840857D01*
X73212095Y-88745619D01*
X73259714Y-88698000D01*
X73354952Y-88650380D01*
X73545428Y-88650380D01*
X73640666Y-88698000D01*
X73688285Y-88745619D01*
X73735904Y-88840857D01*
X73735904Y-88888476D01*
X73688285Y-88983714D01*
X73640666Y-89031333D01*
X73545428Y-89078952D01*
X73354952Y-89078952D01*
X73259714Y-89126571D01*
X73212095Y-89174190D01*
X73164476Y-89269428D01*
X73164476Y-89459904D01*
X73212095Y-89555142D01*
X73259714Y-89602761D01*
X73354952Y-89650380D01*
X73545428Y-89650380D01*
X73640666Y-89602761D01*
X73688285Y-89555142D01*
X73735904Y-89459904D01*
X73735904Y-89269428D01*
X73688285Y-89174190D01*
X73640666Y-89126571D01*
X73545428Y-89078952D01*
X71577142Y-94063142D02*
X71529523Y-94110761D01*
X71386666Y-94158380D01*
X71291428Y-94158380D01*
X71148571Y-94110761D01*
X71053333Y-94015523D01*
X71005714Y-93920285D01*
X70958095Y-93729809D01*
X70958095Y-93586952D01*
X71005714Y-93396476D01*
X71053333Y-93301238D01*
X71148571Y-93206000D01*
X71291428Y-93158380D01*
X71386666Y-93158380D01*
X71529523Y-93206000D01*
X71577142Y-93253619D01*
X71958095Y-93253619D02*
X72005714Y-93206000D01*
X72100952Y-93158380D01*
X72339047Y-93158380D01*
X72434285Y-93206000D01*
X72481904Y-93253619D01*
X72529523Y-93348857D01*
X72529523Y-93444095D01*
X72481904Y-93586952D01*
X71910476Y-94158380D01*
X72529523Y-94158380D01*
X73100952Y-93586952D02*
X73005714Y-93539333D01*
X72958095Y-93491714D01*
X72910476Y-93396476D01*
X72910476Y-93348857D01*
X72958095Y-93253619D01*
X73005714Y-93206000D01*
X73100952Y-93158380D01*
X73291428Y-93158380D01*
X73386666Y-93206000D01*
X73434285Y-93253619D01*
X73481904Y-93348857D01*
X73481904Y-93396476D01*
X73434285Y-93491714D01*
X73386666Y-93539333D01*
X73291428Y-93586952D01*
X73100952Y-93586952D01*
X73005714Y-93634571D01*
X72958095Y-93682190D01*
X72910476Y-93777428D01*
X72910476Y-93967904D01*
X72958095Y-94063142D01*
X73005714Y-94110761D01*
X73100952Y-94158380D01*
X73291428Y-94158380D01*
X73386666Y-94110761D01*
X73434285Y-94063142D01*
X73481904Y-93967904D01*
X73481904Y-93777428D01*
X73434285Y-93682190D01*
X73386666Y-93634571D01*
X73291428Y-93586952D01*
X95707142Y-150769142D02*
X95659523Y-150816761D01*
X95516666Y-150864380D01*
X95421428Y-150864380D01*
X95278571Y-150816761D01*
X95183333Y-150721523D01*
X95135714Y-150626285D01*
X95088095Y-150435809D01*
X95088095Y-150292952D01*
X95135714Y-150102476D01*
X95183333Y-150007238D01*
X95278571Y-149912000D01*
X95421428Y-149864380D01*
X95516666Y-149864380D01*
X95659523Y-149912000D01*
X95707142Y-149959619D01*
X96088095Y-149959619D02*
X96135714Y-149912000D01*
X96230952Y-149864380D01*
X96469047Y-149864380D01*
X96564285Y-149912000D01*
X96611904Y-149959619D01*
X96659523Y-150054857D01*
X96659523Y-150150095D01*
X96611904Y-150292952D01*
X96040476Y-150864380D01*
X96659523Y-150864380D01*
X96992857Y-149864380D02*
X97659523Y-149864380D01*
X97230952Y-150864380D01*
X90119142Y-107525142D02*
X90071523Y-107572761D01*
X89928666Y-107620380D01*
X89833428Y-107620380D01*
X89690571Y-107572761D01*
X89595333Y-107477523D01*
X89547714Y-107382285D01*
X89500095Y-107191809D01*
X89500095Y-107048952D01*
X89547714Y-106858476D01*
X89595333Y-106763238D01*
X89690571Y-106668000D01*
X89833428Y-106620380D01*
X89928666Y-106620380D01*
X90071523Y-106668000D01*
X90119142Y-106715619D01*
X90500095Y-106715619D02*
X90547714Y-106668000D01*
X90642952Y-106620380D01*
X90881047Y-106620380D01*
X90976285Y-106668000D01*
X91023904Y-106715619D01*
X91071523Y-106810857D01*
X91071523Y-106906095D01*
X91023904Y-107048952D01*
X90452476Y-107620380D01*
X91071523Y-107620380D01*
X91928666Y-106620380D02*
X91738190Y-106620380D01*
X91642952Y-106668000D01*
X91595333Y-106715619D01*
X91500095Y-106858476D01*
X91452476Y-107048952D01*
X91452476Y-107429904D01*
X91500095Y-107525142D01*
X91547714Y-107572761D01*
X91642952Y-107620380D01*
X91833428Y-107620380D01*
X91928666Y-107572761D01*
X91976285Y-107525142D01*
X92023904Y-107429904D01*
X92023904Y-107191809D01*
X91976285Y-107096571D01*
X91928666Y-107048952D01*
X91833428Y-107001333D01*
X91642952Y-107001333D01*
X91547714Y-107048952D01*
X91500095Y-107096571D01*
X91452476Y-107191809D01*
X108407142Y-126448142D02*
X108359523Y-126495761D01*
X108216666Y-126543380D01*
X108121428Y-126543380D01*
X107978571Y-126495761D01*
X107883333Y-126400523D01*
X107835714Y-126305285D01*
X107788095Y-126114809D01*
X107788095Y-125971952D01*
X107835714Y-125781476D01*
X107883333Y-125686238D01*
X107978571Y-125591000D01*
X108121428Y-125543380D01*
X108216666Y-125543380D01*
X108359523Y-125591000D01*
X108407142Y-125638619D01*
X108788095Y-125638619D02*
X108835714Y-125591000D01*
X108930952Y-125543380D01*
X109169047Y-125543380D01*
X109264285Y-125591000D01*
X109311904Y-125638619D01*
X109359523Y-125733857D01*
X109359523Y-125829095D01*
X109311904Y-125971952D01*
X108740476Y-126543380D01*
X109359523Y-126543380D01*
X110264285Y-125543380D02*
X109788095Y-125543380D01*
X109740476Y-126019571D01*
X109788095Y-125971952D01*
X109883333Y-125924333D01*
X110121428Y-125924333D01*
X110216666Y-125971952D01*
X110264285Y-126019571D01*
X110311904Y-126114809D01*
X110311904Y-126352904D01*
X110264285Y-126448142D01*
X110216666Y-126495761D01*
X110121428Y-126543380D01*
X109883333Y-126543380D01*
X109788095Y-126495761D01*
X109740476Y-126448142D01*
X70688142Y-132163142D02*
X70640523Y-132210761D01*
X70497666Y-132258380D01*
X70402428Y-132258380D01*
X70259571Y-132210761D01*
X70164333Y-132115523D01*
X70116714Y-132020285D01*
X70069095Y-131829809D01*
X70069095Y-131686952D01*
X70116714Y-131496476D01*
X70164333Y-131401238D01*
X70259571Y-131306000D01*
X70402428Y-131258380D01*
X70497666Y-131258380D01*
X70640523Y-131306000D01*
X70688142Y-131353619D01*
X71069095Y-131353619D02*
X71116714Y-131306000D01*
X71211952Y-131258380D01*
X71450047Y-131258380D01*
X71545285Y-131306000D01*
X71592904Y-131353619D01*
X71640523Y-131448857D01*
X71640523Y-131544095D01*
X71592904Y-131686952D01*
X71021476Y-132258380D01*
X71640523Y-132258380D01*
X72497666Y-131591714D02*
X72497666Y-132258380D01*
X72259571Y-131210761D02*
X72021476Y-131925047D01*
X72640523Y-131925047D01*
X71831142Y-110319142D02*
X71783523Y-110366761D01*
X71640666Y-110414380D01*
X71545428Y-110414380D01*
X71402571Y-110366761D01*
X71307333Y-110271523D01*
X71259714Y-110176285D01*
X71212095Y-109985809D01*
X71212095Y-109842952D01*
X71259714Y-109652476D01*
X71307333Y-109557238D01*
X71402571Y-109462000D01*
X71545428Y-109414380D01*
X71640666Y-109414380D01*
X71783523Y-109462000D01*
X71831142Y-109509619D01*
X72212095Y-109509619D02*
X72259714Y-109462000D01*
X72354952Y-109414380D01*
X72593047Y-109414380D01*
X72688285Y-109462000D01*
X72735904Y-109509619D01*
X72783523Y-109604857D01*
X72783523Y-109700095D01*
X72735904Y-109842952D01*
X72164476Y-110414380D01*
X72783523Y-110414380D01*
X73116857Y-109414380D02*
X73735904Y-109414380D01*
X73402571Y-109795333D01*
X73545428Y-109795333D01*
X73640666Y-109842952D01*
X73688285Y-109890571D01*
X73735904Y-109985809D01*
X73735904Y-110223904D01*
X73688285Y-110319142D01*
X73640666Y-110366761D01*
X73545428Y-110414380D01*
X73259714Y-110414380D01*
X73164476Y-110366761D01*
X73116857Y-110319142D01*
X82753142Y-140196380D02*
X82419809Y-139720190D01*
X82181714Y-140196380D02*
X82181714Y-139196380D01*
X82562666Y-139196380D01*
X82657904Y-139244000D01*
X82705523Y-139291619D01*
X82753142Y-139386857D01*
X82753142Y-139529714D01*
X82705523Y-139624952D01*
X82657904Y-139672571D01*
X82562666Y-139720190D01*
X82181714Y-139720190D01*
X83705523Y-140196380D02*
X83134095Y-140196380D01*
X83419809Y-140196380D02*
X83419809Y-139196380D01*
X83324571Y-139339238D01*
X83229333Y-139434476D01*
X83134095Y-139482095D01*
X84038857Y-139196380D02*
X84705523Y-139196380D01*
X84276952Y-140196380D01*
X88087142Y-145022380D02*
X87753809Y-144546190D01*
X87515714Y-145022380D02*
X87515714Y-144022380D01*
X87896666Y-144022380D01*
X87991904Y-144070000D01*
X88039523Y-144117619D01*
X88087142Y-144212857D01*
X88087142Y-144355714D01*
X88039523Y-144450952D01*
X87991904Y-144498571D01*
X87896666Y-144546190D01*
X87515714Y-144546190D01*
X89039523Y-145022380D02*
X88468095Y-145022380D01*
X88753809Y-145022380D02*
X88753809Y-144022380D01*
X88658571Y-144165238D01*
X88563333Y-144260476D01*
X88468095Y-144308095D01*
X89896666Y-144022380D02*
X89706190Y-144022380D01*
X89610952Y-144070000D01*
X89563333Y-144117619D01*
X89468095Y-144260476D01*
X89420476Y-144450952D01*
X89420476Y-144831904D01*
X89468095Y-144927142D01*
X89515714Y-144974761D01*
X89610952Y-145022380D01*
X89801428Y-145022380D01*
X89896666Y-144974761D01*
X89944285Y-144927142D01*
X89991904Y-144831904D01*
X89991904Y-144593809D01*
X89944285Y-144498571D01*
X89896666Y-144450952D01*
X89801428Y-144403333D01*
X89610952Y-144403333D01*
X89515714Y-144450952D01*
X89468095Y-144498571D01*
X89420476Y-144593809D01*
X69037142Y-100127380D02*
X68703809Y-99651190D01*
X68465714Y-100127380D02*
X68465714Y-99127380D01*
X68846666Y-99127380D01*
X68941904Y-99175000D01*
X68989523Y-99222619D01*
X69037142Y-99317857D01*
X69037142Y-99460714D01*
X68989523Y-99555952D01*
X68941904Y-99603571D01*
X68846666Y-99651190D01*
X68465714Y-99651190D01*
X69989523Y-100127380D02*
X69418095Y-100127380D01*
X69703809Y-100127380D02*
X69703809Y-99127380D01*
X69608571Y-99270238D01*
X69513333Y-99365476D01*
X69418095Y-99413095D01*
X70894285Y-99127380D02*
X70418095Y-99127380D01*
X70370476Y-99603571D01*
X70418095Y-99555952D01*
X70513333Y-99508333D01*
X70751428Y-99508333D01*
X70846666Y-99555952D01*
X70894285Y-99603571D01*
X70941904Y-99698809D01*
X70941904Y-99936904D01*
X70894285Y-100032142D01*
X70846666Y-100079761D01*
X70751428Y-100127380D01*
X70513333Y-100127380D01*
X70418095Y-100079761D01*
X70370476Y-100032142D01*
X85293142Y-144927142D02*
X85245523Y-144974761D01*
X85102666Y-145022380D01*
X85007428Y-145022380D01*
X84864571Y-144974761D01*
X84769333Y-144879523D01*
X84721714Y-144784285D01*
X84674095Y-144593809D01*
X84674095Y-144450952D01*
X84721714Y-144260476D01*
X84769333Y-144165238D01*
X84864571Y-144070000D01*
X85007428Y-144022380D01*
X85102666Y-144022380D01*
X85245523Y-144070000D01*
X85293142Y-144117619D01*
X85674095Y-144117619D02*
X85721714Y-144070000D01*
X85816952Y-144022380D01*
X86055047Y-144022380D01*
X86150285Y-144070000D01*
X86197904Y-144117619D01*
X86245523Y-144212857D01*
X86245523Y-144308095D01*
X86197904Y-144450952D01*
X85626476Y-145022380D01*
X86245523Y-145022380D01*
X86626476Y-144117619D02*
X86674095Y-144070000D01*
X86769333Y-144022380D01*
X87007428Y-144022380D01*
X87102666Y-144070000D01*
X87150285Y-144117619D01*
X87197904Y-144212857D01*
X87197904Y-144308095D01*
X87150285Y-144450952D01*
X86578857Y-145022380D01*
X87197904Y-145022380D01*
X89865142Y-136735142D02*
X89817523Y-136782761D01*
X89674666Y-136830380D01*
X89579428Y-136830380D01*
X89436571Y-136782761D01*
X89341333Y-136687523D01*
X89293714Y-136592285D01*
X89246095Y-136401809D01*
X89246095Y-136258952D01*
X89293714Y-136068476D01*
X89341333Y-135973238D01*
X89436571Y-135878000D01*
X89579428Y-135830380D01*
X89674666Y-135830380D01*
X89817523Y-135878000D01*
X89865142Y-135925619D01*
X90246095Y-135925619D02*
X90293714Y-135878000D01*
X90388952Y-135830380D01*
X90627047Y-135830380D01*
X90722285Y-135878000D01*
X90769904Y-135925619D01*
X90817523Y-136020857D01*
X90817523Y-136116095D01*
X90769904Y-136258952D01*
X90198476Y-136830380D01*
X90817523Y-136830380D01*
X91769904Y-136830380D02*
X91198476Y-136830380D01*
X91484190Y-136830380D02*
X91484190Y-135830380D01*
X91388952Y-135973238D01*
X91293714Y-136068476D01*
X91198476Y-136116095D01*
X68656142Y-110319142D02*
X68608523Y-110366761D01*
X68465666Y-110414380D01*
X68370428Y-110414380D01*
X68227571Y-110366761D01*
X68132333Y-110271523D01*
X68084714Y-110176285D01*
X68037095Y-109985809D01*
X68037095Y-109842952D01*
X68084714Y-109652476D01*
X68132333Y-109557238D01*
X68227571Y-109462000D01*
X68370428Y-109414380D01*
X68465666Y-109414380D01*
X68608523Y-109462000D01*
X68656142Y-109509619D01*
X69037095Y-109509619D02*
X69084714Y-109462000D01*
X69179952Y-109414380D01*
X69418047Y-109414380D01*
X69513285Y-109462000D01*
X69560904Y-109509619D01*
X69608523Y-109604857D01*
X69608523Y-109700095D01*
X69560904Y-109842952D01*
X68989476Y-110414380D01*
X69608523Y-110414380D01*
X70227571Y-109414380D02*
X70322809Y-109414380D01*
X70418047Y-109462000D01*
X70465666Y-109509619D01*
X70513285Y-109604857D01*
X70560904Y-109795333D01*
X70560904Y-110033428D01*
X70513285Y-110223904D01*
X70465666Y-110319142D01*
X70418047Y-110366761D01*
X70322809Y-110414380D01*
X70227571Y-110414380D01*
X70132333Y-110366761D01*
X70084714Y-110319142D01*
X70037095Y-110223904D01*
X69989476Y-110033428D01*
X69989476Y-109795333D01*
X70037095Y-109604857D01*
X70084714Y-109509619D01*
X70132333Y-109462000D01*
X70227571Y-109414380D01*
X97485142Y-134576142D02*
X97437523Y-134623761D01*
X97294666Y-134671380D01*
X97199428Y-134671380D01*
X97056571Y-134623761D01*
X96961333Y-134528523D01*
X96913714Y-134433285D01*
X96866095Y-134242809D01*
X96866095Y-134099952D01*
X96913714Y-133909476D01*
X96961333Y-133814238D01*
X97056571Y-133719000D01*
X97199428Y-133671380D01*
X97294666Y-133671380D01*
X97437523Y-133719000D01*
X97485142Y-133766619D01*
X98437523Y-134671380D02*
X97866095Y-134671380D01*
X98151809Y-134671380D02*
X98151809Y-133671380D01*
X98056571Y-133814238D01*
X97961333Y-133909476D01*
X97866095Y-133957095D01*
X99008952Y-134099952D02*
X98913714Y-134052333D01*
X98866095Y-134004714D01*
X98818476Y-133909476D01*
X98818476Y-133861857D01*
X98866095Y-133766619D01*
X98913714Y-133719000D01*
X99008952Y-133671380D01*
X99199428Y-133671380D01*
X99294666Y-133719000D01*
X99342285Y-133766619D01*
X99389904Y-133861857D01*
X99389904Y-133909476D01*
X99342285Y-134004714D01*
X99294666Y-134052333D01*
X99199428Y-134099952D01*
X99008952Y-134099952D01*
X98913714Y-134147571D01*
X98866095Y-134195190D01*
X98818476Y-134290428D01*
X98818476Y-134480904D01*
X98866095Y-134576142D01*
X98913714Y-134623761D01*
X99008952Y-134671380D01*
X99199428Y-134671380D01*
X99294666Y-134623761D01*
X99342285Y-134576142D01*
X99389904Y-134480904D01*
X99389904Y-134290428D01*
X99342285Y-134195190D01*
X99294666Y-134147571D01*
X99199428Y-134099952D01*
X98247142Y-119844142D02*
X98199523Y-119891761D01*
X98056666Y-119939380D01*
X97961428Y-119939380D01*
X97818571Y-119891761D01*
X97723333Y-119796523D01*
X97675714Y-119701285D01*
X97628095Y-119510809D01*
X97628095Y-119367952D01*
X97675714Y-119177476D01*
X97723333Y-119082238D01*
X97818571Y-118987000D01*
X97961428Y-118939380D01*
X98056666Y-118939380D01*
X98199523Y-118987000D01*
X98247142Y-119034619D01*
X99199523Y-119939380D02*
X98628095Y-119939380D01*
X98913809Y-119939380D02*
X98913809Y-118939380D01*
X98818571Y-119082238D01*
X98723333Y-119177476D01*
X98628095Y-119225095D01*
X99532857Y-118939380D02*
X100199523Y-118939380D01*
X99770952Y-119939380D01*
X81102142Y-134703142D02*
X81054523Y-134750761D01*
X80911666Y-134798380D01*
X80816428Y-134798380D01*
X80673571Y-134750761D01*
X80578333Y-134655523D01*
X80530714Y-134560285D01*
X80483095Y-134369809D01*
X80483095Y-134226952D01*
X80530714Y-134036476D01*
X80578333Y-133941238D01*
X80673571Y-133846000D01*
X80816428Y-133798380D01*
X80911666Y-133798380D01*
X81054523Y-133846000D01*
X81102142Y-133893619D01*
X82054523Y-134798380D02*
X81483095Y-134798380D01*
X81768809Y-134798380D02*
X81768809Y-133798380D01*
X81673571Y-133941238D01*
X81578333Y-134036476D01*
X81483095Y-134084095D01*
X82911666Y-133798380D02*
X82721190Y-133798380D01*
X82625952Y-133846000D01*
X82578333Y-133893619D01*
X82483095Y-134036476D01*
X82435476Y-134226952D01*
X82435476Y-134607904D01*
X82483095Y-134703142D01*
X82530714Y-134750761D01*
X82625952Y-134798380D01*
X82816428Y-134798380D01*
X82911666Y-134750761D01*
X82959285Y-134703142D01*
X83006904Y-134607904D01*
X83006904Y-134369809D01*
X82959285Y-134274571D01*
X82911666Y-134226952D01*
X82816428Y-134179333D01*
X82625952Y-134179333D01*
X82530714Y-134226952D01*
X82483095Y-134274571D01*
X82435476Y-134369809D01*
X77165142Y-117685142D02*
X77117523Y-117732761D01*
X76974666Y-117780380D01*
X76879428Y-117780380D01*
X76736571Y-117732761D01*
X76641333Y-117637523D01*
X76593714Y-117542285D01*
X76546095Y-117351809D01*
X76546095Y-117208952D01*
X76593714Y-117018476D01*
X76641333Y-116923238D01*
X76736571Y-116828000D01*
X76879428Y-116780380D01*
X76974666Y-116780380D01*
X77117523Y-116828000D01*
X77165142Y-116875619D01*
X78117523Y-117780380D02*
X77546095Y-117780380D01*
X77831809Y-117780380D02*
X77831809Y-116780380D01*
X77736571Y-116923238D01*
X77641333Y-117018476D01*
X77546095Y-117066095D01*
X79022285Y-116780380D02*
X78546095Y-116780380D01*
X78498476Y-117256571D01*
X78546095Y-117208952D01*
X78641333Y-117161333D01*
X78879428Y-117161333D01*
X78974666Y-117208952D01*
X79022285Y-117256571D01*
X79069904Y-117351809D01*
X79069904Y-117589904D01*
X79022285Y-117685142D01*
X78974666Y-117732761D01*
X78879428Y-117780380D01*
X78641333Y-117780380D01*
X78546095Y-117732761D01*
X78498476Y-117685142D01*
X86817142Y-110573142D02*
X86769523Y-110620761D01*
X86626666Y-110668380D01*
X86531428Y-110668380D01*
X86388571Y-110620761D01*
X86293333Y-110525523D01*
X86245714Y-110430285D01*
X86198095Y-110239809D01*
X86198095Y-110096952D01*
X86245714Y-109906476D01*
X86293333Y-109811238D01*
X86388571Y-109716000D01*
X86531428Y-109668380D01*
X86626666Y-109668380D01*
X86769523Y-109716000D01*
X86817142Y-109763619D01*
X87769523Y-110668380D02*
X87198095Y-110668380D01*
X87483809Y-110668380D02*
X87483809Y-109668380D01*
X87388571Y-109811238D01*
X87293333Y-109906476D01*
X87198095Y-109954095D01*
X88102857Y-109668380D02*
X88721904Y-109668380D01*
X88388571Y-110049333D01*
X88531428Y-110049333D01*
X88626666Y-110096952D01*
X88674285Y-110144571D01*
X88721904Y-110239809D01*
X88721904Y-110477904D01*
X88674285Y-110573142D01*
X88626666Y-110620761D01*
X88531428Y-110668380D01*
X88245714Y-110668380D01*
X88150476Y-110620761D01*
X88102857Y-110573142D01*
X97485142Y-112351142D02*
X97437523Y-112398761D01*
X97294666Y-112446380D01*
X97199428Y-112446380D01*
X97056571Y-112398761D01*
X96961333Y-112303523D01*
X96913714Y-112208285D01*
X96866095Y-112017809D01*
X96866095Y-111874952D01*
X96913714Y-111684476D01*
X96961333Y-111589238D01*
X97056571Y-111494000D01*
X97199428Y-111446380D01*
X97294666Y-111446380D01*
X97437523Y-111494000D01*
X97485142Y-111541619D01*
X98437523Y-112446380D02*
X97866095Y-112446380D01*
X98151809Y-112446380D02*
X98151809Y-111446380D01*
X98056571Y-111589238D01*
X97961333Y-111684476D01*
X97866095Y-111732095D01*
X98818476Y-111541619D02*
X98866095Y-111494000D01*
X98961333Y-111446380D01*
X99199428Y-111446380D01*
X99294666Y-111494000D01*
X99342285Y-111541619D01*
X99389904Y-111636857D01*
X99389904Y-111732095D01*
X99342285Y-111874952D01*
X98770857Y-112446380D01*
X99389904Y-112446380D01*
X97485142Y-102699142D02*
X97437523Y-102746761D01*
X97294666Y-102794380D01*
X97199428Y-102794380D01*
X97056571Y-102746761D01*
X96961333Y-102651523D01*
X96913714Y-102556285D01*
X96866095Y-102365809D01*
X96866095Y-102222952D01*
X96913714Y-102032476D01*
X96961333Y-101937238D01*
X97056571Y-101842000D01*
X97199428Y-101794380D01*
X97294666Y-101794380D01*
X97437523Y-101842000D01*
X97485142Y-101889619D01*
X98437523Y-102794380D02*
X97866095Y-102794380D01*
X98151809Y-102794380D02*
X98151809Y-101794380D01*
X98056571Y-101937238D01*
X97961333Y-102032476D01*
X97866095Y-102080095D01*
X99389904Y-102794380D02*
X98818476Y-102794380D01*
X99104190Y-102794380D02*
X99104190Y-101794380D01*
X99008952Y-101937238D01*
X98913714Y-102032476D01*
X98818476Y-102080095D01*
X92405142Y-102699142D02*
X92357523Y-102746761D01*
X92214666Y-102794380D01*
X92119428Y-102794380D01*
X91976571Y-102746761D01*
X91881333Y-102651523D01*
X91833714Y-102556285D01*
X91786095Y-102365809D01*
X91786095Y-102222952D01*
X91833714Y-102032476D01*
X91881333Y-101937238D01*
X91976571Y-101842000D01*
X92119428Y-101794380D01*
X92214666Y-101794380D01*
X92357523Y-101842000D01*
X92405142Y-101889619D01*
X93357523Y-102794380D02*
X92786095Y-102794380D01*
X93071809Y-102794380D02*
X93071809Y-101794380D01*
X92976571Y-101937238D01*
X92881333Y-102032476D01*
X92786095Y-102080095D01*
X93976571Y-101794380D02*
X94071809Y-101794380D01*
X94167047Y-101842000D01*
X94214666Y-101889619D01*
X94262285Y-101984857D01*
X94309904Y-102175333D01*
X94309904Y-102413428D01*
X94262285Y-102603904D01*
X94214666Y-102699142D01*
X94167047Y-102746761D01*
X94071809Y-102794380D01*
X93976571Y-102794380D01*
X93881333Y-102746761D01*
X93833714Y-102699142D01*
X93786095Y-102603904D01*
X93738476Y-102413428D01*
X93738476Y-102175333D01*
X93786095Y-101984857D01*
X93833714Y-101889619D01*
X93881333Y-101842000D01*
X93976571Y-101794380D01*
X95421333Y-102699142D02*
X95373714Y-102746761D01*
X95230857Y-102794380D01*
X95135619Y-102794380D01*
X94992761Y-102746761D01*
X94897523Y-102651523D01*
X94849904Y-102556285D01*
X94802285Y-102365809D01*
X94802285Y-102222952D01*
X94849904Y-102032476D01*
X94897523Y-101937238D01*
X94992761Y-101842000D01*
X95135619Y-101794380D01*
X95230857Y-101794380D01*
X95373714Y-101842000D01*
X95421333Y-101889619D01*
X95897523Y-102794380D02*
X96088000Y-102794380D01*
X96183238Y-102746761D01*
X96230857Y-102699142D01*
X96326095Y-102556285D01*
X96373714Y-102365809D01*
X96373714Y-101984857D01*
X96326095Y-101889619D01*
X96278476Y-101842000D01*
X96183238Y-101794380D01*
X95992761Y-101794380D01*
X95897523Y-101842000D01*
X95849904Y-101889619D01*
X95802285Y-101984857D01*
X95802285Y-102222952D01*
X95849904Y-102318190D01*
X95897523Y-102365809D01*
X95992761Y-102413428D01*
X96183238Y-102413428D01*
X96278476Y-102365809D01*
X96326095Y-102318190D01*
X96373714Y-102222952D01*
X100501333Y-102699142D02*
X100453714Y-102746761D01*
X100310857Y-102794380D01*
X100215619Y-102794380D01*
X100072761Y-102746761D01*
X99977523Y-102651523D01*
X99929904Y-102556285D01*
X99882285Y-102365809D01*
X99882285Y-102222952D01*
X99929904Y-102032476D01*
X99977523Y-101937238D01*
X100072761Y-101842000D01*
X100215619Y-101794380D01*
X100310857Y-101794380D01*
X100453714Y-101842000D01*
X100501333Y-101889619D01*
X101072761Y-102222952D02*
X100977523Y-102175333D01*
X100929904Y-102127714D01*
X100882285Y-102032476D01*
X100882285Y-101984857D01*
X100929904Y-101889619D01*
X100977523Y-101842000D01*
X101072761Y-101794380D01*
X101263238Y-101794380D01*
X101358476Y-101842000D01*
X101406095Y-101889619D01*
X101453714Y-101984857D01*
X101453714Y-102032476D01*
X101406095Y-102127714D01*
X101358476Y-102175333D01*
X101263238Y-102222952D01*
X101072761Y-102222952D01*
X100977523Y-102270571D01*
X100929904Y-102318190D01*
X100882285Y-102413428D01*
X100882285Y-102603904D01*
X100929904Y-102699142D01*
X100977523Y-102746761D01*
X101072761Y-102794380D01*
X101263238Y-102794380D01*
X101358476Y-102746761D01*
X101406095Y-102699142D01*
X101453714Y-102603904D01*
X101453714Y-102413428D01*
X101406095Y-102318190D01*
X101358476Y-102270571D01*
X101263238Y-102222952D01*
X89198333Y-103588142D02*
X89150714Y-103635761D01*
X89007857Y-103683380D01*
X88912619Y-103683380D01*
X88769761Y-103635761D01*
X88674523Y-103540523D01*
X88626904Y-103445285D01*
X88579285Y-103254809D01*
X88579285Y-103111952D01*
X88626904Y-102921476D01*
X88674523Y-102826238D01*
X88769761Y-102731000D01*
X88912619Y-102683380D01*
X89007857Y-102683380D01*
X89150714Y-102731000D01*
X89198333Y-102778619D01*
X90055476Y-102683380D02*
X89865000Y-102683380D01*
X89769761Y-102731000D01*
X89722142Y-102778619D01*
X89626904Y-102921476D01*
X89579285Y-103111952D01*
X89579285Y-103492904D01*
X89626904Y-103588142D01*
X89674523Y-103635761D01*
X89769761Y-103683380D01*
X89960238Y-103683380D01*
X90055476Y-103635761D01*
X90103095Y-103588142D01*
X90150714Y-103492904D01*
X90150714Y-103254809D01*
X90103095Y-103159571D01*
X90055476Y-103111952D01*
X89960238Y-103064333D01*
X89769761Y-103064333D01*
X89674523Y-103111952D01*
X89626904Y-103159571D01*
X89579285Y-103254809D01*
X95294333Y-91904142D02*
X95246714Y-91951761D01*
X95103857Y-91999380D01*
X95008619Y-91999380D01*
X94865761Y-91951761D01*
X94770523Y-91856523D01*
X94722904Y-91761285D01*
X94675285Y-91570809D01*
X94675285Y-91427952D01*
X94722904Y-91237476D01*
X94770523Y-91142238D01*
X94865761Y-91047000D01*
X95008619Y-90999380D01*
X95103857Y-90999380D01*
X95246714Y-91047000D01*
X95294333Y-91094619D01*
X96199095Y-90999380D02*
X95722904Y-90999380D01*
X95675285Y-91475571D01*
X95722904Y-91427952D01*
X95818142Y-91380333D01*
X96056238Y-91380333D01*
X96151476Y-91427952D01*
X96199095Y-91475571D01*
X96246714Y-91570809D01*
X96246714Y-91808904D01*
X96199095Y-91904142D01*
X96151476Y-91951761D01*
X96056238Y-91999380D01*
X95818142Y-91999380D01*
X95722904Y-91951761D01*
X95675285Y-91904142D01*
X97961333Y-101429142D02*
X97913714Y-101476761D01*
X97770857Y-101524380D01*
X97675619Y-101524380D01*
X97532761Y-101476761D01*
X97437523Y-101381523D01*
X97389904Y-101286285D01*
X97342285Y-101095809D01*
X97342285Y-100952952D01*
X97389904Y-100762476D01*
X97437523Y-100667238D01*
X97532761Y-100572000D01*
X97675619Y-100524380D01*
X97770857Y-100524380D01*
X97913714Y-100572000D01*
X97961333Y-100619619D01*
X98818476Y-100857714D02*
X98818476Y-101524380D01*
X98580380Y-100476761D02*
X98342285Y-101191047D01*
X98961333Y-101191047D01*
X92881333Y-101429142D02*
X92833714Y-101476761D01*
X92690857Y-101524380D01*
X92595619Y-101524380D01*
X92452761Y-101476761D01*
X92357523Y-101381523D01*
X92309904Y-101286285D01*
X92262285Y-101095809D01*
X92262285Y-100952952D01*
X92309904Y-100762476D01*
X92357523Y-100667238D01*
X92452761Y-100572000D01*
X92595619Y-100524380D01*
X92690857Y-100524380D01*
X92833714Y-100572000D01*
X92881333Y-100619619D01*
X93214666Y-100524380D02*
X93833714Y-100524380D01*
X93500380Y-100905333D01*
X93643238Y-100905333D01*
X93738476Y-100952952D01*
X93786095Y-101000571D01*
X93833714Y-101095809D01*
X93833714Y-101333904D01*
X93786095Y-101429142D01*
X93738476Y-101476761D01*
X93643238Y-101524380D01*
X93357523Y-101524380D01*
X93262285Y-101476761D01*
X93214666Y-101429142D01*
X95421333Y-101429142D02*
X95373714Y-101476761D01*
X95230857Y-101524380D01*
X95135619Y-101524380D01*
X94992761Y-101476761D01*
X94897523Y-101381523D01*
X94849904Y-101286285D01*
X94802285Y-101095809D01*
X94802285Y-100952952D01*
X94849904Y-100762476D01*
X94897523Y-100667238D01*
X94992761Y-100572000D01*
X95135619Y-100524380D01*
X95230857Y-100524380D01*
X95373714Y-100572000D01*
X95421333Y-100619619D01*
X95802285Y-100619619D02*
X95849904Y-100572000D01*
X95945142Y-100524380D01*
X96183238Y-100524380D01*
X96278476Y-100572000D01*
X96326095Y-100619619D01*
X96373714Y-100714857D01*
X96373714Y-100810095D01*
X96326095Y-100952952D01*
X95754666Y-101524380D01*
X96373714Y-101524380D01*
X100501333Y-101429142D02*
X100453714Y-101476761D01*
X100310857Y-101524380D01*
X100215619Y-101524380D01*
X100072761Y-101476761D01*
X99977523Y-101381523D01*
X99929904Y-101286285D01*
X99882285Y-101095809D01*
X99882285Y-100952952D01*
X99929904Y-100762476D01*
X99977523Y-100667238D01*
X100072761Y-100572000D01*
X100215619Y-100524380D01*
X100310857Y-100524380D01*
X100453714Y-100572000D01*
X100501333Y-100619619D01*
X101453714Y-101524380D02*
X100882285Y-101524380D01*
X101168000Y-101524380D02*
X101168000Y-100524380D01*
X101072761Y-100667238D01*
X100977523Y-100762476D01*
X100882285Y-100810095D01*
X104978142Y-134671380D02*
X104644809Y-134195190D01*
X104406714Y-134671380D02*
X104406714Y-133671380D01*
X104787666Y-133671380D01*
X104882904Y-133719000D01*
X104930523Y-133766619D01*
X104978142Y-133861857D01*
X104978142Y-134004714D01*
X104930523Y-134099952D01*
X104882904Y-134147571D01*
X104787666Y-134195190D01*
X104406714Y-134195190D01*
X105930523Y-134671380D02*
X105359095Y-134671380D01*
X105644809Y-134671380D02*
X105644809Y-133671380D01*
X105549571Y-133814238D01*
X105454333Y-133909476D01*
X105359095Y-133957095D01*
X106787666Y-134004714D02*
X106787666Y-134671380D01*
X106549571Y-133623761D02*
X106311476Y-134338047D01*
X106930523Y-134338047D01*
X107772142Y-124638380D02*
X107438809Y-124162190D01*
X107200714Y-124638380D02*
X107200714Y-123638380D01*
X107581666Y-123638380D01*
X107676904Y-123686000D01*
X107724523Y-123733619D01*
X107772142Y-123828857D01*
X107772142Y-123971714D01*
X107724523Y-124066952D01*
X107676904Y-124114571D01*
X107581666Y-124162190D01*
X107200714Y-124162190D01*
X108724523Y-124638380D02*
X108153095Y-124638380D01*
X108438809Y-124638380D02*
X108438809Y-123638380D01*
X108343571Y-123781238D01*
X108248333Y-123876476D01*
X108153095Y-123924095D01*
X109057857Y-123638380D02*
X109676904Y-123638380D01*
X109343571Y-124019333D01*
X109486428Y-124019333D01*
X109581666Y-124066952D01*
X109629285Y-124114571D01*
X109676904Y-124209809D01*
X109676904Y-124447904D01*
X109629285Y-124543142D01*
X109581666Y-124590761D01*
X109486428Y-124638380D01*
X109200714Y-124638380D01*
X109105476Y-124590761D01*
X109057857Y-124543142D01*
X73736142Y-134798380D02*
X73402809Y-134322190D01*
X73164714Y-134798380D02*
X73164714Y-133798380D01*
X73545666Y-133798380D01*
X73640904Y-133846000D01*
X73688523Y-133893619D01*
X73736142Y-133988857D01*
X73736142Y-134131714D01*
X73688523Y-134226952D01*
X73640904Y-134274571D01*
X73545666Y-134322190D01*
X73164714Y-134322190D01*
X74688523Y-134798380D02*
X74117095Y-134798380D01*
X74402809Y-134798380D02*
X74402809Y-133798380D01*
X74307571Y-133941238D01*
X74212333Y-134036476D01*
X74117095Y-134084095D01*
X75069476Y-133893619D02*
X75117095Y-133846000D01*
X75212333Y-133798380D01*
X75450428Y-133798380D01*
X75545666Y-133846000D01*
X75593285Y-133893619D01*
X75640904Y-133988857D01*
X75640904Y-134084095D01*
X75593285Y-134226952D01*
X75021857Y-134798380D01*
X75640904Y-134798380D01*
X80721142Y-119622380D02*
X80387809Y-119146190D01*
X80149714Y-119622380D02*
X80149714Y-118622380D01*
X80530666Y-118622380D01*
X80625904Y-118670000D01*
X80673523Y-118717619D01*
X80721142Y-118812857D01*
X80721142Y-118955714D01*
X80673523Y-119050952D01*
X80625904Y-119098571D01*
X80530666Y-119146190D01*
X80149714Y-119146190D01*
X81673523Y-119622380D02*
X81102095Y-119622380D01*
X81387809Y-119622380D02*
X81387809Y-118622380D01*
X81292571Y-118765238D01*
X81197333Y-118860476D01*
X81102095Y-118908095D01*
X82625904Y-119622380D02*
X82054476Y-119622380D01*
X82340190Y-119622380D02*
X82340190Y-118622380D01*
X82244952Y-118765238D01*
X82149714Y-118860476D01*
X82054476Y-118908095D01*
X83737333Y-110541380D02*
X83404000Y-110065190D01*
X83165904Y-110541380D02*
X83165904Y-109541380D01*
X83546857Y-109541380D01*
X83642095Y-109589000D01*
X83689714Y-109636619D01*
X83737333Y-109731857D01*
X83737333Y-109874714D01*
X83689714Y-109969952D01*
X83642095Y-110017571D01*
X83546857Y-110065190D01*
X83165904Y-110065190D01*
X84308761Y-109969952D02*
X84213523Y-109922333D01*
X84165904Y-109874714D01*
X84118285Y-109779476D01*
X84118285Y-109731857D01*
X84165904Y-109636619D01*
X84213523Y-109589000D01*
X84308761Y-109541380D01*
X84499238Y-109541380D01*
X84594476Y-109589000D01*
X84642095Y-109636619D01*
X84689714Y-109731857D01*
X84689714Y-109779476D01*
X84642095Y-109874714D01*
X84594476Y-109922333D01*
X84499238Y-109969952D01*
X84308761Y-109969952D01*
X84213523Y-110017571D01*
X84165904Y-110065190D01*
X84118285Y-110160428D01*
X84118285Y-110350904D01*
X84165904Y-110446142D01*
X84213523Y-110493761D01*
X84308761Y-110541380D01*
X84499238Y-110541380D01*
X84594476Y-110493761D01*
X84642095Y-110446142D01*
X84689714Y-110350904D01*
X84689714Y-110160428D01*
X84642095Y-110065190D01*
X84594476Y-110017571D01*
X84499238Y-109969952D01*
X89325333Y-97714380D02*
X88992000Y-97238190D01*
X88753904Y-97714380D02*
X88753904Y-96714380D01*
X89134857Y-96714380D01*
X89230095Y-96762000D01*
X89277714Y-96809619D01*
X89325333Y-96904857D01*
X89325333Y-97047714D01*
X89277714Y-97142952D01*
X89230095Y-97190571D01*
X89134857Y-97238190D01*
X88753904Y-97238190D01*
X90182476Y-96714380D02*
X89992000Y-96714380D01*
X89896761Y-96762000D01*
X89849142Y-96809619D01*
X89753904Y-96952476D01*
X89706285Y-97142952D01*
X89706285Y-97523904D01*
X89753904Y-97619142D01*
X89801523Y-97666761D01*
X89896761Y-97714380D01*
X90087238Y-97714380D01*
X90182476Y-97666761D01*
X90230095Y-97619142D01*
X90277714Y-97523904D01*
X90277714Y-97285809D01*
X90230095Y-97190571D01*
X90182476Y-97142952D01*
X90087238Y-97095333D01*
X89896761Y-97095333D01*
X89801523Y-97142952D01*
X89753904Y-97190571D01*
X89706285Y-97285809D01*
X84753333Y-100508380D02*
X84420000Y-100032190D01*
X84181904Y-100508380D02*
X84181904Y-99508380D01*
X84562857Y-99508380D01*
X84658095Y-99556000D01*
X84705714Y-99603619D01*
X84753333Y-99698857D01*
X84753333Y-99841714D01*
X84705714Y-99936952D01*
X84658095Y-99984571D01*
X84562857Y-100032190D01*
X84181904Y-100032190D01*
X85658095Y-99508380D02*
X85181904Y-99508380D01*
X85134285Y-99984571D01*
X85181904Y-99936952D01*
X85277142Y-99889333D01*
X85515238Y-99889333D01*
X85610476Y-99936952D01*
X85658095Y-99984571D01*
X85705714Y-100079809D01*
X85705714Y-100317904D01*
X85658095Y-100413142D01*
X85610476Y-100460761D01*
X85515238Y-100508380D01*
X85277142Y-100508380D01*
X85181904Y-100460761D01*
X85134285Y-100413142D01*
X82848333Y-102413380D02*
X82515000Y-101937190D01*
X82276904Y-102413380D02*
X82276904Y-101413380D01*
X82657857Y-101413380D01*
X82753095Y-101461000D01*
X82800714Y-101508619D01*
X82848333Y-101603857D01*
X82848333Y-101746714D01*
X82800714Y-101841952D01*
X82753095Y-101889571D01*
X82657857Y-101937190D01*
X82276904Y-101937190D01*
X83705476Y-101746714D02*
X83705476Y-102413380D01*
X83467380Y-101365761D02*
X83229285Y-102080047D01*
X83848333Y-102080047D01*
X92881333Y-91999380D02*
X92548000Y-91523190D01*
X92309904Y-91999380D02*
X92309904Y-90999380D01*
X92690857Y-90999380D01*
X92786095Y-91047000D01*
X92833714Y-91094619D01*
X92881333Y-91189857D01*
X92881333Y-91332714D01*
X92833714Y-91427952D01*
X92786095Y-91475571D01*
X92690857Y-91523190D01*
X92309904Y-91523190D01*
X93214666Y-90999380D02*
X93833714Y-90999380D01*
X93500380Y-91380333D01*
X93643238Y-91380333D01*
X93738476Y-91427952D01*
X93786095Y-91475571D01*
X93833714Y-91570809D01*
X93833714Y-91808904D01*
X93786095Y-91904142D01*
X93738476Y-91951761D01*
X93643238Y-91999380D01*
X93357523Y-91999380D01*
X93262285Y-91951761D01*
X93214666Y-91904142D01*
X81197333Y-88824380D02*
X80864000Y-88348190D01*
X80625904Y-88824380D02*
X80625904Y-87824380D01*
X81006857Y-87824380D01*
X81102095Y-87872000D01*
X81149714Y-87919619D01*
X81197333Y-88014857D01*
X81197333Y-88157714D01*
X81149714Y-88252952D01*
X81102095Y-88300571D01*
X81006857Y-88348190D01*
X80625904Y-88348190D01*
X82149714Y-88824380D02*
X81578285Y-88824380D01*
X81864000Y-88824380D02*
X81864000Y-87824380D01*
X81768761Y-87967238D01*
X81673523Y-88062476D01*
X81578285Y-88110095D01*
X84626333Y-92253380D02*
X84293000Y-91777190D01*
X84054904Y-92253380D02*
X84054904Y-91253380D01*
X84435857Y-91253380D01*
X84531095Y-91301000D01*
X84578714Y-91348619D01*
X84626333Y-91443857D01*
X84626333Y-91586714D01*
X84578714Y-91681952D01*
X84531095Y-91729571D01*
X84435857Y-91777190D01*
X84054904Y-91777190D01*
X85007285Y-91348619D02*
X85054904Y-91301000D01*
X85150142Y-91253380D01*
X85388238Y-91253380D01*
X85483476Y-91301000D01*
X85531095Y-91348619D01*
X85578714Y-91443857D01*
X85578714Y-91539095D01*
X85531095Y-91681952D01*
X84959666Y-92253380D01*
X85578714Y-92253380D01*
X75641142Y-151467142D02*
X75593523Y-151514761D01*
X75450666Y-151562380D01*
X75355428Y-151562380D01*
X75212571Y-151514761D01*
X75117333Y-151419523D01*
X75069714Y-151324285D01*
X75022095Y-151133809D01*
X75022095Y-150990952D01*
X75069714Y-150800476D01*
X75117333Y-150705238D01*
X75212571Y-150610000D01*
X75355428Y-150562380D01*
X75450666Y-150562380D01*
X75593523Y-150610000D01*
X75641142Y-150657619D01*
X76022095Y-150657619D02*
X76069714Y-150610000D01*
X76164952Y-150562380D01*
X76403047Y-150562380D01*
X76498285Y-150610000D01*
X76545904Y-150657619D01*
X76593523Y-150752857D01*
X76593523Y-150848095D01*
X76545904Y-150990952D01*
X75974476Y-151562380D01*
X76593523Y-151562380D01*
X77069714Y-151562380D02*
X77260190Y-151562380D01*
X77355428Y-151514761D01*
X77403047Y-151467142D01*
X77498285Y-151324285D01*
X77545904Y-151133809D01*
X77545904Y-150752857D01*
X77498285Y-150657619D01*
X77450666Y-150610000D01*
X77355428Y-150562380D01*
X77164952Y-150562380D01*
X77069714Y-150610000D01*
X77022095Y-150657619D01*
X76974476Y-150752857D01*
X76974476Y-150990952D01*
X77022095Y-151086190D01*
X77069714Y-151133809D01*
X77164952Y-151181428D01*
X77355428Y-151181428D01*
X77450666Y-151133809D01*
X77498285Y-151086190D01*
X77545904Y-150990952D01*
X71966095Y-103572380D02*
X71966095Y-104381904D01*
X72013714Y-104477142D01*
X72061333Y-104524761D01*
X72156571Y-104572380D01*
X72347047Y-104572380D01*
X72442285Y-104524761D01*
X72489904Y-104477142D01*
X72537523Y-104381904D01*
X72537523Y-103572380D01*
X72918476Y-103572380D02*
X73585142Y-103572380D01*
X73156571Y-104572380D01*
X82957095Y-111294380D02*
X82957095Y-112103904D01*
X83004714Y-112199142D01*
X83052333Y-112246761D01*
X83147571Y-112294380D01*
X83338047Y-112294380D01*
X83433285Y-112246761D01*
X83480904Y-112199142D01*
X83528523Y-112103904D01*
X83528523Y-111294380D01*
X84433285Y-111627714D02*
X84433285Y-112294380D01*
X84195190Y-111246761D02*
X83957095Y-111961047D01*
X84576142Y-111961047D01*
X71204095Y-124908380D02*
X71204095Y-125717904D01*
X71251714Y-125813142D01*
X71299333Y-125860761D01*
X71394571Y-125908380D01*
X71585047Y-125908380D01*
X71680285Y-125860761D01*
X71727904Y-125813142D01*
X71775523Y-125717904D01*
X71775523Y-124908380D01*
X72204095Y-125003619D02*
X72251714Y-124956000D01*
X72346952Y-124908380D01*
X72585047Y-124908380D01*
X72680285Y-124956000D01*
X72727904Y-125003619D01*
X72775523Y-125098857D01*
X72775523Y-125194095D01*
X72727904Y-125336952D01*
X72156476Y-125908380D01*
X72775523Y-125908380D01*
X96921595Y-123320880D02*
X96921595Y-124130404D01*
X96969214Y-124225642D01*
X97016833Y-124273261D01*
X97112071Y-124320880D01*
X97302547Y-124320880D01*
X97397785Y-124273261D01*
X97445404Y-124225642D01*
X97493023Y-124130404D01*
X97493023Y-123320880D01*
X97873976Y-123320880D02*
X98493023Y-123320880D01*
X98159690Y-123701833D01*
X98302547Y-123701833D01*
X98397785Y-123749452D01*
X98445404Y-123797071D01*
X98493023Y-123892309D01*
X98493023Y-124130404D01*
X98445404Y-124225642D01*
X98397785Y-124273261D01*
X98302547Y-124320880D01*
X98016833Y-124320880D01*
X97921595Y-124273261D01*
X97873976Y-124225642D01*
X95715095Y-142561380D02*
X95715095Y-143370904D01*
X95762714Y-143466142D01*
X95810333Y-143513761D01*
X95905571Y-143561380D01*
X96096047Y-143561380D01*
X96191285Y-143513761D01*
X96238904Y-143466142D01*
X96286523Y-143370904D01*
X96286523Y-142561380D01*
X97191285Y-142561380D02*
X97000809Y-142561380D01*
X96905571Y-142609000D01*
X96857952Y-142656619D01*
X96762714Y-142799476D01*
X96715095Y-142989952D01*
X96715095Y-143370904D01*
X96762714Y-143466142D01*
X96810333Y-143513761D01*
X96905571Y-143561380D01*
X97096047Y-143561380D01*
X97191285Y-143513761D01*
X97238904Y-143466142D01*
X97286523Y-143370904D01*
X97286523Y-143132809D01*
X97238904Y-143037571D01*
X97191285Y-142989952D01*
X97096047Y-142942333D01*
X96905571Y-142942333D01*
X96810333Y-142989952D01*
X96762714Y-143037571D01*
X96715095Y-143132809D01*
X66124095Y-125988380D02*
X66124095Y-126797904D01*
X66171714Y-126893142D01*
X66219333Y-126940761D01*
X66314571Y-126988380D01*
X66505047Y-126988380D01*
X66600285Y-126940761D01*
X66647904Y-126893142D01*
X66695523Y-126797904D01*
X66695523Y-125988380D01*
X67314571Y-126416952D02*
X67219333Y-126369333D01*
X67171714Y-126321714D01*
X67124095Y-126226476D01*
X67124095Y-126178857D01*
X67171714Y-126083619D01*
X67219333Y-126036000D01*
X67314571Y-125988380D01*
X67505047Y-125988380D01*
X67600285Y-126036000D01*
X67647904Y-126083619D01*
X67695523Y-126178857D01*
X67695523Y-126226476D01*
X67647904Y-126321714D01*
X67600285Y-126369333D01*
X67505047Y-126416952D01*
X67314571Y-126416952D01*
X67219333Y-126464571D01*
X67171714Y-126512190D01*
X67124095Y-126607428D01*
X67124095Y-126797904D01*
X67171714Y-126893142D01*
X67219333Y-126940761D01*
X67314571Y-126988380D01*
X67505047Y-126988380D01*
X67600285Y-126940761D01*
X67647904Y-126893142D01*
X67695523Y-126797904D01*
X67695523Y-126607428D01*
X67647904Y-126512190D01*
X67600285Y-126464571D01*
X67505047Y-126416952D01*
X103470095Y-79633380D02*
X104041523Y-79633380D01*
X103755809Y-80633380D02*
X103755809Y-79633380D01*
X104374857Y-80633380D02*
X104374857Y-79633380D01*
X104755809Y-79633380D01*
X104851047Y-79681000D01*
X104898666Y-79728619D01*
X104946285Y-79823857D01*
X104946285Y-79966714D01*
X104898666Y-80061952D01*
X104851047Y-80109571D01*
X104755809Y-80157190D01*
X104374857Y-80157190D01*
X105279619Y-79633380D02*
X105946285Y-79633380D01*
X105517714Y-80633380D01*
X74260095Y-79633380D02*
X74831523Y-79633380D01*
X74545809Y-80633380D02*
X74545809Y-79633380D01*
X75164857Y-80633380D02*
X75164857Y-79633380D01*
X75545809Y-79633380D01*
X75641047Y-79681000D01*
X75688666Y-79728619D01*
X75736285Y-79823857D01*
X75736285Y-79966714D01*
X75688666Y-80061952D01*
X75641047Y-80109571D01*
X75545809Y-80157190D01*
X75164857Y-80157190D01*
X76593428Y-79633380D02*
X76402952Y-79633380D01*
X76307714Y-79681000D01*
X76260095Y-79728619D01*
X76164857Y-79871476D01*
X76117238Y-80061952D01*
X76117238Y-80442904D01*
X76164857Y-80538142D01*
X76212476Y-80585761D01*
X76307714Y-80633380D01*
X76498190Y-80633380D01*
X76593428Y-80585761D01*
X76641047Y-80538142D01*
X76688666Y-80442904D01*
X76688666Y-80204809D01*
X76641047Y-80109571D01*
X76593428Y-80061952D01*
X76498190Y-80014333D01*
X76307714Y-80014333D01*
X76212476Y-80061952D01*
X76164857Y-80109571D01*
X76117238Y-80204809D01*
X89896904Y-156261380D02*
X89896904Y-155261380D01*
X90277857Y-155261380D01*
X90373095Y-155309000D01*
X90420714Y-155356619D01*
X90468333Y-155451857D01*
X90468333Y-155594714D01*
X90420714Y-155689952D01*
X90373095Y-155737571D01*
X90277857Y-155785190D01*
X89896904Y-155785190D01*
X91325476Y-155261380D02*
X91135000Y-155261380D01*
X91039761Y-155309000D01*
X90992142Y-155356619D01*
X90896904Y-155499476D01*
X90849285Y-155689952D01*
X90849285Y-156070904D01*
X90896904Y-156166142D01*
X90944523Y-156213761D01*
X91039761Y-156261380D01*
X91230238Y-156261380D01*
X91325476Y-156213761D01*
X91373095Y-156166142D01*
X91420714Y-156070904D01*
X91420714Y-155832809D01*
X91373095Y-155737571D01*
X91325476Y-155689952D01*
X91230238Y-155642333D01*
X91039761Y-155642333D01*
X90944523Y-155689952D01*
X90896904Y-155737571D01*
X90849285Y-155832809D01*
X92436904Y-156261380D02*
X92436904Y-155261380D01*
X92817857Y-155261380D01*
X92913095Y-155309000D01*
X92960714Y-155356619D01*
X93008333Y-155451857D01*
X93008333Y-155594714D01*
X92960714Y-155689952D01*
X92913095Y-155737571D01*
X92817857Y-155785190D01*
X92436904Y-155785190D01*
X93913095Y-155261380D02*
X93436904Y-155261380D01*
X93389285Y-155737571D01*
X93436904Y-155689952D01*
X93532142Y-155642333D01*
X93770238Y-155642333D01*
X93865476Y-155689952D01*
X93913095Y-155737571D01*
X93960714Y-155832809D01*
X93960714Y-156070904D01*
X93913095Y-156166142D01*
X93865476Y-156213761D01*
X93770238Y-156261380D01*
X93532142Y-156261380D01*
X93436904Y-156213761D01*
X93389285Y-156166142D01*
X113653809Y-90063190D02*
X113653809Y-90539380D01*
X113320476Y-89539380D02*
X113653809Y-90063190D01*
X113987142Y-89539380D01*
X114225238Y-89539380D02*
X114844285Y-89539380D01*
X114510952Y-89920333D01*
X114653809Y-89920333D01*
X114749047Y-89967952D01*
X114796666Y-90015571D01*
X114844285Y-90110809D01*
X114844285Y-90348904D01*
X114796666Y-90444142D01*
X114749047Y-90491761D01*
X114653809Y-90539380D01*
X114368095Y-90539380D01*
X114272857Y-90491761D01*
X114225238Y-90444142D01*
X113653809Y-111907190D02*
X113653809Y-112383380D01*
X113320476Y-111383380D02*
X113653809Y-111907190D01*
X113987142Y-111383380D01*
X114749047Y-111716714D02*
X114749047Y-112383380D01*
X114510952Y-111335761D02*
X114272857Y-112050047D01*
X114891904Y-112050047D01*
X65266809Y-90317190D02*
X65266809Y-90793380D01*
X64933476Y-89793380D02*
X65266809Y-90317190D01*
X65600142Y-89793380D01*
X66409666Y-89793380D02*
X65933476Y-89793380D01*
X65885857Y-90269571D01*
X65933476Y-90221952D01*
X66028714Y-90174333D01*
X66266809Y-90174333D01*
X66362047Y-90221952D01*
X66409666Y-90269571D01*
X66457285Y-90364809D01*
X66457285Y-90602904D01*
X66409666Y-90698142D01*
X66362047Y-90745761D01*
X66266809Y-90793380D01*
X66028714Y-90793380D01*
X65933476Y-90745761D01*
X65885857Y-90698142D01*
X103041333Y-102699142D02*
X102993714Y-102746761D01*
X102850857Y-102794380D01*
X102755619Y-102794380D01*
X102612761Y-102746761D01*
X102517523Y-102651523D01*
X102469904Y-102556285D01*
X102422285Y-102365809D01*
X102422285Y-102222952D01*
X102469904Y-102032476D01*
X102517523Y-101937238D01*
X102612761Y-101842000D01*
X102755619Y-101794380D01*
X102850857Y-101794380D01*
X102993714Y-101842000D01*
X103041333Y-101889619D01*
X103374666Y-101794380D02*
X104041333Y-101794380D01*
X103612761Y-102794380D01*
X102565142Y-101429142D02*
X102517523Y-101476761D01*
X102374666Y-101524380D01*
X102279428Y-101524380D01*
X102136571Y-101476761D01*
X102041333Y-101381523D01*
X101993714Y-101286285D01*
X101946095Y-101095809D01*
X101946095Y-100952952D01*
X101993714Y-100762476D01*
X102041333Y-100667238D01*
X102136571Y-100572000D01*
X102279428Y-100524380D01*
X102374666Y-100524380D01*
X102517523Y-100572000D01*
X102565142Y-100619619D01*
X103517523Y-101524380D02*
X102946095Y-101524380D01*
X103231809Y-101524380D02*
X103231809Y-100524380D01*
X103136571Y-100667238D01*
X103041333Y-100762476D01*
X102946095Y-100810095D01*
X104374666Y-100857714D02*
X104374666Y-101524380D01*
X104136571Y-100476761D02*
X103898476Y-101191047D01*
X104517523Y-101191047D01*
X120876905Y-157532000D02*
X120781667Y-157484380D01*
X120638810Y-157484380D01*
X120495953Y-157532000D01*
X120400715Y-157627238D01*
X120353096Y-157722476D01*
X120305477Y-157912952D01*
X120305477Y-158055809D01*
X120353096Y-158246285D01*
X120400715Y-158341523D01*
X120495953Y-158436761D01*
X120638810Y-158484380D01*
X120734048Y-158484380D01*
X120876905Y-158436761D01*
X120924524Y-158389142D01*
X120924524Y-158055809D01*
X120734048Y-158055809D01*
X121924524Y-158484380D02*
X121591191Y-158008190D01*
X121353096Y-158484380D02*
X121353096Y-157484380D01*
X121734048Y-157484380D01*
X121829286Y-157532000D01*
X121876905Y-157579619D01*
X121924524Y-157674857D01*
X121924524Y-157817714D01*
X121876905Y-157912952D01*
X121829286Y-157960571D01*
X121734048Y-158008190D01*
X121353096Y-158008190D01*
X122543572Y-157484380D02*
X122734048Y-157484380D01*
X122829286Y-157532000D01*
X122924524Y-157627238D01*
X122972143Y-157817714D01*
X122972143Y-158151047D01*
X122924524Y-158341523D01*
X122829286Y-158436761D01*
X122734048Y-158484380D01*
X122543572Y-158484380D01*
X122448334Y-158436761D01*
X122353096Y-158341523D01*
X122305477Y-158151047D01*
X122305477Y-157817714D01*
X122353096Y-157627238D01*
X122448334Y-157532000D01*
X122543572Y-157484380D01*
X123400715Y-157484380D02*
X123400715Y-158293904D01*
X123448334Y-158389142D01*
X123495953Y-158436761D01*
X123591191Y-158484380D01*
X123781667Y-158484380D01*
X123876905Y-158436761D01*
X123924524Y-158389142D01*
X123972143Y-158293904D01*
X123972143Y-157484380D01*
X124448334Y-158484380D02*
X124448334Y-157484380D01*
X125019762Y-158484380D01*
X125019762Y-157484380D01*
X125495953Y-158484380D02*
X125495953Y-157484380D01*
X125734048Y-157484380D01*
X125876905Y-157532000D01*
X125972143Y-157627238D01*
X126019762Y-157722476D01*
X126067381Y-157912952D01*
X126067381Y-158055809D01*
X126019762Y-158246285D01*
X125972143Y-158341523D01*
X125876905Y-158436761D01*
X125734048Y-158484380D01*
X125495953Y-158484380D01*
X127019762Y-158484380D02*
X126448334Y-158484380D01*
X126734048Y-158484380D02*
X126734048Y-157484380D01*
X126638810Y-157627238D01*
X126543572Y-157722476D01*
X126448334Y-157770095D01*
X123551904Y-108192380D02*
X123551904Y-107192380D01*
X123932857Y-107192380D01*
X124028095Y-107240000D01*
X124075714Y-107287619D01*
X124123333Y-107382857D01*
X124123333Y-107525714D01*
X124075714Y-107620952D01*
X124028095Y-107668571D01*
X123932857Y-107716190D01*
X123551904Y-107716190D01*
X124456666Y-107192380D02*
X125123333Y-107192380D01*
X124694761Y-108192380D01*
X57257904Y-118606380D02*
X57257904Y-117606380D01*
X57638857Y-117606380D01*
X57734095Y-117654000D01*
X57781714Y-117701619D01*
X57829333Y-117796857D01*
X57829333Y-117939714D01*
X57781714Y-118034952D01*
X57734095Y-118082571D01*
X57638857Y-118130190D01*
X57257904Y-118130190D01*
X58400761Y-118034952D02*
X58305523Y-117987333D01*
X58257904Y-117939714D01*
X58210285Y-117844476D01*
X58210285Y-117796857D01*
X58257904Y-117701619D01*
X58305523Y-117654000D01*
X58400761Y-117606380D01*
X58591238Y-117606380D01*
X58686476Y-117654000D01*
X58734095Y-117701619D01*
X58781714Y-117796857D01*
X58781714Y-117844476D01*
X58734095Y-117939714D01*
X58686476Y-117987333D01*
X58591238Y-118034952D01*
X58400761Y-118034952D01*
X58305523Y-118082571D01*
X58257904Y-118130190D01*
X58210285Y-118225428D01*
X58210285Y-118415904D01*
X58257904Y-118511142D01*
X58305523Y-118558761D01*
X58400761Y-118606380D01*
X58591238Y-118606380D01*
X58686476Y-118558761D01*
X58734095Y-118511142D01*
X58781714Y-118415904D01*
X58781714Y-118225428D01*
X58734095Y-118130190D01*
X58686476Y-118082571D01*
X58591238Y-118034952D01*
X57257904Y-115812380D02*
X57257904Y-114812380D01*
X57638857Y-114812380D01*
X57734095Y-114860000D01*
X57781714Y-114907619D01*
X57829333Y-115002857D01*
X57829333Y-115145714D01*
X57781714Y-115240952D01*
X57734095Y-115288571D01*
X57638857Y-115336190D01*
X57257904Y-115336190D01*
X58305523Y-115812380D02*
X58496000Y-115812380D01*
X58591238Y-115764761D01*
X58638857Y-115717142D01*
X58734095Y-115574285D01*
X58781714Y-115383809D01*
X58781714Y-115002857D01*
X58734095Y-114907619D01*
X58686476Y-114860000D01*
X58591238Y-114812380D01*
X58400761Y-114812380D01*
X58305523Y-114860000D01*
X58257904Y-114907619D01*
X58210285Y-115002857D01*
X58210285Y-115240952D01*
X58257904Y-115336190D01*
X58305523Y-115383809D01*
X58400761Y-115431428D01*
X58591238Y-115431428D01*
X58686476Y-115383809D01*
X58734095Y-115336190D01*
X58781714Y-115240952D01*
X56757809Y-90444190D02*
X56757809Y-90920380D01*
X56424476Y-89920380D02*
X56757809Y-90444190D01*
X57091142Y-89920380D01*
X57567333Y-90348952D02*
X57472095Y-90301333D01*
X57424476Y-90253714D01*
X57376857Y-90158476D01*
X57376857Y-90110857D01*
X57424476Y-90015619D01*
X57472095Y-89968000D01*
X57567333Y-89920380D01*
X57757809Y-89920380D01*
X57853047Y-89968000D01*
X57900666Y-90015619D01*
X57948285Y-90110857D01*
X57948285Y-90158476D01*
X57900666Y-90253714D01*
X57853047Y-90301333D01*
X57757809Y-90348952D01*
X57567333Y-90348952D01*
X57472095Y-90396571D01*
X57424476Y-90444190D01*
X57376857Y-90539428D01*
X57376857Y-90729904D01*
X57424476Y-90825142D01*
X57472095Y-90872761D01*
X57567333Y-90920380D01*
X57757809Y-90920380D01*
X57853047Y-90872761D01*
X57900666Y-90825142D01*
X57948285Y-90729904D01*
X57948285Y-90539428D01*
X57900666Y-90444190D01*
X57853047Y-90396571D01*
X57757809Y-90348952D01*
X80125809Y-158262190D02*
X80125809Y-158738380D01*
X79792476Y-157738380D02*
X80125809Y-158262190D01*
X80459142Y-157738380D01*
X80697238Y-157738380D02*
X81363904Y-157738380D01*
X80935333Y-158738380D01*
X55392666Y-141466380D02*
X55059333Y-140990190D01*
X54821238Y-141466380D02*
X54821238Y-140466380D01*
X55202190Y-140466380D01*
X55297428Y-140514000D01*
X55345047Y-140561619D01*
X55392666Y-140656857D01*
X55392666Y-140799714D01*
X55345047Y-140894952D01*
X55297428Y-140942571D01*
X55202190Y-140990190D01*
X54821238Y-140990190D01*
X55821238Y-140942571D02*
X56154571Y-140942571D01*
X56297428Y-141466380D02*
X55821238Y-141466380D01*
X55821238Y-140466380D01*
X56297428Y-140466380D01*
X57059333Y-140942571D02*
X56726000Y-140942571D01*
X56726000Y-141466380D02*
X56726000Y-140466380D01*
X57202190Y-140466380D01*
X57726000Y-140466380D02*
X57726000Y-140704476D01*
X57487904Y-140609238D02*
X57726000Y-140704476D01*
X57964095Y-140609238D01*
X57583142Y-140894952D02*
X57726000Y-140704476D01*
X57868857Y-140894952D01*
X58487904Y-140466380D02*
X58487904Y-140704476D01*
X58249809Y-140609238D02*
X58487904Y-140704476D01*
X58726000Y-140609238D01*
X58345047Y-140894952D02*
X58487904Y-140704476D01*
X58630761Y-140894952D01*
X121178666Y-139434380D02*
X120845333Y-138958190D01*
X120607238Y-139434380D02*
X120607238Y-138434380D01*
X120988190Y-138434380D01*
X121083428Y-138482000D01*
X121131047Y-138529619D01*
X121178666Y-138624857D01*
X121178666Y-138767714D01*
X121131047Y-138862952D01*
X121083428Y-138910571D01*
X120988190Y-138958190D01*
X120607238Y-138958190D01*
X121607238Y-138910571D02*
X121940571Y-138910571D01*
X122083428Y-139434380D02*
X121607238Y-139434380D01*
X121607238Y-138434380D01*
X122083428Y-138434380D01*
X122845333Y-138910571D02*
X122512000Y-138910571D01*
X122512000Y-139434380D02*
X122512000Y-138434380D01*
X122988190Y-138434380D01*
X123512000Y-138434380D02*
X123512000Y-138672476D01*
X123273904Y-138577238D02*
X123512000Y-138672476D01*
X123750095Y-138577238D01*
X123369142Y-138862952D02*
X123512000Y-138672476D01*
X123654857Y-138862952D01*
X124273904Y-138434380D02*
X124273904Y-138672476D01*
X124035809Y-138577238D02*
X124273904Y-138672476D01*
X124512000Y-138577238D01*
X124131047Y-138862952D02*
X124273904Y-138672476D01*
X124416761Y-138862952D01*
X57091238Y-64520380D02*
X57329333Y-65520380D01*
X57519809Y-64806095D01*
X57710285Y-65520380D01*
X57948380Y-64520380D01*
X58853142Y-65520380D02*
X58281714Y-65520380D01*
X58567428Y-65520380D02*
X58567428Y-64520380D01*
X58472190Y-64663238D01*
X58376952Y-64758476D01*
X58281714Y-64806095D01*
X108399238Y-163834380D02*
X108637333Y-164834380D01*
X108827809Y-164120095D01*
X109018285Y-164834380D01*
X109256380Y-163834380D01*
X109589714Y-163929619D02*
X109637333Y-163882000D01*
X109732571Y-163834380D01*
X109970666Y-163834380D01*
X110065904Y-163882000D01*
X110113523Y-163929619D01*
X110161142Y-164024857D01*
X110161142Y-164120095D01*
X110113523Y-164262952D01*
X109542095Y-164834380D01*
X110161142Y-164834380D01*
X71061238Y-119511380D02*
X71299333Y-120511380D01*
X71489809Y-119797095D01*
X71680285Y-120511380D01*
X71918380Y-119511380D01*
X72204095Y-119511380D02*
X72823142Y-119511380D01*
X72489809Y-119892333D01*
X72632666Y-119892333D01*
X72727904Y-119939952D01*
X72775523Y-119987571D01*
X72823142Y-120082809D01*
X72823142Y-120320904D01*
X72775523Y-120416142D01*
X72727904Y-120463761D01*
X72632666Y-120511380D01*
X72346952Y-120511380D01*
X72251714Y-120463761D01*
X72204095Y-120416142D01*
X109415238Y-119384380D02*
X109653333Y-120384380D01*
X109843809Y-119670095D01*
X110034285Y-120384380D01*
X110272380Y-119384380D01*
X111081904Y-119717714D02*
X111081904Y-120384380D01*
X110843809Y-119336761D02*
X110605714Y-120051047D01*
X111224761Y-120051047D01*
M02*
