G04 #@! TF.FileFunction,Copper,L1,Top,Signal*
%FSLAX46Y46*%
G04 Gerber Fmt 4.6, Leading zero omitted, Abs format (unit mm)*
G04 Created by KiCad (PCBNEW 4.1.0-alpha+201607190716+6983~46~ubuntu14.04.1-product) date Mon Jan  9 09:03:27 2017*
%MOMM*%
%LPD*%
G01*
G04 APERTURE LIST*
%ADD10C,0.100000*%
%ADD11C,0.150000*%
%ADD12C,0.300000*%
%ADD13R,0.660400X2.032000*%
%ADD14R,1.700000X1.700000*%
%ADD15R,1.930400X3.810000*%
%ADD16R,3.810000X1.930400*%
%ADD17R,2.100580X5.600700*%
%ADD18R,5.842000X5.842000*%
%ADD19R,0.800100X0.800100*%
%ADD20R,1.500000X1.295400*%
%ADD21R,1.295400X1.500000*%
%ADD22R,2.000000X2.000000*%
%ADD23C,1.000000*%
%ADD24C,1.524000*%
%ADD25R,3.200000X3.200000*%
%ADD26C,1.676400*%
%ADD27R,2.750000X2.900000*%
%ADD28R,2.550000X2.400000*%
%ADD29C,1.600000*%
%ADD30C,0.600000*%
%ADD31C,0.800000*%
%ADD32C,0.204000*%
%ADD33C,0.500000*%
G04 APERTURE END LIST*
D10*
D11*
X76070000Y-146387714D02*
X76070000Y-147197238D01*
X76022380Y-147292476D01*
X75974761Y-147340095D01*
X75879523Y-147387714D01*
X75736666Y-147387714D01*
X75641428Y-147340095D01*
X76070000Y-147006761D02*
X75974761Y-147054380D01*
X75784285Y-147054380D01*
X75689047Y-147006761D01*
X75641428Y-146959142D01*
X75593809Y-146863904D01*
X75593809Y-146578190D01*
X75641428Y-146482952D01*
X75689047Y-146435333D01*
X75784285Y-146387714D01*
X75974761Y-146387714D01*
X76070000Y-146435333D01*
X76974761Y-147054380D02*
X76974761Y-146530571D01*
X76927142Y-146435333D01*
X76831904Y-146387714D01*
X76641428Y-146387714D01*
X76546190Y-146435333D01*
X76974761Y-147006761D02*
X76879523Y-147054380D01*
X76641428Y-147054380D01*
X76546190Y-147006761D01*
X76498571Y-146911523D01*
X76498571Y-146816285D01*
X76546190Y-146721047D01*
X76641428Y-146673428D01*
X76879523Y-146673428D01*
X76974761Y-146625809D01*
X77879523Y-146387714D02*
X77879523Y-147054380D01*
X77450952Y-146387714D02*
X77450952Y-146911523D01*
X77498571Y-147006761D01*
X77593809Y-147054380D01*
X77736666Y-147054380D01*
X77831904Y-147006761D01*
X77879523Y-146959142D01*
X78784285Y-147054380D02*
X78784285Y-146054380D01*
X78784285Y-147006761D02*
X78689047Y-147054380D01*
X78498571Y-147054380D01*
X78403333Y-147006761D01*
X78355714Y-146959142D01*
X78308095Y-146863904D01*
X78308095Y-146578190D01*
X78355714Y-146482952D01*
X78403333Y-146435333D01*
X78498571Y-146387714D01*
X78689047Y-146387714D01*
X78784285Y-146435333D01*
X79260476Y-147054380D02*
X79260476Y-146387714D01*
X79260476Y-146054380D02*
X79212857Y-146102000D01*
X79260476Y-146149619D01*
X79308095Y-146102000D01*
X79260476Y-146054380D01*
X79260476Y-146149619D01*
X79736666Y-146959142D02*
X79784285Y-147006761D01*
X79736666Y-147054380D01*
X79689047Y-147006761D01*
X79736666Y-146959142D01*
X79736666Y-147054380D01*
X80641428Y-147006761D02*
X80546190Y-147054380D01*
X80355714Y-147054380D01*
X80260476Y-147006761D01*
X80212857Y-146959142D01*
X80165238Y-146863904D01*
X80165238Y-146578190D01*
X80212857Y-146482952D01*
X80260476Y-146435333D01*
X80355714Y-146387714D01*
X80546190Y-146387714D01*
X80641428Y-146435333D01*
X81070000Y-147054380D02*
X81070000Y-146054380D01*
X81498571Y-147054380D02*
X81498571Y-146530571D01*
X81450952Y-146435333D01*
X81355714Y-146387714D01*
X81212857Y-146387714D01*
X81117619Y-146435333D01*
X81070000Y-146482952D01*
D12*
X101525285Y-141168714D02*
X101453857Y-141240142D01*
X101239571Y-141311571D01*
X101096714Y-141311571D01*
X100882428Y-141240142D01*
X100739571Y-141097285D01*
X100668142Y-140954428D01*
X100596714Y-140668714D01*
X100596714Y-140454428D01*
X100668142Y-140168714D01*
X100739571Y-140025857D01*
X100882428Y-139883000D01*
X101096714Y-139811571D01*
X101239571Y-139811571D01*
X101453857Y-139883000D01*
X101525285Y-139954428D01*
X103025285Y-141168714D02*
X102953857Y-141240142D01*
X102739571Y-141311571D01*
X102596714Y-141311571D01*
X102382428Y-141240142D01*
X102239571Y-141097285D01*
X102168142Y-140954428D01*
X102096714Y-140668714D01*
X102096714Y-140454428D01*
X102168142Y-140168714D01*
X102239571Y-140025857D01*
X102382428Y-139883000D01*
X102596714Y-139811571D01*
X102739571Y-139811571D01*
X102953857Y-139883000D01*
X103025285Y-139954428D01*
D13*
X74506000Y-99573400D03*
X75776000Y-99573400D03*
X77046000Y-99573400D03*
X78316000Y-99573400D03*
X79586000Y-99573400D03*
X80856000Y-99573400D03*
X82126000Y-99573400D03*
X82126000Y-93426600D03*
X80856000Y-93426600D03*
X78316000Y-93426600D03*
X77046000Y-93426600D03*
X75776000Y-93426600D03*
X74506000Y-93426600D03*
X79586000Y-93426600D03*
D14*
X65870000Y-117900000D03*
X65870000Y-122980000D03*
X65870000Y-120440000D03*
X65870000Y-115360000D03*
X65870000Y-112820000D03*
X65870000Y-110280000D03*
D15*
X110550000Y-94500000D03*
X105950000Y-94500000D03*
D16*
X106764000Y-105630000D03*
X106764000Y-110230000D03*
D17*
X87028000Y-123817000D03*
X86952000Y-133606860D03*
X93028000Y-123817000D03*
X93048000Y-133606860D03*
D18*
X63400000Y-75850000D03*
X116600000Y-75850000D03*
D19*
X100734000Y-95468760D03*
X102634000Y-95468760D03*
X101684000Y-93469780D03*
X102634000Y-108199240D03*
X100734000Y-108199240D03*
X101684000Y-110198220D03*
D20*
X95588000Y-108377000D03*
X95588000Y-110277000D03*
X69172000Y-97450000D03*
X69172000Y-95550000D03*
D21*
X76980000Y-89134000D03*
X75080000Y-89134000D03*
D20*
X72220000Y-95550000D03*
X72220000Y-97450000D03*
D21*
X91844000Y-150348000D03*
X93744000Y-150348000D03*
X92728000Y-108819000D03*
X90828000Y-108819000D03*
D20*
X109050000Y-128062000D03*
X109050000Y-129962000D03*
X71204000Y-127808000D03*
X71204000Y-129708000D03*
X72093000Y-106218000D03*
X72093000Y-108118000D03*
D21*
X88410000Y-138156000D03*
X86510000Y-138156000D03*
D20*
X88476000Y-140762000D03*
X88476000Y-142662000D03*
X69680000Y-103165000D03*
X69680000Y-101265000D03*
X85936000Y-140762000D03*
X85936000Y-142662000D03*
D21*
X93490000Y-138156000D03*
X91590000Y-138156000D03*
D20*
X69680000Y-106218000D03*
X69680000Y-108118000D03*
X100922000Y-134666000D03*
X100922000Y-136566000D03*
X96350000Y-121072000D03*
X96350000Y-119172000D03*
X79078000Y-134666000D03*
X79078000Y-136566000D03*
D21*
X79012000Y-119106000D03*
X77112000Y-119106000D03*
D20*
X87460000Y-106472000D03*
X87460000Y-108372000D03*
X98128000Y-108377000D03*
X98128000Y-110277000D03*
X98128000Y-105832000D03*
X98128000Y-103932000D03*
X93048000Y-105832000D03*
X93048000Y-103932000D03*
X95588000Y-103932000D03*
X95588000Y-105832000D03*
X100668000Y-103932000D03*
X100668000Y-105832000D03*
X87460000Y-102154000D03*
X87460000Y-104054000D03*
X95588000Y-95164000D03*
X95588000Y-93264000D03*
X98128000Y-97582000D03*
X98128000Y-99482000D03*
X93048000Y-97582000D03*
X93048000Y-99482000D03*
X95588000Y-99482000D03*
X95588000Y-97582000D03*
X100668000Y-99482000D03*
X100668000Y-97582000D03*
X102954000Y-134666000D03*
X102954000Y-136566000D03*
X108288000Y-122342000D03*
X108288000Y-120442000D03*
X77046000Y-134666000D03*
X77046000Y-136566000D03*
X83650000Y-121072000D03*
X83650000Y-119172000D03*
X84920000Y-106472000D03*
X84920000Y-108372000D03*
X87460000Y-98212000D03*
X87460000Y-96312000D03*
X84920000Y-96312000D03*
X84920000Y-98212000D03*
X84920000Y-102154000D03*
X84920000Y-104054000D03*
X93048000Y-95164000D03*
X93048000Y-93264000D03*
D21*
X82314000Y-90023000D03*
X80414000Y-90023000D03*
X86886000Y-93452000D03*
X84986000Y-93452000D03*
D20*
X78824000Y-151298000D03*
X78824000Y-149398000D03*
D13*
X74506000Y-110073400D03*
X75776000Y-110073400D03*
X77046000Y-110073400D03*
X78316000Y-110073400D03*
X79586000Y-110073400D03*
X80856000Y-110073400D03*
X82126000Y-110073400D03*
X82126000Y-103926600D03*
X80856000Y-103926600D03*
X78316000Y-103926600D03*
X77046000Y-103926600D03*
X75776000Y-103926600D03*
X74506000Y-103926600D03*
X79586000Y-103926600D03*
X86190000Y-118115400D03*
X87460000Y-118115400D03*
X88730000Y-118115400D03*
X90000000Y-118115400D03*
X91270000Y-118115400D03*
X92540000Y-118115400D03*
X93810000Y-118115400D03*
X93810000Y-111968600D03*
X92540000Y-111968600D03*
X90000000Y-111968600D03*
X88730000Y-111968600D03*
X87460000Y-111968600D03*
X86190000Y-111968600D03*
X91270000Y-111968600D03*
X82761000Y-132136200D03*
X82761000Y-125938600D03*
X73871000Y-132085400D03*
X75141000Y-132085400D03*
X76411000Y-132085400D03*
X77681000Y-132085400D03*
X78951000Y-132085400D03*
X80221000Y-132085400D03*
X81491000Y-132085400D03*
X81491000Y-125938600D03*
X80221000Y-125938600D03*
X77681000Y-125938600D03*
X76411000Y-125938600D03*
X75141000Y-125938600D03*
X73871000Y-125938600D03*
X78951000Y-125938600D03*
X106129000Y-132136200D03*
X106129000Y-125938600D03*
X97239000Y-132085400D03*
X98509000Y-132085400D03*
X99779000Y-132085400D03*
X101049000Y-132085400D03*
X102319000Y-132085400D03*
X103589000Y-132085400D03*
X104859000Y-132085400D03*
X104859000Y-125938600D03*
X103589000Y-125938600D03*
X101049000Y-125938600D03*
X99779000Y-125938600D03*
X98509000Y-125938600D03*
X97239000Y-125938600D03*
X102319000Y-125938600D03*
X94699000Y-140924600D03*
X93429000Y-140924600D03*
X92159000Y-140924600D03*
X90889000Y-140924600D03*
X90889000Y-147071400D03*
X92159000Y-147071400D03*
X93429000Y-147071400D03*
X94699000Y-147071400D03*
X67521000Y-128986600D03*
X66251000Y-128986600D03*
X64981000Y-128986600D03*
X63711000Y-128986600D03*
X63711000Y-135133400D03*
X64981000Y-135133400D03*
X66251000Y-135133400D03*
X67521000Y-135133400D03*
D22*
X104570000Y-75850000D03*
D23*
X104570000Y-75850000D03*
D22*
X75430000Y-75850000D03*
D23*
X75430000Y-75850000D03*
D22*
X90508000Y-153904000D03*
D23*
X90508000Y-153904000D03*
D14*
X114130000Y-100120000D03*
X114130000Y-105200000D03*
X114130000Y-102660000D03*
X114130000Y-107740000D03*
D10*
G36*
X114980000Y-111130000D02*
X113280000Y-111130000D01*
X113280000Y-109430000D01*
X114980000Y-109430000D01*
X114980000Y-111130000D01*
X114980000Y-111130000D01*
G37*
D14*
X114130000Y-97580000D03*
X114130000Y-95040000D03*
X114130000Y-92500000D03*
X114130000Y-121964000D03*
X114130000Y-127044000D03*
X114130000Y-124504000D03*
X114130000Y-129584000D03*
D10*
G36*
X114980000Y-132974000D02*
X113280000Y-132974000D01*
X113280000Y-131274000D01*
X114980000Y-131274000D01*
X114980000Y-132974000D01*
X114980000Y-132974000D01*
G37*
D14*
X114130000Y-119424000D03*
X114130000Y-116884000D03*
X114130000Y-114344000D03*
X65870000Y-100120000D03*
X65870000Y-105200000D03*
X65870000Y-102660000D03*
X65870000Y-97580000D03*
X65870000Y-95040000D03*
X65870000Y-92500000D03*
D20*
X103208000Y-103932000D03*
X103208000Y-105832000D03*
X103208000Y-99482000D03*
X103208000Y-97582000D03*
D18*
X114130000Y-157250000D03*
D14*
X116670000Y-107740000D03*
X63330000Y-117900000D03*
X63330000Y-115360000D03*
X63330000Y-100120000D03*
X63330000Y-105200000D03*
X63330000Y-102660000D03*
X63330000Y-97580000D03*
X63330000Y-95040000D03*
X63330000Y-92500000D03*
D23*
X62500000Y-63250000D03*
X109000000Y-158250000D03*
D24*
X71966000Y-121710000D03*
X110320000Y-121710000D03*
D25*
X82500000Y-115000000D03*
X73500000Y-115000000D03*
D26*
X75460000Y-122000000D03*
X78000000Y-122000000D03*
X80540000Y-122000000D03*
D25*
X106500000Y-115000000D03*
X97500000Y-115000000D03*
D26*
X99460000Y-122000000D03*
X102000000Y-122000000D03*
X104540000Y-122000000D03*
D25*
X106500000Y-137000000D03*
X97500000Y-137000000D03*
D26*
X99460000Y-144000000D03*
X102000000Y-144000000D03*
X104540000Y-144000000D03*
D25*
X82500000Y-137000000D03*
X73500000Y-137000000D03*
D26*
X75460000Y-144000000D03*
X78000000Y-144000000D03*
X80540000Y-144000000D03*
D22*
X93048000Y-153904000D03*
D23*
X93048000Y-153904000D03*
D27*
X88495000Y-148280000D03*
D28*
X88595000Y-157580000D03*
X81245000Y-155680000D03*
D29*
X84920000Y-156480000D03*
X84920000Y-149480000D03*
D30*
X92032000Y-95230000D03*
X87460000Y-101072000D03*
D31*
X116162000Y-123234000D03*
X113368000Y-84880000D03*
X91270000Y-81832000D03*
D30*
X72220000Y-99104000D03*
X71204000Y-131870000D03*
X67394000Y-133394000D03*
D31*
X96350000Y-81832000D03*
D30*
X78951000Y-127361000D03*
X108034000Y-131679000D03*
X86190000Y-91801000D03*
X86317000Y-99675000D03*
X86317000Y-104247000D03*
X86317000Y-108565000D03*
X77046000Y-105517000D03*
X83015000Y-99548000D03*
X83650000Y-132060000D03*
X79078000Y-138664000D03*
X89492000Y-145268000D03*
X92794000Y-119741000D03*
X86190000Y-114026000D03*
X86190000Y-116312000D03*
X74633000Y-119741000D03*
X88476000Y-119741000D03*
X70442000Y-119741000D03*
X78316000Y-107422000D03*
X80856000Y-105898000D03*
X73998000Y-127996000D03*
X68918000Y-130790000D03*
X107780000Y-127996000D03*
X97366000Y-127996000D03*
X71712000Y-125964000D03*
X73236000Y-129774000D03*
X106764000Y-129012000D03*
X104732000Y-130282000D03*
X93556000Y-116058000D03*
X91397000Y-116058000D03*
X77046000Y-97072000D03*
X109431000Y-112375000D03*
X88730000Y-110724000D03*
X112352000Y-112756000D03*
X92032000Y-115169000D03*
X75776000Y-97770000D03*
X87460000Y-116185000D03*
X110193000Y-115423000D03*
X92540000Y-113391000D03*
X83015000Y-106152000D03*
X95080000Y-139172000D03*
X90762000Y-120757000D03*
X90762000Y-129266000D03*
X85174000Y-110978000D03*
X93810000Y-144252000D03*
X90000000Y-130282000D03*
X90000000Y-121519000D03*
X84031000Y-111105000D03*
X89238000Y-120757000D03*
X89238000Y-129266000D03*
X92794000Y-144252000D03*
X77046000Y-112502000D03*
X85174000Y-115931000D03*
X67902000Y-136886000D03*
X76792000Y-140696000D03*
X78570000Y-89960000D03*
X70696000Y-99612000D03*
X69426000Y-123424000D03*
X69680000Y-124186000D03*
X62822000Y-124694000D03*
X83904000Y-128250000D03*
D32*
X79586000Y-93426600D02*
X79586000Y-92182000D01*
X75776000Y-92182000D02*
X75776000Y-93426600D01*
X76538000Y-91420000D02*
X75776000Y-92182000D01*
X78824000Y-91420000D02*
X76538000Y-91420000D01*
X79586000Y-92182000D02*
X78824000Y-91420000D01*
D12*
X75430000Y-75850000D02*
X88336000Y-75850000D01*
X103462000Y-90976000D02*
X90086000Y-77600000D01*
X103462000Y-91674000D02*
X103462000Y-94468000D01*
X103462000Y-91674000D02*
X103462000Y-90976000D01*
X88336000Y-75850000D02*
X90086000Y-77600000D01*
X63400000Y-75850000D02*
X75430000Y-75850000D01*
X98128000Y-94468000D02*
X103462000Y-94468000D01*
X103462000Y-94468000D02*
X106524000Y-94468000D01*
X106524000Y-94468000D02*
X106764000Y-94708000D01*
X98128000Y-97582000D02*
X98128000Y-94468000D01*
X97432000Y-95164000D02*
X95588000Y-95164000D01*
X98128000Y-94468000D02*
X97432000Y-95164000D01*
X98128000Y-97582000D02*
X97808000Y-97582000D01*
X97808000Y-97582000D02*
X95908000Y-99482000D01*
X95908000Y-99482000D02*
X95588000Y-99482000D01*
D32*
X103208000Y-99482000D02*
X105568000Y-99482000D01*
X105568000Y-99482000D02*
X110550000Y-94500000D01*
X90000000Y-96246000D02*
X90000000Y-94976000D01*
X92032000Y-101072000D02*
X90000000Y-99040000D01*
X90000000Y-99040000D02*
X90000000Y-96246000D01*
X100668000Y-99548000D02*
X99144000Y-101072000D01*
X99144000Y-101072000D02*
X92286000Y-101072000D01*
X92286000Y-101072000D02*
X92032000Y-101072000D01*
X88476000Y-93452000D02*
X86886000Y-93452000D01*
X90000000Y-94976000D02*
X88476000Y-93452000D01*
X100668000Y-99482000D02*
X100668000Y-99548000D01*
X100668000Y-99482000D02*
X103208000Y-99482000D01*
X93048000Y-95164000D02*
X92098000Y-95164000D01*
X87460000Y-101072000D02*
X87460000Y-102154000D01*
X87460000Y-102154000D02*
X84920000Y-102154000D01*
D12*
X70696000Y-96246000D02*
X70696000Y-98342000D01*
X71392000Y-95550000D02*
X70696000Y-96246000D01*
X72220000Y-95550000D02*
X71392000Y-95550000D01*
X70567000Y-101265000D02*
X69680000Y-101265000D01*
X71458000Y-100374000D02*
X70567000Y-101265000D01*
X71458000Y-99104000D02*
X71458000Y-100374000D01*
X70696000Y-98342000D02*
X71458000Y-99104000D01*
X64918000Y-120440000D02*
X63330000Y-120440000D01*
X63330000Y-120440000D02*
X61806000Y-118916000D01*
X61806000Y-118916000D02*
X61806000Y-113328000D01*
X61806000Y-113328000D02*
X64092000Y-111042000D01*
X64092000Y-111042000D02*
X64092000Y-108692000D01*
X64918000Y-120440000D02*
X65870000Y-120440000D01*
X69680000Y-101265000D02*
X68217000Y-101265000D01*
X67902000Y-101580000D02*
X68217000Y-101265000D01*
X67902000Y-106914000D02*
X67902000Y-101580000D01*
X67394000Y-107422000D02*
X67902000Y-106914000D01*
X65362000Y-107422000D02*
X67394000Y-107422000D01*
X64092000Y-108692000D02*
X65362000Y-107422000D01*
X74506000Y-93426600D02*
X73007400Y-93426600D01*
X72220000Y-94214000D02*
X72220000Y-95550000D01*
X73007400Y-93426600D02*
X72220000Y-94214000D01*
D33*
X114130000Y-129584000D02*
X115146000Y-129584000D01*
X116162000Y-128568000D02*
X116162000Y-123234000D01*
X115146000Y-129584000D02*
X116162000Y-128568000D01*
D12*
X72220000Y-97450000D02*
X72220000Y-99104000D01*
X71204000Y-129708000D02*
X71204000Y-131870000D01*
X67521000Y-135133400D02*
X67521000Y-133521000D01*
X67521000Y-133521000D02*
X67394000Y-133394000D01*
X95080000Y-155936000D02*
X93556000Y-157460000D01*
X93744000Y-150790000D02*
X95080000Y-152126000D01*
X95080000Y-152126000D02*
X95080000Y-155936000D01*
D33*
X92674000Y-157580000D02*
X92794000Y-157460000D01*
X92674000Y-157580000D02*
X88595000Y-157580000D01*
D12*
X93556000Y-157460000D02*
X92794000Y-157460000D01*
X93744000Y-150348000D02*
X93744000Y-150790000D01*
X85936000Y-142662000D02*
X85936000Y-143236000D01*
X85936000Y-143236000D02*
X85172000Y-144000000D01*
X85172000Y-144000000D02*
X80540000Y-144000000D01*
X63330000Y-115360000D02*
X65870000Y-115360000D01*
D32*
X78951000Y-125938600D02*
X78951000Y-127361000D01*
X109050000Y-129962000D02*
X109050000Y-130663000D01*
X109050000Y-130663000D02*
X108034000Y-131679000D01*
X90828000Y-108819000D02*
X87907000Y-108819000D01*
X87907000Y-108819000D02*
X87460000Y-108372000D01*
X90508000Y-98024000D02*
X91966000Y-99482000D01*
X93048000Y-99482000D02*
X91966000Y-99482000D01*
X90508000Y-98024000D02*
X90508000Y-93706000D01*
X90508000Y-93706000D02*
X88603000Y-91801000D01*
X88603000Y-91801000D02*
X86190000Y-91801000D01*
X90254000Y-103231000D02*
X90254000Y-101961000D01*
X90955000Y-103932000D02*
X90254000Y-103231000D01*
X93048000Y-103932000D02*
X90955000Y-103932000D01*
X87968000Y-99675000D02*
X86317000Y-99675000D01*
X90254000Y-101961000D02*
X87968000Y-99675000D01*
X87460000Y-104054000D02*
X86510000Y-104054000D01*
X86510000Y-104054000D02*
X86317000Y-104247000D01*
X87460000Y-108372000D02*
X86510000Y-108372000D01*
X86510000Y-108372000D02*
X86317000Y-108565000D01*
X77046000Y-103926600D02*
X77046000Y-105517000D01*
X82126000Y-99573400D02*
X82989600Y-99573400D01*
X82989600Y-99573400D02*
X83015000Y-99548000D01*
X82761000Y-132136200D02*
X83573800Y-132136200D01*
X83573800Y-132136200D02*
X83650000Y-132060000D01*
X79078000Y-136566000D02*
X79078000Y-138664000D01*
X92159000Y-140924600D02*
X92159000Y-139553000D01*
X91590000Y-138984000D02*
X91590000Y-138156000D01*
X92159000Y-139553000D02*
X91590000Y-138984000D01*
X65870000Y-115360000D02*
X65870000Y-112820000D01*
X93048000Y-103932000D02*
X93236000Y-103932000D01*
X93236000Y-103932000D02*
X94318000Y-102850000D01*
X97046000Y-102850000D02*
X98128000Y-103932000D01*
X94318000Y-102850000D02*
X97046000Y-102850000D01*
X93048000Y-99482000D02*
X93048000Y-99548000D01*
X93048000Y-99548000D02*
X94064000Y-100564000D01*
X97046000Y-100564000D02*
X98128000Y-99482000D01*
X94064000Y-100564000D02*
X97046000Y-100564000D01*
X98128000Y-103932000D02*
X98448000Y-103932000D01*
X98448000Y-103932000D02*
X100348000Y-105832000D01*
X100348000Y-105832000D02*
X100668000Y-105832000D01*
X93048000Y-103932000D02*
X93048000Y-103866000D01*
X100734000Y-108199240D02*
X102634000Y-108199240D01*
X100734000Y-108199240D02*
X100734000Y-105898000D01*
X100734000Y-105898000D02*
X100668000Y-105832000D01*
X102634000Y-108199240D02*
X102634000Y-106406000D01*
X102634000Y-106406000D02*
X103208000Y-105832000D01*
X98128000Y-99482000D02*
X98128000Y-99548000D01*
X98128000Y-99482000D02*
X98448000Y-99482000D01*
X98448000Y-99482000D02*
X100348000Y-97582000D01*
X100348000Y-97582000D02*
X100668000Y-97582000D01*
X102634000Y-95468760D02*
X102634000Y-97008000D01*
X102634000Y-97008000D02*
X103208000Y-97582000D01*
X100734000Y-95468760D02*
X100734000Y-97516000D01*
X100734000Y-97516000D02*
X100668000Y-97582000D01*
X103208000Y-97582000D02*
X100668000Y-97582000D01*
X103208000Y-105832000D02*
X100668000Y-105832000D01*
X102634000Y-95468760D02*
X100734000Y-95468760D01*
X114384000Y-129774000D02*
X113622000Y-129774000D01*
X89365000Y-101834000D02*
X89365000Y-103739000D01*
X89365000Y-101834000D02*
X87841000Y-100310000D01*
X84920000Y-100310000D02*
X87841000Y-100310000D01*
X91458000Y-105832000D02*
X93048000Y-105832000D01*
X91458000Y-105832000D02*
X89492000Y-103866000D01*
X89365000Y-103739000D02*
X89492000Y-103866000D01*
X84920000Y-98212000D02*
X84920000Y-100310000D01*
X80348000Y-101326000D02*
X79586000Y-100564000D01*
X82888000Y-101326000D02*
X80348000Y-101326000D01*
X83015000Y-101326000D02*
X82888000Y-101326000D01*
X84031000Y-100310000D02*
X83015000Y-101326000D01*
X84920000Y-100310000D02*
X84031000Y-100310000D01*
X79586000Y-99573400D02*
X79586000Y-100564000D01*
X95588000Y-105832000D02*
X93048000Y-105832000D01*
X82126000Y-93426600D02*
X82126000Y-91547000D01*
X82314000Y-91359000D02*
X82314000Y-90023000D01*
X82126000Y-91547000D02*
X82314000Y-91359000D01*
X84986000Y-93452000D02*
X82151400Y-93452000D01*
X82151400Y-93452000D02*
X82126000Y-93426600D01*
X82126000Y-93426600D02*
X82126000Y-94214000D01*
X82126000Y-94214000D02*
X81110000Y-95230000D01*
X78316000Y-94468000D02*
X78316000Y-93426600D01*
X79078000Y-95230000D02*
X78316000Y-94468000D01*
X81110000Y-95230000D02*
X79078000Y-95230000D01*
X82126000Y-89576000D02*
X82314000Y-89388000D01*
X79586000Y-105136000D02*
X79586000Y-106152000D01*
X79586000Y-103926600D02*
X79586000Y-105136000D01*
X83584000Y-108118000D02*
X84920000Y-108118000D01*
X82888000Y-107422000D02*
X83584000Y-108118000D01*
X80856000Y-107422000D02*
X82888000Y-107422000D01*
X79586000Y-106152000D02*
X80856000Y-107422000D01*
X95588000Y-108377000D02*
X94892000Y-108377000D01*
X94892000Y-108377000D02*
X93937000Y-107422000D01*
X93937000Y-107422000D02*
X90889000Y-107422000D01*
X90889000Y-107422000D02*
X89685000Y-106218000D01*
X89685000Y-106218000D02*
X88796000Y-106218000D01*
X87460000Y-106218000D02*
X84920000Y-106218000D01*
X88796000Y-106218000D02*
X87460000Y-106218000D01*
X73490000Y-123932000D02*
X77300000Y-123932000D01*
X72982000Y-124440000D02*
X73490000Y-123932000D01*
X69934000Y-126980000D02*
X70188000Y-126726000D01*
X70188000Y-126726000D02*
X71966000Y-126726000D01*
X71966000Y-126726000D02*
X72982000Y-125710000D01*
X72982000Y-125710000D02*
X72982000Y-124694000D01*
X69934000Y-132568000D02*
X69934000Y-126980000D01*
X72982000Y-124694000D02*
X72982000Y-124440000D01*
X77427000Y-124059000D02*
X81491000Y-124059000D01*
X77300000Y-123932000D02*
X77427000Y-124059000D01*
X76792000Y-139172000D02*
X77046000Y-138918000D01*
X69934000Y-138156000D02*
X71458000Y-139680000D01*
X71458000Y-139680000D02*
X76284000Y-139680000D01*
X76792000Y-139172000D02*
X76284000Y-139680000D01*
X69934000Y-132568000D02*
X69934000Y-138156000D01*
X77046000Y-138918000D02*
X77046000Y-136566000D01*
X83650000Y-121072000D02*
X83650000Y-121900000D01*
X81872000Y-123678000D02*
X81491000Y-124059000D01*
X83650000Y-121900000D02*
X81872000Y-123678000D01*
X69934000Y-132695000D02*
X69934000Y-132568000D01*
X81491000Y-124059000D02*
X81491000Y-125837000D01*
X83650000Y-119172000D02*
X84986000Y-119172000D01*
X85428000Y-122217000D02*
X87028000Y-123817000D01*
X85428000Y-119614000D02*
X85428000Y-122217000D01*
X84986000Y-119172000D02*
X85428000Y-119614000D01*
X83584000Y-119106000D02*
X79012000Y-119106000D01*
X83584000Y-119106000D02*
X83650000Y-119172000D01*
X87000000Y-124960000D02*
X87000000Y-125662000D01*
X87000000Y-125662000D02*
X85174000Y-127488000D01*
X80221000Y-127107000D02*
X80221000Y-125837000D01*
X80602000Y-127488000D02*
X80221000Y-127107000D01*
X85174000Y-127488000D02*
X80602000Y-127488000D01*
X80221000Y-125837000D02*
X80221000Y-125583000D01*
X87000000Y-124960000D02*
X86456000Y-124960000D01*
X83904000Y-134092000D02*
X80602000Y-134092000D01*
X84389140Y-133606860D02*
X83904000Y-134092000D01*
X87206000Y-133606860D02*
X84389140Y-133606860D01*
X80028000Y-134666000D02*
X79078000Y-134666000D01*
X80602000Y-134092000D02*
X80028000Y-134666000D01*
X76792000Y-134666000D02*
X79332000Y-134666000D01*
X86840140Y-134666000D02*
X86924000Y-134749860D01*
X76538000Y-134666000D02*
X79078000Y-134666000D01*
X102954000Y-136566000D02*
X103782000Y-136566000D01*
X105494000Y-129520000D02*
X105494000Y-133584000D01*
X104478000Y-134600000D02*
X105494000Y-133584000D01*
X104859000Y-128885000D02*
X104859000Y-125837000D01*
X105494000Y-129520000D02*
X104859000Y-128885000D01*
X104224000Y-134854000D02*
X104478000Y-134600000D01*
X104224000Y-136124000D02*
X104224000Y-134854000D01*
X103782000Y-136566000D02*
X104224000Y-136124000D01*
X106322000Y-123612000D02*
X107018000Y-123612000D01*
X107018000Y-123612000D02*
X108288000Y-122342000D01*
X104859000Y-125837000D02*
X104859000Y-125075000D01*
X104859000Y-125075000D02*
X106322000Y-123612000D01*
X96350000Y-122276000D02*
X96350000Y-122916000D01*
X96350000Y-122916000D02*
X97620000Y-124186000D01*
X97620000Y-124186000D02*
X102700000Y-124186000D01*
X102700000Y-124186000D02*
X103589000Y-125075000D01*
X94638000Y-122342000D02*
X96284000Y-122342000D01*
X93000000Y-123980000D02*
X94638000Y-122342000D01*
X96350000Y-122276000D02*
X96350000Y-121072000D01*
X96284000Y-122342000D02*
X96350000Y-122276000D01*
X108288000Y-120442000D02*
X107714000Y-120442000D01*
X107714000Y-120442000D02*
X106510000Y-121646000D01*
X106510000Y-121646000D02*
X106510000Y-122408000D01*
X106510000Y-122408000D02*
X103589000Y-125329000D01*
X103589000Y-125075000D02*
X103589000Y-125837000D01*
X93000000Y-124960000D02*
X93000000Y-123980000D01*
X103589000Y-125837000D02*
X103589000Y-125329000D01*
X93000000Y-124960000D02*
X93036000Y-124960000D01*
X93048000Y-133606860D02*
X95610860Y-133606860D01*
X99718000Y-134666000D02*
X100922000Y-134666000D01*
X99398000Y-134346000D02*
X99718000Y-134666000D01*
X96350000Y-134346000D02*
X99398000Y-134346000D01*
X95610860Y-133606860D02*
X96350000Y-134346000D01*
X100576000Y-134666000D02*
X103208000Y-134666000D01*
X93533140Y-134092000D02*
X93048000Y-133606860D01*
X93103860Y-134666000D02*
X93020000Y-134749860D01*
D12*
X71712000Y-141204000D02*
X72664000Y-141204000D01*
X68918000Y-138410000D02*
X71712000Y-141204000D01*
X68918000Y-130790000D02*
X68918000Y-138410000D01*
X72664000Y-141204000D02*
X75460000Y-144000000D01*
X89492000Y-145268000D02*
X82888000Y-145268000D01*
X78128000Y-145522000D02*
X75460000Y-145522000D01*
X81618000Y-145268000D02*
X81364000Y-145522000D01*
X81364000Y-145522000D02*
X78128000Y-145522000D01*
X81618000Y-145268000D02*
X82888000Y-145268000D01*
X75460000Y-145526000D02*
X75460000Y-144000000D01*
X75460000Y-145522000D02*
X75460000Y-145526000D01*
X90889000Y-147071400D02*
X90889000Y-149393000D01*
X90889000Y-149393000D02*
X91844000Y-150348000D01*
X88476000Y-142662000D02*
X88476000Y-144252000D01*
X88476000Y-144252000D02*
X89492000Y-145268000D01*
X68918000Y-126980000D02*
X64092000Y-126980000D01*
X63711000Y-127361000D02*
X63711000Y-128986600D01*
X64092000Y-126980000D02*
X63711000Y-127361000D01*
X63330000Y-117900000D02*
X65870000Y-117900000D01*
X90508000Y-109962000D02*
X87841000Y-109962000D01*
X90000000Y-119741000D02*
X92794000Y-119741000D01*
X92728000Y-108819000D02*
X92728000Y-109266000D01*
X92728000Y-109266000D02*
X91270000Y-110724000D01*
X70379000Y-117900000D02*
X70379000Y-113200000D01*
X71585000Y-111994000D02*
X73998000Y-111994000D01*
X73998000Y-111994000D02*
X74506000Y-111486000D01*
X74506000Y-111486000D02*
X74506000Y-110073400D01*
X70379000Y-113200000D02*
X71585000Y-111994000D01*
X68728000Y-117900000D02*
X70379000Y-117900000D01*
X68664000Y-117900000D02*
X68347000Y-117900000D01*
X68728000Y-117900000D02*
X68664000Y-117900000D01*
X65870000Y-117900000D02*
X68347000Y-117900000D01*
X70442000Y-117963000D02*
X70442000Y-119741000D01*
X70379000Y-117900000D02*
X70442000Y-117963000D01*
X86190000Y-118115400D02*
X86190000Y-116312000D01*
X86190000Y-114026000D02*
X86190000Y-111968600D01*
X75460000Y-122000000D02*
X75460000Y-121711000D01*
X75460000Y-121711000D02*
X74633000Y-120884000D01*
X74633000Y-120884000D02*
X74633000Y-119741000D01*
X70442000Y-119741000D02*
X70442000Y-119614000D01*
X70442000Y-120376000D02*
X70442000Y-119995000D01*
X70442000Y-125456000D02*
X68918000Y-126980000D01*
X68918000Y-126980000D02*
X68918000Y-129774000D01*
X70442000Y-120884000D02*
X70442000Y-121138000D01*
X70442000Y-120884000D02*
X70442000Y-120376000D01*
X68918000Y-130790000D02*
X68918000Y-129774000D01*
X70442000Y-121138000D02*
X70442000Y-125456000D01*
X70442000Y-119741000D02*
X70442000Y-119995000D01*
X80856000Y-103926600D02*
X80856000Y-105898000D01*
X77808000Y-107930000D02*
X74506000Y-107930000D01*
X78316000Y-107422000D02*
X77808000Y-107930000D01*
X90889000Y-147071400D02*
X90889000Y-145903000D01*
X90889000Y-145903000D02*
X90254000Y-145268000D01*
X90254000Y-145268000D02*
X89492000Y-145268000D01*
X72093000Y-106218000D02*
X72921000Y-106218000D01*
X74506000Y-107803000D02*
X74506000Y-107930000D01*
X74506000Y-107930000D02*
X74506000Y-110073400D01*
X72921000Y-106218000D02*
X74506000Y-107803000D01*
X91270000Y-111968600D02*
X91270000Y-110724000D01*
X87460000Y-110343000D02*
X87460000Y-111968600D01*
X87841000Y-109962000D02*
X87460000Y-110343000D01*
X91270000Y-110724000D02*
X90508000Y-109962000D01*
X90000000Y-119741000D02*
X88476000Y-119741000D01*
X90000000Y-117742000D02*
X90000000Y-119741000D01*
X86190000Y-117742000D02*
X86190000Y-119741000D01*
X86190000Y-119741000D02*
X88476000Y-119741000D01*
X87460000Y-111968600D02*
X87460000Y-110978000D01*
X91270000Y-110978000D02*
X91270000Y-111968600D01*
X87460000Y-111968600D02*
X86190000Y-111968600D01*
X71204000Y-127808000D02*
X73810000Y-127808000D01*
X73810000Y-127808000D02*
X73998000Y-127996000D01*
X73871000Y-125837000D02*
X73871000Y-127869000D01*
X73871000Y-127869000D02*
X73998000Y-127996000D01*
X91270000Y-112342000D02*
X91270000Y-111232000D01*
X107846000Y-128062000D02*
X109050000Y-128062000D01*
X107780000Y-127996000D02*
X107846000Y-128062000D01*
X90889000Y-146665000D02*
X90889000Y-147173000D01*
X86190000Y-110978000D02*
X86190000Y-112342000D01*
X97239000Y-127869000D02*
X97239000Y-125837000D01*
X97366000Y-127996000D02*
X97239000Y-127869000D01*
X73998000Y-127996000D02*
X73871000Y-127869000D01*
D32*
X73236000Y-122091000D02*
X72347000Y-122091000D01*
X72347000Y-122091000D02*
X71966000Y-121710000D01*
X89238000Y-113772000D02*
X87841000Y-113772000D01*
X90000000Y-112342000D02*
X90000000Y-113010000D01*
X90000000Y-113010000D02*
X89238000Y-113772000D01*
X85047000Y-113264000D02*
X84539000Y-112756000D01*
X85047000Y-114153000D02*
X85047000Y-113264000D01*
X85555000Y-114661000D02*
X85047000Y-114153000D01*
X86952000Y-114661000D02*
X85555000Y-114661000D01*
X87841000Y-113772000D02*
X86952000Y-114661000D01*
X80094000Y-112756000D02*
X79078000Y-112756000D01*
X73236000Y-119614000D02*
X73236000Y-122091000D01*
X73236000Y-122091000D02*
X73236000Y-123170000D01*
X73236000Y-123170000D02*
X72220000Y-124186000D01*
X72220000Y-124186000D02*
X72220000Y-125456000D01*
X72220000Y-125456000D02*
X71712000Y-125964000D01*
X73236000Y-129774000D02*
X80856000Y-129774000D01*
X80856000Y-129774000D02*
X81491000Y-130409000D01*
X81491000Y-130409000D02*
X81491000Y-132187000D01*
X84539000Y-112756000D02*
X80094000Y-112756000D01*
X76030000Y-116820000D02*
X73236000Y-119614000D01*
X76030000Y-114026000D02*
X76030000Y-116820000D01*
X76284000Y-113772000D02*
X76030000Y-114026000D01*
X78062000Y-113772000D02*
X76284000Y-113772000D01*
X79078000Y-112756000D02*
X78062000Y-113772000D01*
X90000000Y-112342000D02*
X90000000Y-112756000D01*
X81491000Y-132187000D02*
X81491000Y-131469000D01*
X110066000Y-122726000D02*
X110066000Y-121964000D01*
X110066000Y-121964000D02*
X110320000Y-121710000D01*
X95080000Y-117709000D02*
X94699000Y-117328000D01*
X95080000Y-117709000D02*
X95461000Y-118090000D01*
X95461000Y-118090000D02*
X97620000Y-118090000D01*
X97620000Y-118090000D02*
X98763000Y-119233000D01*
X98763000Y-119233000D02*
X109558000Y-119233000D01*
X109558000Y-119233000D02*
X109939000Y-119614000D01*
X109939000Y-119614000D02*
X110066000Y-119741000D01*
X110066000Y-119741000D02*
X110066000Y-122726000D01*
X110066000Y-122726000D02*
X110066000Y-124186000D01*
X104859000Y-130409000D02*
X104732000Y-130282000D01*
X104859000Y-132187000D02*
X104859000Y-130409000D01*
X106764000Y-127488000D02*
X106764000Y-129012000D01*
X110066000Y-124186000D02*
X106764000Y-127488000D01*
X94064000Y-116058000D02*
X93556000Y-116058000D01*
X94699000Y-116693000D02*
X94064000Y-116058000D01*
X94699000Y-117328000D02*
X94699000Y-116693000D01*
X90254000Y-116312000D02*
X91143000Y-116312000D01*
X88730000Y-116566000D02*
X88984000Y-116312000D01*
X88984000Y-116312000D02*
X90254000Y-116312000D01*
X88730000Y-117742000D02*
X88730000Y-116566000D01*
X93556000Y-116058000D02*
X93683000Y-116185000D01*
X91143000Y-116312000D02*
X91397000Y-116058000D01*
X114130000Y-107740000D02*
X116670000Y-107740000D01*
X77046000Y-94532000D02*
X77046000Y-97072000D01*
X115908000Y-111359000D02*
X115908000Y-110724000D01*
X116162000Y-105898000D02*
X115464000Y-105200000D01*
X114130000Y-105200000D02*
X115464000Y-105200000D01*
X115400000Y-111867000D02*
X111844000Y-111867000D01*
X115908000Y-111359000D02*
X115400000Y-111867000D01*
X111844000Y-111867000D02*
X111717000Y-111867000D01*
X117178000Y-105898000D02*
X116416000Y-105898000D01*
X117940000Y-106660000D02*
X117178000Y-105898000D01*
X117940000Y-108692000D02*
X117940000Y-106660000D01*
X117432000Y-109200000D02*
X117940000Y-108692000D01*
X116416000Y-105898000D02*
X116162000Y-105898000D01*
X115908000Y-110724000D02*
X117432000Y-109200000D01*
X109431000Y-112375000D02*
X110447000Y-112375000D01*
X110447000Y-112375000D02*
X110955000Y-111867000D01*
X110955000Y-111867000D02*
X111717000Y-111867000D01*
X77046000Y-93426600D02*
X77046000Y-94532000D01*
X77046000Y-94532000D02*
X77046000Y-94595000D01*
X111717000Y-111867000D02*
X111336000Y-111867000D01*
X88730000Y-110724000D02*
X88730000Y-111968600D01*
X118448000Y-109200000D02*
X118448000Y-106152000D01*
X115908000Y-112502000D02*
X116670000Y-111740000D01*
X116670000Y-111740000D02*
X116670000Y-110978000D01*
X116670000Y-110978000D02*
X118448000Y-109200000D01*
X112352000Y-112756000D02*
X112606000Y-112502000D01*
X91524000Y-115423000D02*
X91778000Y-115423000D01*
X87587000Y-116185000D02*
X88349000Y-115423000D01*
X88349000Y-115423000D02*
X91524000Y-115423000D01*
X87460000Y-116185000D02*
X87587000Y-116185000D01*
X91778000Y-115423000D02*
X92032000Y-115169000D01*
X112606000Y-112502000D02*
X115654000Y-112502000D01*
X115654000Y-112502000D02*
X115908000Y-112502000D01*
X115464000Y-102660000D02*
X114130000Y-102660000D01*
X116416000Y-103612000D02*
X115464000Y-102660000D01*
X116416000Y-104120000D02*
X116416000Y-103612000D01*
X118448000Y-106152000D02*
X116416000Y-104120000D01*
X75776000Y-99573400D02*
X75776000Y-97770000D01*
X87460000Y-116185000D02*
X87460000Y-118115400D01*
X114130000Y-114344000D02*
X111272000Y-114344000D01*
X111272000Y-114344000D02*
X110193000Y-115423000D01*
X92540000Y-113391000D02*
X92540000Y-111968600D01*
X114066000Y-114280000D02*
X114130000Y-114344000D01*
X92540000Y-112342000D02*
X92540000Y-111232000D01*
X115400000Y-118153500D02*
X115590500Y-118153500D01*
X118956000Y-99294000D02*
X117242000Y-97580000D01*
X117242000Y-97580000D02*
X114130000Y-97580000D01*
X119210000Y-99548000D02*
X118956000Y-99294000D01*
X119210000Y-109708000D02*
X119210000Y-99548000D01*
X117686000Y-111232000D02*
X119210000Y-109708000D01*
X117686000Y-111994000D02*
X117686000Y-111232000D01*
X116924000Y-112756000D02*
X117686000Y-111994000D01*
X116924000Y-116820000D02*
X116924000Y-112756000D01*
X115590500Y-118153500D02*
X116924000Y-116820000D01*
X112606000Y-118344000D02*
X112796500Y-118153500D01*
X109685000Y-118344000D02*
X112606000Y-118344000D01*
X112796500Y-118153500D02*
X115400000Y-118153500D01*
X115400000Y-118153500D02*
X115463500Y-118153500D01*
X93683000Y-115296000D02*
X94318000Y-115296000D01*
X93175000Y-115296000D02*
X93683000Y-115296000D01*
X91270000Y-117201000D02*
X93175000Y-115296000D01*
X99017000Y-118344000D02*
X109685000Y-118344000D01*
X109685000Y-118344000D02*
X109812000Y-118344000D01*
X98128000Y-117455000D02*
X99017000Y-118344000D01*
X95715000Y-117455000D02*
X98128000Y-117455000D01*
X95207000Y-116947000D02*
X95715000Y-117455000D01*
X95207000Y-116185000D02*
X95207000Y-116947000D01*
X94318000Y-115296000D02*
X95207000Y-116185000D01*
X91270000Y-118115400D02*
X91270000Y-117201000D01*
X95588000Y-93264000D02*
X93048000Y-93264000D01*
X101684000Y-93469780D02*
X99669780Y-93469780D01*
X99464000Y-93264000D02*
X95588000Y-93264000D01*
X99669780Y-93469780D02*
X99464000Y-93264000D01*
X95400000Y-93452000D02*
X95588000Y-93264000D01*
X83015000Y-106152000D02*
X82126000Y-105263000D01*
X82126000Y-103926600D02*
X82126000Y-105263000D01*
X94699000Y-140924600D02*
X94699000Y-139553000D01*
X94699000Y-139553000D02*
X95080000Y-139172000D01*
X95080000Y-139172000D02*
X95207000Y-139299000D01*
X90762000Y-120757000D02*
X90762000Y-129266000D01*
X110193000Y-133330000D02*
X109431000Y-134092000D01*
X110193000Y-133330000D02*
X111463000Y-132060000D01*
X111463000Y-132060000D02*
X111463000Y-125456000D01*
X111463000Y-125456000D02*
X112352000Y-124567000D01*
X112352000Y-124567000D02*
X112352000Y-122535000D01*
X112352000Y-122535000D02*
X112923000Y-121964000D01*
X114130000Y-121964000D02*
X112923000Y-121964000D01*
X108542000Y-141458000D02*
X108542000Y-144252000D01*
X108542000Y-144252000D02*
X105748000Y-147046000D01*
X108542000Y-140315000D02*
X108542000Y-141458000D01*
X109431000Y-139426000D02*
X108542000Y-140315000D01*
X109431000Y-134092000D02*
X109431000Y-139426000D01*
X105621000Y-147173000D02*
X105113000Y-147173000D01*
X105113000Y-147173000D02*
X94699000Y-147173000D01*
X105621000Y-147173000D02*
X105748000Y-147046000D01*
X82253000Y-108057000D02*
X83396000Y-109200000D01*
X80221000Y-108057000D02*
X82253000Y-108057000D01*
X79586000Y-108692000D02*
X80221000Y-108057000D01*
X79586000Y-110073400D02*
X79586000Y-108692000D01*
X85174000Y-110978000D02*
X83396000Y-109200000D01*
X93810000Y-144252000D02*
X93810000Y-145268000D01*
X90000000Y-121519000D02*
X90000000Y-130282000D01*
X93810000Y-145268000D02*
X94699000Y-146157000D01*
X105621000Y-147173000D02*
X105748000Y-147046000D01*
X94699000Y-147173000D02*
X94699000Y-146157000D01*
X109304000Y-141966000D02*
X109304000Y-140696000D01*
X113685000Y-127044000D02*
X112098000Y-128631000D01*
X94318000Y-148824000D02*
X104478000Y-148824000D01*
X104986000Y-148824000D02*
X109304000Y-144506000D01*
X109304000Y-144506000D02*
X109304000Y-141966000D01*
X94318000Y-148824000D02*
X93429000Y-147935000D01*
X104986000Y-148824000D02*
X104478000Y-148824000D01*
X112098000Y-132822000D02*
X112098000Y-128631000D01*
X110066000Y-134854000D02*
X112098000Y-132822000D01*
X110066000Y-139934000D02*
X110066000Y-134854000D01*
X109304000Y-140696000D02*
X110066000Y-139934000D01*
X78316000Y-111740000D02*
X78316000Y-111867000D01*
X78316000Y-110073400D02*
X78316000Y-111740000D01*
X84031000Y-111105000D02*
X83015000Y-112121000D01*
X83015000Y-112121000D02*
X78824000Y-112121000D01*
X92794000Y-144252000D02*
X92794000Y-145522000D01*
X89238000Y-120757000D02*
X89238000Y-129266000D01*
X92794000Y-145522000D02*
X93429000Y-146157000D01*
X78570000Y-112121000D02*
X78824000Y-112121000D01*
X78316000Y-111867000D02*
X78570000Y-112121000D01*
X114130000Y-127044000D02*
X113685000Y-127044000D01*
X93429000Y-147173000D02*
X93429000Y-146157000D01*
X93429000Y-147935000D02*
X93429000Y-147173000D01*
X111590000Y-124440000D02*
X111590000Y-122345000D01*
X107780000Y-139934000D02*
X108796000Y-138918000D01*
X108796000Y-138918000D02*
X108796000Y-133584000D01*
X108796000Y-133584000D02*
X109304000Y-133076000D01*
X94826000Y-143236000D02*
X95334000Y-143236000D01*
X105494000Y-146284000D02*
X107780000Y-143998000D01*
X107780000Y-143998000D02*
X107780000Y-140950000D01*
X96604000Y-146030000D02*
X96858000Y-146284000D01*
X92159000Y-147173000D02*
X92159000Y-143617000D01*
X92540000Y-143236000D02*
X94826000Y-143236000D01*
X92159000Y-143617000D02*
X92540000Y-143236000D01*
X96604000Y-144506000D02*
X96604000Y-146030000D01*
X110574000Y-125456000D02*
X110574000Y-131806000D01*
X111590000Y-124440000D02*
X110574000Y-125456000D01*
X110574000Y-131806000D02*
X109304000Y-133076000D01*
X96858000Y-146284000D02*
X105494000Y-146284000D01*
X112669000Y-119424000D02*
X114130000Y-119424000D01*
X95334000Y-143236000D02*
X96604000Y-144506000D01*
X107780000Y-140950000D02*
X107780000Y-139934000D01*
X112479000Y-119424000D02*
X112669000Y-119424000D01*
X111971000Y-119932000D02*
X112479000Y-119424000D01*
X111971000Y-121964000D02*
X111971000Y-119932000D01*
X111590000Y-122345000D02*
X111971000Y-121964000D01*
X90127000Y-114661000D02*
X90762000Y-114026000D01*
X110130000Y-116884000D02*
X109177000Y-115931000D01*
X109177000Y-115931000D02*
X109177000Y-114534000D01*
X90127000Y-114661000D02*
X88095000Y-114661000D01*
X77046000Y-110073400D02*
X77046000Y-112502000D01*
X95334000Y-112629000D02*
X94191000Y-113772000D01*
X108542000Y-112629000D02*
X95334000Y-112629000D01*
X109177000Y-114534000D02*
X109177000Y-113264000D01*
X109177000Y-113264000D02*
X108542000Y-112629000D01*
X111527000Y-116884000D02*
X114130000Y-116884000D01*
X85682000Y-115423000D02*
X85174000Y-115931000D01*
X87333000Y-115423000D02*
X85682000Y-115423000D01*
X88095000Y-114661000D02*
X87333000Y-115423000D01*
X111527000Y-116884000D02*
X110130000Y-116884000D01*
X93937000Y-114026000D02*
X94191000Y-113772000D01*
X90762000Y-114026000D02*
X93937000Y-114026000D01*
X114130000Y-116884000D02*
X113559000Y-116884000D01*
X80414000Y-90023000D02*
X80414000Y-91105000D01*
X80856000Y-91547000D02*
X80856000Y-93426600D01*
X80414000Y-91105000D02*
X80856000Y-91547000D01*
X81872000Y-87356000D02*
X81618000Y-87356000D01*
X92098000Y-97582000D02*
X91016000Y-96500000D01*
X91016000Y-96500000D02*
X91016000Y-91166000D01*
X91016000Y-91166000D02*
X87206000Y-87356000D01*
X87206000Y-87356000D02*
X81872000Y-87356000D01*
X93048000Y-97582000D02*
X92098000Y-97582000D01*
X80414000Y-88560000D02*
X80414000Y-90023000D01*
X81618000Y-87356000D02*
X80414000Y-88560000D01*
X80856000Y-89830000D02*
X80414000Y-89388000D01*
X95588000Y-97582000D02*
X93048000Y-97582000D01*
X78316000Y-103926600D02*
X78316000Y-105517000D01*
X77300000Y-106660000D02*
X75776000Y-106660000D01*
X77300000Y-106660000D02*
X78316000Y-105644000D01*
X78316000Y-105644000D02*
X78316000Y-105517000D01*
X75776000Y-103926600D02*
X75776000Y-106660000D01*
X73871000Y-106025000D02*
X74506000Y-106660000D01*
X73871000Y-106025000D02*
X73363000Y-105517000D01*
X73363000Y-105517000D02*
X73363000Y-103993000D01*
X73363000Y-103993000D02*
X72535000Y-103165000D01*
X69553000Y-103165000D02*
X72535000Y-103165000D01*
X74506000Y-106660000D02*
X75776000Y-106660000D01*
X69553000Y-103165000D02*
X69553000Y-106091000D01*
X69553000Y-106091000D02*
X69680000Y-106218000D01*
X93048000Y-142601000D02*
X92921000Y-142601000D01*
X93429000Y-142220000D02*
X93048000Y-142601000D01*
X93429000Y-140924600D02*
X93429000Y-142220000D01*
X90254000Y-142728000D02*
X91016000Y-142728000D01*
X90000000Y-142474000D02*
X90254000Y-142728000D01*
X90000000Y-141712000D02*
X90000000Y-142474000D01*
X90000000Y-141712000D02*
X89050000Y-140762000D01*
X92794000Y-142728000D02*
X91016000Y-142728000D01*
X92921000Y-142601000D02*
X92794000Y-142728000D01*
X88476000Y-140762000D02*
X89050000Y-140762000D01*
X93490000Y-138156000D02*
X93490000Y-140863600D01*
X93490000Y-140863600D02*
X93429000Y-140924600D01*
X93429000Y-141585000D02*
X93429000Y-140823000D01*
X85936000Y-140762000D02*
X76858000Y-140762000D01*
X66251000Y-136505000D02*
X66251000Y-135133400D01*
X66632000Y-136886000D02*
X66251000Y-136505000D01*
X67902000Y-136886000D02*
X66632000Y-136886000D01*
X76858000Y-140762000D02*
X76792000Y-140696000D01*
X86510000Y-138156000D02*
X86510000Y-139106000D01*
X85936000Y-139680000D02*
X85936000Y-140762000D01*
X86510000Y-139106000D02*
X85936000Y-139680000D01*
X67521000Y-128986600D02*
X67521000Y-131679000D01*
X67521000Y-131679000D02*
X66251000Y-132949000D01*
X66251000Y-132949000D02*
X66251000Y-135133400D01*
X90889000Y-140924600D02*
X90889000Y-140315000D01*
X90889000Y-140315000D02*
X88730000Y-138156000D01*
X88730000Y-138156000D02*
X88410000Y-138156000D01*
X88410000Y-138156000D02*
X88410000Y-138598000D01*
X77744000Y-89134000D02*
X78570000Y-89960000D01*
X76980000Y-89134000D02*
X77744000Y-89134000D01*
X69172000Y-97450000D02*
X69172000Y-98596000D01*
X70188000Y-99612000D02*
X70696000Y-99612000D01*
X69172000Y-98596000D02*
X70188000Y-99612000D01*
X65870000Y-105200000D02*
X63330000Y-105200000D01*
X61806000Y-119678000D02*
X61044000Y-118916000D01*
X61044000Y-118916000D02*
X61044000Y-111296000D01*
X61044000Y-111296000D02*
X61806000Y-110534000D01*
X63584000Y-124186000D02*
X63584000Y-121456000D01*
X69426000Y-123424000D02*
X67648000Y-125202000D01*
X67648000Y-125202000D02*
X64600000Y-125202000D01*
X64600000Y-125202000D02*
X63584000Y-124186000D01*
X63330000Y-105200000D02*
X63330000Y-109010000D01*
X61806000Y-110534000D02*
X63330000Y-109010000D01*
X63584000Y-121456000D02*
X61806000Y-119678000D01*
X65870000Y-102660000D02*
X63330000Y-102660000D01*
X69680000Y-124186000D02*
X67902000Y-125964000D01*
X67902000Y-125964000D02*
X64092000Y-125964000D01*
X64092000Y-125964000D02*
X62822000Y-124694000D01*
X63330000Y-100120000D02*
X65870000Y-100120000D01*
X65870000Y-97580000D02*
X63330000Y-97580000D01*
X71458000Y-93198000D02*
X75080000Y-89576000D01*
X70188000Y-93198000D02*
X71458000Y-93198000D01*
X66886000Y-89896000D02*
X70188000Y-93198000D01*
X65870000Y-95040000D02*
X63330000Y-95040000D01*
X63330000Y-95040000D02*
X62314000Y-95040000D01*
X62886000Y-89896000D02*
X64600000Y-89896000D01*
X61552000Y-91230000D02*
X62886000Y-89896000D01*
X61552000Y-94278000D02*
X61552000Y-91230000D01*
X62314000Y-95040000D02*
X61552000Y-94278000D01*
X64600000Y-89896000D02*
X66886000Y-89896000D01*
X75080000Y-89576000D02*
X75080000Y-89134000D01*
X65870000Y-92500000D02*
X63330000Y-92500000D01*
X69172000Y-95550000D02*
X69172000Y-93452000D01*
X68220000Y-92500000D02*
X65870000Y-92500000D01*
X69172000Y-93452000D02*
X68220000Y-92500000D01*
X87460000Y-98212000D02*
X87460000Y-98532000D01*
X87460000Y-98532000D02*
X91016000Y-102088000D01*
X91016000Y-102088000D02*
X91270000Y-102342000D01*
X99144000Y-102342000D02*
X100668000Y-103866000D01*
X99144000Y-102342000D02*
X91270000Y-102342000D01*
X100668000Y-103932000D02*
X100668000Y-103866000D01*
X100668000Y-103932000D02*
X100668000Y-103358000D01*
X86952000Y-98024000D02*
X86886000Y-98024000D01*
X107272000Y-105630000D02*
X106750000Y-105630000D01*
X106750000Y-105630000D02*
X105052000Y-103932000D01*
X105052000Y-103932000D02*
X103208000Y-103932000D01*
X103208000Y-103932000D02*
X100668000Y-103932000D01*
D12*
X111082000Y-107676000D02*
X111082000Y-98918000D01*
X108528000Y-110230000D02*
X111082000Y-107676000D01*
X111082000Y-77600000D02*
X111082000Y-80588000D01*
X111082000Y-77600000D02*
X111082000Y-75850000D01*
X111082000Y-89332000D02*
X111082000Y-80588000D01*
X112250000Y-90500000D02*
X111082000Y-89332000D01*
X112250000Y-97750000D02*
X112250000Y-90500000D01*
X111082000Y-98918000D02*
X112250000Y-97750000D01*
X104570000Y-75850000D02*
X111000000Y-75850000D01*
X111000000Y-75850000D02*
X111250000Y-75850000D01*
X111250000Y-75850000D02*
X116600000Y-75850000D01*
X103208000Y-109200000D02*
X99525000Y-109200000D01*
X103208000Y-109200000D02*
X104238000Y-110230000D01*
X106764000Y-110230000D02*
X104238000Y-110230000D01*
X99525000Y-109200000D02*
X98702000Y-108377000D01*
X98702000Y-108377000D02*
X98128000Y-108377000D01*
X98062000Y-108438000D02*
X98062000Y-108626000D01*
X98062000Y-108438000D02*
X98382000Y-108438000D01*
X107272000Y-110230000D02*
X108528000Y-110230000D01*
X95588000Y-103932000D02*
X95654000Y-103932000D01*
X95654000Y-103932000D02*
X97554000Y-105832000D01*
X97554000Y-105832000D02*
X98128000Y-105832000D01*
X98062000Y-108438000D02*
X98128000Y-108438000D01*
X98062000Y-108438000D02*
X98062000Y-105898000D01*
X98062000Y-105898000D02*
X98128000Y-105832000D01*
D32*
X98128000Y-110277000D02*
X95588000Y-110277000D01*
X101684000Y-110198220D02*
X98206780Y-110198220D01*
X98206780Y-110198220D02*
X98128000Y-110277000D01*
X84920000Y-104054000D02*
X84346000Y-104054000D01*
X84346000Y-104054000D02*
X83142000Y-102850000D01*
X83142000Y-102850000D02*
X83142000Y-102342000D01*
X83142000Y-102342000D02*
X82888000Y-102088000D01*
X82888000Y-102088000D02*
X75014000Y-102088000D01*
X75014000Y-102088000D02*
X74506000Y-102596000D01*
X74506000Y-102596000D02*
X74506000Y-103926600D01*
X80856000Y-97897000D02*
X77681000Y-97897000D01*
X77046000Y-98532000D02*
X77046000Y-99573400D01*
X77681000Y-97897000D02*
X77046000Y-98532000D01*
X84920000Y-96312000D02*
X83838000Y-96312000D01*
X80856000Y-97897000D02*
X80856000Y-99573400D01*
X81364000Y-97389000D02*
X80856000Y-97897000D01*
X82761000Y-97389000D02*
X81364000Y-97389000D01*
X83838000Y-96312000D02*
X82761000Y-97389000D01*
X87460000Y-96312000D02*
X84920000Y-96312000D01*
X83904000Y-128250000D02*
X76792000Y-128250000D01*
X76792000Y-128250000D02*
X76411000Y-127869000D01*
X76411000Y-125938600D02*
X76411000Y-127869000D01*
X76538000Y-125710000D02*
X76411000Y-125837000D01*
X64981000Y-135133400D02*
X64981000Y-136251000D01*
X77996000Y-151298000D02*
X78824000Y-151298000D01*
X72982000Y-146284000D02*
X77996000Y-151298000D01*
X72982000Y-143490000D02*
X72982000Y-146284000D01*
X67140000Y-137648000D02*
X72982000Y-143490000D01*
X66378000Y-137648000D02*
X67140000Y-137648000D01*
X64981000Y-136251000D02*
X66378000Y-137648000D01*
X90508000Y-153904000D02*
X86444000Y-153904000D01*
X86444000Y-153904000D02*
X84920000Y-152380000D01*
X84920000Y-152380000D02*
X79906000Y-152380000D01*
X79906000Y-152380000D02*
X78824000Y-151298000D01*
X64981000Y-135133400D02*
X63711000Y-135133400D01*
X64981000Y-128986600D02*
X64981000Y-135133400D01*
X66251000Y-128986600D02*
X64981000Y-128986600D01*
X79942000Y-148280000D02*
X82924000Y-148280000D01*
X78824000Y-149398000D02*
X79942000Y-148280000D01*
X86916000Y-148280000D02*
X88495000Y-148280000D01*
X85936000Y-147300000D02*
X86916000Y-148280000D01*
X83904000Y-147300000D02*
X85936000Y-147300000D01*
X82924000Y-148280000D02*
X83904000Y-147300000D01*
X93048000Y-153904000D02*
X93048000Y-152888000D01*
X88495000Y-150875000D02*
X88495000Y-148280000D01*
X89492000Y-151872000D02*
X88495000Y-150875000D01*
X92032000Y-151872000D02*
X89492000Y-151872000D01*
X93048000Y-152888000D02*
X92032000Y-151872000D01*
X88095000Y-147173000D02*
X89238000Y-147173000D01*
X87206000Y-149078000D02*
X89746000Y-149078000D01*
X78316000Y-99573400D02*
X78316000Y-100818000D01*
X74506000Y-100818000D02*
X74506000Y-99573400D01*
X75014000Y-101326000D02*
X74506000Y-100818000D01*
X77808000Y-101326000D02*
X75014000Y-101326000D01*
X78316000Y-100818000D02*
X77808000Y-101326000D01*
D10*
G36*
X119500000Y-158542894D02*
X117792894Y-160250000D01*
X117501000Y-160250000D01*
X117501000Y-157512500D01*
X117388500Y-157400000D01*
X114280000Y-157400000D01*
X114280000Y-157420000D01*
X113980000Y-157420000D01*
X113980000Y-157400000D01*
X110871500Y-157400000D01*
X110759000Y-157512500D01*
X110759000Y-160250000D01*
X82407106Y-160250000D01*
X79999606Y-157842500D01*
X86870000Y-157842500D01*
X86870000Y-158869510D01*
X86938508Y-159034904D01*
X87065095Y-159161491D01*
X87230489Y-159230000D01*
X88332500Y-159230000D01*
X88445000Y-159117500D01*
X88445000Y-157730000D01*
X88745000Y-157730000D01*
X88745000Y-159117500D01*
X88857500Y-159230000D01*
X89959511Y-159230000D01*
X90124905Y-159161491D01*
X90251492Y-159034904D01*
X90320000Y-158869510D01*
X90320000Y-158511412D01*
X107679772Y-158511412D01*
X107880306Y-158996743D01*
X108251304Y-159368389D01*
X108736284Y-159569770D01*
X109261412Y-159570228D01*
X109746743Y-159369694D01*
X110118389Y-158998696D01*
X110319770Y-158513716D01*
X110320228Y-157988588D01*
X110119694Y-157503257D01*
X109748696Y-157131611D01*
X109263716Y-156930230D01*
X108738588Y-156929772D01*
X108253257Y-157130306D01*
X107881611Y-157501304D01*
X107680230Y-157986284D01*
X107679772Y-158511412D01*
X90320000Y-158511412D01*
X90320000Y-157842500D01*
X90207500Y-157730000D01*
X88745000Y-157730000D01*
X88445000Y-157730000D01*
X86982500Y-157730000D01*
X86870000Y-157842500D01*
X79999606Y-157842500D01*
X78053553Y-155896447D01*
X77891342Y-155788060D01*
X77700000Y-155750000D01*
X62207106Y-155750000D01*
X60937106Y-154480000D01*
X79511184Y-154480000D01*
X79511184Y-156880000D01*
X79546109Y-157055581D01*
X79645568Y-157204432D01*
X79794419Y-157303891D01*
X79970000Y-157338816D01*
X82520000Y-157338816D01*
X82695581Y-157303891D01*
X82844432Y-157204432D01*
X82943891Y-157055581D01*
X82978816Y-156880000D01*
X82978816Y-156727550D01*
X83669783Y-156727550D01*
X83859684Y-157187143D01*
X84211007Y-157539081D01*
X84670269Y-157729783D01*
X85167550Y-157730217D01*
X85627143Y-157540316D01*
X85979081Y-157188993D01*
X86169783Y-156729731D01*
X86170166Y-156290490D01*
X86870000Y-156290490D01*
X86870000Y-157317500D01*
X86982500Y-157430000D01*
X88445000Y-157430000D01*
X88445000Y-156042500D01*
X88745000Y-156042500D01*
X88745000Y-157430000D01*
X90207500Y-157430000D01*
X90320000Y-157317500D01*
X90320000Y-156290490D01*
X90251492Y-156125096D01*
X90124905Y-155998509D01*
X89959511Y-155930000D01*
X88857500Y-155930000D01*
X88745000Y-156042500D01*
X88445000Y-156042500D01*
X88332500Y-155930000D01*
X87230489Y-155930000D01*
X87065095Y-155998509D01*
X86938508Y-156125096D01*
X86870000Y-156290490D01*
X86170166Y-156290490D01*
X86170217Y-156232450D01*
X85980316Y-155772857D01*
X85628993Y-155420919D01*
X85169731Y-155230217D01*
X84672450Y-155229783D01*
X84212857Y-155419684D01*
X83860919Y-155771007D01*
X83670217Y-156230269D01*
X83669783Y-156727550D01*
X82978816Y-156727550D01*
X82978816Y-154480000D01*
X82943891Y-154304419D01*
X82844432Y-154155568D01*
X82695581Y-154056109D01*
X82520000Y-154021184D01*
X79970000Y-154021184D01*
X79794419Y-154056109D01*
X79645568Y-154155568D01*
X79546109Y-154304419D01*
X79511184Y-154480000D01*
X60937106Y-154480000D01*
X60500000Y-154042894D01*
X60500000Y-142416177D01*
X63919662Y-142416177D01*
X64215906Y-143133143D01*
X64763971Y-143682166D01*
X65480419Y-143979661D01*
X66256177Y-143980338D01*
X66973143Y-143684094D01*
X67522166Y-143136029D01*
X67819661Y-142419581D01*
X67820338Y-141643823D01*
X67524094Y-140926857D01*
X66976029Y-140377834D01*
X66259581Y-140080339D01*
X65483823Y-140079662D01*
X64766857Y-140375906D01*
X64217834Y-140923971D01*
X63920339Y-141640419D01*
X63919662Y-142416177D01*
X60500000Y-142416177D01*
X60500000Y-118956219D01*
X60534018Y-119127242D01*
X60653677Y-119306323D01*
X63032000Y-121684646D01*
X63032000Y-123969112D01*
X62971839Y-123944131D01*
X62673470Y-123943870D01*
X62397714Y-124057811D01*
X62186552Y-124268605D01*
X62072131Y-124544161D01*
X62071870Y-124842530D01*
X62185811Y-125118286D01*
X62396605Y-125329448D01*
X62672161Y-125443869D01*
X62791327Y-125443973D01*
X63701677Y-126354323D01*
X63835423Y-126443690D01*
X63667736Y-126555736D01*
X63286736Y-126936736D01*
X63156672Y-127131390D01*
X63111000Y-127361000D01*
X63111000Y-127609664D01*
X63056368Y-127646168D01*
X62956909Y-127795019D01*
X62921984Y-127970600D01*
X62921984Y-130002600D01*
X62956909Y-130178181D01*
X63056368Y-130327032D01*
X63205219Y-130426491D01*
X63380800Y-130461416D01*
X64041200Y-130461416D01*
X64216781Y-130426491D01*
X64346000Y-130340150D01*
X64429000Y-130395608D01*
X64429000Y-133724392D01*
X64346000Y-133779850D01*
X64216781Y-133693509D01*
X64041200Y-133658584D01*
X63380800Y-133658584D01*
X63205219Y-133693509D01*
X63056368Y-133792968D01*
X62956909Y-133941819D01*
X62921984Y-134117400D01*
X62921984Y-136149400D01*
X62956909Y-136324981D01*
X63056368Y-136473832D01*
X63205219Y-136573291D01*
X63380800Y-136608216D01*
X64041200Y-136608216D01*
X64216781Y-136573291D01*
X64346000Y-136486950D01*
X64475219Y-136573291D01*
X64555949Y-136589349D01*
X64590677Y-136641323D01*
X65987677Y-138038323D01*
X66166759Y-138157982D01*
X66378000Y-138200000D01*
X66911354Y-138200000D01*
X72430000Y-143718646D01*
X72430000Y-146284000D01*
X72472018Y-146495242D01*
X72591677Y-146674323D01*
X77605677Y-151688323D01*
X77615184Y-151694675D01*
X77615184Y-151945700D01*
X77650109Y-152121281D01*
X77749568Y-152270132D01*
X77898419Y-152369591D01*
X78074000Y-152404516D01*
X79149870Y-152404516D01*
X79515677Y-152770323D01*
X79694758Y-152889982D01*
X79906000Y-152932000D01*
X84691354Y-152932000D01*
X86053677Y-154294323D01*
X86232759Y-154413982D01*
X86444000Y-154456000D01*
X89049184Y-154456000D01*
X89049184Y-154904000D01*
X89084109Y-155079581D01*
X89183568Y-155228432D01*
X89332419Y-155327891D01*
X89508000Y-155362816D01*
X91508000Y-155362816D01*
X91683581Y-155327891D01*
X91778000Y-155264802D01*
X91872419Y-155327891D01*
X92048000Y-155362816D01*
X94048000Y-155362816D01*
X94223581Y-155327891D01*
X94372432Y-155228432D01*
X94471891Y-155079581D01*
X94506816Y-154904000D01*
X94506816Y-154239490D01*
X110759000Y-154239490D01*
X110759000Y-156987500D01*
X110871500Y-157100000D01*
X113980000Y-157100000D01*
X113980000Y-153991500D01*
X114280000Y-153991500D01*
X114280000Y-157100000D01*
X117388500Y-157100000D01*
X117501000Y-156987500D01*
X117501000Y-154239490D01*
X117432492Y-154074096D01*
X117305905Y-153947509D01*
X117140511Y-153879000D01*
X114392500Y-153879000D01*
X114280000Y-153991500D01*
X113980000Y-153991500D01*
X113867500Y-153879000D01*
X111119489Y-153879000D01*
X110954095Y-153947509D01*
X110827508Y-154074096D01*
X110759000Y-154239490D01*
X94506816Y-154239490D01*
X94506816Y-152904000D01*
X94471891Y-152728419D01*
X94372432Y-152579568D01*
X94223581Y-152480109D01*
X94048000Y-152445184D01*
X93385830Y-152445184D01*
X92496506Y-151555860D01*
X92667281Y-151521891D01*
X92797072Y-151435168D01*
X92841396Y-151479492D01*
X93006790Y-151548000D01*
X93481500Y-151548000D01*
X93594000Y-151435500D01*
X93594000Y-150498000D01*
X93894000Y-150498000D01*
X93894000Y-151435500D01*
X94006500Y-151548000D01*
X94481210Y-151548000D01*
X94646604Y-151479492D01*
X94773191Y-151352905D01*
X94841700Y-151187511D01*
X94841700Y-150610500D01*
X94729200Y-150498000D01*
X93894000Y-150498000D01*
X93594000Y-150498000D01*
X93574000Y-150498000D01*
X93574000Y-150198000D01*
X93594000Y-150198000D01*
X93594000Y-149260500D01*
X93481500Y-149148000D01*
X93006790Y-149148000D01*
X92841396Y-149216508D01*
X92797072Y-149260832D01*
X92667281Y-149174109D01*
X92491700Y-149139184D01*
X91489000Y-149139184D01*
X91489000Y-148448336D01*
X91524000Y-148424950D01*
X91653219Y-148511291D01*
X91828800Y-148546216D01*
X92489200Y-148546216D01*
X92664781Y-148511291D01*
X92794000Y-148424950D01*
X92923219Y-148511291D01*
X93098800Y-148546216D01*
X93259570Y-148546216D01*
X93927677Y-149214323D01*
X93935170Y-149219330D01*
X93894000Y-149260500D01*
X93894000Y-150198000D01*
X94729200Y-150198000D01*
X94841700Y-150085500D01*
X94841700Y-149508489D01*
X94786821Y-149376000D01*
X104986000Y-149376000D01*
X105197242Y-149333982D01*
X105376323Y-149214323D01*
X109694323Y-144896323D01*
X109813982Y-144717242D01*
X109856000Y-144506000D01*
X109856000Y-141146177D01*
X112179662Y-141146177D01*
X112475906Y-141863143D01*
X113023971Y-142412166D01*
X113740419Y-142709661D01*
X114516177Y-142710338D01*
X115233143Y-142414094D01*
X115782166Y-141866029D01*
X116079661Y-141149581D01*
X116080338Y-140373823D01*
X115784094Y-139656857D01*
X115236029Y-139107834D01*
X114519581Y-138810339D01*
X113743823Y-138809662D01*
X113026857Y-139105906D01*
X112477834Y-139653971D01*
X112180339Y-140370419D01*
X112179662Y-141146177D01*
X109856000Y-141146177D01*
X109856000Y-140924646D01*
X110456323Y-140324323D01*
X110575982Y-140145242D01*
X110618000Y-139934000D01*
X110618000Y-135082646D01*
X112488323Y-133212323D01*
X112607982Y-133033242D01*
X112650000Y-132822000D01*
X112650000Y-131274000D01*
X112821184Y-131274000D01*
X112821184Y-132974000D01*
X112856109Y-133149581D01*
X112955568Y-133298432D01*
X113104419Y-133397891D01*
X113280000Y-133432816D01*
X114980000Y-133432816D01*
X115155581Y-133397891D01*
X115304432Y-133298432D01*
X115403891Y-133149581D01*
X115438816Y-132974000D01*
X115438816Y-131274000D01*
X115403891Y-131098419D01*
X115304432Y-130949568D01*
X115155581Y-130850109D01*
X115152710Y-130849538D01*
X115234904Y-130815492D01*
X115361491Y-130688905D01*
X115430000Y-130523511D01*
X115430000Y-129846500D01*
X115317500Y-129734000D01*
X114280000Y-129734000D01*
X114280000Y-129754000D01*
X113980000Y-129754000D01*
X113980000Y-129734000D01*
X112942500Y-129734000D01*
X112830000Y-129846500D01*
X112830000Y-130523511D01*
X112898509Y-130688905D01*
X113025096Y-130815492D01*
X113107290Y-130849538D01*
X113104419Y-130850109D01*
X112955568Y-130949568D01*
X112856109Y-131098419D01*
X112821184Y-131274000D01*
X112650000Y-131274000D01*
X112650000Y-128859646D01*
X112830000Y-128679646D01*
X112830000Y-129321500D01*
X112942500Y-129434000D01*
X113980000Y-129434000D01*
X113980000Y-129414000D01*
X114280000Y-129414000D01*
X114280000Y-129434000D01*
X115317500Y-129434000D01*
X115430000Y-129321500D01*
X115430000Y-128644489D01*
X115361491Y-128479095D01*
X115234904Y-128352508D01*
X115152710Y-128318462D01*
X115155581Y-128317891D01*
X115304432Y-128218432D01*
X115403891Y-128069581D01*
X115438816Y-127894000D01*
X115438816Y-126194000D01*
X115403891Y-126018419D01*
X115304432Y-125869568D01*
X115161404Y-125774000D01*
X115304432Y-125678432D01*
X115403891Y-125529581D01*
X115438816Y-125354000D01*
X115438816Y-123654000D01*
X115403891Y-123478419D01*
X115304432Y-123329568D01*
X115161404Y-123234000D01*
X115304432Y-123138432D01*
X115403891Y-122989581D01*
X115438816Y-122814000D01*
X115438816Y-121114000D01*
X115403891Y-120938419D01*
X115304432Y-120789568D01*
X115161404Y-120694000D01*
X115304432Y-120598432D01*
X115403891Y-120449581D01*
X115438816Y-120274000D01*
X115438816Y-118705500D01*
X115590500Y-118705500D01*
X115801742Y-118663482D01*
X115980823Y-118543823D01*
X117314323Y-117210323D01*
X117433982Y-117031242D01*
X117476000Y-116820000D01*
X117476000Y-112984646D01*
X118076323Y-112384323D01*
X118195982Y-112205242D01*
X118238000Y-111994000D01*
X118238000Y-111460646D01*
X119500000Y-110198646D01*
X119500000Y-158542894D01*
X119500000Y-158542894D01*
G37*
X119500000Y-158542894D02*
X117792894Y-160250000D01*
X117501000Y-160250000D01*
X117501000Y-157512500D01*
X117388500Y-157400000D01*
X114280000Y-157400000D01*
X114280000Y-157420000D01*
X113980000Y-157420000D01*
X113980000Y-157400000D01*
X110871500Y-157400000D01*
X110759000Y-157512500D01*
X110759000Y-160250000D01*
X82407106Y-160250000D01*
X79999606Y-157842500D01*
X86870000Y-157842500D01*
X86870000Y-158869510D01*
X86938508Y-159034904D01*
X87065095Y-159161491D01*
X87230489Y-159230000D01*
X88332500Y-159230000D01*
X88445000Y-159117500D01*
X88445000Y-157730000D01*
X88745000Y-157730000D01*
X88745000Y-159117500D01*
X88857500Y-159230000D01*
X89959511Y-159230000D01*
X90124905Y-159161491D01*
X90251492Y-159034904D01*
X90320000Y-158869510D01*
X90320000Y-158511412D01*
X107679772Y-158511412D01*
X107880306Y-158996743D01*
X108251304Y-159368389D01*
X108736284Y-159569770D01*
X109261412Y-159570228D01*
X109746743Y-159369694D01*
X110118389Y-158998696D01*
X110319770Y-158513716D01*
X110320228Y-157988588D01*
X110119694Y-157503257D01*
X109748696Y-157131611D01*
X109263716Y-156930230D01*
X108738588Y-156929772D01*
X108253257Y-157130306D01*
X107881611Y-157501304D01*
X107680230Y-157986284D01*
X107679772Y-158511412D01*
X90320000Y-158511412D01*
X90320000Y-157842500D01*
X90207500Y-157730000D01*
X88745000Y-157730000D01*
X88445000Y-157730000D01*
X86982500Y-157730000D01*
X86870000Y-157842500D01*
X79999606Y-157842500D01*
X78053553Y-155896447D01*
X77891342Y-155788060D01*
X77700000Y-155750000D01*
X62207106Y-155750000D01*
X60937106Y-154480000D01*
X79511184Y-154480000D01*
X79511184Y-156880000D01*
X79546109Y-157055581D01*
X79645568Y-157204432D01*
X79794419Y-157303891D01*
X79970000Y-157338816D01*
X82520000Y-157338816D01*
X82695581Y-157303891D01*
X82844432Y-157204432D01*
X82943891Y-157055581D01*
X82978816Y-156880000D01*
X82978816Y-156727550D01*
X83669783Y-156727550D01*
X83859684Y-157187143D01*
X84211007Y-157539081D01*
X84670269Y-157729783D01*
X85167550Y-157730217D01*
X85627143Y-157540316D01*
X85979081Y-157188993D01*
X86169783Y-156729731D01*
X86170166Y-156290490D01*
X86870000Y-156290490D01*
X86870000Y-157317500D01*
X86982500Y-157430000D01*
X88445000Y-157430000D01*
X88445000Y-156042500D01*
X88745000Y-156042500D01*
X88745000Y-157430000D01*
X90207500Y-157430000D01*
X90320000Y-157317500D01*
X90320000Y-156290490D01*
X90251492Y-156125096D01*
X90124905Y-155998509D01*
X89959511Y-155930000D01*
X88857500Y-155930000D01*
X88745000Y-156042500D01*
X88445000Y-156042500D01*
X88332500Y-155930000D01*
X87230489Y-155930000D01*
X87065095Y-155998509D01*
X86938508Y-156125096D01*
X86870000Y-156290490D01*
X86170166Y-156290490D01*
X86170217Y-156232450D01*
X85980316Y-155772857D01*
X85628993Y-155420919D01*
X85169731Y-155230217D01*
X84672450Y-155229783D01*
X84212857Y-155419684D01*
X83860919Y-155771007D01*
X83670217Y-156230269D01*
X83669783Y-156727550D01*
X82978816Y-156727550D01*
X82978816Y-154480000D01*
X82943891Y-154304419D01*
X82844432Y-154155568D01*
X82695581Y-154056109D01*
X82520000Y-154021184D01*
X79970000Y-154021184D01*
X79794419Y-154056109D01*
X79645568Y-154155568D01*
X79546109Y-154304419D01*
X79511184Y-154480000D01*
X60937106Y-154480000D01*
X60500000Y-154042894D01*
X60500000Y-142416177D01*
X63919662Y-142416177D01*
X64215906Y-143133143D01*
X64763971Y-143682166D01*
X65480419Y-143979661D01*
X66256177Y-143980338D01*
X66973143Y-143684094D01*
X67522166Y-143136029D01*
X67819661Y-142419581D01*
X67820338Y-141643823D01*
X67524094Y-140926857D01*
X66976029Y-140377834D01*
X66259581Y-140080339D01*
X65483823Y-140079662D01*
X64766857Y-140375906D01*
X64217834Y-140923971D01*
X63920339Y-141640419D01*
X63919662Y-142416177D01*
X60500000Y-142416177D01*
X60500000Y-118956219D01*
X60534018Y-119127242D01*
X60653677Y-119306323D01*
X63032000Y-121684646D01*
X63032000Y-123969112D01*
X62971839Y-123944131D01*
X62673470Y-123943870D01*
X62397714Y-124057811D01*
X62186552Y-124268605D01*
X62072131Y-124544161D01*
X62071870Y-124842530D01*
X62185811Y-125118286D01*
X62396605Y-125329448D01*
X62672161Y-125443869D01*
X62791327Y-125443973D01*
X63701677Y-126354323D01*
X63835423Y-126443690D01*
X63667736Y-126555736D01*
X63286736Y-126936736D01*
X63156672Y-127131390D01*
X63111000Y-127361000D01*
X63111000Y-127609664D01*
X63056368Y-127646168D01*
X62956909Y-127795019D01*
X62921984Y-127970600D01*
X62921984Y-130002600D01*
X62956909Y-130178181D01*
X63056368Y-130327032D01*
X63205219Y-130426491D01*
X63380800Y-130461416D01*
X64041200Y-130461416D01*
X64216781Y-130426491D01*
X64346000Y-130340150D01*
X64429000Y-130395608D01*
X64429000Y-133724392D01*
X64346000Y-133779850D01*
X64216781Y-133693509D01*
X64041200Y-133658584D01*
X63380800Y-133658584D01*
X63205219Y-133693509D01*
X63056368Y-133792968D01*
X62956909Y-133941819D01*
X62921984Y-134117400D01*
X62921984Y-136149400D01*
X62956909Y-136324981D01*
X63056368Y-136473832D01*
X63205219Y-136573291D01*
X63380800Y-136608216D01*
X64041200Y-136608216D01*
X64216781Y-136573291D01*
X64346000Y-136486950D01*
X64475219Y-136573291D01*
X64555949Y-136589349D01*
X64590677Y-136641323D01*
X65987677Y-138038323D01*
X66166759Y-138157982D01*
X66378000Y-138200000D01*
X66911354Y-138200000D01*
X72430000Y-143718646D01*
X72430000Y-146284000D01*
X72472018Y-146495242D01*
X72591677Y-146674323D01*
X77605677Y-151688323D01*
X77615184Y-151694675D01*
X77615184Y-151945700D01*
X77650109Y-152121281D01*
X77749568Y-152270132D01*
X77898419Y-152369591D01*
X78074000Y-152404516D01*
X79149870Y-152404516D01*
X79515677Y-152770323D01*
X79694758Y-152889982D01*
X79906000Y-152932000D01*
X84691354Y-152932000D01*
X86053677Y-154294323D01*
X86232759Y-154413982D01*
X86444000Y-154456000D01*
X89049184Y-154456000D01*
X89049184Y-154904000D01*
X89084109Y-155079581D01*
X89183568Y-155228432D01*
X89332419Y-155327891D01*
X89508000Y-155362816D01*
X91508000Y-155362816D01*
X91683581Y-155327891D01*
X91778000Y-155264802D01*
X91872419Y-155327891D01*
X92048000Y-155362816D01*
X94048000Y-155362816D01*
X94223581Y-155327891D01*
X94372432Y-155228432D01*
X94471891Y-155079581D01*
X94506816Y-154904000D01*
X94506816Y-154239490D01*
X110759000Y-154239490D01*
X110759000Y-156987500D01*
X110871500Y-157100000D01*
X113980000Y-157100000D01*
X113980000Y-153991500D01*
X114280000Y-153991500D01*
X114280000Y-157100000D01*
X117388500Y-157100000D01*
X117501000Y-156987500D01*
X117501000Y-154239490D01*
X117432492Y-154074096D01*
X117305905Y-153947509D01*
X117140511Y-153879000D01*
X114392500Y-153879000D01*
X114280000Y-153991500D01*
X113980000Y-153991500D01*
X113867500Y-153879000D01*
X111119489Y-153879000D01*
X110954095Y-153947509D01*
X110827508Y-154074096D01*
X110759000Y-154239490D01*
X94506816Y-154239490D01*
X94506816Y-152904000D01*
X94471891Y-152728419D01*
X94372432Y-152579568D01*
X94223581Y-152480109D01*
X94048000Y-152445184D01*
X93385830Y-152445184D01*
X92496506Y-151555860D01*
X92667281Y-151521891D01*
X92797072Y-151435168D01*
X92841396Y-151479492D01*
X93006790Y-151548000D01*
X93481500Y-151548000D01*
X93594000Y-151435500D01*
X93594000Y-150498000D01*
X93894000Y-150498000D01*
X93894000Y-151435500D01*
X94006500Y-151548000D01*
X94481210Y-151548000D01*
X94646604Y-151479492D01*
X94773191Y-151352905D01*
X94841700Y-151187511D01*
X94841700Y-150610500D01*
X94729200Y-150498000D01*
X93894000Y-150498000D01*
X93594000Y-150498000D01*
X93574000Y-150498000D01*
X93574000Y-150198000D01*
X93594000Y-150198000D01*
X93594000Y-149260500D01*
X93481500Y-149148000D01*
X93006790Y-149148000D01*
X92841396Y-149216508D01*
X92797072Y-149260832D01*
X92667281Y-149174109D01*
X92491700Y-149139184D01*
X91489000Y-149139184D01*
X91489000Y-148448336D01*
X91524000Y-148424950D01*
X91653219Y-148511291D01*
X91828800Y-148546216D01*
X92489200Y-148546216D01*
X92664781Y-148511291D01*
X92794000Y-148424950D01*
X92923219Y-148511291D01*
X93098800Y-148546216D01*
X93259570Y-148546216D01*
X93927677Y-149214323D01*
X93935170Y-149219330D01*
X93894000Y-149260500D01*
X93894000Y-150198000D01*
X94729200Y-150198000D01*
X94841700Y-150085500D01*
X94841700Y-149508489D01*
X94786821Y-149376000D01*
X104986000Y-149376000D01*
X105197242Y-149333982D01*
X105376323Y-149214323D01*
X109694323Y-144896323D01*
X109813982Y-144717242D01*
X109856000Y-144506000D01*
X109856000Y-141146177D01*
X112179662Y-141146177D01*
X112475906Y-141863143D01*
X113023971Y-142412166D01*
X113740419Y-142709661D01*
X114516177Y-142710338D01*
X115233143Y-142414094D01*
X115782166Y-141866029D01*
X116079661Y-141149581D01*
X116080338Y-140373823D01*
X115784094Y-139656857D01*
X115236029Y-139107834D01*
X114519581Y-138810339D01*
X113743823Y-138809662D01*
X113026857Y-139105906D01*
X112477834Y-139653971D01*
X112180339Y-140370419D01*
X112179662Y-141146177D01*
X109856000Y-141146177D01*
X109856000Y-140924646D01*
X110456323Y-140324323D01*
X110575982Y-140145242D01*
X110618000Y-139934000D01*
X110618000Y-135082646D01*
X112488323Y-133212323D01*
X112607982Y-133033242D01*
X112650000Y-132822000D01*
X112650000Y-131274000D01*
X112821184Y-131274000D01*
X112821184Y-132974000D01*
X112856109Y-133149581D01*
X112955568Y-133298432D01*
X113104419Y-133397891D01*
X113280000Y-133432816D01*
X114980000Y-133432816D01*
X115155581Y-133397891D01*
X115304432Y-133298432D01*
X115403891Y-133149581D01*
X115438816Y-132974000D01*
X115438816Y-131274000D01*
X115403891Y-131098419D01*
X115304432Y-130949568D01*
X115155581Y-130850109D01*
X115152710Y-130849538D01*
X115234904Y-130815492D01*
X115361491Y-130688905D01*
X115430000Y-130523511D01*
X115430000Y-129846500D01*
X115317500Y-129734000D01*
X114280000Y-129734000D01*
X114280000Y-129754000D01*
X113980000Y-129754000D01*
X113980000Y-129734000D01*
X112942500Y-129734000D01*
X112830000Y-129846500D01*
X112830000Y-130523511D01*
X112898509Y-130688905D01*
X113025096Y-130815492D01*
X113107290Y-130849538D01*
X113104419Y-130850109D01*
X112955568Y-130949568D01*
X112856109Y-131098419D01*
X112821184Y-131274000D01*
X112650000Y-131274000D01*
X112650000Y-128859646D01*
X112830000Y-128679646D01*
X112830000Y-129321500D01*
X112942500Y-129434000D01*
X113980000Y-129434000D01*
X113980000Y-129414000D01*
X114280000Y-129414000D01*
X114280000Y-129434000D01*
X115317500Y-129434000D01*
X115430000Y-129321500D01*
X115430000Y-128644489D01*
X115361491Y-128479095D01*
X115234904Y-128352508D01*
X115152710Y-128318462D01*
X115155581Y-128317891D01*
X115304432Y-128218432D01*
X115403891Y-128069581D01*
X115438816Y-127894000D01*
X115438816Y-126194000D01*
X115403891Y-126018419D01*
X115304432Y-125869568D01*
X115161404Y-125774000D01*
X115304432Y-125678432D01*
X115403891Y-125529581D01*
X115438816Y-125354000D01*
X115438816Y-123654000D01*
X115403891Y-123478419D01*
X115304432Y-123329568D01*
X115161404Y-123234000D01*
X115304432Y-123138432D01*
X115403891Y-122989581D01*
X115438816Y-122814000D01*
X115438816Y-121114000D01*
X115403891Y-120938419D01*
X115304432Y-120789568D01*
X115161404Y-120694000D01*
X115304432Y-120598432D01*
X115403891Y-120449581D01*
X115438816Y-120274000D01*
X115438816Y-118705500D01*
X115590500Y-118705500D01*
X115801742Y-118663482D01*
X115980823Y-118543823D01*
X117314323Y-117210323D01*
X117433982Y-117031242D01*
X117476000Y-116820000D01*
X117476000Y-112984646D01*
X118076323Y-112384323D01*
X118195982Y-112205242D01*
X118238000Y-111994000D01*
X118238000Y-111460646D01*
X119500000Y-110198646D01*
X119500000Y-158542894D01*
G36*
X99506759Y-135175982D02*
X99713184Y-135217042D01*
X99713184Y-135313700D01*
X99748109Y-135489281D01*
X99834832Y-135619072D01*
X99790508Y-135663396D01*
X99722000Y-135828790D01*
X99722000Y-136303500D01*
X99834500Y-136416000D01*
X100772000Y-136416000D01*
X100772000Y-136396000D01*
X101072000Y-136396000D01*
X101072000Y-136416000D01*
X101092000Y-136416000D01*
X101092000Y-136716000D01*
X101072000Y-136716000D01*
X101072000Y-137551200D01*
X101184500Y-137663700D01*
X101761511Y-137663700D01*
X101926905Y-137595191D01*
X101942149Y-137579947D01*
X102028419Y-137637591D01*
X102204000Y-137672516D01*
X103704000Y-137672516D01*
X103879581Y-137637591D01*
X104028432Y-137538132D01*
X104127891Y-137389281D01*
X104162816Y-137213700D01*
X104162816Y-136962675D01*
X104172323Y-136956323D01*
X104441184Y-136687462D01*
X104441184Y-138600000D01*
X104476109Y-138775581D01*
X104575568Y-138924432D01*
X104724419Y-139023891D01*
X104900000Y-139058816D01*
X107874538Y-139058816D01*
X107389677Y-139543677D01*
X107270018Y-139722758D01*
X107236505Y-139891241D01*
X107228000Y-139934000D01*
X107228000Y-143769354D01*
X105265354Y-145732000D01*
X97156000Y-145732000D01*
X97156000Y-144506000D01*
X97113982Y-144294759D01*
X97113982Y-144294758D01*
X97087494Y-144255115D01*
X98171577Y-144255115D01*
X98367281Y-144728753D01*
X98729341Y-145091446D01*
X99202637Y-145287976D01*
X99715115Y-145288423D01*
X100188753Y-145092719D01*
X100551446Y-144730659D01*
X100730197Y-144300179D01*
X100907281Y-144728753D01*
X101269341Y-145091446D01*
X101742637Y-145287976D01*
X102255115Y-145288423D01*
X102728753Y-145092719D01*
X102873117Y-144948606D01*
X103803526Y-144948606D01*
X103894385Y-145143809D01*
X104381245Y-145303808D01*
X104892276Y-145265315D01*
X105185615Y-145143809D01*
X105276474Y-144948606D01*
X104540000Y-144212132D01*
X103803526Y-144948606D01*
X102873117Y-144948606D01*
X103091446Y-144730659D01*
X103270674Y-144299030D01*
X103274685Y-144352276D01*
X103396191Y-144645615D01*
X103591394Y-144736474D01*
X104327868Y-144000000D01*
X104752132Y-144000000D01*
X105488606Y-144736474D01*
X105683809Y-144645615D01*
X105843808Y-144158755D01*
X105805315Y-143647724D01*
X105683809Y-143354385D01*
X105488606Y-143263526D01*
X104752132Y-144000000D01*
X104327868Y-144000000D01*
X103591394Y-143263526D01*
X103396191Y-143354385D01*
X103276969Y-143717165D01*
X103092719Y-143271247D01*
X102873250Y-143051394D01*
X103803526Y-143051394D01*
X104540000Y-143787868D01*
X105276474Y-143051394D01*
X105185615Y-142856191D01*
X104698755Y-142696192D01*
X104187724Y-142734685D01*
X103894385Y-142856191D01*
X103803526Y-143051394D01*
X102873250Y-143051394D01*
X102730659Y-142908554D01*
X102257363Y-142712024D01*
X101744885Y-142711577D01*
X101271247Y-142907281D01*
X100908554Y-143269341D01*
X100729803Y-143699821D01*
X100552719Y-143271247D01*
X100190659Y-142908554D01*
X99717363Y-142712024D01*
X99204885Y-142711577D01*
X98731247Y-142907281D01*
X98368554Y-143269341D01*
X98172024Y-143742637D01*
X98171577Y-144255115D01*
X97087494Y-144255115D01*
X96994323Y-144115677D01*
X95724323Y-142845677D01*
X95545242Y-142726018D01*
X95334000Y-142684000D01*
X93745646Y-142684000D01*
X93819323Y-142610323D01*
X93881011Y-142518000D01*
X93938982Y-142431241D01*
X93954938Y-142351022D01*
X94064000Y-142278150D01*
X94193219Y-142364491D01*
X94368800Y-142399416D01*
X95029200Y-142399416D01*
X95204781Y-142364491D01*
X95353632Y-142265032D01*
X95453091Y-142116181D01*
X95488016Y-141940600D01*
X95488016Y-139908600D01*
X95470796Y-139822027D01*
X95504286Y-139808189D01*
X95715448Y-139597395D01*
X95829869Y-139321839D01*
X95830111Y-139044914D01*
X95900000Y-139058816D01*
X99100000Y-139058816D01*
X99254923Y-139028000D01*
X99711000Y-139028000D01*
X99711000Y-142478000D01*
X103911000Y-142478000D01*
X103911000Y-139028000D01*
X99711000Y-139028000D01*
X99254923Y-139028000D01*
X99275581Y-139023891D01*
X99424432Y-138924432D01*
X99523891Y-138775581D01*
X99558816Y-138600000D01*
X99558816Y-136828500D01*
X99722000Y-136828500D01*
X99722000Y-137303210D01*
X99790508Y-137468604D01*
X99917095Y-137595191D01*
X100082489Y-137663700D01*
X100659500Y-137663700D01*
X100772000Y-137551200D01*
X100772000Y-136716000D01*
X99834500Y-136716000D01*
X99722000Y-136828500D01*
X99558816Y-136828500D01*
X99558816Y-135400000D01*
X99523891Y-135224419D01*
X99479240Y-135157595D01*
X99506759Y-135175982D01*
X99506759Y-135175982D01*
G37*
X99506759Y-135175982D02*
X99713184Y-135217042D01*
X99713184Y-135313700D01*
X99748109Y-135489281D01*
X99834832Y-135619072D01*
X99790508Y-135663396D01*
X99722000Y-135828790D01*
X99722000Y-136303500D01*
X99834500Y-136416000D01*
X100772000Y-136416000D01*
X100772000Y-136396000D01*
X101072000Y-136396000D01*
X101072000Y-136416000D01*
X101092000Y-136416000D01*
X101092000Y-136716000D01*
X101072000Y-136716000D01*
X101072000Y-137551200D01*
X101184500Y-137663700D01*
X101761511Y-137663700D01*
X101926905Y-137595191D01*
X101942149Y-137579947D01*
X102028419Y-137637591D01*
X102204000Y-137672516D01*
X103704000Y-137672516D01*
X103879581Y-137637591D01*
X104028432Y-137538132D01*
X104127891Y-137389281D01*
X104162816Y-137213700D01*
X104162816Y-136962675D01*
X104172323Y-136956323D01*
X104441184Y-136687462D01*
X104441184Y-138600000D01*
X104476109Y-138775581D01*
X104575568Y-138924432D01*
X104724419Y-139023891D01*
X104900000Y-139058816D01*
X107874538Y-139058816D01*
X107389677Y-139543677D01*
X107270018Y-139722758D01*
X107236505Y-139891241D01*
X107228000Y-139934000D01*
X107228000Y-143769354D01*
X105265354Y-145732000D01*
X97156000Y-145732000D01*
X97156000Y-144506000D01*
X97113982Y-144294759D01*
X97113982Y-144294758D01*
X97087494Y-144255115D01*
X98171577Y-144255115D01*
X98367281Y-144728753D01*
X98729341Y-145091446D01*
X99202637Y-145287976D01*
X99715115Y-145288423D01*
X100188753Y-145092719D01*
X100551446Y-144730659D01*
X100730197Y-144300179D01*
X100907281Y-144728753D01*
X101269341Y-145091446D01*
X101742637Y-145287976D01*
X102255115Y-145288423D01*
X102728753Y-145092719D01*
X102873117Y-144948606D01*
X103803526Y-144948606D01*
X103894385Y-145143809D01*
X104381245Y-145303808D01*
X104892276Y-145265315D01*
X105185615Y-145143809D01*
X105276474Y-144948606D01*
X104540000Y-144212132D01*
X103803526Y-144948606D01*
X102873117Y-144948606D01*
X103091446Y-144730659D01*
X103270674Y-144299030D01*
X103274685Y-144352276D01*
X103396191Y-144645615D01*
X103591394Y-144736474D01*
X104327868Y-144000000D01*
X104752132Y-144000000D01*
X105488606Y-144736474D01*
X105683809Y-144645615D01*
X105843808Y-144158755D01*
X105805315Y-143647724D01*
X105683809Y-143354385D01*
X105488606Y-143263526D01*
X104752132Y-144000000D01*
X104327868Y-144000000D01*
X103591394Y-143263526D01*
X103396191Y-143354385D01*
X103276969Y-143717165D01*
X103092719Y-143271247D01*
X102873250Y-143051394D01*
X103803526Y-143051394D01*
X104540000Y-143787868D01*
X105276474Y-143051394D01*
X105185615Y-142856191D01*
X104698755Y-142696192D01*
X104187724Y-142734685D01*
X103894385Y-142856191D01*
X103803526Y-143051394D01*
X102873250Y-143051394D01*
X102730659Y-142908554D01*
X102257363Y-142712024D01*
X101744885Y-142711577D01*
X101271247Y-142907281D01*
X100908554Y-143269341D01*
X100729803Y-143699821D01*
X100552719Y-143271247D01*
X100190659Y-142908554D01*
X99717363Y-142712024D01*
X99204885Y-142711577D01*
X98731247Y-142907281D01*
X98368554Y-143269341D01*
X98172024Y-143742637D01*
X98171577Y-144255115D01*
X97087494Y-144255115D01*
X96994323Y-144115677D01*
X95724323Y-142845677D01*
X95545242Y-142726018D01*
X95334000Y-142684000D01*
X93745646Y-142684000D01*
X93819323Y-142610323D01*
X93881011Y-142518000D01*
X93938982Y-142431241D01*
X93954938Y-142351022D01*
X94064000Y-142278150D01*
X94193219Y-142364491D01*
X94368800Y-142399416D01*
X95029200Y-142399416D01*
X95204781Y-142364491D01*
X95353632Y-142265032D01*
X95453091Y-142116181D01*
X95488016Y-141940600D01*
X95488016Y-139908600D01*
X95470796Y-139822027D01*
X95504286Y-139808189D01*
X95715448Y-139597395D01*
X95829869Y-139321839D01*
X95830111Y-139044914D01*
X95900000Y-139058816D01*
X99100000Y-139058816D01*
X99254923Y-139028000D01*
X99711000Y-139028000D01*
X99711000Y-142478000D01*
X103911000Y-142478000D01*
X103911000Y-139028000D01*
X99711000Y-139028000D01*
X99254923Y-139028000D01*
X99275581Y-139023891D01*
X99424432Y-138924432D01*
X99523891Y-138775581D01*
X99558816Y-138600000D01*
X99558816Y-136828500D01*
X99722000Y-136828500D01*
X99722000Y-137303210D01*
X99790508Y-137468604D01*
X99917095Y-137595191D01*
X100082489Y-137663700D01*
X100659500Y-137663700D01*
X100772000Y-137551200D01*
X100772000Y-136716000D01*
X99834500Y-136716000D01*
X99722000Y-136828500D01*
X99558816Y-136828500D01*
X99558816Y-135400000D01*
X99523891Y-135224419D01*
X99479240Y-135157595D01*
X99506759Y-135175982D01*
G36*
X87586719Y-139329891D02*
X87762300Y-139364816D01*
X89057700Y-139364816D01*
X89141501Y-139348147D01*
X90099984Y-140306630D01*
X90099984Y-141031338D01*
X89684816Y-140616170D01*
X89684816Y-140114300D01*
X89649891Y-139938719D01*
X89550432Y-139789868D01*
X89401581Y-139690409D01*
X89226000Y-139655484D01*
X87726000Y-139655484D01*
X87550419Y-139690409D01*
X87401568Y-139789868D01*
X87302109Y-139938719D01*
X87267184Y-140114300D01*
X87267184Y-141409700D01*
X87302109Y-141585281D01*
X87386780Y-141712000D01*
X87302109Y-141838719D01*
X87267184Y-142014300D01*
X87267184Y-143309700D01*
X87302109Y-143485281D01*
X87401568Y-143634132D01*
X87550419Y-143733591D01*
X87726000Y-143768516D01*
X87876000Y-143768516D01*
X87876000Y-144252000D01*
X87921672Y-144481610D01*
X88046214Y-144668000D01*
X81635717Y-144668000D01*
X81683809Y-144645615D01*
X81843808Y-144158755D01*
X81805315Y-143647724D01*
X81683809Y-143354385D01*
X81488606Y-143263526D01*
X80752132Y-144000000D01*
X80766275Y-144014143D01*
X80554143Y-144226275D01*
X80540000Y-144212132D01*
X80525858Y-144226275D01*
X80313726Y-144014143D01*
X80327868Y-144000000D01*
X79591394Y-143263526D01*
X79396191Y-143354385D01*
X79276969Y-143717165D01*
X79092719Y-143271247D01*
X78873250Y-143051394D01*
X79803526Y-143051394D01*
X80540000Y-143787868D01*
X81276474Y-143051394D01*
X81217411Y-142924500D01*
X84736000Y-142924500D01*
X84736000Y-143399210D01*
X84804508Y-143564604D01*
X84931095Y-143691191D01*
X85096489Y-143759700D01*
X85673500Y-143759700D01*
X85786000Y-143647200D01*
X85786000Y-142812000D01*
X86086000Y-142812000D01*
X86086000Y-143647200D01*
X86198500Y-143759700D01*
X86775511Y-143759700D01*
X86940905Y-143691191D01*
X87067492Y-143564604D01*
X87136000Y-143399210D01*
X87136000Y-142924500D01*
X87023500Y-142812000D01*
X86086000Y-142812000D01*
X85786000Y-142812000D01*
X84848500Y-142812000D01*
X84736000Y-142924500D01*
X81217411Y-142924500D01*
X81185615Y-142856191D01*
X80698755Y-142696192D01*
X80187724Y-142734685D01*
X79894385Y-142856191D01*
X79803526Y-143051394D01*
X78873250Y-143051394D01*
X78730659Y-142908554D01*
X78257363Y-142712024D01*
X77744885Y-142711577D01*
X77271247Y-142907281D01*
X76908554Y-143269341D01*
X76729803Y-143699821D01*
X76552719Y-143271247D01*
X76190659Y-142908554D01*
X75717363Y-142712024D01*
X75204885Y-142711577D01*
X75074131Y-142765603D01*
X73088264Y-140779736D01*
X72893610Y-140649672D01*
X72664000Y-140604000D01*
X71960528Y-140604000D01*
X71588528Y-140232000D01*
X76195224Y-140232000D01*
X76156552Y-140270605D01*
X76042131Y-140546161D01*
X76041870Y-140844530D01*
X76155811Y-141120286D01*
X76366605Y-141331448D01*
X76642161Y-141445869D01*
X76940530Y-141446130D01*
X77216286Y-141332189D01*
X77234507Y-141314000D01*
X84727184Y-141314000D01*
X84727184Y-141409700D01*
X84762109Y-141585281D01*
X84848832Y-141715072D01*
X84804508Y-141759396D01*
X84736000Y-141924790D01*
X84736000Y-142399500D01*
X84848500Y-142512000D01*
X85786000Y-142512000D01*
X85786000Y-142492000D01*
X86086000Y-142492000D01*
X86086000Y-142512000D01*
X87023500Y-142512000D01*
X87136000Y-142399500D01*
X87136000Y-141924790D01*
X87067492Y-141759396D01*
X87023168Y-141715072D01*
X87109891Y-141585281D01*
X87144816Y-141409700D01*
X87144816Y-140114300D01*
X87109891Y-139938719D01*
X87010432Y-139789868D01*
X86861581Y-139690409D01*
X86732010Y-139664636D01*
X86900323Y-139496323D01*
X86988193Y-139364816D01*
X87157700Y-139364816D01*
X87333281Y-139329891D01*
X87460000Y-139245220D01*
X87586719Y-139329891D01*
X87586719Y-139329891D01*
G37*
X87586719Y-139329891D02*
X87762300Y-139364816D01*
X89057700Y-139364816D01*
X89141501Y-139348147D01*
X90099984Y-140306630D01*
X90099984Y-141031338D01*
X89684816Y-140616170D01*
X89684816Y-140114300D01*
X89649891Y-139938719D01*
X89550432Y-139789868D01*
X89401581Y-139690409D01*
X89226000Y-139655484D01*
X87726000Y-139655484D01*
X87550419Y-139690409D01*
X87401568Y-139789868D01*
X87302109Y-139938719D01*
X87267184Y-140114300D01*
X87267184Y-141409700D01*
X87302109Y-141585281D01*
X87386780Y-141712000D01*
X87302109Y-141838719D01*
X87267184Y-142014300D01*
X87267184Y-143309700D01*
X87302109Y-143485281D01*
X87401568Y-143634132D01*
X87550419Y-143733591D01*
X87726000Y-143768516D01*
X87876000Y-143768516D01*
X87876000Y-144252000D01*
X87921672Y-144481610D01*
X88046214Y-144668000D01*
X81635717Y-144668000D01*
X81683809Y-144645615D01*
X81843808Y-144158755D01*
X81805315Y-143647724D01*
X81683809Y-143354385D01*
X81488606Y-143263526D01*
X80752132Y-144000000D01*
X80766275Y-144014143D01*
X80554143Y-144226275D01*
X80540000Y-144212132D01*
X80525858Y-144226275D01*
X80313726Y-144014143D01*
X80327868Y-144000000D01*
X79591394Y-143263526D01*
X79396191Y-143354385D01*
X79276969Y-143717165D01*
X79092719Y-143271247D01*
X78873250Y-143051394D01*
X79803526Y-143051394D01*
X80540000Y-143787868D01*
X81276474Y-143051394D01*
X81217411Y-142924500D01*
X84736000Y-142924500D01*
X84736000Y-143399210D01*
X84804508Y-143564604D01*
X84931095Y-143691191D01*
X85096489Y-143759700D01*
X85673500Y-143759700D01*
X85786000Y-143647200D01*
X85786000Y-142812000D01*
X86086000Y-142812000D01*
X86086000Y-143647200D01*
X86198500Y-143759700D01*
X86775511Y-143759700D01*
X86940905Y-143691191D01*
X87067492Y-143564604D01*
X87136000Y-143399210D01*
X87136000Y-142924500D01*
X87023500Y-142812000D01*
X86086000Y-142812000D01*
X85786000Y-142812000D01*
X84848500Y-142812000D01*
X84736000Y-142924500D01*
X81217411Y-142924500D01*
X81185615Y-142856191D01*
X80698755Y-142696192D01*
X80187724Y-142734685D01*
X79894385Y-142856191D01*
X79803526Y-143051394D01*
X78873250Y-143051394D01*
X78730659Y-142908554D01*
X78257363Y-142712024D01*
X77744885Y-142711577D01*
X77271247Y-142907281D01*
X76908554Y-143269341D01*
X76729803Y-143699821D01*
X76552719Y-143271247D01*
X76190659Y-142908554D01*
X75717363Y-142712024D01*
X75204885Y-142711577D01*
X75074131Y-142765603D01*
X73088264Y-140779736D01*
X72893610Y-140649672D01*
X72664000Y-140604000D01*
X71960528Y-140604000D01*
X71588528Y-140232000D01*
X76195224Y-140232000D01*
X76156552Y-140270605D01*
X76042131Y-140546161D01*
X76041870Y-140844530D01*
X76155811Y-141120286D01*
X76366605Y-141331448D01*
X76642161Y-141445869D01*
X76940530Y-141446130D01*
X77216286Y-141332189D01*
X77234507Y-141314000D01*
X84727184Y-141314000D01*
X84727184Y-141409700D01*
X84762109Y-141585281D01*
X84848832Y-141715072D01*
X84804508Y-141759396D01*
X84736000Y-141924790D01*
X84736000Y-142399500D01*
X84848500Y-142512000D01*
X85786000Y-142512000D01*
X85786000Y-142492000D01*
X86086000Y-142492000D01*
X86086000Y-142512000D01*
X87023500Y-142512000D01*
X87136000Y-142399500D01*
X87136000Y-141924790D01*
X87067492Y-141759396D01*
X87023168Y-141715072D01*
X87109891Y-141585281D01*
X87144816Y-141409700D01*
X87144816Y-140114300D01*
X87109891Y-139938719D01*
X87010432Y-139789868D01*
X86861581Y-139690409D01*
X86732010Y-139664636D01*
X86900323Y-139496323D01*
X86988193Y-139364816D01*
X87157700Y-139364816D01*
X87333281Y-139329891D01*
X87460000Y-139245220D01*
X87586719Y-139329891D01*
G36*
X95070677Y-118480323D02*
X95150000Y-118533325D01*
X95150000Y-118909500D01*
X95262500Y-119022000D01*
X96200000Y-119022000D01*
X96200000Y-119002000D01*
X96500000Y-119002000D01*
X96500000Y-119022000D01*
X97437500Y-119022000D01*
X97550000Y-118909500D01*
X97550000Y-118800646D01*
X98372677Y-119623323D01*
X98551758Y-119742982D01*
X98763000Y-119785000D01*
X107081034Y-119785000D01*
X107079184Y-119794300D01*
X107079184Y-120296170D01*
X106119677Y-121255677D01*
X106000018Y-121434758D01*
X105974656Y-121562264D01*
X105958000Y-121646000D01*
X105958000Y-122179354D01*
X105777828Y-122359526D01*
X105843808Y-122158755D01*
X105805315Y-121647724D01*
X105683809Y-121354385D01*
X105488606Y-121263526D01*
X104752132Y-122000000D01*
X104766275Y-122014143D01*
X104554143Y-122226275D01*
X104540000Y-122212132D01*
X103803526Y-122948606D01*
X103894385Y-123143809D01*
X104381245Y-123303808D01*
X104870390Y-123266964D01*
X103716000Y-124421354D01*
X103090323Y-123795677D01*
X102911242Y-123676018D01*
X102700000Y-123634000D01*
X97848646Y-123634000D01*
X96902000Y-122687354D01*
X96902000Y-122255115D01*
X98171577Y-122255115D01*
X98367281Y-122728753D01*
X98729341Y-123091446D01*
X99202637Y-123287976D01*
X99715115Y-123288423D01*
X100188753Y-123092719D01*
X100551446Y-122730659D01*
X100730197Y-122300179D01*
X100907281Y-122728753D01*
X101269341Y-123091446D01*
X101742637Y-123287976D01*
X102255115Y-123288423D01*
X102728753Y-123092719D01*
X103091446Y-122730659D01*
X103270674Y-122299030D01*
X103274685Y-122352276D01*
X103396191Y-122645615D01*
X103591394Y-122736474D01*
X104327868Y-122000000D01*
X103591394Y-121263526D01*
X103396191Y-121354385D01*
X103276969Y-121717165D01*
X103092719Y-121271247D01*
X102873250Y-121051394D01*
X103803526Y-121051394D01*
X104540000Y-121787868D01*
X105276474Y-121051394D01*
X105185615Y-120856191D01*
X104698755Y-120696192D01*
X104187724Y-120734685D01*
X103894385Y-120856191D01*
X103803526Y-121051394D01*
X102873250Y-121051394D01*
X102730659Y-120908554D01*
X102257363Y-120712024D01*
X101744885Y-120711577D01*
X101271247Y-120907281D01*
X100908554Y-121269341D01*
X100729803Y-121699821D01*
X100552719Y-121271247D01*
X100190659Y-120908554D01*
X99717363Y-120712024D01*
X99204885Y-120711577D01*
X98731247Y-120907281D01*
X98368554Y-121269341D01*
X98172024Y-121742637D01*
X98171577Y-122255115D01*
X96902000Y-122255115D01*
X96902000Y-122178516D01*
X97100000Y-122178516D01*
X97275581Y-122143591D01*
X97424432Y-122044132D01*
X97523891Y-121895281D01*
X97558816Y-121719700D01*
X97558816Y-120424300D01*
X97523891Y-120248719D01*
X97437168Y-120118928D01*
X97481492Y-120074604D01*
X97550000Y-119909210D01*
X97550000Y-119434500D01*
X97437500Y-119322000D01*
X96500000Y-119322000D01*
X96500000Y-119342000D01*
X96200000Y-119342000D01*
X96200000Y-119322000D01*
X95262500Y-119322000D01*
X95150000Y-119434500D01*
X95150000Y-119909210D01*
X95218508Y-120074604D01*
X95262832Y-120118928D01*
X95176109Y-120248719D01*
X95141184Y-120424300D01*
X95141184Y-121719700D01*
X95155167Y-121790000D01*
X94638000Y-121790000D01*
X94537106Y-121810069D01*
X94537106Y-121016650D01*
X94502181Y-120841069D01*
X94402722Y-120692218D01*
X94253871Y-120592759D01*
X94078290Y-120557834D01*
X91977710Y-120557834D01*
X91802129Y-120592759D01*
X91653278Y-120692218D01*
X91553819Y-120841069D01*
X91518894Y-121016650D01*
X91518894Y-126617350D01*
X91553819Y-126792931D01*
X91653278Y-126941782D01*
X91802129Y-127041241D01*
X91977710Y-127076166D01*
X94078290Y-127076166D01*
X94253871Y-127041241D01*
X94402722Y-126941782D01*
X94502181Y-126792931D01*
X94537106Y-126617350D01*
X94537106Y-123223540D01*
X94866646Y-122894000D01*
X95798000Y-122894000D01*
X95798000Y-122916000D01*
X95840018Y-123127242D01*
X95959677Y-123306323D01*
X97117138Y-124463784D01*
X96908800Y-124463784D01*
X96733219Y-124498709D01*
X96584368Y-124598168D01*
X96484909Y-124747019D01*
X96449984Y-124922600D01*
X96449984Y-126954600D01*
X96484909Y-127130181D01*
X96584368Y-127279032D01*
X96639000Y-127315536D01*
X96639000Y-127791086D01*
X96616131Y-127846161D01*
X96615870Y-128144530D01*
X96729811Y-128420286D01*
X96940605Y-128631448D01*
X97216161Y-128745869D01*
X97514530Y-128746130D01*
X97790286Y-128632189D01*
X98001448Y-128421395D01*
X98115869Y-128145839D01*
X98116130Y-127847470D01*
X98002189Y-127571714D01*
X97839000Y-127408240D01*
X97839000Y-127315536D01*
X97874000Y-127292150D01*
X98003219Y-127378491D01*
X98178800Y-127413416D01*
X98839200Y-127413416D01*
X99014781Y-127378491D01*
X99144000Y-127292150D01*
X99273219Y-127378491D01*
X99448800Y-127413416D01*
X100109200Y-127413416D01*
X100284781Y-127378491D01*
X100414000Y-127292150D01*
X100543219Y-127378491D01*
X100718800Y-127413416D01*
X101379200Y-127413416D01*
X101554781Y-127378491D01*
X101687569Y-127289765D01*
X101733895Y-127336091D01*
X101899289Y-127404600D01*
X102056500Y-127404600D01*
X102169000Y-127292100D01*
X102169000Y-126088600D01*
X102149000Y-126088600D01*
X102149000Y-125788600D01*
X102169000Y-125788600D01*
X102169000Y-125768600D01*
X102469000Y-125768600D01*
X102469000Y-125788600D01*
X102489000Y-125788600D01*
X102489000Y-126088600D01*
X102469000Y-126088600D01*
X102469000Y-127292100D01*
X102581500Y-127404600D01*
X102738711Y-127404600D01*
X102904105Y-127336091D01*
X102950431Y-127289765D01*
X103083219Y-127378491D01*
X103258800Y-127413416D01*
X103919200Y-127413416D01*
X104094781Y-127378491D01*
X104224000Y-127292150D01*
X104307000Y-127347608D01*
X104307000Y-128885000D01*
X104349018Y-129096242D01*
X104468677Y-129275323D01*
X104725348Y-129531994D01*
X104583470Y-129531870D01*
X104307714Y-129645811D01*
X104096552Y-129856605D01*
X103982131Y-130132161D01*
X103981870Y-130430530D01*
X104068542Y-130640290D01*
X103919200Y-130610584D01*
X103258800Y-130610584D01*
X103083219Y-130645509D01*
X102954000Y-130731850D01*
X102824781Y-130645509D01*
X102649200Y-130610584D01*
X101988800Y-130610584D01*
X101813219Y-130645509D01*
X101684000Y-130731850D01*
X101554781Y-130645509D01*
X101379200Y-130610584D01*
X100718800Y-130610584D01*
X100543219Y-130645509D01*
X100414000Y-130731850D01*
X100284781Y-130645509D01*
X100109200Y-130610584D01*
X99448800Y-130610584D01*
X99273219Y-130645509D01*
X99144000Y-130731850D01*
X99014781Y-130645509D01*
X98839200Y-130610584D01*
X98178800Y-130610584D01*
X98003219Y-130645509D01*
X97874000Y-130731850D01*
X97744781Y-130645509D01*
X97569200Y-130610584D01*
X96908800Y-130610584D01*
X96733219Y-130645509D01*
X96584368Y-130744968D01*
X96484909Y-130893819D01*
X96449984Y-131069400D01*
X96449984Y-133101400D01*
X96484909Y-133276981D01*
X96584368Y-133425832D01*
X96733219Y-133525291D01*
X96908800Y-133560216D01*
X97569200Y-133560216D01*
X97744781Y-133525291D01*
X97874000Y-133438950D01*
X98003219Y-133525291D01*
X98178800Y-133560216D01*
X98839200Y-133560216D01*
X99014781Y-133525291D01*
X99144000Y-133438950D01*
X99273219Y-133525291D01*
X99448800Y-133560216D01*
X100109200Y-133560216D01*
X100284781Y-133525291D01*
X100414000Y-133438950D01*
X100543219Y-133525291D01*
X100715120Y-133559484D01*
X100172000Y-133559484D01*
X99996419Y-133594409D01*
X99847568Y-133693868D01*
X99748109Y-133842719D01*
X99732994Y-133918707D01*
X99609242Y-133836018D01*
X99398000Y-133794000D01*
X96578646Y-133794000D01*
X96001183Y-133216537D01*
X95822102Y-133096878D01*
X95610860Y-133054860D01*
X94557106Y-133054860D01*
X94557106Y-130806510D01*
X94522181Y-130630929D01*
X94422722Y-130482078D01*
X94273871Y-130382619D01*
X94098290Y-130347694D01*
X91997710Y-130347694D01*
X91822129Y-130382619D01*
X91673278Y-130482078D01*
X91573819Y-130630929D01*
X91538894Y-130806510D01*
X91538894Y-136407210D01*
X91573819Y-136582791D01*
X91673278Y-136731642D01*
X91822129Y-136831101D01*
X91997710Y-136866026D01*
X94098290Y-136866026D01*
X94273871Y-136831101D01*
X94422722Y-136731642D01*
X94522181Y-136582791D01*
X94557106Y-136407210D01*
X94557106Y-134158860D01*
X95382214Y-134158860D01*
X95959677Y-134736323D01*
X96138758Y-134855982D01*
X96350000Y-134898000D01*
X99169354Y-134898000D01*
X99240481Y-134969127D01*
X99100000Y-134941184D01*
X95900000Y-134941184D01*
X95724419Y-134976109D01*
X95575568Y-135075568D01*
X95476109Y-135224419D01*
X95441184Y-135400000D01*
X95441184Y-138509889D01*
X95229839Y-138422131D01*
X94931470Y-138421870D01*
X94655714Y-138535811D01*
X94596516Y-138594906D01*
X94596516Y-137406000D01*
X94561591Y-137230419D01*
X94462132Y-137081568D01*
X94313281Y-136982109D01*
X94137700Y-136947184D01*
X92842300Y-136947184D01*
X92666719Y-136982109D01*
X92536928Y-137068832D01*
X92492604Y-137024508D01*
X92327210Y-136956000D01*
X91852500Y-136956000D01*
X91740000Y-137068500D01*
X91740000Y-138006000D01*
X91760000Y-138006000D01*
X91760000Y-138306000D01*
X91740000Y-138306000D01*
X91740000Y-139243500D01*
X91852500Y-139356000D01*
X92327210Y-139356000D01*
X92492604Y-139287492D01*
X92536928Y-139243168D01*
X92666719Y-139329891D01*
X92842300Y-139364816D01*
X92938000Y-139364816D01*
X92938000Y-139481769D01*
X92923219Y-139484709D01*
X92790431Y-139573435D01*
X92744105Y-139527109D01*
X92578711Y-139458600D01*
X92421500Y-139458600D01*
X92309000Y-139571100D01*
X92309000Y-140774600D01*
X92329000Y-140774600D01*
X92329000Y-141074600D01*
X92309000Y-141074600D01*
X92309000Y-141094600D01*
X92009000Y-141094600D01*
X92009000Y-141074600D01*
X91989000Y-141074600D01*
X91989000Y-140774600D01*
X92009000Y-140774600D01*
X92009000Y-139571100D01*
X91896500Y-139458600D01*
X91739289Y-139458600D01*
X91573895Y-139527109D01*
X91527569Y-139573435D01*
X91394781Y-139484709D01*
X91219200Y-139449784D01*
X90804430Y-139449784D01*
X89773146Y-138418500D01*
X90492300Y-138418500D01*
X90492300Y-138995511D01*
X90560809Y-139160905D01*
X90687396Y-139287492D01*
X90852790Y-139356000D01*
X91327500Y-139356000D01*
X91440000Y-139243500D01*
X91440000Y-138306000D01*
X90604800Y-138306000D01*
X90492300Y-138418500D01*
X89773146Y-138418500D01*
X89516516Y-138161870D01*
X89516516Y-137406000D01*
X89498712Y-137316489D01*
X90492300Y-137316489D01*
X90492300Y-137893500D01*
X90604800Y-138006000D01*
X91440000Y-138006000D01*
X91440000Y-137068500D01*
X91327500Y-136956000D01*
X90852790Y-136956000D01*
X90687396Y-137024508D01*
X90560809Y-137151095D01*
X90492300Y-137316489D01*
X89498712Y-137316489D01*
X89481591Y-137230419D01*
X89382132Y-137081568D01*
X89233281Y-136982109D01*
X89057700Y-136947184D01*
X87762300Y-136947184D01*
X87586719Y-136982109D01*
X87460000Y-137066780D01*
X87333281Y-136982109D01*
X87157700Y-136947184D01*
X85862300Y-136947184D01*
X85686719Y-136982109D01*
X85537868Y-137081568D01*
X85438409Y-137230419D01*
X85403484Y-137406000D01*
X85403484Y-138906000D01*
X85438409Y-139081581D01*
X85537868Y-139230432D01*
X85578064Y-139257290D01*
X85545677Y-139289677D01*
X85426018Y-139468758D01*
X85400431Y-139597395D01*
X85388876Y-139655484D01*
X85186000Y-139655484D01*
X85010419Y-139690409D01*
X84861568Y-139789868D01*
X84762109Y-139938719D01*
X84727184Y-140114300D01*
X84727184Y-140210000D01*
X77366583Y-140210000D01*
X77217395Y-140060552D01*
X76941839Y-139946131D01*
X76798640Y-139946006D01*
X77436323Y-139308323D01*
X77555982Y-139129242D01*
X77598000Y-138918000D01*
X77598000Y-137672516D01*
X77796000Y-137672516D01*
X77971581Y-137637591D01*
X78057851Y-137579947D01*
X78073095Y-137595191D01*
X78238489Y-137663700D01*
X78815500Y-137663700D01*
X78928000Y-137551200D01*
X78928000Y-136716000D01*
X79228000Y-136716000D01*
X79228000Y-137551200D01*
X79340500Y-137663700D01*
X79917511Y-137663700D01*
X80082905Y-137595191D01*
X80209492Y-137468604D01*
X80278000Y-137303210D01*
X80278000Y-136828500D01*
X80165500Y-136716000D01*
X79228000Y-136716000D01*
X78928000Y-136716000D01*
X78908000Y-136716000D01*
X78908000Y-136416000D01*
X78928000Y-136416000D01*
X78928000Y-136396000D01*
X79228000Y-136396000D01*
X79228000Y-136416000D01*
X80165500Y-136416000D01*
X80278000Y-136303500D01*
X80278000Y-135828790D01*
X80209492Y-135663396D01*
X80165168Y-135619072D01*
X80251891Y-135489281D01*
X80269649Y-135400000D01*
X80441184Y-135400000D01*
X80441184Y-138600000D01*
X80476109Y-138775581D01*
X80575568Y-138924432D01*
X80724419Y-139023891D01*
X80900000Y-139058816D01*
X84100000Y-139058816D01*
X84275581Y-139023891D01*
X84424432Y-138924432D01*
X84523891Y-138775581D01*
X84558816Y-138600000D01*
X84558816Y-135400000D01*
X84523891Y-135224419D01*
X84424432Y-135075568D01*
X84275581Y-134976109D01*
X84100000Y-134941184D01*
X80900000Y-134941184D01*
X80724419Y-134976109D01*
X80575568Y-135075568D01*
X80476109Y-135224419D01*
X80441184Y-135400000D01*
X80269649Y-135400000D01*
X80286816Y-135313700D01*
X80286816Y-135144194D01*
X80418323Y-135056323D01*
X80830646Y-134644000D01*
X83904000Y-134644000D01*
X84115242Y-134601982D01*
X84294323Y-134482323D01*
X84617786Y-134158860D01*
X85442894Y-134158860D01*
X85442894Y-136407210D01*
X85477819Y-136582791D01*
X85577278Y-136731642D01*
X85726129Y-136831101D01*
X85901710Y-136866026D01*
X88002290Y-136866026D01*
X88177871Y-136831101D01*
X88326722Y-136731642D01*
X88426181Y-136582791D01*
X88461106Y-136407210D01*
X88461106Y-130806510D01*
X88426181Y-130630929D01*
X88326722Y-130482078D01*
X88177871Y-130382619D01*
X88002290Y-130347694D01*
X85901710Y-130347694D01*
X85726129Y-130382619D01*
X85577278Y-130482078D01*
X85477819Y-130630929D01*
X85442894Y-130806510D01*
X85442894Y-133054860D01*
X84389140Y-133054860D01*
X84177899Y-133096878D01*
X83998817Y-133216537D01*
X83675354Y-133540000D01*
X83330874Y-133540000D01*
X83346105Y-133533691D01*
X83472692Y-133407104D01*
X83541200Y-133241710D01*
X83541200Y-132398700D01*
X83428700Y-132286200D01*
X82911000Y-132286200D01*
X82911000Y-132306200D01*
X82611000Y-132306200D01*
X82611000Y-132286200D01*
X82591000Y-132286200D01*
X82591000Y-131986200D01*
X82611000Y-131986200D01*
X82611000Y-130782700D01*
X82911000Y-130782700D01*
X82911000Y-131986200D01*
X83428700Y-131986200D01*
X83541200Y-131873700D01*
X83541200Y-131030690D01*
X83472692Y-130865296D01*
X83346105Y-130738709D01*
X83180711Y-130670200D01*
X83023500Y-130670200D01*
X82911000Y-130782700D01*
X82611000Y-130782700D01*
X82498500Y-130670200D01*
X82341289Y-130670200D01*
X82175895Y-130738709D01*
X82155247Y-130759357D01*
X82145632Y-130744968D01*
X82043000Y-130676392D01*
X82043000Y-130409000D01*
X82026696Y-130327032D01*
X82000982Y-130197758D01*
X81881323Y-130018677D01*
X81246323Y-129383677D01*
X81067242Y-129264018D01*
X80856000Y-129222000D01*
X73744698Y-129222000D01*
X73661395Y-129138552D01*
X73385839Y-129024131D01*
X73087470Y-129023870D01*
X72811714Y-129137811D01*
X72600552Y-129348605D01*
X72486131Y-129624161D01*
X72485870Y-129922530D01*
X72599811Y-130198286D01*
X72810605Y-130409448D01*
X73086161Y-130523869D01*
X73384530Y-130524130D01*
X73660286Y-130410189D01*
X73744622Y-130326000D01*
X80627354Y-130326000D01*
X80939000Y-130637646D01*
X80939000Y-130676392D01*
X80856000Y-130731850D01*
X80726781Y-130645509D01*
X80551200Y-130610584D01*
X79890800Y-130610584D01*
X79715219Y-130645509D01*
X79586000Y-130731850D01*
X79456781Y-130645509D01*
X79281200Y-130610584D01*
X78620800Y-130610584D01*
X78445219Y-130645509D01*
X78316000Y-130731850D01*
X78186781Y-130645509D01*
X78011200Y-130610584D01*
X77350800Y-130610584D01*
X77175219Y-130645509D01*
X77046000Y-130731850D01*
X76916781Y-130645509D01*
X76741200Y-130610584D01*
X76080800Y-130610584D01*
X75905219Y-130645509D01*
X75776000Y-130731850D01*
X75646781Y-130645509D01*
X75471200Y-130610584D01*
X74810800Y-130610584D01*
X74635219Y-130645509D01*
X74506000Y-130731850D01*
X74376781Y-130645509D01*
X74201200Y-130610584D01*
X73540800Y-130610584D01*
X73365219Y-130645509D01*
X73216368Y-130744968D01*
X73116909Y-130893819D01*
X73081984Y-131069400D01*
X73081984Y-133101400D01*
X73116909Y-133276981D01*
X73216368Y-133425832D01*
X73365219Y-133525291D01*
X73540800Y-133560216D01*
X74201200Y-133560216D01*
X74376781Y-133525291D01*
X74506000Y-133438950D01*
X74635219Y-133525291D01*
X74810800Y-133560216D01*
X75471200Y-133560216D01*
X75646781Y-133525291D01*
X75776000Y-133438950D01*
X75905219Y-133525291D01*
X76080800Y-133560216D01*
X76292320Y-133560216D01*
X76120419Y-133594409D01*
X75971568Y-133693868D01*
X75872109Y-133842719D01*
X75837184Y-134018300D01*
X75837184Y-135313700D01*
X75872109Y-135489281D01*
X75956780Y-135616000D01*
X75872109Y-135742719D01*
X75837184Y-135918300D01*
X75837184Y-137213700D01*
X75872109Y-137389281D01*
X75971568Y-137538132D01*
X76120419Y-137637591D01*
X76296000Y-137672516D01*
X76494000Y-137672516D01*
X76494000Y-138689354D01*
X76055354Y-139128000D01*
X71686646Y-139128000D01*
X70486000Y-137927354D01*
X70486000Y-135400000D01*
X71441184Y-135400000D01*
X71441184Y-138600000D01*
X71476109Y-138775581D01*
X71575568Y-138924432D01*
X71724419Y-139023891D01*
X71900000Y-139058816D01*
X75100000Y-139058816D01*
X75275581Y-139023891D01*
X75424432Y-138924432D01*
X75523891Y-138775581D01*
X75558816Y-138600000D01*
X75558816Y-135400000D01*
X75523891Y-135224419D01*
X75424432Y-135075568D01*
X75275581Y-134976109D01*
X75100000Y-134941184D01*
X71900000Y-134941184D01*
X71724419Y-134976109D01*
X71575568Y-135075568D01*
X71476109Y-135224419D01*
X71441184Y-135400000D01*
X70486000Y-135400000D01*
X70486000Y-130805700D01*
X70941500Y-130805700D01*
X71054000Y-130693200D01*
X71054000Y-129858000D01*
X71354000Y-129858000D01*
X71354000Y-130693200D01*
X71466500Y-130805700D01*
X72043511Y-130805700D01*
X72208905Y-130737191D01*
X72335492Y-130610604D01*
X72404000Y-130445210D01*
X72404000Y-129970500D01*
X72291500Y-129858000D01*
X71354000Y-129858000D01*
X71054000Y-129858000D01*
X71034000Y-129858000D01*
X71034000Y-129558000D01*
X71054000Y-129558000D01*
X71054000Y-129538000D01*
X71354000Y-129538000D01*
X71354000Y-129558000D01*
X72291500Y-129558000D01*
X72404000Y-129445500D01*
X72404000Y-128970790D01*
X72335492Y-128805396D01*
X72291168Y-128761072D01*
X72377891Y-128631281D01*
X72412816Y-128455700D01*
X72412816Y-128408000D01*
X73356734Y-128408000D01*
X73361811Y-128420286D01*
X73572605Y-128631448D01*
X73848161Y-128745869D01*
X74146530Y-128746130D01*
X74422286Y-128632189D01*
X74633448Y-128421395D01*
X74747869Y-128145839D01*
X74748130Y-127847470D01*
X74634189Y-127571714D01*
X74471000Y-127408240D01*
X74471000Y-127315536D01*
X74506000Y-127292150D01*
X74635219Y-127378491D01*
X74810800Y-127413416D01*
X75471200Y-127413416D01*
X75646781Y-127378491D01*
X75776000Y-127292150D01*
X75859000Y-127347608D01*
X75859000Y-127869000D01*
X75901018Y-128080242D01*
X76020677Y-128259323D01*
X76401677Y-128640323D01*
X76580759Y-128759982D01*
X76792000Y-128802000D01*
X83395302Y-128802000D01*
X83478605Y-128885448D01*
X83754161Y-128999869D01*
X84052530Y-129000130D01*
X84328286Y-128886189D01*
X84539448Y-128675395D01*
X84653869Y-128399839D01*
X84654130Y-128101470D01*
X84628731Y-128040000D01*
X85174000Y-128040000D01*
X85385242Y-127997982D01*
X85564323Y-127878323D01*
X86366480Y-127076166D01*
X88078290Y-127076166D01*
X88253871Y-127041241D01*
X88402722Y-126941782D01*
X88502181Y-126792931D01*
X88537106Y-126617350D01*
X88537106Y-121024689D01*
X88601811Y-121181286D01*
X88686000Y-121265622D01*
X88686000Y-128757302D01*
X88602552Y-128840605D01*
X88488131Y-129116161D01*
X88487870Y-129414530D01*
X88601811Y-129690286D01*
X88812605Y-129901448D01*
X89088161Y-130015869D01*
X89298343Y-130016053D01*
X89250131Y-130132161D01*
X89249870Y-130430530D01*
X89363811Y-130706286D01*
X89574605Y-130917448D01*
X89850161Y-131031869D01*
X90148530Y-131032130D01*
X90424286Y-130918189D01*
X90635448Y-130707395D01*
X90749869Y-130431839D01*
X90750130Y-130133470D01*
X90701570Y-130015947D01*
X90910530Y-130016130D01*
X91186286Y-129902189D01*
X91397448Y-129691395D01*
X91511869Y-129415839D01*
X91512130Y-129117470D01*
X91398189Y-128841714D01*
X91314000Y-128757378D01*
X91314000Y-121265698D01*
X91397448Y-121182395D01*
X91511869Y-120906839D01*
X91512130Y-120608470D01*
X91401613Y-120341000D01*
X92333219Y-120341000D01*
X92368605Y-120376448D01*
X92644161Y-120490869D01*
X92942530Y-120491130D01*
X93218286Y-120377189D01*
X93429448Y-120166395D01*
X93543869Y-119890839D01*
X93544130Y-119592470D01*
X93539556Y-119581400D01*
X93547500Y-119581400D01*
X93660000Y-119468900D01*
X93660000Y-118265400D01*
X93960000Y-118265400D01*
X93960000Y-119468900D01*
X94072500Y-119581400D01*
X94229711Y-119581400D01*
X94395105Y-119512891D01*
X94521692Y-119386304D01*
X94590200Y-119220910D01*
X94590200Y-118377900D01*
X94477700Y-118265400D01*
X93960000Y-118265400D01*
X93660000Y-118265400D01*
X93640000Y-118265400D01*
X93640000Y-117965400D01*
X93660000Y-117965400D01*
X93660000Y-117945400D01*
X93960000Y-117945400D01*
X93960000Y-117965400D01*
X94477700Y-117965400D01*
X94516727Y-117926373D01*
X95070677Y-118480323D01*
X95070677Y-118480323D01*
G37*
X95070677Y-118480323D02*
X95150000Y-118533325D01*
X95150000Y-118909500D01*
X95262500Y-119022000D01*
X96200000Y-119022000D01*
X96200000Y-119002000D01*
X96500000Y-119002000D01*
X96500000Y-119022000D01*
X97437500Y-119022000D01*
X97550000Y-118909500D01*
X97550000Y-118800646D01*
X98372677Y-119623323D01*
X98551758Y-119742982D01*
X98763000Y-119785000D01*
X107081034Y-119785000D01*
X107079184Y-119794300D01*
X107079184Y-120296170D01*
X106119677Y-121255677D01*
X106000018Y-121434758D01*
X105974656Y-121562264D01*
X105958000Y-121646000D01*
X105958000Y-122179354D01*
X105777828Y-122359526D01*
X105843808Y-122158755D01*
X105805315Y-121647724D01*
X105683809Y-121354385D01*
X105488606Y-121263526D01*
X104752132Y-122000000D01*
X104766275Y-122014143D01*
X104554143Y-122226275D01*
X104540000Y-122212132D01*
X103803526Y-122948606D01*
X103894385Y-123143809D01*
X104381245Y-123303808D01*
X104870390Y-123266964D01*
X103716000Y-124421354D01*
X103090323Y-123795677D01*
X102911242Y-123676018D01*
X102700000Y-123634000D01*
X97848646Y-123634000D01*
X96902000Y-122687354D01*
X96902000Y-122255115D01*
X98171577Y-122255115D01*
X98367281Y-122728753D01*
X98729341Y-123091446D01*
X99202637Y-123287976D01*
X99715115Y-123288423D01*
X100188753Y-123092719D01*
X100551446Y-122730659D01*
X100730197Y-122300179D01*
X100907281Y-122728753D01*
X101269341Y-123091446D01*
X101742637Y-123287976D01*
X102255115Y-123288423D01*
X102728753Y-123092719D01*
X103091446Y-122730659D01*
X103270674Y-122299030D01*
X103274685Y-122352276D01*
X103396191Y-122645615D01*
X103591394Y-122736474D01*
X104327868Y-122000000D01*
X103591394Y-121263526D01*
X103396191Y-121354385D01*
X103276969Y-121717165D01*
X103092719Y-121271247D01*
X102873250Y-121051394D01*
X103803526Y-121051394D01*
X104540000Y-121787868D01*
X105276474Y-121051394D01*
X105185615Y-120856191D01*
X104698755Y-120696192D01*
X104187724Y-120734685D01*
X103894385Y-120856191D01*
X103803526Y-121051394D01*
X102873250Y-121051394D01*
X102730659Y-120908554D01*
X102257363Y-120712024D01*
X101744885Y-120711577D01*
X101271247Y-120907281D01*
X100908554Y-121269341D01*
X100729803Y-121699821D01*
X100552719Y-121271247D01*
X100190659Y-120908554D01*
X99717363Y-120712024D01*
X99204885Y-120711577D01*
X98731247Y-120907281D01*
X98368554Y-121269341D01*
X98172024Y-121742637D01*
X98171577Y-122255115D01*
X96902000Y-122255115D01*
X96902000Y-122178516D01*
X97100000Y-122178516D01*
X97275581Y-122143591D01*
X97424432Y-122044132D01*
X97523891Y-121895281D01*
X97558816Y-121719700D01*
X97558816Y-120424300D01*
X97523891Y-120248719D01*
X97437168Y-120118928D01*
X97481492Y-120074604D01*
X97550000Y-119909210D01*
X97550000Y-119434500D01*
X97437500Y-119322000D01*
X96500000Y-119322000D01*
X96500000Y-119342000D01*
X96200000Y-119342000D01*
X96200000Y-119322000D01*
X95262500Y-119322000D01*
X95150000Y-119434500D01*
X95150000Y-119909210D01*
X95218508Y-120074604D01*
X95262832Y-120118928D01*
X95176109Y-120248719D01*
X95141184Y-120424300D01*
X95141184Y-121719700D01*
X95155167Y-121790000D01*
X94638000Y-121790000D01*
X94537106Y-121810069D01*
X94537106Y-121016650D01*
X94502181Y-120841069D01*
X94402722Y-120692218D01*
X94253871Y-120592759D01*
X94078290Y-120557834D01*
X91977710Y-120557834D01*
X91802129Y-120592759D01*
X91653278Y-120692218D01*
X91553819Y-120841069D01*
X91518894Y-121016650D01*
X91518894Y-126617350D01*
X91553819Y-126792931D01*
X91653278Y-126941782D01*
X91802129Y-127041241D01*
X91977710Y-127076166D01*
X94078290Y-127076166D01*
X94253871Y-127041241D01*
X94402722Y-126941782D01*
X94502181Y-126792931D01*
X94537106Y-126617350D01*
X94537106Y-123223540D01*
X94866646Y-122894000D01*
X95798000Y-122894000D01*
X95798000Y-122916000D01*
X95840018Y-123127242D01*
X95959677Y-123306323D01*
X97117138Y-124463784D01*
X96908800Y-124463784D01*
X96733219Y-124498709D01*
X96584368Y-124598168D01*
X96484909Y-124747019D01*
X96449984Y-124922600D01*
X96449984Y-126954600D01*
X96484909Y-127130181D01*
X96584368Y-127279032D01*
X96639000Y-127315536D01*
X96639000Y-127791086D01*
X96616131Y-127846161D01*
X96615870Y-128144530D01*
X96729811Y-128420286D01*
X96940605Y-128631448D01*
X97216161Y-128745869D01*
X97514530Y-128746130D01*
X97790286Y-128632189D01*
X98001448Y-128421395D01*
X98115869Y-128145839D01*
X98116130Y-127847470D01*
X98002189Y-127571714D01*
X97839000Y-127408240D01*
X97839000Y-127315536D01*
X97874000Y-127292150D01*
X98003219Y-127378491D01*
X98178800Y-127413416D01*
X98839200Y-127413416D01*
X99014781Y-127378491D01*
X99144000Y-127292150D01*
X99273219Y-127378491D01*
X99448800Y-127413416D01*
X100109200Y-127413416D01*
X100284781Y-127378491D01*
X100414000Y-127292150D01*
X100543219Y-127378491D01*
X100718800Y-127413416D01*
X101379200Y-127413416D01*
X101554781Y-127378491D01*
X101687569Y-127289765D01*
X101733895Y-127336091D01*
X101899289Y-127404600D01*
X102056500Y-127404600D01*
X102169000Y-127292100D01*
X102169000Y-126088600D01*
X102149000Y-126088600D01*
X102149000Y-125788600D01*
X102169000Y-125788600D01*
X102169000Y-125768600D01*
X102469000Y-125768600D01*
X102469000Y-125788600D01*
X102489000Y-125788600D01*
X102489000Y-126088600D01*
X102469000Y-126088600D01*
X102469000Y-127292100D01*
X102581500Y-127404600D01*
X102738711Y-127404600D01*
X102904105Y-127336091D01*
X102950431Y-127289765D01*
X103083219Y-127378491D01*
X103258800Y-127413416D01*
X103919200Y-127413416D01*
X104094781Y-127378491D01*
X104224000Y-127292150D01*
X104307000Y-127347608D01*
X104307000Y-128885000D01*
X104349018Y-129096242D01*
X104468677Y-129275323D01*
X104725348Y-129531994D01*
X104583470Y-129531870D01*
X104307714Y-129645811D01*
X104096552Y-129856605D01*
X103982131Y-130132161D01*
X103981870Y-130430530D01*
X104068542Y-130640290D01*
X103919200Y-130610584D01*
X103258800Y-130610584D01*
X103083219Y-130645509D01*
X102954000Y-130731850D01*
X102824781Y-130645509D01*
X102649200Y-130610584D01*
X101988800Y-130610584D01*
X101813219Y-130645509D01*
X101684000Y-130731850D01*
X101554781Y-130645509D01*
X101379200Y-130610584D01*
X100718800Y-130610584D01*
X100543219Y-130645509D01*
X100414000Y-130731850D01*
X100284781Y-130645509D01*
X100109200Y-130610584D01*
X99448800Y-130610584D01*
X99273219Y-130645509D01*
X99144000Y-130731850D01*
X99014781Y-130645509D01*
X98839200Y-130610584D01*
X98178800Y-130610584D01*
X98003219Y-130645509D01*
X97874000Y-130731850D01*
X97744781Y-130645509D01*
X97569200Y-130610584D01*
X96908800Y-130610584D01*
X96733219Y-130645509D01*
X96584368Y-130744968D01*
X96484909Y-130893819D01*
X96449984Y-131069400D01*
X96449984Y-133101400D01*
X96484909Y-133276981D01*
X96584368Y-133425832D01*
X96733219Y-133525291D01*
X96908800Y-133560216D01*
X97569200Y-133560216D01*
X97744781Y-133525291D01*
X97874000Y-133438950D01*
X98003219Y-133525291D01*
X98178800Y-133560216D01*
X98839200Y-133560216D01*
X99014781Y-133525291D01*
X99144000Y-133438950D01*
X99273219Y-133525291D01*
X99448800Y-133560216D01*
X100109200Y-133560216D01*
X100284781Y-133525291D01*
X100414000Y-133438950D01*
X100543219Y-133525291D01*
X100715120Y-133559484D01*
X100172000Y-133559484D01*
X99996419Y-133594409D01*
X99847568Y-133693868D01*
X99748109Y-133842719D01*
X99732994Y-133918707D01*
X99609242Y-133836018D01*
X99398000Y-133794000D01*
X96578646Y-133794000D01*
X96001183Y-133216537D01*
X95822102Y-133096878D01*
X95610860Y-133054860D01*
X94557106Y-133054860D01*
X94557106Y-130806510D01*
X94522181Y-130630929D01*
X94422722Y-130482078D01*
X94273871Y-130382619D01*
X94098290Y-130347694D01*
X91997710Y-130347694D01*
X91822129Y-130382619D01*
X91673278Y-130482078D01*
X91573819Y-130630929D01*
X91538894Y-130806510D01*
X91538894Y-136407210D01*
X91573819Y-136582791D01*
X91673278Y-136731642D01*
X91822129Y-136831101D01*
X91997710Y-136866026D01*
X94098290Y-136866026D01*
X94273871Y-136831101D01*
X94422722Y-136731642D01*
X94522181Y-136582791D01*
X94557106Y-136407210D01*
X94557106Y-134158860D01*
X95382214Y-134158860D01*
X95959677Y-134736323D01*
X96138758Y-134855982D01*
X96350000Y-134898000D01*
X99169354Y-134898000D01*
X99240481Y-134969127D01*
X99100000Y-134941184D01*
X95900000Y-134941184D01*
X95724419Y-134976109D01*
X95575568Y-135075568D01*
X95476109Y-135224419D01*
X95441184Y-135400000D01*
X95441184Y-138509889D01*
X95229839Y-138422131D01*
X94931470Y-138421870D01*
X94655714Y-138535811D01*
X94596516Y-138594906D01*
X94596516Y-137406000D01*
X94561591Y-137230419D01*
X94462132Y-137081568D01*
X94313281Y-136982109D01*
X94137700Y-136947184D01*
X92842300Y-136947184D01*
X92666719Y-136982109D01*
X92536928Y-137068832D01*
X92492604Y-137024508D01*
X92327210Y-136956000D01*
X91852500Y-136956000D01*
X91740000Y-137068500D01*
X91740000Y-138006000D01*
X91760000Y-138006000D01*
X91760000Y-138306000D01*
X91740000Y-138306000D01*
X91740000Y-139243500D01*
X91852500Y-139356000D01*
X92327210Y-139356000D01*
X92492604Y-139287492D01*
X92536928Y-139243168D01*
X92666719Y-139329891D01*
X92842300Y-139364816D01*
X92938000Y-139364816D01*
X92938000Y-139481769D01*
X92923219Y-139484709D01*
X92790431Y-139573435D01*
X92744105Y-139527109D01*
X92578711Y-139458600D01*
X92421500Y-139458600D01*
X92309000Y-139571100D01*
X92309000Y-140774600D01*
X92329000Y-140774600D01*
X92329000Y-141074600D01*
X92309000Y-141074600D01*
X92309000Y-141094600D01*
X92009000Y-141094600D01*
X92009000Y-141074600D01*
X91989000Y-141074600D01*
X91989000Y-140774600D01*
X92009000Y-140774600D01*
X92009000Y-139571100D01*
X91896500Y-139458600D01*
X91739289Y-139458600D01*
X91573895Y-139527109D01*
X91527569Y-139573435D01*
X91394781Y-139484709D01*
X91219200Y-139449784D01*
X90804430Y-139449784D01*
X89773146Y-138418500D01*
X90492300Y-138418500D01*
X90492300Y-138995511D01*
X90560809Y-139160905D01*
X90687396Y-139287492D01*
X90852790Y-139356000D01*
X91327500Y-139356000D01*
X91440000Y-139243500D01*
X91440000Y-138306000D01*
X90604800Y-138306000D01*
X90492300Y-138418500D01*
X89773146Y-138418500D01*
X89516516Y-138161870D01*
X89516516Y-137406000D01*
X89498712Y-137316489D01*
X90492300Y-137316489D01*
X90492300Y-137893500D01*
X90604800Y-138006000D01*
X91440000Y-138006000D01*
X91440000Y-137068500D01*
X91327500Y-136956000D01*
X90852790Y-136956000D01*
X90687396Y-137024508D01*
X90560809Y-137151095D01*
X90492300Y-137316489D01*
X89498712Y-137316489D01*
X89481591Y-137230419D01*
X89382132Y-137081568D01*
X89233281Y-136982109D01*
X89057700Y-136947184D01*
X87762300Y-136947184D01*
X87586719Y-136982109D01*
X87460000Y-137066780D01*
X87333281Y-136982109D01*
X87157700Y-136947184D01*
X85862300Y-136947184D01*
X85686719Y-136982109D01*
X85537868Y-137081568D01*
X85438409Y-137230419D01*
X85403484Y-137406000D01*
X85403484Y-138906000D01*
X85438409Y-139081581D01*
X85537868Y-139230432D01*
X85578064Y-139257290D01*
X85545677Y-139289677D01*
X85426018Y-139468758D01*
X85400431Y-139597395D01*
X85388876Y-139655484D01*
X85186000Y-139655484D01*
X85010419Y-139690409D01*
X84861568Y-139789868D01*
X84762109Y-139938719D01*
X84727184Y-140114300D01*
X84727184Y-140210000D01*
X77366583Y-140210000D01*
X77217395Y-140060552D01*
X76941839Y-139946131D01*
X76798640Y-139946006D01*
X77436323Y-139308323D01*
X77555982Y-139129242D01*
X77598000Y-138918000D01*
X77598000Y-137672516D01*
X77796000Y-137672516D01*
X77971581Y-137637591D01*
X78057851Y-137579947D01*
X78073095Y-137595191D01*
X78238489Y-137663700D01*
X78815500Y-137663700D01*
X78928000Y-137551200D01*
X78928000Y-136716000D01*
X79228000Y-136716000D01*
X79228000Y-137551200D01*
X79340500Y-137663700D01*
X79917511Y-137663700D01*
X80082905Y-137595191D01*
X80209492Y-137468604D01*
X80278000Y-137303210D01*
X80278000Y-136828500D01*
X80165500Y-136716000D01*
X79228000Y-136716000D01*
X78928000Y-136716000D01*
X78908000Y-136716000D01*
X78908000Y-136416000D01*
X78928000Y-136416000D01*
X78928000Y-136396000D01*
X79228000Y-136396000D01*
X79228000Y-136416000D01*
X80165500Y-136416000D01*
X80278000Y-136303500D01*
X80278000Y-135828790D01*
X80209492Y-135663396D01*
X80165168Y-135619072D01*
X80251891Y-135489281D01*
X80269649Y-135400000D01*
X80441184Y-135400000D01*
X80441184Y-138600000D01*
X80476109Y-138775581D01*
X80575568Y-138924432D01*
X80724419Y-139023891D01*
X80900000Y-139058816D01*
X84100000Y-139058816D01*
X84275581Y-139023891D01*
X84424432Y-138924432D01*
X84523891Y-138775581D01*
X84558816Y-138600000D01*
X84558816Y-135400000D01*
X84523891Y-135224419D01*
X84424432Y-135075568D01*
X84275581Y-134976109D01*
X84100000Y-134941184D01*
X80900000Y-134941184D01*
X80724419Y-134976109D01*
X80575568Y-135075568D01*
X80476109Y-135224419D01*
X80441184Y-135400000D01*
X80269649Y-135400000D01*
X80286816Y-135313700D01*
X80286816Y-135144194D01*
X80418323Y-135056323D01*
X80830646Y-134644000D01*
X83904000Y-134644000D01*
X84115242Y-134601982D01*
X84294323Y-134482323D01*
X84617786Y-134158860D01*
X85442894Y-134158860D01*
X85442894Y-136407210D01*
X85477819Y-136582791D01*
X85577278Y-136731642D01*
X85726129Y-136831101D01*
X85901710Y-136866026D01*
X88002290Y-136866026D01*
X88177871Y-136831101D01*
X88326722Y-136731642D01*
X88426181Y-136582791D01*
X88461106Y-136407210D01*
X88461106Y-130806510D01*
X88426181Y-130630929D01*
X88326722Y-130482078D01*
X88177871Y-130382619D01*
X88002290Y-130347694D01*
X85901710Y-130347694D01*
X85726129Y-130382619D01*
X85577278Y-130482078D01*
X85477819Y-130630929D01*
X85442894Y-130806510D01*
X85442894Y-133054860D01*
X84389140Y-133054860D01*
X84177899Y-133096878D01*
X83998817Y-133216537D01*
X83675354Y-133540000D01*
X83330874Y-133540000D01*
X83346105Y-133533691D01*
X83472692Y-133407104D01*
X83541200Y-133241710D01*
X83541200Y-132398700D01*
X83428700Y-132286200D01*
X82911000Y-132286200D01*
X82911000Y-132306200D01*
X82611000Y-132306200D01*
X82611000Y-132286200D01*
X82591000Y-132286200D01*
X82591000Y-131986200D01*
X82611000Y-131986200D01*
X82611000Y-130782700D01*
X82911000Y-130782700D01*
X82911000Y-131986200D01*
X83428700Y-131986200D01*
X83541200Y-131873700D01*
X83541200Y-131030690D01*
X83472692Y-130865296D01*
X83346105Y-130738709D01*
X83180711Y-130670200D01*
X83023500Y-130670200D01*
X82911000Y-130782700D01*
X82611000Y-130782700D01*
X82498500Y-130670200D01*
X82341289Y-130670200D01*
X82175895Y-130738709D01*
X82155247Y-130759357D01*
X82145632Y-130744968D01*
X82043000Y-130676392D01*
X82043000Y-130409000D01*
X82026696Y-130327032D01*
X82000982Y-130197758D01*
X81881323Y-130018677D01*
X81246323Y-129383677D01*
X81067242Y-129264018D01*
X80856000Y-129222000D01*
X73744698Y-129222000D01*
X73661395Y-129138552D01*
X73385839Y-129024131D01*
X73087470Y-129023870D01*
X72811714Y-129137811D01*
X72600552Y-129348605D01*
X72486131Y-129624161D01*
X72485870Y-129922530D01*
X72599811Y-130198286D01*
X72810605Y-130409448D01*
X73086161Y-130523869D01*
X73384530Y-130524130D01*
X73660286Y-130410189D01*
X73744622Y-130326000D01*
X80627354Y-130326000D01*
X80939000Y-130637646D01*
X80939000Y-130676392D01*
X80856000Y-130731850D01*
X80726781Y-130645509D01*
X80551200Y-130610584D01*
X79890800Y-130610584D01*
X79715219Y-130645509D01*
X79586000Y-130731850D01*
X79456781Y-130645509D01*
X79281200Y-130610584D01*
X78620800Y-130610584D01*
X78445219Y-130645509D01*
X78316000Y-130731850D01*
X78186781Y-130645509D01*
X78011200Y-130610584D01*
X77350800Y-130610584D01*
X77175219Y-130645509D01*
X77046000Y-130731850D01*
X76916781Y-130645509D01*
X76741200Y-130610584D01*
X76080800Y-130610584D01*
X75905219Y-130645509D01*
X75776000Y-130731850D01*
X75646781Y-130645509D01*
X75471200Y-130610584D01*
X74810800Y-130610584D01*
X74635219Y-130645509D01*
X74506000Y-130731850D01*
X74376781Y-130645509D01*
X74201200Y-130610584D01*
X73540800Y-130610584D01*
X73365219Y-130645509D01*
X73216368Y-130744968D01*
X73116909Y-130893819D01*
X73081984Y-131069400D01*
X73081984Y-133101400D01*
X73116909Y-133276981D01*
X73216368Y-133425832D01*
X73365219Y-133525291D01*
X73540800Y-133560216D01*
X74201200Y-133560216D01*
X74376781Y-133525291D01*
X74506000Y-133438950D01*
X74635219Y-133525291D01*
X74810800Y-133560216D01*
X75471200Y-133560216D01*
X75646781Y-133525291D01*
X75776000Y-133438950D01*
X75905219Y-133525291D01*
X76080800Y-133560216D01*
X76292320Y-133560216D01*
X76120419Y-133594409D01*
X75971568Y-133693868D01*
X75872109Y-133842719D01*
X75837184Y-134018300D01*
X75837184Y-135313700D01*
X75872109Y-135489281D01*
X75956780Y-135616000D01*
X75872109Y-135742719D01*
X75837184Y-135918300D01*
X75837184Y-137213700D01*
X75872109Y-137389281D01*
X75971568Y-137538132D01*
X76120419Y-137637591D01*
X76296000Y-137672516D01*
X76494000Y-137672516D01*
X76494000Y-138689354D01*
X76055354Y-139128000D01*
X71686646Y-139128000D01*
X70486000Y-137927354D01*
X70486000Y-135400000D01*
X71441184Y-135400000D01*
X71441184Y-138600000D01*
X71476109Y-138775581D01*
X71575568Y-138924432D01*
X71724419Y-139023891D01*
X71900000Y-139058816D01*
X75100000Y-139058816D01*
X75275581Y-139023891D01*
X75424432Y-138924432D01*
X75523891Y-138775581D01*
X75558816Y-138600000D01*
X75558816Y-135400000D01*
X75523891Y-135224419D01*
X75424432Y-135075568D01*
X75275581Y-134976109D01*
X75100000Y-134941184D01*
X71900000Y-134941184D01*
X71724419Y-134976109D01*
X71575568Y-135075568D01*
X71476109Y-135224419D01*
X71441184Y-135400000D01*
X70486000Y-135400000D01*
X70486000Y-130805700D01*
X70941500Y-130805700D01*
X71054000Y-130693200D01*
X71054000Y-129858000D01*
X71354000Y-129858000D01*
X71354000Y-130693200D01*
X71466500Y-130805700D01*
X72043511Y-130805700D01*
X72208905Y-130737191D01*
X72335492Y-130610604D01*
X72404000Y-130445210D01*
X72404000Y-129970500D01*
X72291500Y-129858000D01*
X71354000Y-129858000D01*
X71054000Y-129858000D01*
X71034000Y-129858000D01*
X71034000Y-129558000D01*
X71054000Y-129558000D01*
X71054000Y-129538000D01*
X71354000Y-129538000D01*
X71354000Y-129558000D01*
X72291500Y-129558000D01*
X72404000Y-129445500D01*
X72404000Y-128970790D01*
X72335492Y-128805396D01*
X72291168Y-128761072D01*
X72377891Y-128631281D01*
X72412816Y-128455700D01*
X72412816Y-128408000D01*
X73356734Y-128408000D01*
X73361811Y-128420286D01*
X73572605Y-128631448D01*
X73848161Y-128745869D01*
X74146530Y-128746130D01*
X74422286Y-128632189D01*
X74633448Y-128421395D01*
X74747869Y-128145839D01*
X74748130Y-127847470D01*
X74634189Y-127571714D01*
X74471000Y-127408240D01*
X74471000Y-127315536D01*
X74506000Y-127292150D01*
X74635219Y-127378491D01*
X74810800Y-127413416D01*
X75471200Y-127413416D01*
X75646781Y-127378491D01*
X75776000Y-127292150D01*
X75859000Y-127347608D01*
X75859000Y-127869000D01*
X75901018Y-128080242D01*
X76020677Y-128259323D01*
X76401677Y-128640323D01*
X76580759Y-128759982D01*
X76792000Y-128802000D01*
X83395302Y-128802000D01*
X83478605Y-128885448D01*
X83754161Y-128999869D01*
X84052530Y-129000130D01*
X84328286Y-128886189D01*
X84539448Y-128675395D01*
X84653869Y-128399839D01*
X84654130Y-128101470D01*
X84628731Y-128040000D01*
X85174000Y-128040000D01*
X85385242Y-127997982D01*
X85564323Y-127878323D01*
X86366480Y-127076166D01*
X88078290Y-127076166D01*
X88253871Y-127041241D01*
X88402722Y-126941782D01*
X88502181Y-126792931D01*
X88537106Y-126617350D01*
X88537106Y-121024689D01*
X88601811Y-121181286D01*
X88686000Y-121265622D01*
X88686000Y-128757302D01*
X88602552Y-128840605D01*
X88488131Y-129116161D01*
X88487870Y-129414530D01*
X88601811Y-129690286D01*
X88812605Y-129901448D01*
X89088161Y-130015869D01*
X89298343Y-130016053D01*
X89250131Y-130132161D01*
X89249870Y-130430530D01*
X89363811Y-130706286D01*
X89574605Y-130917448D01*
X89850161Y-131031869D01*
X90148530Y-131032130D01*
X90424286Y-130918189D01*
X90635448Y-130707395D01*
X90749869Y-130431839D01*
X90750130Y-130133470D01*
X90701570Y-130015947D01*
X90910530Y-130016130D01*
X91186286Y-129902189D01*
X91397448Y-129691395D01*
X91511869Y-129415839D01*
X91512130Y-129117470D01*
X91398189Y-128841714D01*
X91314000Y-128757378D01*
X91314000Y-121265698D01*
X91397448Y-121182395D01*
X91511869Y-120906839D01*
X91512130Y-120608470D01*
X91401613Y-120341000D01*
X92333219Y-120341000D01*
X92368605Y-120376448D01*
X92644161Y-120490869D01*
X92942530Y-120491130D01*
X93218286Y-120377189D01*
X93429448Y-120166395D01*
X93543869Y-119890839D01*
X93544130Y-119592470D01*
X93539556Y-119581400D01*
X93547500Y-119581400D01*
X93660000Y-119468900D01*
X93660000Y-118265400D01*
X93960000Y-118265400D01*
X93960000Y-119468900D01*
X94072500Y-119581400D01*
X94229711Y-119581400D01*
X94395105Y-119512891D01*
X94521692Y-119386304D01*
X94590200Y-119220910D01*
X94590200Y-118377900D01*
X94477700Y-118265400D01*
X93960000Y-118265400D01*
X93660000Y-118265400D01*
X93640000Y-118265400D01*
X93640000Y-117965400D01*
X93660000Y-117965400D01*
X93660000Y-117945400D01*
X93960000Y-117945400D01*
X93960000Y-117965400D01*
X94477700Y-117965400D01*
X94516727Y-117926373D01*
X95070677Y-118480323D01*
G36*
X68318000Y-130329219D02*
X68282552Y-130364605D01*
X68168131Y-130640161D01*
X68167870Y-130938530D01*
X68281811Y-131214286D01*
X68318000Y-131250538D01*
X68318000Y-136246651D01*
X68300930Y-136239563D01*
X68301200Y-136238910D01*
X68301200Y-135395900D01*
X68188700Y-135283400D01*
X67671000Y-135283400D01*
X67671000Y-135303400D01*
X67371000Y-135303400D01*
X67371000Y-135283400D01*
X67351000Y-135283400D01*
X67351000Y-134983400D01*
X67371000Y-134983400D01*
X67371000Y-133779900D01*
X67671000Y-133779900D01*
X67671000Y-134983400D01*
X68188700Y-134983400D01*
X68301200Y-134870900D01*
X68301200Y-134027890D01*
X68232692Y-133862496D01*
X68106105Y-133735909D01*
X67940711Y-133667400D01*
X67783500Y-133667400D01*
X67671000Y-133779900D01*
X67371000Y-133779900D01*
X67258500Y-133667400D01*
X67101289Y-133667400D01*
X66935895Y-133735909D01*
X66889569Y-133782235D01*
X66803000Y-133724392D01*
X66803000Y-133177646D01*
X67911323Y-132069323D01*
X68030982Y-131890242D01*
X68073000Y-131679000D01*
X68073000Y-130395608D01*
X68175632Y-130327032D01*
X68275091Y-130178181D01*
X68310016Y-130002600D01*
X68310016Y-127970600D01*
X68275091Y-127795019D01*
X68175632Y-127646168D01*
X68076605Y-127580000D01*
X68318000Y-127580000D01*
X68318000Y-130329219D01*
X68318000Y-130329219D01*
G37*
X68318000Y-130329219D02*
X68282552Y-130364605D01*
X68168131Y-130640161D01*
X68167870Y-130938530D01*
X68281811Y-131214286D01*
X68318000Y-131250538D01*
X68318000Y-136246651D01*
X68300930Y-136239563D01*
X68301200Y-136238910D01*
X68301200Y-135395900D01*
X68188700Y-135283400D01*
X67671000Y-135283400D01*
X67671000Y-135303400D01*
X67371000Y-135303400D01*
X67371000Y-135283400D01*
X67351000Y-135283400D01*
X67351000Y-134983400D01*
X67371000Y-134983400D01*
X67371000Y-133779900D01*
X67671000Y-133779900D01*
X67671000Y-134983400D01*
X68188700Y-134983400D01*
X68301200Y-134870900D01*
X68301200Y-134027890D01*
X68232692Y-133862496D01*
X68106105Y-133735909D01*
X67940711Y-133667400D01*
X67783500Y-133667400D01*
X67671000Y-133779900D01*
X67371000Y-133779900D01*
X67258500Y-133667400D01*
X67101289Y-133667400D01*
X66935895Y-133735909D01*
X66889569Y-133782235D01*
X66803000Y-133724392D01*
X66803000Y-133177646D01*
X67911323Y-132069323D01*
X68030982Y-131890242D01*
X68073000Y-131679000D01*
X68073000Y-130395608D01*
X68175632Y-130327032D01*
X68275091Y-130178181D01*
X68310016Y-130002600D01*
X68310016Y-127970600D01*
X68275091Y-127795019D01*
X68175632Y-127646168D01*
X68076605Y-127580000D01*
X68318000Y-127580000D01*
X68318000Y-130329219D01*
G36*
X105623219Y-127378491D02*
X105798800Y-127413416D01*
X106226835Y-127413416D01*
X106226660Y-127414300D01*
X106212000Y-127488000D01*
X106212000Y-128503302D01*
X106128552Y-128586605D01*
X106014131Y-128862161D01*
X106013870Y-129160530D01*
X106127811Y-129436286D01*
X106338605Y-129647448D01*
X106614161Y-129761869D01*
X106912530Y-129762130D01*
X107188286Y-129648189D01*
X107399448Y-129437395D01*
X107513869Y-129161839D01*
X107514130Y-128863470D01*
X107431443Y-128663354D01*
X107630161Y-128745869D01*
X107848416Y-128746060D01*
X107876109Y-128885281D01*
X107962832Y-129015072D01*
X107918508Y-129059396D01*
X107850000Y-129224790D01*
X107850000Y-129699500D01*
X107962500Y-129812000D01*
X108900000Y-129812000D01*
X108900000Y-129792000D01*
X109200000Y-129792000D01*
X109200000Y-129812000D01*
X109220000Y-129812000D01*
X109220000Y-130112000D01*
X109200000Y-130112000D01*
X109200000Y-130947200D01*
X109312500Y-131059700D01*
X109889511Y-131059700D01*
X110022000Y-131004821D01*
X110022000Y-131577354D01*
X108405677Y-133193677D01*
X108286018Y-133372758D01*
X108255678Y-133525291D01*
X108244000Y-133584000D01*
X108244000Y-134969827D01*
X108100000Y-134941184D01*
X104917462Y-134941184D01*
X105884323Y-133974323D01*
X106003982Y-133795242D01*
X106046000Y-133584000D01*
X106046000Y-132286200D01*
X106279000Y-132286200D01*
X106279000Y-133489700D01*
X106391500Y-133602200D01*
X106548711Y-133602200D01*
X106714105Y-133533691D01*
X106840692Y-133407104D01*
X106909200Y-133241710D01*
X106909200Y-132398700D01*
X106796700Y-132286200D01*
X106279000Y-132286200D01*
X106046000Y-132286200D01*
X106046000Y-130782700D01*
X106279000Y-130782700D01*
X106279000Y-131986200D01*
X106796700Y-131986200D01*
X106909200Y-131873700D01*
X106909200Y-131030690D01*
X106840692Y-130865296D01*
X106714105Y-130738709D01*
X106548711Y-130670200D01*
X106391500Y-130670200D01*
X106279000Y-130782700D01*
X106046000Y-130782700D01*
X106046000Y-130224500D01*
X107850000Y-130224500D01*
X107850000Y-130699210D01*
X107918508Y-130864604D01*
X108045095Y-130991191D01*
X108210489Y-131059700D01*
X108787500Y-131059700D01*
X108900000Y-130947200D01*
X108900000Y-130112000D01*
X107962500Y-130112000D01*
X107850000Y-130224500D01*
X106046000Y-130224500D01*
X106046000Y-129520000D01*
X106029569Y-129437395D01*
X106003982Y-129308758D01*
X105884323Y-129129677D01*
X105411000Y-128656354D01*
X105411000Y-127347608D01*
X105494000Y-127292150D01*
X105623219Y-127378491D01*
X105623219Y-127378491D01*
G37*
X105623219Y-127378491D02*
X105798800Y-127413416D01*
X106226835Y-127413416D01*
X106226660Y-127414300D01*
X106212000Y-127488000D01*
X106212000Y-128503302D01*
X106128552Y-128586605D01*
X106014131Y-128862161D01*
X106013870Y-129160530D01*
X106127811Y-129436286D01*
X106338605Y-129647448D01*
X106614161Y-129761869D01*
X106912530Y-129762130D01*
X107188286Y-129648189D01*
X107399448Y-129437395D01*
X107513869Y-129161839D01*
X107514130Y-128863470D01*
X107431443Y-128663354D01*
X107630161Y-128745869D01*
X107848416Y-128746060D01*
X107876109Y-128885281D01*
X107962832Y-129015072D01*
X107918508Y-129059396D01*
X107850000Y-129224790D01*
X107850000Y-129699500D01*
X107962500Y-129812000D01*
X108900000Y-129812000D01*
X108900000Y-129792000D01*
X109200000Y-129792000D01*
X109200000Y-129812000D01*
X109220000Y-129812000D01*
X109220000Y-130112000D01*
X109200000Y-130112000D01*
X109200000Y-130947200D01*
X109312500Y-131059700D01*
X109889511Y-131059700D01*
X110022000Y-131004821D01*
X110022000Y-131577354D01*
X108405677Y-133193677D01*
X108286018Y-133372758D01*
X108255678Y-133525291D01*
X108244000Y-133584000D01*
X108244000Y-134969827D01*
X108100000Y-134941184D01*
X104917462Y-134941184D01*
X105884323Y-133974323D01*
X106003982Y-133795242D01*
X106046000Y-133584000D01*
X106046000Y-132286200D01*
X106279000Y-132286200D01*
X106279000Y-133489700D01*
X106391500Y-133602200D01*
X106548711Y-133602200D01*
X106714105Y-133533691D01*
X106840692Y-133407104D01*
X106909200Y-133241710D01*
X106909200Y-132398700D01*
X106796700Y-132286200D01*
X106279000Y-132286200D01*
X106046000Y-132286200D01*
X106046000Y-130782700D01*
X106279000Y-130782700D01*
X106279000Y-131986200D01*
X106796700Y-131986200D01*
X106909200Y-131873700D01*
X106909200Y-131030690D01*
X106840692Y-130865296D01*
X106714105Y-130738709D01*
X106548711Y-130670200D01*
X106391500Y-130670200D01*
X106279000Y-130782700D01*
X106046000Y-130782700D01*
X106046000Y-130224500D01*
X107850000Y-130224500D01*
X107850000Y-130699210D01*
X107918508Y-130864604D01*
X108045095Y-130991191D01*
X108210489Y-131059700D01*
X108787500Y-131059700D01*
X108900000Y-130947200D01*
X108900000Y-130112000D01*
X107962500Y-130112000D01*
X107850000Y-130224500D01*
X106046000Y-130224500D01*
X106046000Y-129520000D01*
X106029569Y-129437395D01*
X106003982Y-129308758D01*
X105884323Y-129129677D01*
X105411000Y-128656354D01*
X105411000Y-127347608D01*
X105494000Y-127292150D01*
X105623219Y-127378491D01*
G36*
X79101000Y-125788600D02*
X79121000Y-125788600D01*
X79121000Y-126088600D01*
X79101000Y-126088600D01*
X79101000Y-127292100D01*
X79213500Y-127404600D01*
X79370711Y-127404600D01*
X79536105Y-127336091D01*
X79582431Y-127289765D01*
X79715219Y-127378491D01*
X79756802Y-127386762D01*
X79830677Y-127497323D01*
X80031354Y-127698000D01*
X77020646Y-127698000D01*
X76963000Y-127640354D01*
X76963000Y-127347608D01*
X77046000Y-127292150D01*
X77175219Y-127378491D01*
X77350800Y-127413416D01*
X78011200Y-127413416D01*
X78186781Y-127378491D01*
X78319569Y-127289765D01*
X78365895Y-127336091D01*
X78531289Y-127404600D01*
X78688500Y-127404600D01*
X78801000Y-127292100D01*
X78801000Y-126088600D01*
X78781000Y-126088600D01*
X78781000Y-125788600D01*
X78801000Y-125788600D01*
X78801000Y-125768600D01*
X79101000Y-125768600D01*
X79101000Y-125788600D01*
X79101000Y-125788600D01*
G37*
X79101000Y-125788600D02*
X79121000Y-125788600D01*
X79121000Y-126088600D01*
X79101000Y-126088600D01*
X79101000Y-127292100D01*
X79213500Y-127404600D01*
X79370711Y-127404600D01*
X79536105Y-127336091D01*
X79582431Y-127289765D01*
X79715219Y-127378491D01*
X79756802Y-127386762D01*
X79830677Y-127497323D01*
X80031354Y-127698000D01*
X77020646Y-127698000D01*
X76963000Y-127640354D01*
X76963000Y-127347608D01*
X77046000Y-127292150D01*
X77175219Y-127378491D01*
X77350800Y-127413416D01*
X78011200Y-127413416D01*
X78186781Y-127378491D01*
X78319569Y-127289765D01*
X78365895Y-127336091D01*
X78531289Y-127404600D01*
X78688500Y-127404600D01*
X78801000Y-127292100D01*
X78801000Y-126088600D01*
X78781000Y-126088600D01*
X78781000Y-125788600D01*
X78801000Y-125788600D01*
X78801000Y-125768600D01*
X79101000Y-125768600D01*
X79101000Y-125788600D01*
G36*
X80441184Y-113400000D02*
X80441184Y-116600000D01*
X80476109Y-116775581D01*
X80575568Y-116924432D01*
X80724419Y-117023891D01*
X80900000Y-117058816D01*
X84100000Y-117058816D01*
X84275581Y-117023891D01*
X84424432Y-116924432D01*
X84523891Y-116775581D01*
X84558816Y-116600000D01*
X84558816Y-116376328D01*
X84748605Y-116566448D01*
X85024161Y-116680869D01*
X85322530Y-116681130D01*
X85500616Y-116607546D01*
X85553811Y-116736286D01*
X85569595Y-116752098D01*
X85535368Y-116774968D01*
X85435909Y-116923819D01*
X85400984Y-117099400D01*
X85400984Y-118806338D01*
X85376323Y-118781677D01*
X85197242Y-118662018D01*
X84986000Y-118620000D01*
X84858816Y-118620000D01*
X84858816Y-118524300D01*
X84823891Y-118348719D01*
X84724432Y-118199868D01*
X84575581Y-118100409D01*
X84400000Y-118065484D01*
X82900000Y-118065484D01*
X82724419Y-118100409D01*
X82575568Y-118199868D01*
X82476109Y-118348719D01*
X82441184Y-118524300D01*
X82441184Y-118554000D01*
X80118516Y-118554000D01*
X80118516Y-118356000D01*
X80083591Y-118180419D01*
X79984132Y-118031568D01*
X79835281Y-117932109D01*
X79659700Y-117897184D01*
X78364300Y-117897184D01*
X78188719Y-117932109D01*
X78058928Y-118018832D01*
X78014604Y-117974508D01*
X77849210Y-117906000D01*
X77374500Y-117906000D01*
X77262000Y-118018500D01*
X77262000Y-118956000D01*
X77282000Y-118956000D01*
X77282000Y-119256000D01*
X77262000Y-119256000D01*
X77262000Y-120193500D01*
X77374500Y-120306000D01*
X77849210Y-120306000D01*
X78014604Y-120237492D01*
X78058928Y-120193168D01*
X78188719Y-120279891D01*
X78364300Y-120314816D01*
X79659700Y-120314816D01*
X79835281Y-120279891D01*
X79984132Y-120180432D01*
X80083591Y-120031581D01*
X80118516Y-119856000D01*
X80118516Y-119658000D01*
X82441184Y-119658000D01*
X82441184Y-119819700D01*
X82476109Y-119995281D01*
X82560780Y-120122000D01*
X82476109Y-120248719D01*
X82441184Y-120424300D01*
X82441184Y-121719700D01*
X82476109Y-121895281D01*
X82575568Y-122044132D01*
X82665279Y-122104075D01*
X81262354Y-123507000D01*
X77638426Y-123507000D01*
X77511242Y-123422018D01*
X77300000Y-123380000D01*
X73746229Y-123380000D01*
X73788000Y-123170000D01*
X73788000Y-119842646D01*
X73882994Y-119747652D01*
X73882870Y-119889530D01*
X73996811Y-120165286D01*
X74033000Y-120201538D01*
X74033000Y-120884000D01*
X74078672Y-121113610D01*
X74208736Y-121308264D01*
X74310242Y-121409770D01*
X74172024Y-121742637D01*
X74171577Y-122255115D01*
X74367281Y-122728753D01*
X74729341Y-123091446D01*
X75202637Y-123287976D01*
X75715115Y-123288423D01*
X76188753Y-123092719D01*
X76551446Y-122730659D01*
X76730197Y-122300179D01*
X76907281Y-122728753D01*
X77269341Y-123091446D01*
X77742637Y-123287976D01*
X78255115Y-123288423D01*
X78728753Y-123092719D01*
X78873117Y-122948606D01*
X79803526Y-122948606D01*
X79894385Y-123143809D01*
X80381245Y-123303808D01*
X80892276Y-123265315D01*
X81185615Y-123143809D01*
X81276474Y-122948606D01*
X80540000Y-122212132D01*
X79803526Y-122948606D01*
X78873117Y-122948606D01*
X79091446Y-122730659D01*
X79270674Y-122299030D01*
X79274685Y-122352276D01*
X79396191Y-122645615D01*
X79591394Y-122736474D01*
X80327868Y-122000000D01*
X80752132Y-122000000D01*
X81488606Y-122736474D01*
X81683809Y-122645615D01*
X81843808Y-122158755D01*
X81805315Y-121647724D01*
X81683809Y-121354385D01*
X81488606Y-121263526D01*
X80752132Y-122000000D01*
X80327868Y-122000000D01*
X79591394Y-121263526D01*
X79396191Y-121354385D01*
X79276969Y-121717165D01*
X79092719Y-121271247D01*
X78873250Y-121051394D01*
X79803526Y-121051394D01*
X80540000Y-121787868D01*
X81276474Y-121051394D01*
X81185615Y-120856191D01*
X80698755Y-120696192D01*
X80187724Y-120734685D01*
X79894385Y-120856191D01*
X79803526Y-121051394D01*
X78873250Y-121051394D01*
X78730659Y-120908554D01*
X78257363Y-120712024D01*
X77744885Y-120711577D01*
X77271247Y-120907281D01*
X76908554Y-121269341D01*
X76729803Y-121699821D01*
X76552719Y-121271247D01*
X76190659Y-120908554D01*
X75717363Y-120712024D01*
X75309196Y-120711668D01*
X75233000Y-120635472D01*
X75233000Y-120201781D01*
X75268448Y-120166395D01*
X75382869Y-119890839D01*
X75383130Y-119592470D01*
X75290587Y-119368500D01*
X76014300Y-119368500D01*
X76014300Y-119945511D01*
X76082809Y-120110905D01*
X76209396Y-120237492D01*
X76374790Y-120306000D01*
X76849500Y-120306000D01*
X76962000Y-120193500D01*
X76962000Y-119256000D01*
X76126800Y-119256000D01*
X76014300Y-119368500D01*
X75290587Y-119368500D01*
X75269189Y-119316714D01*
X75058395Y-119105552D01*
X74782839Y-118991131D01*
X74639640Y-118991006D01*
X75364157Y-118266489D01*
X76014300Y-118266489D01*
X76014300Y-118843500D01*
X76126800Y-118956000D01*
X76962000Y-118956000D01*
X76962000Y-118018500D01*
X76849500Y-117906000D01*
X76374790Y-117906000D01*
X76209396Y-117974508D01*
X76082809Y-118101095D01*
X76014300Y-118266489D01*
X75364157Y-118266489D01*
X76420323Y-117210323D01*
X76539982Y-117031242D01*
X76582000Y-116820000D01*
X76582000Y-114324000D01*
X78062000Y-114324000D01*
X78273242Y-114281982D01*
X78452323Y-114162323D01*
X79306646Y-113308000D01*
X80459484Y-113308000D01*
X80441184Y-113400000D01*
X80441184Y-113400000D01*
G37*
X80441184Y-113400000D02*
X80441184Y-116600000D01*
X80476109Y-116775581D01*
X80575568Y-116924432D01*
X80724419Y-117023891D01*
X80900000Y-117058816D01*
X84100000Y-117058816D01*
X84275581Y-117023891D01*
X84424432Y-116924432D01*
X84523891Y-116775581D01*
X84558816Y-116600000D01*
X84558816Y-116376328D01*
X84748605Y-116566448D01*
X85024161Y-116680869D01*
X85322530Y-116681130D01*
X85500616Y-116607546D01*
X85553811Y-116736286D01*
X85569595Y-116752098D01*
X85535368Y-116774968D01*
X85435909Y-116923819D01*
X85400984Y-117099400D01*
X85400984Y-118806338D01*
X85376323Y-118781677D01*
X85197242Y-118662018D01*
X84986000Y-118620000D01*
X84858816Y-118620000D01*
X84858816Y-118524300D01*
X84823891Y-118348719D01*
X84724432Y-118199868D01*
X84575581Y-118100409D01*
X84400000Y-118065484D01*
X82900000Y-118065484D01*
X82724419Y-118100409D01*
X82575568Y-118199868D01*
X82476109Y-118348719D01*
X82441184Y-118524300D01*
X82441184Y-118554000D01*
X80118516Y-118554000D01*
X80118516Y-118356000D01*
X80083591Y-118180419D01*
X79984132Y-118031568D01*
X79835281Y-117932109D01*
X79659700Y-117897184D01*
X78364300Y-117897184D01*
X78188719Y-117932109D01*
X78058928Y-118018832D01*
X78014604Y-117974508D01*
X77849210Y-117906000D01*
X77374500Y-117906000D01*
X77262000Y-118018500D01*
X77262000Y-118956000D01*
X77282000Y-118956000D01*
X77282000Y-119256000D01*
X77262000Y-119256000D01*
X77262000Y-120193500D01*
X77374500Y-120306000D01*
X77849210Y-120306000D01*
X78014604Y-120237492D01*
X78058928Y-120193168D01*
X78188719Y-120279891D01*
X78364300Y-120314816D01*
X79659700Y-120314816D01*
X79835281Y-120279891D01*
X79984132Y-120180432D01*
X80083591Y-120031581D01*
X80118516Y-119856000D01*
X80118516Y-119658000D01*
X82441184Y-119658000D01*
X82441184Y-119819700D01*
X82476109Y-119995281D01*
X82560780Y-120122000D01*
X82476109Y-120248719D01*
X82441184Y-120424300D01*
X82441184Y-121719700D01*
X82476109Y-121895281D01*
X82575568Y-122044132D01*
X82665279Y-122104075D01*
X81262354Y-123507000D01*
X77638426Y-123507000D01*
X77511242Y-123422018D01*
X77300000Y-123380000D01*
X73746229Y-123380000D01*
X73788000Y-123170000D01*
X73788000Y-119842646D01*
X73882994Y-119747652D01*
X73882870Y-119889530D01*
X73996811Y-120165286D01*
X74033000Y-120201538D01*
X74033000Y-120884000D01*
X74078672Y-121113610D01*
X74208736Y-121308264D01*
X74310242Y-121409770D01*
X74172024Y-121742637D01*
X74171577Y-122255115D01*
X74367281Y-122728753D01*
X74729341Y-123091446D01*
X75202637Y-123287976D01*
X75715115Y-123288423D01*
X76188753Y-123092719D01*
X76551446Y-122730659D01*
X76730197Y-122300179D01*
X76907281Y-122728753D01*
X77269341Y-123091446D01*
X77742637Y-123287976D01*
X78255115Y-123288423D01*
X78728753Y-123092719D01*
X78873117Y-122948606D01*
X79803526Y-122948606D01*
X79894385Y-123143809D01*
X80381245Y-123303808D01*
X80892276Y-123265315D01*
X81185615Y-123143809D01*
X81276474Y-122948606D01*
X80540000Y-122212132D01*
X79803526Y-122948606D01*
X78873117Y-122948606D01*
X79091446Y-122730659D01*
X79270674Y-122299030D01*
X79274685Y-122352276D01*
X79396191Y-122645615D01*
X79591394Y-122736474D01*
X80327868Y-122000000D01*
X80752132Y-122000000D01*
X81488606Y-122736474D01*
X81683809Y-122645615D01*
X81843808Y-122158755D01*
X81805315Y-121647724D01*
X81683809Y-121354385D01*
X81488606Y-121263526D01*
X80752132Y-122000000D01*
X80327868Y-122000000D01*
X79591394Y-121263526D01*
X79396191Y-121354385D01*
X79276969Y-121717165D01*
X79092719Y-121271247D01*
X78873250Y-121051394D01*
X79803526Y-121051394D01*
X80540000Y-121787868D01*
X81276474Y-121051394D01*
X81185615Y-120856191D01*
X80698755Y-120696192D01*
X80187724Y-120734685D01*
X79894385Y-120856191D01*
X79803526Y-121051394D01*
X78873250Y-121051394D01*
X78730659Y-120908554D01*
X78257363Y-120712024D01*
X77744885Y-120711577D01*
X77271247Y-120907281D01*
X76908554Y-121269341D01*
X76729803Y-121699821D01*
X76552719Y-121271247D01*
X76190659Y-120908554D01*
X75717363Y-120712024D01*
X75309196Y-120711668D01*
X75233000Y-120635472D01*
X75233000Y-120201781D01*
X75268448Y-120166395D01*
X75382869Y-119890839D01*
X75383130Y-119592470D01*
X75290587Y-119368500D01*
X76014300Y-119368500D01*
X76014300Y-119945511D01*
X76082809Y-120110905D01*
X76209396Y-120237492D01*
X76374790Y-120306000D01*
X76849500Y-120306000D01*
X76962000Y-120193500D01*
X76962000Y-119256000D01*
X76126800Y-119256000D01*
X76014300Y-119368500D01*
X75290587Y-119368500D01*
X75269189Y-119316714D01*
X75058395Y-119105552D01*
X74782839Y-118991131D01*
X74639640Y-118991006D01*
X75364157Y-118266489D01*
X76014300Y-118266489D01*
X76014300Y-118843500D01*
X76126800Y-118956000D01*
X76962000Y-118956000D01*
X76962000Y-118018500D01*
X76849500Y-117906000D01*
X76374790Y-117906000D01*
X76209396Y-117974508D01*
X76082809Y-118101095D01*
X76014300Y-118266489D01*
X75364157Y-118266489D01*
X76420323Y-117210323D01*
X76539982Y-117031242D01*
X76582000Y-116820000D01*
X76582000Y-114324000D01*
X78062000Y-114324000D01*
X78273242Y-114281982D01*
X78452323Y-114162323D01*
X79306646Y-113308000D01*
X80459484Y-113308000D01*
X80441184Y-113400000D01*
G36*
X70919109Y-107041281D02*
X71005832Y-107171072D01*
X70961508Y-107215396D01*
X70893000Y-107380790D01*
X70893000Y-107855500D01*
X71005500Y-107968000D01*
X71943000Y-107968000D01*
X71943000Y-107948000D01*
X72243000Y-107948000D01*
X72243000Y-107968000D01*
X73180500Y-107968000D01*
X73293000Y-107855500D01*
X73293000Y-107438528D01*
X73906000Y-108051528D01*
X73906000Y-108696464D01*
X73851368Y-108732968D01*
X73751909Y-108881819D01*
X73716984Y-109057400D01*
X73716984Y-111089400D01*
X73751909Y-111264981D01*
X73802611Y-111340861D01*
X73749472Y-111394000D01*
X71585000Y-111394000D01*
X71355390Y-111439672D01*
X71160736Y-111569736D01*
X69954736Y-112775736D01*
X69824672Y-112970390D01*
X69779000Y-113200000D01*
X69779000Y-117300000D01*
X67178816Y-117300000D01*
X67178816Y-117050000D01*
X67143891Y-116874419D01*
X67044432Y-116725568D01*
X66895581Y-116626109D01*
X66892710Y-116625538D01*
X66974904Y-116591492D01*
X67101491Y-116464905D01*
X67170000Y-116299511D01*
X67170000Y-115622500D01*
X67057500Y-115510000D01*
X66020000Y-115510000D01*
X66020000Y-115530000D01*
X65720000Y-115530000D01*
X65720000Y-115510000D01*
X64682500Y-115510000D01*
X64600000Y-115592500D01*
X64517500Y-115510000D01*
X63480000Y-115510000D01*
X63480000Y-115530000D01*
X63180000Y-115530000D01*
X63180000Y-115510000D01*
X63160000Y-115510000D01*
X63160000Y-115210000D01*
X63180000Y-115210000D01*
X63180000Y-114172500D01*
X63480000Y-114172500D01*
X63480000Y-115210000D01*
X64517500Y-115210000D01*
X64600000Y-115127500D01*
X64682500Y-115210000D01*
X65720000Y-115210000D01*
X65720000Y-114172500D01*
X65637500Y-114090000D01*
X65720000Y-114007500D01*
X65720000Y-112970000D01*
X66020000Y-112970000D01*
X66020000Y-114007500D01*
X66102500Y-114090000D01*
X66020000Y-114172500D01*
X66020000Y-115210000D01*
X67057500Y-115210000D01*
X67170000Y-115097500D01*
X67170000Y-114420489D01*
X67101491Y-114255095D01*
X66974904Y-114128508D01*
X66881937Y-114090000D01*
X66974904Y-114051492D01*
X67101491Y-113924905D01*
X67170000Y-113759511D01*
X67170000Y-113082500D01*
X67057500Y-112970000D01*
X66020000Y-112970000D01*
X65720000Y-112970000D01*
X64682500Y-112970000D01*
X64570000Y-113082500D01*
X64570000Y-113759511D01*
X64638509Y-113924905D01*
X64765096Y-114051492D01*
X64858063Y-114090000D01*
X64765096Y-114128508D01*
X64638509Y-114255095D01*
X64600000Y-114348063D01*
X64561492Y-114255096D01*
X64434905Y-114128509D01*
X64269511Y-114060000D01*
X63592500Y-114060000D01*
X63480000Y-114172500D01*
X63180000Y-114172500D01*
X63067500Y-114060000D01*
X62406000Y-114060000D01*
X62406000Y-113576528D01*
X64516264Y-111466264D01*
X64609869Y-111326174D01*
X64695568Y-111454432D01*
X64844419Y-111553891D01*
X64847290Y-111554462D01*
X64765096Y-111588508D01*
X64638509Y-111715095D01*
X64570000Y-111880489D01*
X64570000Y-112557500D01*
X64682500Y-112670000D01*
X65720000Y-112670000D01*
X65720000Y-112650000D01*
X66020000Y-112650000D01*
X66020000Y-112670000D01*
X67057500Y-112670000D01*
X67170000Y-112557500D01*
X67170000Y-111880489D01*
X67101491Y-111715095D01*
X66974904Y-111588508D01*
X66892710Y-111554462D01*
X66895581Y-111553891D01*
X67044432Y-111454432D01*
X67143891Y-111305581D01*
X67178816Y-111130000D01*
X67178816Y-109430000D01*
X67143891Y-109254419D01*
X67044432Y-109105568D01*
X66895581Y-109006109D01*
X66720000Y-108971184D01*
X65020000Y-108971184D01*
X64844419Y-109006109D01*
X64695568Y-109105568D01*
X64692000Y-109110908D01*
X64692000Y-108940528D01*
X65252028Y-108380500D01*
X68480000Y-108380500D01*
X68480000Y-108855210D01*
X68548508Y-109020604D01*
X68675095Y-109147191D01*
X68840489Y-109215700D01*
X69417500Y-109215700D01*
X69530000Y-109103200D01*
X69530000Y-108268000D01*
X69830000Y-108268000D01*
X69830000Y-109103200D01*
X69942500Y-109215700D01*
X70519511Y-109215700D01*
X70684905Y-109147191D01*
X70811492Y-109020604D01*
X70880000Y-108855210D01*
X70880000Y-108380500D01*
X70893000Y-108380500D01*
X70893000Y-108855210D01*
X70961508Y-109020604D01*
X71088095Y-109147191D01*
X71253489Y-109215700D01*
X71830500Y-109215700D01*
X71943000Y-109103200D01*
X71943000Y-108268000D01*
X72243000Y-108268000D01*
X72243000Y-109103200D01*
X72355500Y-109215700D01*
X72932511Y-109215700D01*
X73097905Y-109147191D01*
X73224492Y-109020604D01*
X73293000Y-108855210D01*
X73293000Y-108380500D01*
X73180500Y-108268000D01*
X72243000Y-108268000D01*
X71943000Y-108268000D01*
X71005500Y-108268000D01*
X70893000Y-108380500D01*
X70880000Y-108380500D01*
X70767500Y-108268000D01*
X69830000Y-108268000D01*
X69530000Y-108268000D01*
X68592500Y-108268000D01*
X68480000Y-108380500D01*
X65252028Y-108380500D01*
X65610528Y-108022000D01*
X67394000Y-108022000D01*
X67623610Y-107976328D01*
X67818264Y-107846264D01*
X68326264Y-107338264D01*
X68456328Y-107143611D01*
X68491396Y-106967312D01*
X68506109Y-107041281D01*
X68592832Y-107171072D01*
X68548508Y-107215396D01*
X68480000Y-107380790D01*
X68480000Y-107855500D01*
X68592500Y-107968000D01*
X69530000Y-107968000D01*
X69530000Y-107948000D01*
X69830000Y-107948000D01*
X69830000Y-107968000D01*
X70767500Y-107968000D01*
X70880000Y-107855500D01*
X70880000Y-107380790D01*
X70811492Y-107215396D01*
X70767168Y-107171072D01*
X70853891Y-107041281D01*
X70886500Y-106877343D01*
X70919109Y-107041281D01*
X70919109Y-107041281D01*
G37*
X70919109Y-107041281D02*
X71005832Y-107171072D01*
X70961508Y-107215396D01*
X70893000Y-107380790D01*
X70893000Y-107855500D01*
X71005500Y-107968000D01*
X71943000Y-107968000D01*
X71943000Y-107948000D01*
X72243000Y-107948000D01*
X72243000Y-107968000D01*
X73180500Y-107968000D01*
X73293000Y-107855500D01*
X73293000Y-107438528D01*
X73906000Y-108051528D01*
X73906000Y-108696464D01*
X73851368Y-108732968D01*
X73751909Y-108881819D01*
X73716984Y-109057400D01*
X73716984Y-111089400D01*
X73751909Y-111264981D01*
X73802611Y-111340861D01*
X73749472Y-111394000D01*
X71585000Y-111394000D01*
X71355390Y-111439672D01*
X71160736Y-111569736D01*
X69954736Y-112775736D01*
X69824672Y-112970390D01*
X69779000Y-113200000D01*
X69779000Y-117300000D01*
X67178816Y-117300000D01*
X67178816Y-117050000D01*
X67143891Y-116874419D01*
X67044432Y-116725568D01*
X66895581Y-116626109D01*
X66892710Y-116625538D01*
X66974904Y-116591492D01*
X67101491Y-116464905D01*
X67170000Y-116299511D01*
X67170000Y-115622500D01*
X67057500Y-115510000D01*
X66020000Y-115510000D01*
X66020000Y-115530000D01*
X65720000Y-115530000D01*
X65720000Y-115510000D01*
X64682500Y-115510000D01*
X64600000Y-115592500D01*
X64517500Y-115510000D01*
X63480000Y-115510000D01*
X63480000Y-115530000D01*
X63180000Y-115530000D01*
X63180000Y-115510000D01*
X63160000Y-115510000D01*
X63160000Y-115210000D01*
X63180000Y-115210000D01*
X63180000Y-114172500D01*
X63480000Y-114172500D01*
X63480000Y-115210000D01*
X64517500Y-115210000D01*
X64600000Y-115127500D01*
X64682500Y-115210000D01*
X65720000Y-115210000D01*
X65720000Y-114172500D01*
X65637500Y-114090000D01*
X65720000Y-114007500D01*
X65720000Y-112970000D01*
X66020000Y-112970000D01*
X66020000Y-114007500D01*
X66102500Y-114090000D01*
X66020000Y-114172500D01*
X66020000Y-115210000D01*
X67057500Y-115210000D01*
X67170000Y-115097500D01*
X67170000Y-114420489D01*
X67101491Y-114255095D01*
X66974904Y-114128508D01*
X66881937Y-114090000D01*
X66974904Y-114051492D01*
X67101491Y-113924905D01*
X67170000Y-113759511D01*
X67170000Y-113082500D01*
X67057500Y-112970000D01*
X66020000Y-112970000D01*
X65720000Y-112970000D01*
X64682500Y-112970000D01*
X64570000Y-113082500D01*
X64570000Y-113759511D01*
X64638509Y-113924905D01*
X64765096Y-114051492D01*
X64858063Y-114090000D01*
X64765096Y-114128508D01*
X64638509Y-114255095D01*
X64600000Y-114348063D01*
X64561492Y-114255096D01*
X64434905Y-114128509D01*
X64269511Y-114060000D01*
X63592500Y-114060000D01*
X63480000Y-114172500D01*
X63180000Y-114172500D01*
X63067500Y-114060000D01*
X62406000Y-114060000D01*
X62406000Y-113576528D01*
X64516264Y-111466264D01*
X64609869Y-111326174D01*
X64695568Y-111454432D01*
X64844419Y-111553891D01*
X64847290Y-111554462D01*
X64765096Y-111588508D01*
X64638509Y-111715095D01*
X64570000Y-111880489D01*
X64570000Y-112557500D01*
X64682500Y-112670000D01*
X65720000Y-112670000D01*
X65720000Y-112650000D01*
X66020000Y-112650000D01*
X66020000Y-112670000D01*
X67057500Y-112670000D01*
X67170000Y-112557500D01*
X67170000Y-111880489D01*
X67101491Y-111715095D01*
X66974904Y-111588508D01*
X66892710Y-111554462D01*
X66895581Y-111553891D01*
X67044432Y-111454432D01*
X67143891Y-111305581D01*
X67178816Y-111130000D01*
X67178816Y-109430000D01*
X67143891Y-109254419D01*
X67044432Y-109105568D01*
X66895581Y-109006109D01*
X66720000Y-108971184D01*
X65020000Y-108971184D01*
X64844419Y-109006109D01*
X64695568Y-109105568D01*
X64692000Y-109110908D01*
X64692000Y-108940528D01*
X65252028Y-108380500D01*
X68480000Y-108380500D01*
X68480000Y-108855210D01*
X68548508Y-109020604D01*
X68675095Y-109147191D01*
X68840489Y-109215700D01*
X69417500Y-109215700D01*
X69530000Y-109103200D01*
X69530000Y-108268000D01*
X69830000Y-108268000D01*
X69830000Y-109103200D01*
X69942500Y-109215700D01*
X70519511Y-109215700D01*
X70684905Y-109147191D01*
X70811492Y-109020604D01*
X70880000Y-108855210D01*
X70880000Y-108380500D01*
X70893000Y-108380500D01*
X70893000Y-108855210D01*
X70961508Y-109020604D01*
X71088095Y-109147191D01*
X71253489Y-109215700D01*
X71830500Y-109215700D01*
X71943000Y-109103200D01*
X71943000Y-108268000D01*
X72243000Y-108268000D01*
X72243000Y-109103200D01*
X72355500Y-109215700D01*
X72932511Y-109215700D01*
X73097905Y-109147191D01*
X73224492Y-109020604D01*
X73293000Y-108855210D01*
X73293000Y-108380500D01*
X73180500Y-108268000D01*
X72243000Y-108268000D01*
X71943000Y-108268000D01*
X71005500Y-108268000D01*
X70893000Y-108380500D01*
X70880000Y-108380500D01*
X70767500Y-108268000D01*
X69830000Y-108268000D01*
X69530000Y-108268000D01*
X68592500Y-108268000D01*
X68480000Y-108380500D01*
X65252028Y-108380500D01*
X65610528Y-108022000D01*
X67394000Y-108022000D01*
X67623610Y-107976328D01*
X67818264Y-107846264D01*
X68326264Y-107338264D01*
X68456328Y-107143611D01*
X68491396Y-106967312D01*
X68506109Y-107041281D01*
X68592832Y-107171072D01*
X68548508Y-107215396D01*
X68480000Y-107380790D01*
X68480000Y-107855500D01*
X68592500Y-107968000D01*
X69530000Y-107968000D01*
X69530000Y-107948000D01*
X69830000Y-107948000D01*
X69830000Y-107968000D01*
X70767500Y-107968000D01*
X70880000Y-107855500D01*
X70880000Y-107380790D01*
X70811492Y-107215396D01*
X70767168Y-107171072D01*
X70853891Y-107041281D01*
X70886500Y-106877343D01*
X70919109Y-107041281D01*
G36*
X73971184Y-76850000D02*
X74006109Y-77025581D01*
X74105568Y-77174432D01*
X74254419Y-77273891D01*
X74430000Y-77308816D01*
X76430000Y-77308816D01*
X76605581Y-77273891D01*
X76754432Y-77174432D01*
X76853891Y-77025581D01*
X76888816Y-76850000D01*
X76888816Y-76450000D01*
X88087472Y-76450000D01*
X101483472Y-89846000D01*
X91016000Y-89846000D01*
X90996866Y-89849806D01*
X90980645Y-89860645D01*
X90969806Y-89876866D01*
X90966000Y-89896000D01*
X90966000Y-90335354D01*
X87596323Y-86965677D01*
X87417242Y-86846018D01*
X87206000Y-86804000D01*
X81618000Y-86804000D01*
X81406758Y-86846018D01*
X81227677Y-86965677D01*
X80023677Y-88169677D01*
X79904018Y-88348758D01*
X79904018Y-88348759D01*
X79862000Y-88560000D01*
X79862000Y-88814184D01*
X79766300Y-88814184D01*
X79590719Y-88849109D01*
X79441868Y-88948568D01*
X79342409Y-89097419D01*
X79307484Y-89273000D01*
X79307484Y-89780865D01*
X79206189Y-89535714D01*
X78995395Y-89324552D01*
X78719839Y-89210131D01*
X78600673Y-89210027D01*
X78134323Y-88743677D01*
X78086516Y-88711733D01*
X78086516Y-88384000D01*
X78051591Y-88208419D01*
X77952132Y-88059568D01*
X77803281Y-87960109D01*
X77627700Y-87925184D01*
X76332300Y-87925184D01*
X76156719Y-87960109D01*
X76030000Y-88044780D01*
X75903281Y-87960109D01*
X75727700Y-87925184D01*
X74432300Y-87925184D01*
X74256719Y-87960109D01*
X74107868Y-88059568D01*
X74008409Y-88208419D01*
X73973484Y-88384000D01*
X73973484Y-89884000D01*
X73976449Y-89898905D01*
X71229354Y-92646000D01*
X70416646Y-92646000D01*
X67276323Y-89505677D01*
X67097242Y-89386018D01*
X66886000Y-89344000D01*
X62886000Y-89344000D01*
X62674758Y-89386018D01*
X62495677Y-89505677D01*
X61161677Y-90839677D01*
X61042018Y-91018758D01*
X61042018Y-91018759D01*
X61000000Y-91230000D01*
X61000000Y-94278000D01*
X61042018Y-94489242D01*
X61161677Y-94668323D01*
X61923677Y-95430323D01*
X62021184Y-95495476D01*
X62021184Y-95890000D01*
X62056109Y-96065581D01*
X62155568Y-96214432D01*
X62298596Y-96310000D01*
X62155568Y-96405568D01*
X62056109Y-96554419D01*
X62021184Y-96730000D01*
X62021184Y-98430000D01*
X62056109Y-98605581D01*
X62155568Y-98754432D01*
X62298596Y-98850000D01*
X62155568Y-98945568D01*
X62056109Y-99094419D01*
X62021184Y-99270000D01*
X62021184Y-100970000D01*
X62056109Y-101145581D01*
X62155568Y-101294432D01*
X62298596Y-101390000D01*
X62155568Y-101485568D01*
X62056109Y-101634419D01*
X62021184Y-101810000D01*
X62021184Y-103510000D01*
X62056109Y-103685581D01*
X62155568Y-103834432D01*
X62298596Y-103930000D01*
X62155568Y-104025568D01*
X62056109Y-104174419D01*
X62021184Y-104350000D01*
X62021184Y-106050000D01*
X62056109Y-106225581D01*
X62155568Y-106374432D01*
X62304419Y-106473891D01*
X62480000Y-106508816D01*
X62778000Y-106508816D01*
X62778000Y-108781354D01*
X60653677Y-110905677D01*
X60534018Y-111084758D01*
X60500448Y-111253530D01*
X60500000Y-111255781D01*
X60500000Y-79229816D01*
X66321000Y-79229816D01*
X66496581Y-79194891D01*
X66645432Y-79095432D01*
X66744891Y-78946581D01*
X66779816Y-78771000D01*
X66779816Y-76450000D01*
X73971184Y-76450000D01*
X73971184Y-76850000D01*
X73971184Y-76850000D01*
G37*
X73971184Y-76850000D02*
X74006109Y-77025581D01*
X74105568Y-77174432D01*
X74254419Y-77273891D01*
X74430000Y-77308816D01*
X76430000Y-77308816D01*
X76605581Y-77273891D01*
X76754432Y-77174432D01*
X76853891Y-77025581D01*
X76888816Y-76850000D01*
X76888816Y-76450000D01*
X88087472Y-76450000D01*
X101483472Y-89846000D01*
X91016000Y-89846000D01*
X90996866Y-89849806D01*
X90980645Y-89860645D01*
X90969806Y-89876866D01*
X90966000Y-89896000D01*
X90966000Y-90335354D01*
X87596323Y-86965677D01*
X87417242Y-86846018D01*
X87206000Y-86804000D01*
X81618000Y-86804000D01*
X81406758Y-86846018D01*
X81227677Y-86965677D01*
X80023677Y-88169677D01*
X79904018Y-88348758D01*
X79904018Y-88348759D01*
X79862000Y-88560000D01*
X79862000Y-88814184D01*
X79766300Y-88814184D01*
X79590719Y-88849109D01*
X79441868Y-88948568D01*
X79342409Y-89097419D01*
X79307484Y-89273000D01*
X79307484Y-89780865D01*
X79206189Y-89535714D01*
X78995395Y-89324552D01*
X78719839Y-89210131D01*
X78600673Y-89210027D01*
X78134323Y-88743677D01*
X78086516Y-88711733D01*
X78086516Y-88384000D01*
X78051591Y-88208419D01*
X77952132Y-88059568D01*
X77803281Y-87960109D01*
X77627700Y-87925184D01*
X76332300Y-87925184D01*
X76156719Y-87960109D01*
X76030000Y-88044780D01*
X75903281Y-87960109D01*
X75727700Y-87925184D01*
X74432300Y-87925184D01*
X74256719Y-87960109D01*
X74107868Y-88059568D01*
X74008409Y-88208419D01*
X73973484Y-88384000D01*
X73973484Y-89884000D01*
X73976449Y-89898905D01*
X71229354Y-92646000D01*
X70416646Y-92646000D01*
X67276323Y-89505677D01*
X67097242Y-89386018D01*
X66886000Y-89344000D01*
X62886000Y-89344000D01*
X62674758Y-89386018D01*
X62495677Y-89505677D01*
X61161677Y-90839677D01*
X61042018Y-91018758D01*
X61042018Y-91018759D01*
X61000000Y-91230000D01*
X61000000Y-94278000D01*
X61042018Y-94489242D01*
X61161677Y-94668323D01*
X61923677Y-95430323D01*
X62021184Y-95495476D01*
X62021184Y-95890000D01*
X62056109Y-96065581D01*
X62155568Y-96214432D01*
X62298596Y-96310000D01*
X62155568Y-96405568D01*
X62056109Y-96554419D01*
X62021184Y-96730000D01*
X62021184Y-98430000D01*
X62056109Y-98605581D01*
X62155568Y-98754432D01*
X62298596Y-98850000D01*
X62155568Y-98945568D01*
X62056109Y-99094419D01*
X62021184Y-99270000D01*
X62021184Y-100970000D01*
X62056109Y-101145581D01*
X62155568Y-101294432D01*
X62298596Y-101390000D01*
X62155568Y-101485568D01*
X62056109Y-101634419D01*
X62021184Y-101810000D01*
X62021184Y-103510000D01*
X62056109Y-103685581D01*
X62155568Y-103834432D01*
X62298596Y-103930000D01*
X62155568Y-104025568D01*
X62056109Y-104174419D01*
X62021184Y-104350000D01*
X62021184Y-106050000D01*
X62056109Y-106225581D01*
X62155568Y-106374432D01*
X62304419Y-106473891D01*
X62480000Y-106508816D01*
X62778000Y-106508816D01*
X62778000Y-108781354D01*
X60653677Y-110905677D01*
X60534018Y-111084758D01*
X60500448Y-111253530D01*
X60500000Y-111255781D01*
X60500000Y-79229816D01*
X66321000Y-79229816D01*
X66496581Y-79194891D01*
X66645432Y-79095432D01*
X66744891Y-78946581D01*
X66779816Y-78771000D01*
X66779816Y-76450000D01*
X73971184Y-76450000D01*
X73971184Y-76850000D01*
G36*
X86251184Y-107119700D02*
X86286109Y-107295281D01*
X86372832Y-107425072D01*
X86328508Y-107469396D01*
X86260000Y-107634790D01*
X86260000Y-108109500D01*
X86372500Y-108222000D01*
X87310000Y-108222000D01*
X87310000Y-108202000D01*
X87610000Y-108202000D01*
X87610000Y-108222000D01*
X88547500Y-108222000D01*
X88660000Y-108109500D01*
X88660000Y-107634790D01*
X88591492Y-107469396D01*
X88547168Y-107425072D01*
X88633891Y-107295281D01*
X88668816Y-107119700D01*
X88668816Y-106770000D01*
X89456354Y-106770000D01*
X90305354Y-107619000D01*
X90090790Y-107619000D01*
X89925396Y-107687508D01*
X89798809Y-107814095D01*
X89730300Y-107979489D01*
X89730300Y-108556500D01*
X89842800Y-108669000D01*
X90678000Y-108669000D01*
X90678000Y-108649000D01*
X90966000Y-108649000D01*
X90966000Y-108989000D01*
X90678000Y-108989000D01*
X90678000Y-108969000D01*
X89842800Y-108969000D01*
X89730300Y-109081500D01*
X89730300Y-109362000D01*
X88504096Y-109362000D01*
X88591492Y-109274604D01*
X88660000Y-109109210D01*
X88660000Y-108634500D01*
X88547500Y-108522000D01*
X87610000Y-108522000D01*
X87610000Y-109357200D01*
X87652329Y-109399529D01*
X87611389Y-109407672D01*
X87416736Y-109537736D01*
X87035736Y-109918736D01*
X86905672Y-110113390D01*
X86860000Y-110343000D01*
X86860000Y-110591664D01*
X86825000Y-110615050D01*
X86695781Y-110528709D01*
X86526379Y-110495013D01*
X86419610Y-110423672D01*
X86190000Y-110378000D01*
X85960390Y-110423672D01*
X85853621Y-110495013D01*
X85768494Y-110511946D01*
X85599395Y-110342552D01*
X85323839Y-110228131D01*
X85204673Y-110228027D01*
X84455162Y-109478516D01*
X85670000Y-109478516D01*
X85845581Y-109443591D01*
X85994432Y-109344132D01*
X86093891Y-109195281D01*
X86128816Y-109019700D01*
X86128816Y-108634500D01*
X86260000Y-108634500D01*
X86260000Y-109109210D01*
X86328508Y-109274604D01*
X86455095Y-109401191D01*
X86620489Y-109469700D01*
X87197500Y-109469700D01*
X87310000Y-109357200D01*
X87310000Y-108522000D01*
X86372500Y-108522000D01*
X86260000Y-108634500D01*
X86128816Y-108634500D01*
X86128816Y-107724300D01*
X86093891Y-107548719D01*
X86009220Y-107422000D01*
X86093891Y-107295281D01*
X86128816Y-107119700D01*
X86128816Y-106770000D01*
X86251184Y-106770000D01*
X86251184Y-107119700D01*
X86251184Y-107119700D01*
G37*
X86251184Y-107119700D02*
X86286109Y-107295281D01*
X86372832Y-107425072D01*
X86328508Y-107469396D01*
X86260000Y-107634790D01*
X86260000Y-108109500D01*
X86372500Y-108222000D01*
X87310000Y-108222000D01*
X87310000Y-108202000D01*
X87610000Y-108202000D01*
X87610000Y-108222000D01*
X88547500Y-108222000D01*
X88660000Y-108109500D01*
X88660000Y-107634790D01*
X88591492Y-107469396D01*
X88547168Y-107425072D01*
X88633891Y-107295281D01*
X88668816Y-107119700D01*
X88668816Y-106770000D01*
X89456354Y-106770000D01*
X90305354Y-107619000D01*
X90090790Y-107619000D01*
X89925396Y-107687508D01*
X89798809Y-107814095D01*
X89730300Y-107979489D01*
X89730300Y-108556500D01*
X89842800Y-108669000D01*
X90678000Y-108669000D01*
X90678000Y-108649000D01*
X90966000Y-108649000D01*
X90966000Y-108989000D01*
X90678000Y-108989000D01*
X90678000Y-108969000D01*
X89842800Y-108969000D01*
X89730300Y-109081500D01*
X89730300Y-109362000D01*
X88504096Y-109362000D01*
X88591492Y-109274604D01*
X88660000Y-109109210D01*
X88660000Y-108634500D01*
X88547500Y-108522000D01*
X87610000Y-108522000D01*
X87610000Y-109357200D01*
X87652329Y-109399529D01*
X87611389Y-109407672D01*
X87416736Y-109537736D01*
X87035736Y-109918736D01*
X86905672Y-110113390D01*
X86860000Y-110343000D01*
X86860000Y-110591664D01*
X86825000Y-110615050D01*
X86695781Y-110528709D01*
X86526379Y-110495013D01*
X86419610Y-110423672D01*
X86190000Y-110378000D01*
X85960390Y-110423672D01*
X85853621Y-110495013D01*
X85768494Y-110511946D01*
X85599395Y-110342552D01*
X85323839Y-110228131D01*
X85204673Y-110228027D01*
X84455162Y-109478516D01*
X85670000Y-109478516D01*
X85845581Y-109443591D01*
X85994432Y-109344132D01*
X86093891Y-109195281D01*
X86128816Y-109019700D01*
X86128816Y-108634500D01*
X86260000Y-108634500D01*
X86260000Y-109109210D01*
X86328508Y-109274604D01*
X86455095Y-109401191D01*
X86620489Y-109469700D01*
X87197500Y-109469700D01*
X87310000Y-109357200D01*
X87310000Y-108522000D01*
X86372500Y-108522000D01*
X86260000Y-108634500D01*
X86128816Y-108634500D01*
X86128816Y-107724300D01*
X86093891Y-107548719D01*
X86009220Y-107422000D01*
X86093891Y-107295281D01*
X86128816Y-107119700D01*
X86128816Y-106770000D01*
X86251184Y-106770000D01*
X86251184Y-107119700D01*
G36*
X88813000Y-102062646D02*
X88813000Y-103739000D01*
X88855018Y-103950242D01*
X88974677Y-104129323D01*
X90966000Y-106120646D01*
X90966000Y-106718354D01*
X90075323Y-105827677D01*
X89896242Y-105708018D01*
X89685000Y-105666000D01*
X88637328Y-105666000D01*
X88633891Y-105648719D01*
X88534432Y-105499868D01*
X88385581Y-105400409D01*
X88210000Y-105365484D01*
X86710000Y-105365484D01*
X86534419Y-105400409D01*
X86385568Y-105499868D01*
X86286109Y-105648719D01*
X86282672Y-105666000D01*
X86097328Y-105666000D01*
X86093891Y-105648719D01*
X85994432Y-105499868D01*
X85845581Y-105400409D01*
X85670000Y-105365484D01*
X84170000Y-105365484D01*
X83994419Y-105400409D01*
X83845568Y-105499868D01*
X83746109Y-105648719D01*
X83711184Y-105824300D01*
X83711184Y-105872912D01*
X83651189Y-105727714D01*
X83440395Y-105516552D01*
X83164839Y-105402131D01*
X83045673Y-105402027D01*
X82832721Y-105189075D01*
X82880091Y-105118181D01*
X82915016Y-104942600D01*
X82915016Y-103403662D01*
X83711184Y-104199830D01*
X83711184Y-104701700D01*
X83746109Y-104877281D01*
X83845568Y-105026132D01*
X83994419Y-105125591D01*
X84170000Y-105160516D01*
X85670000Y-105160516D01*
X85845581Y-105125591D01*
X85994432Y-105026132D01*
X86093891Y-104877281D01*
X86128816Y-104701700D01*
X86128816Y-104316500D01*
X86260000Y-104316500D01*
X86260000Y-104791210D01*
X86328508Y-104956604D01*
X86455095Y-105083191D01*
X86620489Y-105151700D01*
X87197500Y-105151700D01*
X87310000Y-105039200D01*
X87310000Y-104204000D01*
X87610000Y-104204000D01*
X87610000Y-105039200D01*
X87722500Y-105151700D01*
X88299511Y-105151700D01*
X88464905Y-105083191D01*
X88591492Y-104956604D01*
X88660000Y-104791210D01*
X88660000Y-104316500D01*
X88547500Y-104204000D01*
X87610000Y-104204000D01*
X87310000Y-104204000D01*
X86372500Y-104204000D01*
X86260000Y-104316500D01*
X86128816Y-104316500D01*
X86128816Y-103406300D01*
X86093891Y-103230719D01*
X86009220Y-103104000D01*
X86093891Y-102977281D01*
X86128816Y-102801700D01*
X86128816Y-102706000D01*
X86251184Y-102706000D01*
X86251184Y-102801700D01*
X86286109Y-102977281D01*
X86372832Y-103107072D01*
X86328508Y-103151396D01*
X86260000Y-103316790D01*
X86260000Y-103791500D01*
X86372500Y-103904000D01*
X87310000Y-103904000D01*
X87310000Y-103884000D01*
X87610000Y-103884000D01*
X87610000Y-103904000D01*
X88547500Y-103904000D01*
X88660000Y-103791500D01*
X88660000Y-103316790D01*
X88591492Y-103151396D01*
X88547168Y-103107072D01*
X88633891Y-102977281D01*
X88668816Y-102801700D01*
X88668816Y-101918462D01*
X88813000Y-102062646D01*
X88813000Y-102062646D01*
G37*
X88813000Y-102062646D02*
X88813000Y-103739000D01*
X88855018Y-103950242D01*
X88974677Y-104129323D01*
X90966000Y-106120646D01*
X90966000Y-106718354D01*
X90075323Y-105827677D01*
X89896242Y-105708018D01*
X89685000Y-105666000D01*
X88637328Y-105666000D01*
X88633891Y-105648719D01*
X88534432Y-105499868D01*
X88385581Y-105400409D01*
X88210000Y-105365484D01*
X86710000Y-105365484D01*
X86534419Y-105400409D01*
X86385568Y-105499868D01*
X86286109Y-105648719D01*
X86282672Y-105666000D01*
X86097328Y-105666000D01*
X86093891Y-105648719D01*
X85994432Y-105499868D01*
X85845581Y-105400409D01*
X85670000Y-105365484D01*
X84170000Y-105365484D01*
X83994419Y-105400409D01*
X83845568Y-105499868D01*
X83746109Y-105648719D01*
X83711184Y-105824300D01*
X83711184Y-105872912D01*
X83651189Y-105727714D01*
X83440395Y-105516552D01*
X83164839Y-105402131D01*
X83045673Y-105402027D01*
X82832721Y-105189075D01*
X82880091Y-105118181D01*
X82915016Y-104942600D01*
X82915016Y-103403662D01*
X83711184Y-104199830D01*
X83711184Y-104701700D01*
X83746109Y-104877281D01*
X83845568Y-105026132D01*
X83994419Y-105125591D01*
X84170000Y-105160516D01*
X85670000Y-105160516D01*
X85845581Y-105125591D01*
X85994432Y-105026132D01*
X86093891Y-104877281D01*
X86128816Y-104701700D01*
X86128816Y-104316500D01*
X86260000Y-104316500D01*
X86260000Y-104791210D01*
X86328508Y-104956604D01*
X86455095Y-105083191D01*
X86620489Y-105151700D01*
X87197500Y-105151700D01*
X87310000Y-105039200D01*
X87310000Y-104204000D01*
X87610000Y-104204000D01*
X87610000Y-105039200D01*
X87722500Y-105151700D01*
X88299511Y-105151700D01*
X88464905Y-105083191D01*
X88591492Y-104956604D01*
X88660000Y-104791210D01*
X88660000Y-104316500D01*
X88547500Y-104204000D01*
X87610000Y-104204000D01*
X87310000Y-104204000D01*
X86372500Y-104204000D01*
X86260000Y-104316500D01*
X86128816Y-104316500D01*
X86128816Y-103406300D01*
X86093891Y-103230719D01*
X86009220Y-103104000D01*
X86093891Y-102977281D01*
X86128816Y-102801700D01*
X86128816Y-102706000D01*
X86251184Y-102706000D01*
X86251184Y-102801700D01*
X86286109Y-102977281D01*
X86372832Y-103107072D01*
X86328508Y-103151396D01*
X86260000Y-103316790D01*
X86260000Y-103791500D01*
X86372500Y-103904000D01*
X87310000Y-103904000D01*
X87310000Y-103884000D01*
X87610000Y-103884000D01*
X87610000Y-103904000D01*
X88547500Y-103904000D01*
X88660000Y-103791500D01*
X88660000Y-103316790D01*
X88591492Y-103151396D01*
X88547168Y-103107072D01*
X88633891Y-102977281D01*
X88668816Y-102801700D01*
X88668816Y-101918462D01*
X88813000Y-102062646D01*
G36*
X77196000Y-103776600D02*
X77216000Y-103776600D01*
X77216000Y-104076600D01*
X77196000Y-104076600D01*
X77196000Y-105280100D01*
X77308500Y-105392600D01*
X77465711Y-105392600D01*
X77631105Y-105324091D01*
X77677431Y-105277765D01*
X77764000Y-105335608D01*
X77764000Y-105415354D01*
X77071354Y-106108000D01*
X76328000Y-106108000D01*
X76328000Y-105335608D01*
X76414569Y-105277765D01*
X76460895Y-105324091D01*
X76626289Y-105392600D01*
X76783500Y-105392600D01*
X76896000Y-105280100D01*
X76896000Y-104076600D01*
X76876000Y-104076600D01*
X76876000Y-103776600D01*
X76896000Y-103776600D01*
X76896000Y-103756600D01*
X77196000Y-103756600D01*
X77196000Y-103776600D01*
X77196000Y-103776600D01*
G37*
X77196000Y-103776600D02*
X77216000Y-103776600D01*
X77216000Y-104076600D01*
X77196000Y-104076600D01*
X77196000Y-105280100D01*
X77308500Y-105392600D01*
X77465711Y-105392600D01*
X77631105Y-105324091D01*
X77677431Y-105277765D01*
X77764000Y-105335608D01*
X77764000Y-105415354D01*
X77071354Y-106108000D01*
X76328000Y-106108000D01*
X76328000Y-105335608D01*
X76414569Y-105277765D01*
X76460895Y-105324091D01*
X76626289Y-105392600D01*
X76783500Y-105392600D01*
X76896000Y-105280100D01*
X76896000Y-104076600D01*
X76876000Y-104076600D01*
X76876000Y-103776600D01*
X76896000Y-103776600D01*
X76896000Y-103756600D01*
X77196000Y-103756600D01*
X77196000Y-103776600D01*
G36*
X90879677Y-102732323D02*
X90966000Y-102790003D01*
X90966000Y-104559354D01*
X89917000Y-103510354D01*
X89917000Y-101834000D01*
X89901021Y-101753667D01*
X90879677Y-102732323D01*
X90879677Y-102732323D01*
G37*
X90879677Y-102732323D02*
X90966000Y-102790003D01*
X90966000Y-104559354D01*
X89917000Y-103510354D01*
X89917000Y-101834000D01*
X89901021Y-101753667D01*
X90879677Y-102732323D01*
G36*
X73716984Y-94442600D02*
X73751909Y-94618181D01*
X73851368Y-94767032D01*
X74000219Y-94866491D01*
X74175800Y-94901416D01*
X74836200Y-94901416D01*
X75011781Y-94866491D01*
X75141000Y-94780150D01*
X75270219Y-94866491D01*
X75445800Y-94901416D01*
X76106200Y-94901416D01*
X76281781Y-94866491D01*
X76411000Y-94780150D01*
X76494000Y-94835608D01*
X76494000Y-96563302D01*
X76410552Y-96646605D01*
X76296131Y-96922161D01*
X76295870Y-97220530D01*
X76301977Y-97235309D01*
X76201395Y-97134552D01*
X75925839Y-97020131D01*
X75627470Y-97019870D01*
X75351714Y-97133811D01*
X75140552Y-97344605D01*
X75026131Y-97620161D01*
X75025870Y-97918530D01*
X75139811Y-98194286D01*
X75155595Y-98210098D01*
X75141000Y-98219850D01*
X75011781Y-98133509D01*
X74836200Y-98098584D01*
X74175800Y-98098584D01*
X74000219Y-98133509D01*
X73851368Y-98232968D01*
X73751909Y-98381819D01*
X73716984Y-98557400D01*
X73716984Y-100589400D01*
X73751909Y-100764981D01*
X73851368Y-100913832D01*
X73991715Y-101007609D01*
X73996018Y-101029242D01*
X74115677Y-101208323D01*
X74614354Y-101707000D01*
X74115677Y-102205677D01*
X73996018Y-102384758D01*
X73996018Y-102384759D01*
X73971987Y-102505573D01*
X73851368Y-102586168D01*
X73751909Y-102735019D01*
X73716984Y-102910600D01*
X73716984Y-103566338D01*
X72925323Y-102774677D01*
X72746242Y-102655018D01*
X72535000Y-102613000D01*
X70888816Y-102613000D01*
X70888816Y-102517300D01*
X70853891Y-102341719D01*
X70769220Y-102215000D01*
X70853891Y-102088281D01*
X70888816Y-101912700D01*
X70888816Y-101757718D01*
X70991264Y-101689264D01*
X71882264Y-100798264D01*
X72012328Y-100603611D01*
X72058000Y-100374000D01*
X72058000Y-99104000D01*
X72012328Y-98874390D01*
X71882264Y-98679736D01*
X71750228Y-98547700D01*
X71957500Y-98547700D01*
X72070000Y-98435200D01*
X72070000Y-97600000D01*
X72370000Y-97600000D01*
X72370000Y-98435200D01*
X72482500Y-98547700D01*
X73059511Y-98547700D01*
X73224905Y-98479191D01*
X73351492Y-98352604D01*
X73420000Y-98187210D01*
X73420000Y-97712500D01*
X73307500Y-97600000D01*
X72370000Y-97600000D01*
X72070000Y-97600000D01*
X72050000Y-97600000D01*
X72050000Y-97300000D01*
X72070000Y-97300000D01*
X72070000Y-97280000D01*
X72370000Y-97280000D01*
X72370000Y-97300000D01*
X73307500Y-97300000D01*
X73420000Y-97187500D01*
X73420000Y-96712790D01*
X73351492Y-96547396D01*
X73307168Y-96503072D01*
X73393891Y-96373281D01*
X73428816Y-96197700D01*
X73428816Y-94902300D01*
X73393891Y-94726719D01*
X73294432Y-94577868D01*
X73145581Y-94478409D01*
X72970000Y-94443484D01*
X72839044Y-94443484D01*
X73255928Y-94026600D01*
X73716984Y-94026600D01*
X73716984Y-94442600D01*
X73716984Y-94442600D01*
G37*
X73716984Y-94442600D02*
X73751909Y-94618181D01*
X73851368Y-94767032D01*
X74000219Y-94866491D01*
X74175800Y-94901416D01*
X74836200Y-94901416D01*
X75011781Y-94866491D01*
X75141000Y-94780150D01*
X75270219Y-94866491D01*
X75445800Y-94901416D01*
X76106200Y-94901416D01*
X76281781Y-94866491D01*
X76411000Y-94780150D01*
X76494000Y-94835608D01*
X76494000Y-96563302D01*
X76410552Y-96646605D01*
X76296131Y-96922161D01*
X76295870Y-97220530D01*
X76301977Y-97235309D01*
X76201395Y-97134552D01*
X75925839Y-97020131D01*
X75627470Y-97019870D01*
X75351714Y-97133811D01*
X75140552Y-97344605D01*
X75026131Y-97620161D01*
X75025870Y-97918530D01*
X75139811Y-98194286D01*
X75155595Y-98210098D01*
X75141000Y-98219850D01*
X75011781Y-98133509D01*
X74836200Y-98098584D01*
X74175800Y-98098584D01*
X74000219Y-98133509D01*
X73851368Y-98232968D01*
X73751909Y-98381819D01*
X73716984Y-98557400D01*
X73716984Y-100589400D01*
X73751909Y-100764981D01*
X73851368Y-100913832D01*
X73991715Y-101007609D01*
X73996018Y-101029242D01*
X74115677Y-101208323D01*
X74614354Y-101707000D01*
X74115677Y-102205677D01*
X73996018Y-102384758D01*
X73996018Y-102384759D01*
X73971987Y-102505573D01*
X73851368Y-102586168D01*
X73751909Y-102735019D01*
X73716984Y-102910600D01*
X73716984Y-103566338D01*
X72925323Y-102774677D01*
X72746242Y-102655018D01*
X72535000Y-102613000D01*
X70888816Y-102613000D01*
X70888816Y-102517300D01*
X70853891Y-102341719D01*
X70769220Y-102215000D01*
X70853891Y-102088281D01*
X70888816Y-101912700D01*
X70888816Y-101757718D01*
X70991264Y-101689264D01*
X71882264Y-100798264D01*
X72012328Y-100603611D01*
X72058000Y-100374000D01*
X72058000Y-99104000D01*
X72012328Y-98874390D01*
X71882264Y-98679736D01*
X71750228Y-98547700D01*
X71957500Y-98547700D01*
X72070000Y-98435200D01*
X72070000Y-97600000D01*
X72370000Y-97600000D01*
X72370000Y-98435200D01*
X72482500Y-98547700D01*
X73059511Y-98547700D01*
X73224905Y-98479191D01*
X73351492Y-98352604D01*
X73420000Y-98187210D01*
X73420000Y-97712500D01*
X73307500Y-97600000D01*
X72370000Y-97600000D01*
X72070000Y-97600000D01*
X72050000Y-97600000D01*
X72050000Y-97300000D01*
X72070000Y-97300000D01*
X72070000Y-97280000D01*
X72370000Y-97280000D01*
X72370000Y-97300000D01*
X73307500Y-97300000D01*
X73420000Y-97187500D01*
X73420000Y-96712790D01*
X73351492Y-96547396D01*
X73307168Y-96503072D01*
X73393891Y-96373281D01*
X73428816Y-96197700D01*
X73428816Y-94902300D01*
X73393891Y-94726719D01*
X73294432Y-94577868D01*
X73145581Y-94478409D01*
X72970000Y-94443484D01*
X72839044Y-94443484D01*
X73255928Y-94026600D01*
X73716984Y-94026600D01*
X73716984Y-94442600D01*
G36*
X83830780Y-97262000D02*
X83746109Y-97388719D01*
X83711184Y-97564300D01*
X83711184Y-98859700D01*
X83746109Y-99035281D01*
X83845568Y-99184132D01*
X83994419Y-99283591D01*
X84170000Y-99318516D01*
X84368000Y-99318516D01*
X84368000Y-99758000D01*
X84031000Y-99758000D01*
X83819758Y-99800018D01*
X83640677Y-99919677D01*
X82906200Y-100654154D01*
X82906200Y-99835900D01*
X82793700Y-99723400D01*
X82276000Y-99723400D01*
X82276000Y-99743400D01*
X81976000Y-99743400D01*
X81976000Y-99723400D01*
X81956000Y-99723400D01*
X81956000Y-99423400D01*
X81976000Y-99423400D01*
X81976000Y-98219900D01*
X82276000Y-98219900D01*
X82276000Y-99423400D01*
X82793700Y-99423400D01*
X82906200Y-99310900D01*
X82906200Y-98467890D01*
X82837692Y-98302496D01*
X82711105Y-98175909D01*
X82545711Y-98107400D01*
X82388500Y-98107400D01*
X82276000Y-98219900D01*
X81976000Y-98219900D01*
X81863500Y-98107400D01*
X81706289Y-98107400D01*
X81540895Y-98175909D01*
X81494569Y-98222235D01*
X81408000Y-98164392D01*
X81408000Y-98125646D01*
X81592646Y-97941000D01*
X82761000Y-97941000D01*
X82972242Y-97898982D01*
X83151323Y-97779323D01*
X83765838Y-97164808D01*
X83830780Y-97262000D01*
X83830780Y-97262000D01*
G37*
X83830780Y-97262000D02*
X83746109Y-97388719D01*
X83711184Y-97564300D01*
X83711184Y-98859700D01*
X83746109Y-99035281D01*
X83845568Y-99184132D01*
X83994419Y-99283591D01*
X84170000Y-99318516D01*
X84368000Y-99318516D01*
X84368000Y-99758000D01*
X84031000Y-99758000D01*
X83819758Y-99800018D01*
X83640677Y-99919677D01*
X82906200Y-100654154D01*
X82906200Y-99835900D01*
X82793700Y-99723400D01*
X82276000Y-99723400D01*
X82276000Y-99743400D01*
X81976000Y-99743400D01*
X81976000Y-99723400D01*
X81956000Y-99723400D01*
X81956000Y-99423400D01*
X81976000Y-99423400D01*
X81976000Y-98219900D01*
X82276000Y-98219900D01*
X82276000Y-99423400D01*
X82793700Y-99423400D01*
X82906200Y-99310900D01*
X82906200Y-98467890D01*
X82837692Y-98302496D01*
X82711105Y-98175909D01*
X82545711Y-98107400D01*
X82388500Y-98107400D01*
X82276000Y-98219900D01*
X81976000Y-98219900D01*
X81863500Y-98107400D01*
X81706289Y-98107400D01*
X81540895Y-98175909D01*
X81494569Y-98222235D01*
X81408000Y-98164392D01*
X81408000Y-98125646D01*
X81592646Y-97941000D01*
X82761000Y-97941000D01*
X82972242Y-97898982D01*
X83151323Y-97779323D01*
X83765838Y-97164808D01*
X83830780Y-97262000D01*
G36*
X86251184Y-96959700D02*
X86286109Y-97135281D01*
X86370780Y-97262000D01*
X86286109Y-97388719D01*
X86251184Y-97564300D01*
X86251184Y-98859700D01*
X86286109Y-99035281D01*
X86385568Y-99184132D01*
X86534419Y-99283591D01*
X86710000Y-99318516D01*
X87465870Y-99318516D01*
X87921333Y-99773979D01*
X87841000Y-99758000D01*
X85472000Y-99758000D01*
X85472000Y-99318516D01*
X85670000Y-99318516D01*
X85845581Y-99283591D01*
X85994432Y-99184132D01*
X86093891Y-99035281D01*
X86128816Y-98859700D01*
X86128816Y-97564300D01*
X86093891Y-97388719D01*
X86009220Y-97262000D01*
X86093891Y-97135281D01*
X86128816Y-96959700D01*
X86128816Y-96864000D01*
X86251184Y-96864000D01*
X86251184Y-96959700D01*
X86251184Y-96959700D01*
G37*
X86251184Y-96959700D02*
X86286109Y-97135281D01*
X86370780Y-97262000D01*
X86286109Y-97388719D01*
X86251184Y-97564300D01*
X86251184Y-98859700D01*
X86286109Y-99035281D01*
X86385568Y-99184132D01*
X86534419Y-99283591D01*
X86710000Y-99318516D01*
X87465870Y-99318516D01*
X87921333Y-99773979D01*
X87841000Y-99758000D01*
X85472000Y-99758000D01*
X85472000Y-99318516D01*
X85670000Y-99318516D01*
X85845581Y-99283591D01*
X85994432Y-99184132D01*
X86093891Y-99035281D01*
X86128816Y-98859700D01*
X86128816Y-97564300D01*
X86093891Y-97388719D01*
X86009220Y-97262000D01*
X86093891Y-97135281D01*
X86128816Y-96959700D01*
X86128816Y-96864000D01*
X86251184Y-96864000D01*
X86251184Y-96959700D01*
G36*
X113220184Y-78771000D02*
X113255109Y-78946581D01*
X113354568Y-79095432D01*
X113503419Y-79194891D01*
X113679000Y-79229816D01*
X119500000Y-79229816D01*
X119500000Y-99057354D01*
X117632323Y-97189677D01*
X117453242Y-97070018D01*
X117242000Y-97028000D01*
X115438816Y-97028000D01*
X115438816Y-96730000D01*
X115403891Y-96554419D01*
X115304432Y-96405568D01*
X115161404Y-96310000D01*
X115304432Y-96214432D01*
X115403891Y-96065581D01*
X115438816Y-95890000D01*
X115438816Y-94190000D01*
X115403891Y-94014419D01*
X115304432Y-93865568D01*
X115161404Y-93770000D01*
X115304432Y-93674432D01*
X115403891Y-93525581D01*
X115438816Y-93350000D01*
X115438816Y-91650000D01*
X115403891Y-91474419D01*
X115304432Y-91325568D01*
X115155581Y-91226109D01*
X114980000Y-91191184D01*
X113280000Y-91191184D01*
X113104419Y-91226109D01*
X112955568Y-91325568D01*
X112856109Y-91474419D01*
X112850000Y-91505131D01*
X112850000Y-90500000D01*
X112826983Y-90384286D01*
X112804328Y-90270389D01*
X112674264Y-90075736D01*
X111682000Y-89083472D01*
X111682000Y-76450000D01*
X113220184Y-76450000D01*
X113220184Y-78771000D01*
X113220184Y-78771000D01*
G37*
X113220184Y-78771000D02*
X113255109Y-78946581D01*
X113354568Y-79095432D01*
X113503419Y-79194891D01*
X113679000Y-79229816D01*
X119500000Y-79229816D01*
X119500000Y-99057354D01*
X117632323Y-97189677D01*
X117453242Y-97070018D01*
X117242000Y-97028000D01*
X115438816Y-97028000D01*
X115438816Y-96730000D01*
X115403891Y-96554419D01*
X115304432Y-96405568D01*
X115161404Y-96310000D01*
X115304432Y-96214432D01*
X115403891Y-96065581D01*
X115438816Y-95890000D01*
X115438816Y-94190000D01*
X115403891Y-94014419D01*
X115304432Y-93865568D01*
X115161404Y-93770000D01*
X115304432Y-93674432D01*
X115403891Y-93525581D01*
X115438816Y-93350000D01*
X115438816Y-91650000D01*
X115403891Y-91474419D01*
X115304432Y-91325568D01*
X115155581Y-91226109D01*
X114980000Y-91191184D01*
X113280000Y-91191184D01*
X113104419Y-91226109D01*
X112955568Y-91325568D01*
X112856109Y-91474419D01*
X112850000Y-91505131D01*
X112850000Y-90500000D01*
X112826983Y-90384286D01*
X112804328Y-90270389D01*
X112674264Y-90075736D01*
X111682000Y-89083472D01*
X111682000Y-76450000D01*
X113220184Y-76450000D01*
X113220184Y-78771000D01*
G36*
X90464000Y-91394646D02*
X90464000Y-94695942D01*
X90390323Y-94585677D01*
X88866323Y-93061677D01*
X88687242Y-92942018D01*
X88476000Y-92900000D01*
X87992516Y-92900000D01*
X87992516Y-92702000D01*
X87957591Y-92526419D01*
X87858132Y-92377568D01*
X87709281Y-92278109D01*
X87533700Y-92243184D01*
X86238300Y-92243184D01*
X86062719Y-92278109D01*
X85936000Y-92362780D01*
X85809281Y-92278109D01*
X85633700Y-92243184D01*
X84338300Y-92243184D01*
X84162719Y-92278109D01*
X84013868Y-92377568D01*
X83914409Y-92526419D01*
X83879484Y-92702000D01*
X83879484Y-92900000D01*
X82915016Y-92900000D01*
X82915016Y-92410600D01*
X82880091Y-92235019D01*
X82780632Y-92086168D01*
X82678000Y-92017592D01*
X82678000Y-91775646D01*
X82704323Y-91749323D01*
X82823982Y-91570242D01*
X82866000Y-91359000D01*
X82866000Y-91231816D01*
X82961700Y-91231816D01*
X83137281Y-91196891D01*
X83286132Y-91097432D01*
X83385591Y-90948581D01*
X83420516Y-90773000D01*
X83420516Y-89273000D01*
X83385591Y-89097419D01*
X83286132Y-88948568D01*
X83137281Y-88849109D01*
X82961700Y-88814184D01*
X81666300Y-88814184D01*
X81490719Y-88849109D01*
X81364000Y-88933780D01*
X81237281Y-88849109D01*
X81061700Y-88814184D01*
X80966000Y-88814184D01*
X80966000Y-88788646D01*
X81846646Y-87908000D01*
X86977354Y-87908000D01*
X90464000Y-91394646D01*
X90464000Y-91394646D01*
G37*
X90464000Y-91394646D02*
X90464000Y-94695942D01*
X90390323Y-94585677D01*
X88866323Y-93061677D01*
X88687242Y-92942018D01*
X88476000Y-92900000D01*
X87992516Y-92900000D01*
X87992516Y-92702000D01*
X87957591Y-92526419D01*
X87858132Y-92377568D01*
X87709281Y-92278109D01*
X87533700Y-92243184D01*
X86238300Y-92243184D01*
X86062719Y-92278109D01*
X85936000Y-92362780D01*
X85809281Y-92278109D01*
X85633700Y-92243184D01*
X84338300Y-92243184D01*
X84162719Y-92278109D01*
X84013868Y-92377568D01*
X83914409Y-92526419D01*
X83879484Y-92702000D01*
X83879484Y-92900000D01*
X82915016Y-92900000D01*
X82915016Y-92410600D01*
X82880091Y-92235019D01*
X82780632Y-92086168D01*
X82678000Y-92017592D01*
X82678000Y-91775646D01*
X82704323Y-91749323D01*
X82823982Y-91570242D01*
X82866000Y-91359000D01*
X82866000Y-91231816D01*
X82961700Y-91231816D01*
X83137281Y-91196891D01*
X83286132Y-91097432D01*
X83385591Y-90948581D01*
X83420516Y-90773000D01*
X83420516Y-89273000D01*
X83385591Y-89097419D01*
X83286132Y-88948568D01*
X83137281Y-88849109D01*
X82961700Y-88814184D01*
X81666300Y-88814184D01*
X81490719Y-88849109D01*
X81364000Y-88933780D01*
X81237281Y-88849109D01*
X81061700Y-88814184D01*
X80966000Y-88814184D01*
X80966000Y-88788646D01*
X81846646Y-87908000D01*
X86977354Y-87908000D01*
X90464000Y-91394646D01*
G36*
X119500000Y-62957106D02*
X119500000Y-72470184D01*
X113679000Y-72470184D01*
X113503419Y-72505109D01*
X113354568Y-72604568D01*
X113255109Y-72753419D01*
X113220184Y-72929000D01*
X113220184Y-75250000D01*
X106028816Y-75250000D01*
X106028816Y-74850000D01*
X105993891Y-74674419D01*
X105894432Y-74525568D01*
X105745581Y-74426109D01*
X105570000Y-74391184D01*
X103570000Y-74391184D01*
X103394419Y-74426109D01*
X103245568Y-74525568D01*
X103146109Y-74674419D01*
X103111184Y-74850000D01*
X103111184Y-76850000D01*
X103146109Y-77025581D01*
X103245568Y-77174432D01*
X103394419Y-77273891D01*
X103570000Y-77308816D01*
X105570000Y-77308816D01*
X105745581Y-77273891D01*
X105894432Y-77174432D01*
X105993891Y-77025581D01*
X106028816Y-76850000D01*
X106028816Y-76450000D01*
X110482000Y-76450000D01*
X110482000Y-89332000D01*
X110527672Y-89561610D01*
X110657736Y-89756264D01*
X110747472Y-89846000D01*
X103180528Y-89846000D01*
X88760264Y-75425736D01*
X88565610Y-75295672D01*
X88336000Y-75250000D01*
X76888816Y-75250000D01*
X76888816Y-74850000D01*
X76853891Y-74674419D01*
X76754432Y-74525568D01*
X76605581Y-74426109D01*
X76430000Y-74391184D01*
X74430000Y-74391184D01*
X74254419Y-74426109D01*
X74105568Y-74525568D01*
X74006109Y-74674419D01*
X73971184Y-74850000D01*
X73971184Y-75250000D01*
X66779816Y-75250000D01*
X66779816Y-72929000D01*
X66744891Y-72753419D01*
X66645432Y-72604568D01*
X66496581Y-72505109D01*
X66321000Y-72470184D01*
X60500000Y-72470184D01*
X60500000Y-63511412D01*
X61179772Y-63511412D01*
X61380306Y-63996743D01*
X61751304Y-64368389D01*
X62236284Y-64569770D01*
X62761412Y-64570228D01*
X63246743Y-64369694D01*
X63618389Y-63998696D01*
X63819770Y-63513716D01*
X63820228Y-62988588D01*
X63619694Y-62503257D01*
X63248696Y-62131611D01*
X62763716Y-61930230D01*
X62238588Y-61929772D01*
X61753257Y-62130306D01*
X61381611Y-62501304D01*
X61180230Y-62986284D01*
X61179772Y-63511412D01*
X60500000Y-63511412D01*
X60500000Y-62957106D01*
X62207106Y-61250000D01*
X117792894Y-61250000D01*
X119500000Y-62957106D01*
X119500000Y-62957106D01*
G37*
X119500000Y-62957106D02*
X119500000Y-72470184D01*
X113679000Y-72470184D01*
X113503419Y-72505109D01*
X113354568Y-72604568D01*
X113255109Y-72753419D01*
X113220184Y-72929000D01*
X113220184Y-75250000D01*
X106028816Y-75250000D01*
X106028816Y-74850000D01*
X105993891Y-74674419D01*
X105894432Y-74525568D01*
X105745581Y-74426109D01*
X105570000Y-74391184D01*
X103570000Y-74391184D01*
X103394419Y-74426109D01*
X103245568Y-74525568D01*
X103146109Y-74674419D01*
X103111184Y-74850000D01*
X103111184Y-76850000D01*
X103146109Y-77025581D01*
X103245568Y-77174432D01*
X103394419Y-77273891D01*
X103570000Y-77308816D01*
X105570000Y-77308816D01*
X105745581Y-77273891D01*
X105894432Y-77174432D01*
X105993891Y-77025581D01*
X106028816Y-76850000D01*
X106028816Y-76450000D01*
X110482000Y-76450000D01*
X110482000Y-89332000D01*
X110527672Y-89561610D01*
X110657736Y-89756264D01*
X110747472Y-89846000D01*
X103180528Y-89846000D01*
X88760264Y-75425736D01*
X88565610Y-75295672D01*
X88336000Y-75250000D01*
X76888816Y-75250000D01*
X76888816Y-74850000D01*
X76853891Y-74674419D01*
X76754432Y-74525568D01*
X76605581Y-74426109D01*
X76430000Y-74391184D01*
X74430000Y-74391184D01*
X74254419Y-74426109D01*
X74105568Y-74525568D01*
X74006109Y-74674419D01*
X73971184Y-74850000D01*
X73971184Y-75250000D01*
X66779816Y-75250000D01*
X66779816Y-72929000D01*
X66744891Y-72753419D01*
X66645432Y-72604568D01*
X66496581Y-72505109D01*
X66321000Y-72470184D01*
X60500000Y-72470184D01*
X60500000Y-63511412D01*
X61179772Y-63511412D01*
X61380306Y-63996743D01*
X61751304Y-64368389D01*
X62236284Y-64569770D01*
X62761412Y-64570228D01*
X63246743Y-64369694D01*
X63618389Y-63998696D01*
X63819770Y-63513716D01*
X63820228Y-62988588D01*
X63619694Y-62503257D01*
X63248696Y-62131611D01*
X62763716Y-61930230D01*
X62238588Y-61929772D01*
X61753257Y-62130306D01*
X61381611Y-62501304D01*
X61180230Y-62986284D01*
X61179772Y-63511412D01*
X60500000Y-63511412D01*
X60500000Y-62957106D01*
X62207106Y-61250000D01*
X117792894Y-61250000D01*
X119500000Y-62957106D01*
M02*
