G04 #@! TF.FileFunction,Copper,L2,Bot,Signal*
%FSLAX46Y46*%
G04 Gerber Fmt 4.6, Leading zero omitted, Abs format (unit mm)*
G04 Created by KiCad (PCBNEW 4.1.0-alpha+201607190716+6983~46~ubuntu14.04.1-product) date Mon Jan  9 09:03:27 2017*
%MOMM*%
%LPD*%
G01*
G04 APERTURE LIST*
%ADD10C,0.100000*%
%ADD11R,1.700000X1.700000*%
%ADD12R,5.842000X5.842000*%
%ADD13C,1.000000*%
%ADD14R,2.500000X2.500000*%
%ADD15R,3.200000X3.200000*%
%ADD16C,1.676400*%
%ADD17R,4.000000X1.200000*%
%ADD18C,1.600000*%
%ADD19C,0.600000*%
%ADD20C,0.800000*%
%ADD21C,0.204000*%
%ADD22C,0.500000*%
%ADD23C,0.300000*%
G04 APERTURE END LIST*
D10*
D11*
X64600000Y-117900000D03*
X65870000Y-117900000D03*
X65870000Y-122980000D03*
X65870000Y-120440000D03*
X65870000Y-115360000D03*
X65870000Y-112820000D03*
X65870000Y-110280000D03*
D12*
X63400000Y-75850000D03*
X116600000Y-75850000D03*
D13*
X104570000Y-75850000D03*
X75430000Y-75850000D03*
X90508000Y-153904000D03*
D11*
X114130000Y-100120000D03*
X114130000Y-105200000D03*
X114130000Y-102660000D03*
X114130000Y-107740000D03*
D10*
G36*
X114980000Y-111130000D02*
X113280000Y-111130000D01*
X113280000Y-109430000D01*
X114980000Y-109430000D01*
X114980000Y-111130000D01*
X114980000Y-111130000D01*
G37*
D11*
X114130000Y-97580000D03*
X114130000Y-95040000D03*
X114130000Y-92500000D03*
X114130000Y-121964000D03*
X114130000Y-127044000D03*
X114130000Y-124504000D03*
X114130000Y-129584000D03*
D10*
G36*
X114980000Y-132974000D02*
X113280000Y-132974000D01*
X113280000Y-131274000D01*
X114980000Y-131274000D01*
X114980000Y-132974000D01*
X114980000Y-132974000D01*
G37*
D11*
X114130000Y-119424000D03*
X114130000Y-116884000D03*
X114130000Y-114344000D03*
X65870000Y-100120000D03*
X65870000Y-105200000D03*
X65870000Y-102660000D03*
X65870000Y-97580000D03*
X65870000Y-95040000D03*
X65870000Y-92500000D03*
D12*
X114130000Y-157250000D03*
D11*
X116670000Y-107740000D03*
X63330000Y-117900000D03*
X63330000Y-115360000D03*
X63330000Y-100120000D03*
X63330000Y-105200000D03*
X63330000Y-102660000D03*
X63330000Y-97580000D03*
X63330000Y-95040000D03*
X63330000Y-92500000D03*
X115400000Y-107740000D03*
X64600000Y-92500000D03*
X64600000Y-95040000D03*
X64600000Y-97580000D03*
X64600000Y-100120000D03*
X64600000Y-102660000D03*
X64600000Y-105200000D03*
D14*
X109300000Y-95500000D03*
X109300000Y-90500000D03*
X94700000Y-95500000D03*
X94700000Y-90500000D03*
D15*
X82500000Y-115000000D03*
X73500000Y-115000000D03*
D16*
X75460000Y-122000000D03*
X78000000Y-122000000D03*
X80540000Y-122000000D03*
D15*
X106500000Y-115000000D03*
X97500000Y-115000000D03*
D16*
X99460000Y-122000000D03*
X102000000Y-122000000D03*
X104540000Y-122000000D03*
D15*
X106500000Y-137000000D03*
X97500000Y-137000000D03*
D16*
X99460000Y-144000000D03*
X102000000Y-144000000D03*
X104540000Y-144000000D03*
D15*
X82500000Y-137000000D03*
X73500000Y-137000000D03*
D16*
X75460000Y-144000000D03*
X78000000Y-144000000D03*
X80540000Y-144000000D03*
D11*
X64600000Y-115360000D03*
D17*
X72920000Y-90500000D03*
X83080000Y-90500000D03*
X72920000Y-95500000D03*
X83080000Y-95500000D03*
D13*
X93048000Y-153904000D03*
D18*
X84920000Y-156480000D03*
X84920000Y-149480000D03*
D19*
X92032000Y-95230000D03*
X87460000Y-101072000D03*
D20*
X116162000Y-123234000D03*
X113368000Y-84880000D03*
X91270000Y-81832000D03*
D19*
X72220000Y-99104000D03*
X71204000Y-131870000D03*
X67394000Y-133394000D03*
D20*
X96350000Y-81832000D03*
D19*
X78951000Y-127361000D03*
X108034000Y-131679000D03*
X86190000Y-91801000D03*
X86317000Y-99675000D03*
X86317000Y-104247000D03*
X86317000Y-108565000D03*
X77046000Y-105517000D03*
X83015000Y-99548000D03*
X83650000Y-132060000D03*
X79078000Y-138664000D03*
X89492000Y-145268000D03*
X92794000Y-119741000D03*
X86190000Y-114026000D03*
X86190000Y-116312000D03*
X74633000Y-119741000D03*
X88476000Y-119741000D03*
X70442000Y-119741000D03*
X78316000Y-107422000D03*
X80856000Y-105898000D03*
X73998000Y-127996000D03*
X68918000Y-130790000D03*
X107780000Y-127996000D03*
X97366000Y-127996000D03*
X71712000Y-125964000D03*
X73236000Y-129774000D03*
X106764000Y-129012000D03*
X104732000Y-130282000D03*
X93556000Y-116058000D03*
X91397000Y-116058000D03*
X77046000Y-97072000D03*
X109431000Y-112375000D03*
X88730000Y-110724000D03*
X112352000Y-112756000D03*
X92032000Y-115169000D03*
X75776000Y-97770000D03*
X87460000Y-116185000D03*
X110193000Y-115423000D03*
X92540000Y-113391000D03*
X83015000Y-106152000D03*
X95080000Y-139172000D03*
X90762000Y-120757000D03*
X90762000Y-129266000D03*
X85174000Y-110978000D03*
X93810000Y-144252000D03*
X90000000Y-130282000D03*
X90000000Y-121519000D03*
X84031000Y-111105000D03*
X89238000Y-120757000D03*
X89238000Y-129266000D03*
X92794000Y-144252000D03*
X77046000Y-112502000D03*
X85174000Y-115931000D03*
X67902000Y-136886000D03*
X76792000Y-140696000D03*
X78570000Y-89960000D03*
X70696000Y-99612000D03*
X69426000Y-123424000D03*
X69680000Y-124186000D03*
X62822000Y-124694000D03*
X83904000Y-128250000D03*
D21*
X92032000Y-95230000D02*
X90508000Y-96754000D01*
X90508000Y-98024000D02*
X87460000Y-101072000D01*
X90508000Y-96754000D02*
X90508000Y-98024000D01*
D22*
X109300000Y-90500000D02*
X109300000Y-88948000D01*
X109300000Y-88948000D02*
X113368000Y-84880000D01*
X94700000Y-90500000D02*
X94700000Y-85262000D01*
X94700000Y-85262000D02*
X91270000Y-81832000D01*
X94700000Y-90500000D02*
X94700000Y-83482000D01*
X94700000Y-83482000D02*
X96350000Y-81832000D01*
D21*
X77046000Y-105517000D02*
X76919000Y-105644000D01*
D23*
X99460000Y-144000000D02*
X99460000Y-144762000D01*
X99460000Y-144762000D02*
X97366000Y-146856000D01*
X91588000Y-147364000D02*
X89492000Y-145268000D01*
X96858000Y-147364000D02*
X91588000Y-147364000D01*
X97366000Y-146856000D02*
X96858000Y-147364000D01*
X92794000Y-119741000D02*
X94953000Y-121900000D01*
X94953000Y-121900000D02*
X99360000Y-121900000D01*
X99360000Y-121900000D02*
X99460000Y-122000000D01*
X86190000Y-116312000D02*
X86190000Y-114026000D01*
X74633000Y-119741000D02*
X74252000Y-119741000D01*
X71585000Y-119741000D02*
X70442000Y-119741000D01*
X82507000Y-119741000D02*
X88476000Y-119741000D01*
X82507000Y-119741000D02*
X74252000Y-119741000D01*
X74252000Y-119741000D02*
X71585000Y-119741000D01*
X97366000Y-127996000D02*
X85936000Y-127996000D01*
X84920000Y-129012000D02*
X73998000Y-129012000D01*
X85936000Y-127996000D02*
X84920000Y-129012000D01*
X79332000Y-107422000D02*
X78316000Y-107422000D01*
X80856000Y-105898000D02*
X79332000Y-107422000D01*
X73998000Y-127996000D02*
X73998000Y-129012000D01*
X73998000Y-129012000D02*
X73998000Y-130409000D01*
X68918000Y-130790000D02*
X73617000Y-130790000D01*
X73998000Y-130409000D02*
X73617000Y-130790000D01*
X99460000Y-144000000D02*
X99460000Y-144190000D01*
X97366000Y-127996000D02*
X107780000Y-127996000D01*
D21*
X72982000Y-129520000D02*
X73236000Y-129774000D01*
X72982000Y-125964000D02*
X72982000Y-129520000D01*
X71712000Y-125964000D02*
X72982000Y-125964000D01*
X106764000Y-129012000D02*
X106764000Y-129520000D01*
X104732000Y-130282000D02*
X106002000Y-130282000D01*
X106764000Y-129520000D02*
X106002000Y-130282000D01*
X91397000Y-116058000D02*
X93556000Y-116058000D01*
X109300000Y-95500000D02*
X111542000Y-95500000D01*
X112098000Y-105708000D02*
X114130000Y-107740000D01*
X112098000Y-96056000D02*
X112098000Y-105708000D01*
X111542000Y-95500000D02*
X112098000Y-96056000D01*
D22*
X95098000Y-96010000D02*
X94318000Y-95230000D01*
D21*
X116670000Y-107676000D02*
X116670000Y-107803000D01*
X83650000Y-104628000D02*
X83650000Y-109073000D01*
X83650000Y-109073000D02*
X83777000Y-109200000D01*
X84412000Y-109581000D02*
X84158000Y-109581000D01*
X84412000Y-109581000D02*
X88222000Y-109581000D01*
X88222000Y-109581000D02*
X88730000Y-110089000D01*
X88730000Y-110089000D02*
X88730000Y-110724000D01*
X84158000Y-109581000D02*
X83777000Y-109200000D01*
X83396000Y-104374000D02*
X83650000Y-104628000D01*
X83396000Y-104184000D02*
X83396000Y-104374000D01*
X77046000Y-97834000D02*
X83396000Y-104184000D01*
X77046000Y-97072000D02*
X77046000Y-97834000D01*
X109050000Y-112375000D02*
X109431000Y-112375000D01*
X89619000Y-110724000D02*
X91270000Y-112375000D01*
X91270000Y-112375000D02*
X91397000Y-112375000D01*
X108923000Y-112375000D02*
X109050000Y-112375000D01*
X108923000Y-112375000D02*
X91397000Y-112375000D01*
X88730000Y-110724000D02*
X89619000Y-110724000D01*
X94445000Y-117836000D02*
X94445000Y-119106000D01*
X112098000Y-113010000D02*
X112352000Y-112756000D01*
X112098000Y-115423000D02*
X112098000Y-113010000D01*
X93683000Y-115169000D02*
X94445000Y-115931000D01*
X94445000Y-115931000D02*
X94445000Y-117836000D01*
X99398000Y-120249000D02*
X109431000Y-120249000D01*
X109431000Y-120249000D02*
X112098000Y-117582000D01*
X112098000Y-117582000D02*
X112098000Y-115423000D01*
X92032000Y-115169000D02*
X93683000Y-115169000D01*
X95588000Y-120249000D02*
X99398000Y-120249000D01*
X94445000Y-119106000D02*
X95588000Y-120249000D01*
X87460000Y-114026000D02*
X87460000Y-116185000D01*
X82634000Y-110851000D02*
X84539000Y-112756000D01*
X84539000Y-112756000D02*
X86190000Y-112756000D01*
X86190000Y-112756000D02*
X87460000Y-114026000D01*
X82380000Y-110343000D02*
X82634000Y-110597000D01*
X82380000Y-104374000D02*
X82380000Y-110343000D01*
X75776000Y-97770000D02*
X82380000Y-104374000D01*
X82634000Y-110597000D02*
X82634000Y-110851000D01*
X99144000Y-112883000D02*
X99525000Y-112883000D01*
X100414000Y-117709000D02*
X103081000Y-117709000D01*
X99906000Y-117201000D02*
X100414000Y-117709000D01*
X99906000Y-113264000D02*
X99906000Y-117201000D01*
X99525000Y-112883000D02*
X99906000Y-113264000D01*
X109685000Y-117074000D02*
X109050000Y-117709000D01*
X103081000Y-117709000D02*
X109050000Y-117709000D01*
X110193000Y-115423000D02*
X109685000Y-115931000D01*
X109685000Y-115931000D02*
X109685000Y-117074000D01*
X92540000Y-113391000D02*
X93048000Y-112883000D01*
X93048000Y-112883000D02*
X99144000Y-112883000D01*
X99144000Y-112883000D02*
X99271000Y-112883000D01*
X102954000Y-117709000D02*
X103081000Y-117709000D01*
X83015000Y-106152000D02*
X83015000Y-109327000D01*
X90762000Y-113645000D02*
X87333000Y-110216000D01*
X87333000Y-110216000D02*
X83904000Y-110216000D01*
X83904000Y-110216000D02*
X83269000Y-109581000D01*
X90762000Y-113645000D02*
X90762000Y-114661000D01*
X83015000Y-109327000D02*
X83269000Y-109581000D01*
X110955000Y-113645000D02*
X110955000Y-112883000D01*
X90762000Y-114661000D02*
X91143000Y-114661000D01*
X110955000Y-117201000D02*
X110955000Y-113645000D01*
X109431000Y-118725000D02*
X110955000Y-117201000D01*
X98890000Y-118725000D02*
X109431000Y-118725000D01*
X98001000Y-117836000D02*
X98890000Y-118725000D01*
X95715000Y-117836000D02*
X98001000Y-117836000D01*
X95207000Y-117328000D02*
X95715000Y-117836000D01*
X95207000Y-115804000D02*
X95207000Y-117328000D01*
X93937000Y-114534000D02*
X95207000Y-115804000D01*
X91270000Y-114534000D02*
X93937000Y-114534000D01*
X91143000Y-114661000D02*
X91270000Y-114534000D01*
X110955000Y-112883000D02*
X113558000Y-110280000D01*
X113558000Y-110280000D02*
X114130000Y-110280000D01*
X90762000Y-115550000D02*
X90762000Y-114661000D01*
X90762000Y-134854000D02*
X95080000Y-139172000D01*
X90762000Y-115550000D02*
X90762000Y-120757000D01*
X90762000Y-134854000D02*
X90762000Y-129266000D01*
X90000000Y-135616000D02*
X90000000Y-135870000D01*
X85428000Y-111232000D02*
X85174000Y-110978000D01*
X90000000Y-130282000D02*
X90000000Y-135616000D01*
X90000000Y-115296000D02*
X90000000Y-121519000D01*
X93810000Y-139934000D02*
X93810000Y-144252000D01*
X90000000Y-114153000D02*
X90000000Y-115296000D01*
X87079000Y-111232000D02*
X90000000Y-114153000D01*
X87079000Y-111232000D02*
X85428000Y-111232000D01*
X93810000Y-139680000D02*
X93810000Y-139934000D01*
X90000000Y-135870000D02*
X93810000Y-139680000D01*
X89238000Y-136378000D02*
X89238000Y-136886000D01*
X89238000Y-114407000D02*
X86698000Y-111867000D01*
X86698000Y-111867000D02*
X84793000Y-111867000D01*
X84793000Y-111867000D02*
X84031000Y-111105000D01*
X89238000Y-115423000D02*
X89238000Y-120757000D01*
X89238000Y-129266000D02*
X89238000Y-136378000D01*
X92794000Y-140442000D02*
X92794000Y-144252000D01*
X89238000Y-115423000D02*
X89238000Y-114407000D01*
X89238000Y-136886000D02*
X92794000Y-140442000D01*
X77046000Y-114153000D02*
X77046000Y-112502000D01*
X80475000Y-117582000D02*
X77046000Y-114153000D01*
X84793000Y-117582000D02*
X80475000Y-117582000D01*
X85047000Y-117328000D02*
X84793000Y-117582000D01*
X85047000Y-116058000D02*
X85047000Y-117328000D01*
X85174000Y-115931000D02*
X85047000Y-116058000D01*
X71712000Y-140696000D02*
X67902000Y-136886000D01*
X76792000Y-140696000D02*
X71712000Y-140696000D01*
X78570000Y-89960000D02*
X79078000Y-90468000D01*
X79078000Y-90468000D02*
X83048000Y-90468000D01*
X83048000Y-90468000D02*
X83080000Y-90500000D01*
X70696000Y-98850000D02*
X70696000Y-98723000D01*
X70696000Y-99612000D02*
X70696000Y-98850000D01*
X76459000Y-95500000D02*
X83080000Y-95500000D01*
X75141000Y-96818000D02*
X76459000Y-95500000D01*
X72601000Y-96818000D02*
X75141000Y-96818000D01*
X70696000Y-98723000D02*
X72601000Y-96818000D01*
X70696000Y-123424000D02*
X69934000Y-123424000D01*
X76538000Y-123424000D02*
X77962000Y-122000000D01*
X76538000Y-123424000D02*
X70696000Y-123424000D01*
X69934000Y-123424000D02*
X69426000Y-123424000D01*
X65870000Y-105200000D02*
X65870000Y-105898000D01*
X78000000Y-122000000D02*
X77962000Y-122000000D01*
X62822000Y-124250000D02*
X62822000Y-121710000D01*
X61806000Y-103930000D02*
X61806000Y-107994000D01*
X61806000Y-103930000D02*
X63076000Y-102660000D01*
X61806000Y-111804000D02*
X61806000Y-107994000D01*
X61806000Y-120694000D02*
X61806000Y-111804000D01*
X62822000Y-121710000D02*
X61806000Y-120694000D01*
X71204000Y-124186000D02*
X69680000Y-124186000D01*
X77300000Y-123678000D02*
X76792000Y-124186000D01*
X100668000Y-123678000D02*
X77300000Y-123678000D01*
X76792000Y-124186000D02*
X71204000Y-124186000D01*
X102000000Y-122346000D02*
X100668000Y-123678000D01*
X62822000Y-124186000D02*
X62822000Y-124250000D01*
X62822000Y-124250000D02*
X62822000Y-124440000D01*
X62822000Y-124694000D02*
X62822000Y-124186000D01*
X63330000Y-102660000D02*
X63076000Y-102660000D01*
X65870000Y-102660000D02*
X65806000Y-102660000D01*
X102000000Y-122000000D02*
X102000000Y-122346000D01*
X61298000Y-100882000D02*
X62060000Y-100120000D01*
X61298000Y-108502000D02*
X61298000Y-129330000D01*
X76792000Y-145268000D02*
X70442000Y-145268000D01*
X70442000Y-145268000D02*
X68918000Y-146792000D01*
X68918000Y-146792000D02*
X63330000Y-146792000D01*
X63330000Y-146792000D02*
X61806000Y-145268000D01*
X61806000Y-145268000D02*
X61806000Y-138918000D01*
X61298000Y-100882000D02*
X61298000Y-108502000D01*
X61806000Y-129838000D02*
X61806000Y-138918000D01*
X61298000Y-129330000D02*
X61806000Y-129838000D01*
X78000000Y-144060000D02*
X76792000Y-145268000D01*
X62060000Y-100120000D02*
X63330000Y-100120000D01*
X78000000Y-144000000D02*
X78000000Y-144060000D01*
X60790000Y-130092000D02*
X61298000Y-130600000D01*
X61298000Y-130600000D02*
X61298000Y-146094000D01*
X102000000Y-144000000D02*
X102000000Y-144444000D01*
X102000000Y-144444000D02*
X98382000Y-148062000D01*
X62504000Y-147300000D02*
X61298000Y-146094000D01*
X72982000Y-145776000D02*
X70696000Y-145776000D01*
X72982000Y-145776000D02*
X80602000Y-145776000D01*
X82888000Y-148062000D02*
X80602000Y-145776000D01*
X98128000Y-148062000D02*
X82888000Y-148062000D01*
X69172000Y-147300000D02*
X62568000Y-147300000D01*
X70696000Y-145776000D02*
X69172000Y-147300000D01*
X62568000Y-147300000D02*
X62504000Y-147300000D01*
X98382000Y-148062000D02*
X98128000Y-148062000D01*
X61552000Y-97580000D02*
X63330000Y-97580000D01*
X60790000Y-98342000D02*
X61552000Y-97580000D01*
X60790000Y-130092000D02*
X60790000Y-98342000D01*
X116670000Y-124758000D02*
X117178000Y-124250000D01*
X84920000Y-127234000D02*
X83904000Y-128250000D01*
X85682000Y-127234000D02*
X84920000Y-127234000D01*
X85682000Y-127234000D02*
X111082000Y-127234000D01*
X111082000Y-127234000D02*
X112352000Y-125964000D01*
X112606000Y-125710000D02*
X112352000Y-125964000D01*
X115654000Y-125710000D02*
X112606000Y-125710000D01*
X115718000Y-125710000D02*
X116670000Y-124758000D01*
X115654000Y-125710000D02*
X115718000Y-125710000D01*
X117178000Y-124250000D02*
X117178000Y-118154000D01*
X118194000Y-113328000D02*
X118702000Y-112820000D01*
X118194000Y-117138000D02*
X118194000Y-113328000D01*
X117178000Y-118154000D02*
X118194000Y-117138000D01*
X115654000Y-100120000D02*
X115972000Y-100120000D01*
X118702000Y-112820000D02*
X118702000Y-104882000D01*
X115972000Y-100120000D02*
X117432000Y-101580000D01*
X117432000Y-101580000D02*
X117432000Y-103612000D01*
X117432000Y-103612000D02*
X118702000Y-104882000D01*
X115718000Y-100120000D02*
X115654000Y-100120000D01*
X115654000Y-100120000D02*
X114130000Y-100120000D01*
X114194000Y-100056000D02*
X114130000Y-100120000D01*
D10*
G36*
X119500000Y-62957106D02*
X119500000Y-72470184D01*
X113679000Y-72470184D01*
X113503419Y-72505109D01*
X113354568Y-72604568D01*
X113255109Y-72753419D01*
X113220184Y-72929000D01*
X113220184Y-78771000D01*
X113255109Y-78946581D01*
X113354568Y-79095432D01*
X113503419Y-79194891D01*
X113679000Y-79229816D01*
X119500000Y-79229816D01*
X119500000Y-158542894D01*
X117792894Y-160250000D01*
X117397115Y-160250000D01*
X117401000Y-160240620D01*
X117401000Y-158787500D01*
X117313500Y-158700000D01*
X115580000Y-158700000D01*
X115580000Y-158720000D01*
X112680000Y-158720000D01*
X112680000Y-158700000D01*
X110946500Y-158700000D01*
X110859000Y-158787500D01*
X110859000Y-160240620D01*
X110862885Y-160250000D01*
X82407106Y-160250000D01*
X78884656Y-156727550D01*
X83669783Y-156727550D01*
X83859684Y-157187143D01*
X84211007Y-157539081D01*
X84670269Y-157729783D01*
X85167550Y-157730217D01*
X85627143Y-157540316D01*
X85979081Y-157188993D01*
X86169783Y-156729731D01*
X86170217Y-156232450D01*
X85980316Y-155772857D01*
X85628993Y-155420919D01*
X85169731Y-155230217D01*
X84672450Y-155229783D01*
X84212857Y-155419684D01*
X83860919Y-155771007D01*
X83670217Y-156230269D01*
X83669783Y-156727550D01*
X78884656Y-156727550D01*
X78053553Y-155896447D01*
X77891342Y-155788060D01*
X77700000Y-155750000D01*
X62207106Y-155750000D01*
X60549244Y-154092138D01*
X89557835Y-154092138D01*
X89702159Y-154441429D01*
X89969165Y-154708902D01*
X90318204Y-154853835D01*
X90696138Y-154854165D01*
X91045429Y-154709841D01*
X91312902Y-154442835D01*
X91457835Y-154093796D01*
X91457836Y-154092138D01*
X92097835Y-154092138D01*
X92242159Y-154441429D01*
X92509165Y-154708902D01*
X92858204Y-154853835D01*
X93236138Y-154854165D01*
X93585429Y-154709841D01*
X93852902Y-154442835D01*
X93929078Y-154259380D01*
X110859000Y-154259380D01*
X110859000Y-155712500D01*
X110946500Y-155800000D01*
X112680000Y-155800000D01*
X112680000Y-154066500D01*
X115580000Y-154066500D01*
X115580000Y-155800000D01*
X117313500Y-155800000D01*
X117401000Y-155712500D01*
X117401000Y-154259380D01*
X117347715Y-154130741D01*
X117249259Y-154032284D01*
X117120619Y-153979000D01*
X115667500Y-153979000D01*
X115580000Y-154066500D01*
X112680000Y-154066500D01*
X112592500Y-153979000D01*
X111139381Y-153979000D01*
X111010741Y-154032284D01*
X110912285Y-154130741D01*
X110859000Y-154259380D01*
X93929078Y-154259380D01*
X93997835Y-154093796D01*
X93998165Y-153715862D01*
X93853841Y-153366571D01*
X93586835Y-153099098D01*
X93237796Y-152954165D01*
X92859862Y-152953835D01*
X92510571Y-153098159D01*
X92243098Y-153365165D01*
X92098165Y-153714204D01*
X92097835Y-154092138D01*
X91457836Y-154092138D01*
X91458165Y-153715862D01*
X91313841Y-153366571D01*
X91046835Y-153099098D01*
X90697796Y-152954165D01*
X90319862Y-152953835D01*
X89970571Y-153098159D01*
X89703098Y-153365165D01*
X89558165Y-153714204D01*
X89557835Y-154092138D01*
X60549244Y-154092138D01*
X60500000Y-154042894D01*
X60500000Y-130582646D01*
X60746000Y-130828646D01*
X60746000Y-146094000D01*
X60788018Y-146305242D01*
X60907677Y-146484323D01*
X62113677Y-147690323D01*
X62292759Y-147809982D01*
X62504000Y-147852000D01*
X69172000Y-147852000D01*
X69383242Y-147809982D01*
X69562323Y-147690323D01*
X70924646Y-146328000D01*
X80373354Y-146328000D01*
X82497677Y-148452323D01*
X82676758Y-148571982D01*
X82888000Y-148614000D01*
X84018201Y-148614000D01*
X83860919Y-148771007D01*
X83670217Y-149230269D01*
X83669783Y-149727550D01*
X83859684Y-150187143D01*
X84211007Y-150539081D01*
X84670269Y-150729783D01*
X85167550Y-150730217D01*
X85627143Y-150540316D01*
X85979081Y-150188993D01*
X86169783Y-149729731D01*
X86170217Y-149232450D01*
X85980316Y-148772857D01*
X85821737Y-148614000D01*
X98382000Y-148614000D01*
X98593242Y-148571982D01*
X98772323Y-148452323D01*
X101936501Y-145288145D01*
X102255115Y-145288423D01*
X102728753Y-145092719D01*
X102787771Y-145033804D01*
X104098893Y-145033804D01*
X104210937Y-145165932D01*
X104682169Y-145203108D01*
X104869063Y-145165932D01*
X104981107Y-145033804D01*
X104540000Y-144592697D01*
X104098893Y-145033804D01*
X102787771Y-145033804D01*
X103091446Y-144730659D01*
X103287976Y-144257363D01*
X103288076Y-144142169D01*
X103336892Y-144142169D01*
X103374068Y-144329063D01*
X103506196Y-144441107D01*
X103947303Y-144000000D01*
X105132697Y-144000000D01*
X105573804Y-144441107D01*
X105705932Y-144329063D01*
X105743108Y-143857831D01*
X105705932Y-143670937D01*
X105573804Y-143558893D01*
X105132697Y-144000000D01*
X103947303Y-144000000D01*
X103506196Y-143558893D01*
X103374068Y-143670937D01*
X103336892Y-144142169D01*
X103288076Y-144142169D01*
X103288423Y-143744885D01*
X103092719Y-143271247D01*
X102788201Y-142966196D01*
X104098893Y-142966196D01*
X104540000Y-143407303D01*
X104981107Y-142966196D01*
X104869063Y-142834068D01*
X104397831Y-142796892D01*
X104210937Y-142834068D01*
X104098893Y-142966196D01*
X102788201Y-142966196D01*
X102730659Y-142908554D01*
X102257363Y-142712024D01*
X101744885Y-142711577D01*
X101271247Y-142907281D01*
X100908554Y-143269341D01*
X100729803Y-143699821D01*
X100552719Y-143271247D01*
X100190659Y-142908554D01*
X99717363Y-142712024D01*
X99204885Y-142711577D01*
X98731247Y-142907281D01*
X98368554Y-143269341D01*
X98172024Y-143742637D01*
X98171577Y-144255115D01*
X98367281Y-144728753D01*
X98505879Y-144867593D01*
X96609472Y-146764000D01*
X91836528Y-146764000D01*
X90242086Y-145169558D01*
X90242130Y-145119470D01*
X90128189Y-144843714D01*
X89917395Y-144632552D01*
X89641839Y-144518131D01*
X89343470Y-144517870D01*
X89067714Y-144631811D01*
X88856552Y-144842605D01*
X88742131Y-145118161D01*
X88741870Y-145416530D01*
X88855811Y-145692286D01*
X89066605Y-145903448D01*
X89342161Y-146017869D01*
X89393386Y-146017914D01*
X90885472Y-147510000D01*
X83116646Y-147510000D01*
X80992323Y-145385677D01*
X80813242Y-145266018D01*
X80602000Y-145224000D01*
X78411030Y-145224000D01*
X78728753Y-145092719D01*
X78787771Y-145033804D01*
X80098893Y-145033804D01*
X80210937Y-145165932D01*
X80682169Y-145203108D01*
X80869063Y-145165932D01*
X80981107Y-145033804D01*
X80540000Y-144592697D01*
X80098893Y-145033804D01*
X78787771Y-145033804D01*
X79091446Y-144730659D01*
X79287976Y-144257363D01*
X79288076Y-144142169D01*
X79336892Y-144142169D01*
X79374068Y-144329063D01*
X79506196Y-144441107D01*
X79947303Y-144000000D01*
X81132697Y-144000000D01*
X81573804Y-144441107D01*
X81705932Y-144329063D01*
X81743108Y-143857831D01*
X81705932Y-143670937D01*
X81573804Y-143558893D01*
X81132697Y-144000000D01*
X79947303Y-144000000D01*
X79506196Y-143558893D01*
X79374068Y-143670937D01*
X79336892Y-144142169D01*
X79288076Y-144142169D01*
X79288423Y-143744885D01*
X79092719Y-143271247D01*
X78788201Y-142966196D01*
X80098893Y-142966196D01*
X80540000Y-143407303D01*
X80981107Y-142966196D01*
X80869063Y-142834068D01*
X80397831Y-142796892D01*
X80210937Y-142834068D01*
X80098893Y-142966196D01*
X78788201Y-142966196D01*
X78730659Y-142908554D01*
X78257363Y-142712024D01*
X77744885Y-142711577D01*
X77271247Y-142907281D01*
X76908554Y-143269341D01*
X76729803Y-143699821D01*
X76552719Y-143271247D01*
X76190659Y-142908554D01*
X75717363Y-142712024D01*
X75204885Y-142711577D01*
X74731247Y-142907281D01*
X74368554Y-143269341D01*
X74172024Y-143742637D01*
X74171577Y-144255115D01*
X74362012Y-144716000D01*
X70442000Y-144716000D01*
X70230759Y-144758018D01*
X70116561Y-144834323D01*
X70051677Y-144877677D01*
X68689354Y-146240000D01*
X63558646Y-146240000D01*
X62358000Y-145039354D01*
X62358000Y-142416177D01*
X63919662Y-142416177D01*
X64215906Y-143133143D01*
X64763971Y-143682166D01*
X65480419Y-143979661D01*
X66256177Y-143980338D01*
X66973143Y-143684094D01*
X67522166Y-143136029D01*
X67819661Y-142419581D01*
X67820338Y-141643823D01*
X67524094Y-140926857D01*
X66976029Y-140377834D01*
X66259581Y-140080339D01*
X65483823Y-140079662D01*
X64766857Y-140375906D01*
X64217834Y-140923971D01*
X63920339Y-141640419D01*
X63919662Y-142416177D01*
X62358000Y-142416177D01*
X62358000Y-137034530D01*
X67151870Y-137034530D01*
X67265811Y-137310286D01*
X67476605Y-137521448D01*
X67752161Y-137635869D01*
X67871327Y-137635973D01*
X71321677Y-141086323D01*
X71500758Y-141205982D01*
X71712000Y-141248000D01*
X76283302Y-141248000D01*
X76366605Y-141331448D01*
X76642161Y-141445869D01*
X76940530Y-141446130D01*
X77216286Y-141332189D01*
X77427448Y-141121395D01*
X77541869Y-140845839D01*
X77542130Y-140547470D01*
X77428189Y-140271714D01*
X77217395Y-140060552D01*
X76941839Y-139946131D01*
X76643470Y-139945870D01*
X76367714Y-140059811D01*
X76283378Y-140144000D01*
X71940646Y-140144000D01*
X68652027Y-136855381D01*
X68652130Y-136737470D01*
X68538189Y-136461714D01*
X68327395Y-136250552D01*
X68051839Y-136136131D01*
X67753470Y-136135870D01*
X67477714Y-136249811D01*
X67266552Y-136460605D01*
X67152131Y-136736161D01*
X67151870Y-137034530D01*
X62358000Y-137034530D01*
X62358000Y-135400000D01*
X71441184Y-135400000D01*
X71441184Y-138600000D01*
X71476109Y-138775581D01*
X71575568Y-138924432D01*
X71724419Y-139023891D01*
X71900000Y-139058816D01*
X75100000Y-139058816D01*
X75275581Y-139023891D01*
X75424432Y-138924432D01*
X75523891Y-138775581D01*
X75558816Y-138600000D01*
X75558816Y-135400000D01*
X80441184Y-135400000D01*
X80441184Y-138600000D01*
X80476109Y-138775581D01*
X80575568Y-138924432D01*
X80724419Y-139023891D01*
X80900000Y-139058816D01*
X84100000Y-139058816D01*
X84275581Y-139023891D01*
X84424432Y-138924432D01*
X84523891Y-138775581D01*
X84558816Y-138600000D01*
X84558816Y-135400000D01*
X84523891Y-135224419D01*
X84424432Y-135075568D01*
X84275581Y-134976109D01*
X84100000Y-134941184D01*
X80900000Y-134941184D01*
X80724419Y-134976109D01*
X80575568Y-135075568D01*
X80476109Y-135224419D01*
X80441184Y-135400000D01*
X75558816Y-135400000D01*
X75523891Y-135224419D01*
X75424432Y-135075568D01*
X75275581Y-134976109D01*
X75100000Y-134941184D01*
X71900000Y-134941184D01*
X71724419Y-134976109D01*
X71575568Y-135075568D01*
X71476109Y-135224419D01*
X71441184Y-135400000D01*
X62358000Y-135400000D01*
X62358000Y-130938530D01*
X68167870Y-130938530D01*
X68281811Y-131214286D01*
X68492605Y-131425448D01*
X68768161Y-131539869D01*
X69066530Y-131540130D01*
X69342286Y-131426189D01*
X69378538Y-131390000D01*
X73617000Y-131390000D01*
X73846610Y-131344328D01*
X74041264Y-131214264D01*
X74422264Y-130833264D01*
X74552328Y-130638611D01*
X74598000Y-130409000D01*
X74598000Y-129612000D01*
X84920000Y-129612000D01*
X85149610Y-129566328D01*
X85344264Y-129436264D01*
X86184528Y-128596000D01*
X88895542Y-128596000D01*
X88813714Y-128629811D01*
X88602552Y-128840605D01*
X88488131Y-129116161D01*
X88487870Y-129414530D01*
X88601811Y-129690286D01*
X88686000Y-129774622D01*
X88686000Y-136886000D01*
X88728018Y-137097242D01*
X88847677Y-137276323D01*
X92242000Y-140670646D01*
X92242000Y-143743302D01*
X92158552Y-143826605D01*
X92044131Y-144102161D01*
X92043870Y-144400530D01*
X92157811Y-144676286D01*
X92368605Y-144887448D01*
X92644161Y-145001869D01*
X92942530Y-145002130D01*
X93218286Y-144888189D01*
X93301961Y-144804660D01*
X93384605Y-144887448D01*
X93660161Y-145001869D01*
X93958530Y-145002130D01*
X94234286Y-144888189D01*
X94445448Y-144677395D01*
X94559869Y-144401839D01*
X94560130Y-144103470D01*
X94446189Y-143827714D01*
X94362000Y-143743378D01*
X94362000Y-141146177D01*
X112179662Y-141146177D01*
X112475906Y-141863143D01*
X113023971Y-142412166D01*
X113740419Y-142709661D01*
X114516177Y-142710338D01*
X115233143Y-142414094D01*
X115782166Y-141866029D01*
X116079661Y-141149581D01*
X116080338Y-140373823D01*
X115784094Y-139656857D01*
X115236029Y-139107834D01*
X114519581Y-138810339D01*
X113743823Y-138809662D01*
X113026857Y-139105906D01*
X112477834Y-139653971D01*
X112180339Y-140370419D01*
X112179662Y-141146177D01*
X94362000Y-141146177D01*
X94362000Y-139680000D01*
X94345569Y-139597395D01*
X94319982Y-139468758D01*
X94200323Y-139289677D01*
X90552000Y-135641354D01*
X90552000Y-135424646D01*
X94329973Y-139202619D01*
X94329870Y-139320530D01*
X94443811Y-139596286D01*
X94654605Y-139807448D01*
X94930161Y-139921869D01*
X95228530Y-139922130D01*
X95504286Y-139808189D01*
X95715448Y-139597395D01*
X95829869Y-139321839D01*
X95830111Y-139044914D01*
X95900000Y-139058816D01*
X99100000Y-139058816D01*
X99275581Y-139023891D01*
X99424432Y-138924432D01*
X99523891Y-138775581D01*
X99558816Y-138600000D01*
X99558816Y-135400000D01*
X104441184Y-135400000D01*
X104441184Y-138600000D01*
X104476109Y-138775581D01*
X104575568Y-138924432D01*
X104724419Y-139023891D01*
X104900000Y-139058816D01*
X108100000Y-139058816D01*
X108275581Y-139023891D01*
X108424432Y-138924432D01*
X108523891Y-138775581D01*
X108558816Y-138600000D01*
X108558816Y-135400000D01*
X108523891Y-135224419D01*
X108424432Y-135075568D01*
X108275581Y-134976109D01*
X108100000Y-134941184D01*
X104900000Y-134941184D01*
X104724419Y-134976109D01*
X104575568Y-135075568D01*
X104476109Y-135224419D01*
X104441184Y-135400000D01*
X99558816Y-135400000D01*
X99523891Y-135224419D01*
X99424432Y-135075568D01*
X99275581Y-134976109D01*
X99100000Y-134941184D01*
X95900000Y-134941184D01*
X95724419Y-134976109D01*
X95575568Y-135075568D01*
X95476109Y-135224419D01*
X95441184Y-135400000D01*
X95441184Y-138509889D01*
X95229839Y-138422131D01*
X95110673Y-138422027D01*
X91314000Y-134625354D01*
X91314000Y-131274000D01*
X112821184Y-131274000D01*
X112821184Y-132974000D01*
X112856109Y-133149581D01*
X112955568Y-133298432D01*
X113104419Y-133397891D01*
X113280000Y-133432816D01*
X114980000Y-133432816D01*
X115155581Y-133397891D01*
X115304432Y-133298432D01*
X115403891Y-133149581D01*
X115438816Y-132974000D01*
X115438816Y-131274000D01*
X115403891Y-131098419D01*
X115304432Y-130949568D01*
X115155581Y-130850109D01*
X114980000Y-130815184D01*
X113280000Y-130815184D01*
X113104419Y-130850109D01*
X112955568Y-130949568D01*
X112856109Y-131098419D01*
X112821184Y-131274000D01*
X91314000Y-131274000D01*
X91314000Y-129774698D01*
X91397448Y-129691395D01*
X91511869Y-129415839D01*
X91512130Y-129117470D01*
X91398189Y-128841714D01*
X91187395Y-128630552D01*
X91104185Y-128596000D01*
X96905219Y-128596000D01*
X96940605Y-128631448D01*
X97216161Y-128745869D01*
X97514530Y-128746130D01*
X97790286Y-128632189D01*
X97826538Y-128596000D01*
X106124651Y-128596000D01*
X106014131Y-128862161D01*
X106013870Y-129160530D01*
X106110051Y-129393303D01*
X105773354Y-129730000D01*
X105240698Y-129730000D01*
X105157395Y-129646552D01*
X104881839Y-129532131D01*
X104583470Y-129531870D01*
X104307714Y-129645811D01*
X104096552Y-129856605D01*
X103982131Y-130132161D01*
X103981870Y-130430530D01*
X104095811Y-130706286D01*
X104306605Y-130917448D01*
X104582161Y-131031869D01*
X104880530Y-131032130D01*
X105156286Y-130918189D01*
X105240622Y-130834000D01*
X106002000Y-130834000D01*
X106213242Y-130791982D01*
X106392323Y-130672323D01*
X106968146Y-130096500D01*
X112930000Y-130096500D01*
X112930000Y-130503619D01*
X112983284Y-130632259D01*
X113081741Y-130730715D01*
X113210380Y-130784000D01*
X113617500Y-130784000D01*
X113705000Y-130696500D01*
X113705000Y-130009000D01*
X114555000Y-130009000D01*
X114555000Y-130696500D01*
X114642500Y-130784000D01*
X115049620Y-130784000D01*
X115178259Y-130730715D01*
X115276716Y-130632259D01*
X115330000Y-130503619D01*
X115330000Y-130096500D01*
X115242500Y-130009000D01*
X114555000Y-130009000D01*
X113705000Y-130009000D01*
X113017500Y-130009000D01*
X112930000Y-130096500D01*
X106968146Y-130096500D01*
X107154323Y-129910323D01*
X107273982Y-129731242D01*
X107315827Y-129520870D01*
X107399448Y-129437395D01*
X107513869Y-129161839D01*
X107514130Y-128863470D01*
X107431443Y-128663354D01*
X107630161Y-128745869D01*
X107928530Y-128746130D01*
X108126376Y-128664381D01*
X112930000Y-128664381D01*
X112930000Y-129071500D01*
X113017500Y-129159000D01*
X113705000Y-129159000D01*
X113705000Y-128471500D01*
X114555000Y-128471500D01*
X114555000Y-129159000D01*
X115242500Y-129159000D01*
X115330000Y-129071500D01*
X115330000Y-128664381D01*
X115276716Y-128535741D01*
X115178259Y-128437285D01*
X115049620Y-128384000D01*
X114642500Y-128384000D01*
X114555000Y-128471500D01*
X113705000Y-128471500D01*
X113617500Y-128384000D01*
X113210380Y-128384000D01*
X113081741Y-128437285D01*
X112983284Y-128535741D01*
X112930000Y-128664381D01*
X108126376Y-128664381D01*
X108204286Y-128632189D01*
X108415448Y-128421395D01*
X108529869Y-128145839D01*
X108530130Y-127847470D01*
X108504731Y-127786000D01*
X111082000Y-127786000D01*
X111293242Y-127743982D01*
X111472323Y-127624323D01*
X112821184Y-126275462D01*
X112821184Y-127894000D01*
X112856109Y-128069581D01*
X112955568Y-128218432D01*
X113104419Y-128317891D01*
X113280000Y-128352816D01*
X114980000Y-128352816D01*
X115155581Y-128317891D01*
X115304432Y-128218432D01*
X115403891Y-128069581D01*
X115438816Y-127894000D01*
X115438816Y-126262000D01*
X115718000Y-126262000D01*
X115929242Y-126219982D01*
X116108323Y-126100323D01*
X117568323Y-124640323D01*
X117588393Y-124610286D01*
X117687982Y-124461241D01*
X117730000Y-124250000D01*
X117730000Y-118382646D01*
X118584323Y-117528323D01*
X118703982Y-117349242D01*
X118746000Y-117138000D01*
X118746000Y-113556646D01*
X119092323Y-113210323D01*
X119119555Y-113169568D01*
X119211982Y-113031241D01*
X119254000Y-112820000D01*
X119254000Y-104882000D01*
X119211982Y-104670759D01*
X119211982Y-104670758D01*
X119092323Y-104491677D01*
X117984000Y-103383354D01*
X117984000Y-101580000D01*
X117967569Y-101497395D01*
X117941982Y-101368758D01*
X117822323Y-101189677D01*
X116362323Y-99729677D01*
X116183242Y-99610018D01*
X115972000Y-99568000D01*
X115438816Y-99568000D01*
X115438816Y-99270000D01*
X115403891Y-99094419D01*
X115304432Y-98945568D01*
X115161404Y-98850000D01*
X115304432Y-98754432D01*
X115403891Y-98605581D01*
X115438816Y-98430000D01*
X115438816Y-96730000D01*
X115403891Y-96554419D01*
X115304432Y-96405568D01*
X115161404Y-96310000D01*
X115304432Y-96214432D01*
X115403891Y-96065581D01*
X115438816Y-95890000D01*
X115438816Y-94190000D01*
X115403891Y-94014419D01*
X115304432Y-93865568D01*
X115161404Y-93770000D01*
X115304432Y-93674432D01*
X115403891Y-93525581D01*
X115438816Y-93350000D01*
X115438816Y-91650000D01*
X115403891Y-91474419D01*
X115304432Y-91325568D01*
X115155581Y-91226109D01*
X114980000Y-91191184D01*
X113280000Y-91191184D01*
X113104419Y-91226109D01*
X112955568Y-91325568D01*
X112856109Y-91474419D01*
X112821184Y-91650000D01*
X112821184Y-93350000D01*
X112856109Y-93525581D01*
X112955568Y-93674432D01*
X113098596Y-93770000D01*
X112955568Y-93865568D01*
X112856109Y-94014419D01*
X112821184Y-94190000D01*
X112821184Y-95890000D01*
X112856109Y-96065581D01*
X112955568Y-96214432D01*
X113098596Y-96310000D01*
X112955568Y-96405568D01*
X112856109Y-96554419D01*
X112821184Y-96730000D01*
X112821184Y-98430000D01*
X112856109Y-98605581D01*
X112955568Y-98754432D01*
X113098596Y-98850000D01*
X112955568Y-98945568D01*
X112856109Y-99094419D01*
X112821184Y-99270000D01*
X112821184Y-100970000D01*
X112856109Y-101145581D01*
X112955568Y-101294432D01*
X113098596Y-101390000D01*
X112955568Y-101485568D01*
X112856109Y-101634419D01*
X112821184Y-101810000D01*
X112821184Y-103510000D01*
X112856109Y-103685581D01*
X112955568Y-103834432D01*
X113098596Y-103930000D01*
X112955568Y-104025568D01*
X112856109Y-104174419D01*
X112821184Y-104350000D01*
X112821184Y-105650538D01*
X112650000Y-105479354D01*
X112650000Y-96056000D01*
X112607982Y-95844759D01*
X112607982Y-95844758D01*
X112488323Y-95665677D01*
X111932323Y-95109677D01*
X111753242Y-94990018D01*
X111542000Y-94948000D01*
X111008816Y-94948000D01*
X111008816Y-94250000D01*
X110973891Y-94074419D01*
X110874432Y-93925568D01*
X110725581Y-93826109D01*
X110550000Y-93791184D01*
X108050000Y-93791184D01*
X107874419Y-93826109D01*
X107725568Y-93925568D01*
X107626109Y-94074419D01*
X107591184Y-94250000D01*
X107591184Y-96750000D01*
X107626109Y-96925581D01*
X107725568Y-97074432D01*
X107874419Y-97173891D01*
X108050000Y-97208816D01*
X110550000Y-97208816D01*
X110725581Y-97173891D01*
X110874432Y-97074432D01*
X110973891Y-96925581D01*
X111008816Y-96750000D01*
X111008816Y-96052000D01*
X111313354Y-96052000D01*
X111546000Y-96284646D01*
X111546000Y-105708000D01*
X111588018Y-105919242D01*
X111707677Y-106098323D01*
X112821184Y-107211830D01*
X112821184Y-108590000D01*
X112856109Y-108765581D01*
X112955568Y-108914432D01*
X113098596Y-109010000D01*
X112955568Y-109105568D01*
X112856109Y-109254419D01*
X112821184Y-109430000D01*
X112821184Y-110236170D01*
X110564677Y-112492677D01*
X110445018Y-112671758D01*
X110419431Y-112800395D01*
X110403000Y-112883000D01*
X110403000Y-114698112D01*
X110342839Y-114673131D01*
X110044470Y-114672870D01*
X109768714Y-114786811D01*
X109557552Y-114997605D01*
X109443131Y-115273161D01*
X109443027Y-115392327D01*
X109294677Y-115540677D01*
X109175018Y-115719758D01*
X109149431Y-115848395D01*
X109133000Y-115931000D01*
X109133000Y-116845354D01*
X108821354Y-117157000D01*
X100642646Y-117157000D01*
X100458000Y-116972354D01*
X100458000Y-113400000D01*
X104441184Y-113400000D01*
X104441184Y-116600000D01*
X104476109Y-116775581D01*
X104575568Y-116924432D01*
X104724419Y-117023891D01*
X104900000Y-117058816D01*
X108100000Y-117058816D01*
X108275581Y-117023891D01*
X108424432Y-116924432D01*
X108523891Y-116775581D01*
X108558816Y-116600000D01*
X108558816Y-113400000D01*
X108523891Y-113224419D01*
X108424432Y-113075568D01*
X108275581Y-112976109D01*
X108100000Y-112941184D01*
X104900000Y-112941184D01*
X104724419Y-112976109D01*
X104575568Y-113075568D01*
X104476109Y-113224419D01*
X104441184Y-113400000D01*
X100458000Y-113400000D01*
X100458000Y-113264000D01*
X100415982Y-113052759D01*
X100331952Y-112927000D01*
X108922302Y-112927000D01*
X109005605Y-113010448D01*
X109281161Y-113124869D01*
X109579530Y-113125130D01*
X109855286Y-113011189D01*
X110066448Y-112800395D01*
X110180869Y-112524839D01*
X110181130Y-112226470D01*
X110067189Y-111950714D01*
X109856395Y-111739552D01*
X109580839Y-111625131D01*
X109282470Y-111624870D01*
X109006714Y-111738811D01*
X108922378Y-111823000D01*
X91498646Y-111823000D01*
X90009323Y-110333677D01*
X89830242Y-110214018D01*
X89619000Y-110172000D01*
X89282000Y-110172000D01*
X89282000Y-110089000D01*
X89239982Y-109877759D01*
X89120323Y-109698677D01*
X88612323Y-109190677D01*
X88433242Y-109071018D01*
X88222000Y-109029000D01*
X84386646Y-109029000D01*
X84202000Y-108844354D01*
X84202000Y-104628000D01*
X84159982Y-104416759D01*
X84159982Y-104416758D01*
X84040323Y-104237677D01*
X83938404Y-104135758D01*
X83905982Y-103972759D01*
X83905982Y-103972758D01*
X83786323Y-103793677D01*
X81213176Y-101220530D01*
X86709870Y-101220530D01*
X86823811Y-101496286D01*
X87034605Y-101707448D01*
X87310161Y-101821869D01*
X87608530Y-101822130D01*
X87884286Y-101708189D01*
X88095448Y-101497395D01*
X88209869Y-101221839D01*
X88209973Y-101102673D01*
X90898323Y-98414323D01*
X91017982Y-98235242D01*
X91060000Y-98024000D01*
X91060000Y-96982646D01*
X92062619Y-95980027D01*
X92180530Y-95980130D01*
X92456286Y-95866189D01*
X92667448Y-95655395D01*
X92781869Y-95379839D01*
X92782130Y-95081470D01*
X92668189Y-94805714D01*
X92457395Y-94594552D01*
X92181839Y-94480131D01*
X91883470Y-94479870D01*
X91607714Y-94593811D01*
X91396552Y-94804605D01*
X91282131Y-95080161D01*
X91282027Y-95199327D01*
X90117677Y-96363677D01*
X89998018Y-96542758D01*
X89998018Y-96542759D01*
X89956000Y-96754000D01*
X89956000Y-97795354D01*
X87429381Y-100321973D01*
X87311470Y-100321870D01*
X87035714Y-100435811D01*
X86824552Y-100646605D01*
X86710131Y-100922161D01*
X86709870Y-101220530D01*
X81213176Y-101220530D01*
X77598000Y-97605354D01*
X77598000Y-97580698D01*
X77681448Y-97497395D01*
X77795869Y-97221839D01*
X77796130Y-96923470D01*
X77682189Y-96647714D01*
X77471395Y-96436552D01*
X77195839Y-96322131D01*
X76897470Y-96321870D01*
X76621714Y-96435811D01*
X76410552Y-96646605D01*
X76296131Y-96922161D01*
X76295870Y-97220530D01*
X76301977Y-97235309D01*
X76201395Y-97134552D01*
X75925839Y-97020131D01*
X75719695Y-97019951D01*
X76687646Y-96052000D01*
X80621184Y-96052000D01*
X80621184Y-96100000D01*
X80656109Y-96275581D01*
X80755568Y-96424432D01*
X80904419Y-96523891D01*
X81080000Y-96558816D01*
X85080000Y-96558816D01*
X85255581Y-96523891D01*
X85404432Y-96424432D01*
X85503891Y-96275581D01*
X85538816Y-96100000D01*
X85538816Y-94900000D01*
X85503891Y-94724419D01*
X85404432Y-94575568D01*
X85255581Y-94476109D01*
X85080000Y-94441184D01*
X81080000Y-94441184D01*
X80904419Y-94476109D01*
X80755568Y-94575568D01*
X80656109Y-94724419D01*
X80621184Y-94900000D01*
X80621184Y-94948000D01*
X76459000Y-94948000D01*
X76247759Y-94990018D01*
X76112851Y-95080161D01*
X76068677Y-95109677D01*
X75270000Y-95908354D01*
X75270000Y-95887500D01*
X75182500Y-95800000D01*
X73920000Y-95800000D01*
X73920000Y-96100000D01*
X71920000Y-96100000D01*
X71920000Y-95800000D01*
X70657500Y-95800000D01*
X70570000Y-95887500D01*
X70570000Y-96169619D01*
X70623284Y-96298259D01*
X70721741Y-96396715D01*
X70850380Y-96450000D01*
X72188354Y-96450000D01*
X70305677Y-98332677D01*
X70186018Y-98511758D01*
X70173240Y-98576000D01*
X70144000Y-98723000D01*
X70144000Y-99103302D01*
X70060552Y-99186605D01*
X69946131Y-99462161D01*
X69945870Y-99760530D01*
X70059811Y-100036286D01*
X70270605Y-100247448D01*
X70546161Y-100361869D01*
X70844530Y-100362130D01*
X71120286Y-100248189D01*
X71331448Y-100037395D01*
X71445869Y-99761839D01*
X71446130Y-99463470D01*
X71332189Y-99187714D01*
X71248000Y-99103378D01*
X71248000Y-98951646D01*
X72829646Y-97370000D01*
X75130007Y-97370000D01*
X75026131Y-97620161D01*
X75025870Y-97918530D01*
X75139811Y-98194286D01*
X75350605Y-98405448D01*
X75626161Y-98519869D01*
X75745327Y-98519973D01*
X81828000Y-104602646D01*
X81828000Y-110343000D01*
X81870018Y-110554242D01*
X81989677Y-110733323D01*
X82082000Y-110825646D01*
X82082000Y-110851000D01*
X82124018Y-111062242D01*
X82243677Y-111241323D01*
X83943538Y-112941184D01*
X80900000Y-112941184D01*
X80724419Y-112976109D01*
X80575568Y-113075568D01*
X80476109Y-113224419D01*
X80441184Y-113400000D01*
X80441184Y-116600000D01*
X80476109Y-116775581D01*
X80530240Y-116856594D01*
X77598000Y-113924354D01*
X77598000Y-113010698D01*
X77681448Y-112927395D01*
X77795869Y-112651839D01*
X77796130Y-112353470D01*
X77682189Y-112077714D01*
X77471395Y-111866552D01*
X77195839Y-111752131D01*
X76897470Y-111751870D01*
X76621714Y-111865811D01*
X76410552Y-112076605D01*
X76296131Y-112352161D01*
X76295870Y-112650530D01*
X76409811Y-112926286D01*
X76494000Y-113010622D01*
X76494000Y-114153000D01*
X76536018Y-114364242D01*
X76655677Y-114543323D01*
X80084677Y-117972323D01*
X80263759Y-118091982D01*
X80475000Y-118134000D01*
X84793000Y-118134000D01*
X85004242Y-118091982D01*
X85183323Y-117972323D01*
X85437323Y-117718323D01*
X85556982Y-117539242D01*
X85599000Y-117328000D01*
X85599000Y-116781554D01*
X85764605Y-116947448D01*
X86040161Y-117061869D01*
X86338530Y-117062130D01*
X86614286Y-116948189D01*
X86825448Y-116737395D01*
X86862536Y-116648078D01*
X87034605Y-116820448D01*
X87310161Y-116934869D01*
X87608530Y-116935130D01*
X87884286Y-116821189D01*
X88095448Y-116610395D01*
X88209869Y-116334839D01*
X88210130Y-116036470D01*
X88096189Y-115760714D01*
X88012000Y-115676378D01*
X88012000Y-114026000D01*
X88000208Y-113966715D01*
X87996021Y-113945667D01*
X88686000Y-114635646D01*
X88686000Y-119016112D01*
X88625839Y-118991131D01*
X88327470Y-118990870D01*
X88051714Y-119104811D01*
X88015462Y-119141000D01*
X75093781Y-119141000D01*
X75058395Y-119105552D01*
X74782839Y-118991131D01*
X74484470Y-118990870D01*
X74208714Y-119104811D01*
X74172462Y-119141000D01*
X70902781Y-119141000D01*
X70867395Y-119105552D01*
X70591839Y-118991131D01*
X70293470Y-118990870D01*
X70017714Y-119104811D01*
X69806552Y-119315605D01*
X69692131Y-119591161D01*
X69691870Y-119889530D01*
X69805811Y-120165286D01*
X70016605Y-120376448D01*
X70292161Y-120490869D01*
X70590530Y-120491130D01*
X70866286Y-120377189D01*
X70902538Y-120341000D01*
X74172219Y-120341000D01*
X74207605Y-120376448D01*
X74483161Y-120490869D01*
X74781530Y-120491130D01*
X75057286Y-120377189D01*
X75093538Y-120341000D01*
X88015219Y-120341000D01*
X88050605Y-120376448D01*
X88326161Y-120490869D01*
X88536343Y-120491053D01*
X88488131Y-120607161D01*
X88487870Y-120905530D01*
X88601811Y-121181286D01*
X88812605Y-121392448D01*
X89088161Y-121506869D01*
X89250010Y-121507011D01*
X89249870Y-121667530D01*
X89363811Y-121943286D01*
X89574605Y-122154448D01*
X89850161Y-122268869D01*
X90148530Y-122269130D01*
X90424286Y-122155189D01*
X90635448Y-121944395D01*
X90749869Y-121668839D01*
X90750011Y-121506990D01*
X90910530Y-121507130D01*
X91186286Y-121393189D01*
X91397448Y-121182395D01*
X91511869Y-120906839D01*
X91512130Y-120608470D01*
X91398189Y-120332714D01*
X91314000Y-120248378D01*
X91314000Y-116807927D01*
X91545530Y-116808130D01*
X91821286Y-116694189D01*
X91905622Y-116610000D01*
X93047302Y-116610000D01*
X93130605Y-116693448D01*
X93406161Y-116807869D01*
X93704530Y-116808130D01*
X93893000Y-116730255D01*
X93893000Y-119106000D01*
X93935018Y-119317242D01*
X94054677Y-119496323D01*
X95197677Y-120639323D01*
X95376758Y-120758982D01*
X95588000Y-120801000D01*
X98988466Y-120801000D01*
X98731247Y-120907281D01*
X98368554Y-121269341D01*
X98355823Y-121300000D01*
X95201528Y-121300000D01*
X93544086Y-119642558D01*
X93544130Y-119592470D01*
X93430189Y-119316714D01*
X93219395Y-119105552D01*
X92943839Y-118991131D01*
X92645470Y-118990870D01*
X92369714Y-119104811D01*
X92158552Y-119315605D01*
X92044131Y-119591161D01*
X92043870Y-119889530D01*
X92157811Y-120165286D01*
X92368605Y-120376448D01*
X92644161Y-120490869D01*
X92695386Y-120490914D01*
X94528736Y-122324264D01*
X94723390Y-122454328D01*
X94953000Y-122500000D01*
X98272762Y-122500000D01*
X98367281Y-122728753D01*
X98729341Y-123091446D01*
X98812556Y-123126000D01*
X80902925Y-123126000D01*
X80981107Y-123033804D01*
X80540000Y-122592697D01*
X80098893Y-123033804D01*
X80177075Y-123126000D01*
X78648207Y-123126000D01*
X78728753Y-123092719D01*
X79091446Y-122730659D01*
X79287976Y-122257363D01*
X79288076Y-122142169D01*
X79336892Y-122142169D01*
X79374068Y-122329063D01*
X79506196Y-122441107D01*
X79947303Y-122000000D01*
X81132697Y-122000000D01*
X81573804Y-122441107D01*
X81705932Y-122329063D01*
X81743108Y-121857831D01*
X81705932Y-121670937D01*
X81573804Y-121558893D01*
X81132697Y-122000000D01*
X79947303Y-122000000D01*
X79506196Y-121558893D01*
X79374068Y-121670937D01*
X79336892Y-122142169D01*
X79288076Y-122142169D01*
X79288423Y-121744885D01*
X79092719Y-121271247D01*
X78788201Y-120966196D01*
X80098893Y-120966196D01*
X80540000Y-121407303D01*
X80981107Y-120966196D01*
X80869063Y-120834068D01*
X80397831Y-120796892D01*
X80210937Y-120834068D01*
X80098893Y-120966196D01*
X78788201Y-120966196D01*
X78730659Y-120908554D01*
X78257363Y-120712024D01*
X77744885Y-120711577D01*
X77271247Y-120907281D01*
X76908554Y-121269341D01*
X76729803Y-121699821D01*
X76552719Y-121271247D01*
X76190659Y-120908554D01*
X75717363Y-120712024D01*
X75204885Y-120711577D01*
X74731247Y-120907281D01*
X74368554Y-121269341D01*
X74172024Y-121742637D01*
X74171577Y-122255115D01*
X74367281Y-122728753D01*
X74510278Y-122872000D01*
X69934698Y-122872000D01*
X69851395Y-122788552D01*
X69575839Y-122674131D01*
X69277470Y-122673870D01*
X69001714Y-122787811D01*
X68790552Y-122998605D01*
X68676131Y-123274161D01*
X68675870Y-123572530D01*
X68789811Y-123848286D01*
X68944005Y-124002749D01*
X68930131Y-124036161D01*
X68929870Y-124334530D01*
X69043811Y-124610286D01*
X69254605Y-124821448D01*
X69530161Y-124935869D01*
X69828530Y-124936130D01*
X70104286Y-124822189D01*
X70188622Y-124738000D01*
X76792000Y-124738000D01*
X77003242Y-124695982D01*
X77182323Y-124576323D01*
X77528646Y-124230000D01*
X100668000Y-124230000D01*
X100879242Y-124187982D01*
X101058323Y-124068323D01*
X101838586Y-123288060D01*
X102255115Y-123288423D01*
X102728753Y-123092719D01*
X102787771Y-123033804D01*
X104098893Y-123033804D01*
X104210937Y-123165932D01*
X104682169Y-123203108D01*
X104869063Y-123165932D01*
X104981107Y-123033804D01*
X104540000Y-122592697D01*
X104098893Y-123033804D01*
X102787771Y-123033804D01*
X103091446Y-122730659D01*
X103287976Y-122257363D01*
X103288076Y-122142169D01*
X103336892Y-122142169D01*
X103374068Y-122329063D01*
X103506196Y-122441107D01*
X103947303Y-122000000D01*
X105132697Y-122000000D01*
X105573804Y-122441107D01*
X105705932Y-122329063D01*
X105743108Y-121857831D01*
X105705932Y-121670937D01*
X105573804Y-121558893D01*
X105132697Y-122000000D01*
X103947303Y-122000000D01*
X103506196Y-121558893D01*
X103374068Y-121670937D01*
X103336892Y-122142169D01*
X103288076Y-122142169D01*
X103288423Y-121744885D01*
X103092719Y-121271247D01*
X102730659Y-120908554D01*
X102471641Y-120801000D01*
X104377179Y-120801000D01*
X104210937Y-120834068D01*
X104098893Y-120966196D01*
X104540000Y-121407303D01*
X104981107Y-120966196D01*
X104869063Y-120834068D01*
X104449903Y-120801000D01*
X109431000Y-120801000D01*
X109642242Y-120758982D01*
X109821323Y-120639323D01*
X112488323Y-117972323D01*
X112607982Y-117793241D01*
X112650000Y-117582000D01*
X112650000Y-113444370D01*
X112776286Y-113392189D01*
X112867976Y-113300659D01*
X112856109Y-113318419D01*
X112821184Y-113494000D01*
X112821184Y-115194000D01*
X112856109Y-115369581D01*
X112955568Y-115518432D01*
X113098596Y-115614000D01*
X112955568Y-115709568D01*
X112856109Y-115858419D01*
X112821184Y-116034000D01*
X112821184Y-117734000D01*
X112856109Y-117909581D01*
X112955568Y-118058432D01*
X113098596Y-118154000D01*
X112955568Y-118249568D01*
X112856109Y-118398419D01*
X112821184Y-118574000D01*
X112821184Y-120274000D01*
X112856109Y-120449581D01*
X112955568Y-120598432D01*
X113098596Y-120694000D01*
X112955568Y-120789568D01*
X112856109Y-120938419D01*
X112821184Y-121114000D01*
X112821184Y-122814000D01*
X112856109Y-122989581D01*
X112955568Y-123138432D01*
X113098596Y-123234000D01*
X112955568Y-123329568D01*
X112856109Y-123478419D01*
X112821184Y-123654000D01*
X112821184Y-125158000D01*
X112606000Y-125158000D01*
X112394758Y-125200018D01*
X112215677Y-125319677D01*
X110853354Y-126682000D01*
X84920000Y-126682000D01*
X84708758Y-126724018D01*
X84529677Y-126843677D01*
X83873381Y-127499973D01*
X83755470Y-127499870D01*
X83479714Y-127613811D01*
X83268552Y-127824605D01*
X83154131Y-128100161D01*
X83153870Y-128398530D01*
X83159436Y-128412000D01*
X74637349Y-128412000D01*
X74747869Y-128145839D01*
X74748130Y-127847470D01*
X74634189Y-127571714D01*
X74423395Y-127360552D01*
X74147839Y-127246131D01*
X73849470Y-127245870D01*
X73573714Y-127359811D01*
X73534000Y-127399456D01*
X73534000Y-125964000D01*
X73491982Y-125752759D01*
X73372323Y-125573677D01*
X73193241Y-125454018D01*
X72982000Y-125412000D01*
X72220698Y-125412000D01*
X72137395Y-125328552D01*
X71861839Y-125214131D01*
X71563470Y-125213870D01*
X71287714Y-125327811D01*
X71076552Y-125538605D01*
X70962131Y-125814161D01*
X70961870Y-126112530D01*
X71075811Y-126388286D01*
X71286605Y-126599448D01*
X71562161Y-126713869D01*
X71860530Y-126714130D01*
X72136286Y-126600189D01*
X72220622Y-126516000D01*
X72430000Y-126516000D01*
X72430000Y-129520000D01*
X72472018Y-129731242D01*
X72486019Y-129752196D01*
X72485870Y-129922530D01*
X72596387Y-130190000D01*
X69378781Y-130190000D01*
X69343395Y-130154552D01*
X69067839Y-130040131D01*
X68769470Y-130039870D01*
X68493714Y-130153811D01*
X68282552Y-130364605D01*
X68168131Y-130640161D01*
X68167870Y-130938530D01*
X62358000Y-130938530D01*
X62358000Y-129838000D01*
X62315982Y-129626759D01*
X62196323Y-129447677D01*
X61850000Y-129101354D01*
X61850000Y-121518646D01*
X62270000Y-121938646D01*
X62270000Y-124185302D01*
X62186552Y-124268605D01*
X62072131Y-124544161D01*
X62071870Y-124842530D01*
X62185811Y-125118286D01*
X62396605Y-125329448D01*
X62672161Y-125443869D01*
X62970530Y-125444130D01*
X63246286Y-125330189D01*
X63457448Y-125119395D01*
X63571869Y-124843839D01*
X63572130Y-124545470D01*
X63458189Y-124269714D01*
X63374000Y-124185378D01*
X63374000Y-121710000D01*
X63331982Y-121498759D01*
X63331982Y-121498758D01*
X63212323Y-121319677D01*
X62358000Y-120465354D01*
X62358000Y-119184549D01*
X62480000Y-119208816D01*
X64780503Y-119208816D01*
X64695568Y-119265568D01*
X64596109Y-119414419D01*
X64561184Y-119590000D01*
X64561184Y-121290000D01*
X64596109Y-121465581D01*
X64695568Y-121614432D01*
X64838596Y-121710000D01*
X64695568Y-121805568D01*
X64596109Y-121954419D01*
X64561184Y-122130000D01*
X64561184Y-123830000D01*
X64596109Y-124005581D01*
X64695568Y-124154432D01*
X64844419Y-124253891D01*
X65020000Y-124288816D01*
X66720000Y-124288816D01*
X66895581Y-124253891D01*
X67044432Y-124154432D01*
X67143891Y-124005581D01*
X67178816Y-123830000D01*
X67178816Y-122130000D01*
X67143891Y-121954419D01*
X67044432Y-121805568D01*
X66901404Y-121710000D01*
X67044432Y-121614432D01*
X67143891Y-121465581D01*
X67178816Y-121290000D01*
X67178816Y-119590000D01*
X67143891Y-119414419D01*
X67044432Y-119265568D01*
X66901404Y-119170000D01*
X67044432Y-119074432D01*
X67143891Y-118925581D01*
X67178816Y-118750000D01*
X67178816Y-117050000D01*
X67143891Y-116874419D01*
X67044432Y-116725568D01*
X66895581Y-116626109D01*
X66720000Y-116591184D01*
X65689497Y-116591184D01*
X65774432Y-116534432D01*
X65873891Y-116385581D01*
X65908816Y-116210000D01*
X65908816Y-115785000D01*
X66295000Y-115785000D01*
X66295000Y-116472500D01*
X66382500Y-116560000D01*
X66789620Y-116560000D01*
X66918259Y-116506715D01*
X67016716Y-116408259D01*
X67070000Y-116279619D01*
X67070000Y-115872500D01*
X66982500Y-115785000D01*
X66295000Y-115785000D01*
X65908816Y-115785000D01*
X65908816Y-114510000D01*
X65873891Y-114334419D01*
X65815814Y-114247500D01*
X66295000Y-114247500D01*
X66295000Y-114935000D01*
X66982500Y-114935000D01*
X67070000Y-114847500D01*
X67070000Y-114440381D01*
X67016716Y-114311741D01*
X66918259Y-114213285D01*
X66789620Y-114160000D01*
X66382500Y-114160000D01*
X66295000Y-114247500D01*
X65815814Y-114247500D01*
X65774432Y-114185568D01*
X65625581Y-114086109D01*
X65450000Y-114051184D01*
X65020000Y-114051184D01*
X65020000Y-114020000D01*
X65357500Y-114020000D01*
X65445000Y-113932500D01*
X65445000Y-113245000D01*
X66295000Y-113245000D01*
X66295000Y-113932500D01*
X66382500Y-114020000D01*
X66789620Y-114020000D01*
X66918259Y-113966715D01*
X67016716Y-113868259D01*
X67070000Y-113739619D01*
X67070000Y-113400000D01*
X71441184Y-113400000D01*
X71441184Y-116600000D01*
X71476109Y-116775581D01*
X71575568Y-116924432D01*
X71724419Y-117023891D01*
X71900000Y-117058816D01*
X75100000Y-117058816D01*
X75275581Y-117023891D01*
X75424432Y-116924432D01*
X75523891Y-116775581D01*
X75558816Y-116600000D01*
X75558816Y-113400000D01*
X75523891Y-113224419D01*
X75424432Y-113075568D01*
X75275581Y-112976109D01*
X75100000Y-112941184D01*
X71900000Y-112941184D01*
X71724419Y-112976109D01*
X71575568Y-113075568D01*
X71476109Y-113224419D01*
X71441184Y-113400000D01*
X67070000Y-113400000D01*
X67070000Y-113332500D01*
X66982500Y-113245000D01*
X66295000Y-113245000D01*
X65445000Y-113245000D01*
X64757500Y-113245000D01*
X64670000Y-113332500D01*
X64670000Y-113739619D01*
X64723284Y-113868259D01*
X64765023Y-113909998D01*
X64670000Y-113909998D01*
X64670000Y-114051184D01*
X64530000Y-114051184D01*
X64530000Y-113909998D01*
X64180000Y-113909998D01*
X64180000Y-114051184D01*
X63750000Y-114051184D01*
X63574419Y-114086109D01*
X63425568Y-114185568D01*
X63326109Y-114334419D01*
X63291184Y-114510000D01*
X63291184Y-116210000D01*
X63326109Y-116385581D01*
X63425568Y-116534432D01*
X63510503Y-116591184D01*
X62480000Y-116591184D01*
X62480000Y-116560000D01*
X62817500Y-116560000D01*
X62905000Y-116472500D01*
X62905000Y-115785000D01*
X62480000Y-115785000D01*
X62480000Y-114935000D01*
X62905000Y-114935000D01*
X62905000Y-114247500D01*
X62817500Y-114160000D01*
X62480000Y-114160000D01*
X62480000Y-113909998D01*
X62358000Y-113909998D01*
X62358000Y-111900381D01*
X64670000Y-111900381D01*
X64670000Y-112307500D01*
X64757500Y-112395000D01*
X65445000Y-112395000D01*
X65445000Y-111707500D01*
X66295000Y-111707500D01*
X66295000Y-112395000D01*
X66982500Y-112395000D01*
X67070000Y-112307500D01*
X67070000Y-111900381D01*
X67016716Y-111771741D01*
X66918259Y-111673285D01*
X66789620Y-111620000D01*
X66382500Y-111620000D01*
X66295000Y-111707500D01*
X65445000Y-111707500D01*
X65357500Y-111620000D01*
X64950380Y-111620000D01*
X64821741Y-111673285D01*
X64723284Y-111771741D01*
X64670000Y-111900381D01*
X62358000Y-111900381D01*
X62358000Y-109430000D01*
X64561184Y-109430000D01*
X64561184Y-111130000D01*
X64596109Y-111305581D01*
X64695568Y-111454432D01*
X64844419Y-111553891D01*
X65020000Y-111588816D01*
X66720000Y-111588816D01*
X66895581Y-111553891D01*
X67044432Y-111454432D01*
X67143891Y-111305581D01*
X67178816Y-111130000D01*
X67178816Y-109430000D01*
X67143891Y-109254419D01*
X67044432Y-109105568D01*
X66895581Y-109006109D01*
X66720000Y-108971184D01*
X65020000Y-108971184D01*
X64844419Y-109006109D01*
X64695568Y-109105568D01*
X64596109Y-109254419D01*
X64561184Y-109430000D01*
X62358000Y-109430000D01*
X62358000Y-107570530D01*
X77565870Y-107570530D01*
X77679811Y-107846286D01*
X77890605Y-108057448D01*
X78166161Y-108171869D01*
X78464530Y-108172130D01*
X78740286Y-108058189D01*
X78776538Y-108022000D01*
X79332000Y-108022000D01*
X79561610Y-107976328D01*
X79756264Y-107846264D01*
X80954442Y-106648086D01*
X81004530Y-106648130D01*
X81280286Y-106534189D01*
X81491448Y-106323395D01*
X81605869Y-106047839D01*
X81606130Y-105749470D01*
X81492189Y-105473714D01*
X81281395Y-105262552D01*
X81005839Y-105148131D01*
X80707470Y-105147870D01*
X80431714Y-105261811D01*
X80220552Y-105472605D01*
X80106131Y-105748161D01*
X80106086Y-105799386D01*
X79083472Y-106822000D01*
X78776781Y-106822000D01*
X78741395Y-106786552D01*
X78465839Y-106672131D01*
X78167470Y-106671870D01*
X77891714Y-106785811D01*
X77680552Y-106996605D01*
X77566131Y-107272161D01*
X77565870Y-107570530D01*
X62358000Y-107570530D01*
X62358000Y-106484549D01*
X62480000Y-106508816D01*
X66720000Y-106508816D01*
X66895581Y-106473891D01*
X67044432Y-106374432D01*
X67143891Y-106225581D01*
X67178816Y-106050000D01*
X67178816Y-104350000D01*
X67143891Y-104174419D01*
X67044432Y-104025568D01*
X66901404Y-103930000D01*
X67044432Y-103834432D01*
X67143891Y-103685581D01*
X67178816Y-103510000D01*
X67178816Y-101810000D01*
X67143891Y-101634419D01*
X67044432Y-101485568D01*
X66901404Y-101390000D01*
X67044432Y-101294432D01*
X67143891Y-101145581D01*
X67178816Y-100970000D01*
X67178816Y-99270000D01*
X67143891Y-99094419D01*
X67044432Y-98945568D01*
X66901404Y-98850000D01*
X67044432Y-98754432D01*
X67143891Y-98605581D01*
X67178816Y-98430000D01*
X67178816Y-96730000D01*
X67143891Y-96554419D01*
X67044432Y-96405568D01*
X66901404Y-96310000D01*
X67044432Y-96214432D01*
X67143891Y-96065581D01*
X67178816Y-95890000D01*
X67178816Y-94830381D01*
X70570000Y-94830381D01*
X70570000Y-95112500D01*
X70657500Y-95200000D01*
X71920000Y-95200000D01*
X71920000Y-94637500D01*
X73920000Y-94637500D01*
X73920000Y-95200000D01*
X75182500Y-95200000D01*
X75270000Y-95112500D01*
X75270000Y-94830381D01*
X75216716Y-94701741D01*
X75118259Y-94603285D01*
X74989620Y-94550000D01*
X74007500Y-94550000D01*
X73920000Y-94637500D01*
X71920000Y-94637500D01*
X71832500Y-94550000D01*
X70850380Y-94550000D01*
X70721741Y-94603285D01*
X70623284Y-94701741D01*
X70570000Y-94830381D01*
X67178816Y-94830381D01*
X67178816Y-94250000D01*
X92991184Y-94250000D01*
X92991184Y-96750000D01*
X93026109Y-96925581D01*
X93125568Y-97074432D01*
X93274419Y-97173891D01*
X93450000Y-97208816D01*
X95950000Y-97208816D01*
X96125581Y-97173891D01*
X96274432Y-97074432D01*
X96373891Y-96925581D01*
X96408816Y-96750000D01*
X96408816Y-94250000D01*
X96373891Y-94074419D01*
X96274432Y-93925568D01*
X96125581Y-93826109D01*
X95950000Y-93791184D01*
X93450000Y-93791184D01*
X93274419Y-93826109D01*
X93125568Y-93925568D01*
X93026109Y-94074419D01*
X92991184Y-94250000D01*
X67178816Y-94250000D01*
X67178816Y-94190000D01*
X67143891Y-94014419D01*
X67044432Y-93865568D01*
X66901404Y-93770000D01*
X67044432Y-93674432D01*
X67143891Y-93525581D01*
X67178816Y-93350000D01*
X67178816Y-91650000D01*
X67143891Y-91474419D01*
X67044432Y-91325568D01*
X66895581Y-91226109D01*
X66720000Y-91191184D01*
X62480000Y-91191184D01*
X62304419Y-91226109D01*
X62155568Y-91325568D01*
X62056109Y-91474419D01*
X62021184Y-91650000D01*
X62021184Y-93350000D01*
X62056109Y-93525581D01*
X62155568Y-93674432D01*
X62298596Y-93770000D01*
X62155568Y-93865568D01*
X62056109Y-94014419D01*
X62021184Y-94190000D01*
X62021184Y-95890000D01*
X62056109Y-96065581D01*
X62155568Y-96214432D01*
X62298596Y-96310000D01*
X62155568Y-96405568D01*
X62056109Y-96554419D01*
X62021184Y-96730000D01*
X62021184Y-97028000D01*
X61552000Y-97028000D01*
X61340758Y-97070018D01*
X61161677Y-97189677D01*
X60500000Y-97851354D01*
X60500000Y-90887500D01*
X70570000Y-90887500D01*
X70570000Y-91169619D01*
X70623284Y-91298259D01*
X70721741Y-91396715D01*
X70850380Y-91450000D01*
X71832500Y-91450000D01*
X71920000Y-91362500D01*
X71920000Y-90800000D01*
X73920000Y-90800000D01*
X73920000Y-91362500D01*
X74007500Y-91450000D01*
X74989620Y-91450000D01*
X75118259Y-91396715D01*
X75216716Y-91298259D01*
X75270000Y-91169619D01*
X75270000Y-90887500D01*
X75182500Y-90800000D01*
X73920000Y-90800000D01*
X71920000Y-90800000D01*
X70657500Y-90800000D01*
X70570000Y-90887500D01*
X60500000Y-90887500D01*
X60500000Y-89830381D01*
X70570000Y-89830381D01*
X70570000Y-90112500D01*
X70657500Y-90200000D01*
X71920000Y-90200000D01*
X71920000Y-89637500D01*
X73920000Y-89637500D01*
X73920000Y-90200000D01*
X75182500Y-90200000D01*
X75270000Y-90112500D01*
X75270000Y-90108530D01*
X77819870Y-90108530D01*
X77933811Y-90384286D01*
X78144605Y-90595448D01*
X78420161Y-90709869D01*
X78539327Y-90709973D01*
X78687677Y-90858323D01*
X78866759Y-90977982D01*
X79078000Y-91020000D01*
X80621184Y-91020000D01*
X80621184Y-91100000D01*
X80656109Y-91275581D01*
X80755568Y-91424432D01*
X80904419Y-91523891D01*
X81080000Y-91558816D01*
X85080000Y-91558816D01*
X85255581Y-91523891D01*
X85404432Y-91424432D01*
X85503891Y-91275581D01*
X85516438Y-91212500D01*
X93100000Y-91212500D01*
X93100000Y-91819620D01*
X93153285Y-91948259D01*
X93251741Y-92046716D01*
X93380381Y-92100000D01*
X93987500Y-92100000D01*
X94075000Y-92012500D01*
X94075000Y-91125000D01*
X95325000Y-91125000D01*
X95325000Y-92012500D01*
X95412500Y-92100000D01*
X96019619Y-92100000D01*
X96148259Y-92046716D01*
X96246715Y-91948259D01*
X96300000Y-91819620D01*
X96300000Y-91212500D01*
X107700000Y-91212500D01*
X107700000Y-91819620D01*
X107753285Y-91948259D01*
X107851741Y-92046716D01*
X107980381Y-92100000D01*
X108587500Y-92100000D01*
X108675000Y-92012500D01*
X108675000Y-91125000D01*
X109925000Y-91125000D01*
X109925000Y-92012500D01*
X110012500Y-92100000D01*
X110619619Y-92100000D01*
X110748259Y-92046716D01*
X110846715Y-91948259D01*
X110900000Y-91819620D01*
X110900000Y-91212500D01*
X110812500Y-91125000D01*
X109925000Y-91125000D01*
X108675000Y-91125000D01*
X107787500Y-91125000D01*
X107700000Y-91212500D01*
X96300000Y-91212500D01*
X96212500Y-91125000D01*
X95325000Y-91125000D01*
X94075000Y-91125000D01*
X93187500Y-91125000D01*
X93100000Y-91212500D01*
X85516438Y-91212500D01*
X85538816Y-91100000D01*
X85538816Y-89900000D01*
X85503891Y-89724419D01*
X85404432Y-89575568D01*
X85255581Y-89476109D01*
X85080000Y-89441184D01*
X81080000Y-89441184D01*
X80904419Y-89476109D01*
X80755568Y-89575568D01*
X80656109Y-89724419D01*
X80621184Y-89900000D01*
X80621184Y-89916000D01*
X79320039Y-89916000D01*
X79320130Y-89811470D01*
X79206189Y-89535714D01*
X78995395Y-89324552D01*
X78719839Y-89210131D01*
X78421470Y-89209870D01*
X78145714Y-89323811D01*
X77934552Y-89534605D01*
X77820131Y-89810161D01*
X77819870Y-90108530D01*
X75270000Y-90108530D01*
X75270000Y-89830381D01*
X75216716Y-89701741D01*
X75118259Y-89603285D01*
X74989620Y-89550000D01*
X74007500Y-89550000D01*
X73920000Y-89637500D01*
X71920000Y-89637500D01*
X71832500Y-89550000D01*
X70850380Y-89550000D01*
X70721741Y-89603285D01*
X70623284Y-89701741D01*
X70570000Y-89830381D01*
X60500000Y-89830381D01*
X60500000Y-89180380D01*
X93100000Y-89180380D01*
X93100000Y-89787500D01*
X93187500Y-89875000D01*
X94075000Y-89875000D01*
X94075000Y-88987500D01*
X95325000Y-88987500D01*
X95325000Y-89875000D01*
X96212500Y-89875000D01*
X96300000Y-89787500D01*
X96300000Y-89180380D01*
X107700000Y-89180380D01*
X107700000Y-89787500D01*
X107787500Y-89875000D01*
X108675000Y-89875000D01*
X108675000Y-88987500D01*
X109925000Y-88987500D01*
X109925000Y-89875000D01*
X110812500Y-89875000D01*
X110900000Y-89787500D01*
X110900000Y-89180380D01*
X110846715Y-89051741D01*
X110748259Y-88953284D01*
X110619619Y-88900000D01*
X110012500Y-88900000D01*
X109925000Y-88987500D01*
X108675000Y-88987500D01*
X108587500Y-88900000D01*
X107980381Y-88900000D01*
X107851741Y-88953284D01*
X107753285Y-89051741D01*
X107700000Y-89180380D01*
X96300000Y-89180380D01*
X96246715Y-89051741D01*
X96148259Y-88953284D01*
X96019619Y-88900000D01*
X95412500Y-88900000D01*
X95325000Y-88987500D01*
X94075000Y-88987500D01*
X93987500Y-88900000D01*
X93380381Y-88900000D01*
X93251741Y-88953284D01*
X93153285Y-89051741D01*
X93100000Y-89180380D01*
X60500000Y-89180380D01*
X60500000Y-79229816D01*
X66321000Y-79229816D01*
X66496581Y-79194891D01*
X66645432Y-79095432D01*
X66744891Y-78946581D01*
X66779816Y-78771000D01*
X66779816Y-76038138D01*
X74479835Y-76038138D01*
X74624159Y-76387429D01*
X74891165Y-76654902D01*
X75240204Y-76799835D01*
X75618138Y-76800165D01*
X75967429Y-76655841D01*
X76234902Y-76388835D01*
X76379835Y-76039796D01*
X76379836Y-76038138D01*
X103619835Y-76038138D01*
X103764159Y-76387429D01*
X104031165Y-76654902D01*
X104380204Y-76799835D01*
X104758138Y-76800165D01*
X105107429Y-76655841D01*
X105374902Y-76388835D01*
X105519835Y-76039796D01*
X105520165Y-75661862D01*
X105375841Y-75312571D01*
X105108835Y-75045098D01*
X104759796Y-74900165D01*
X104381862Y-74899835D01*
X104032571Y-75044159D01*
X103765098Y-75311165D01*
X103620165Y-75660204D01*
X103619835Y-76038138D01*
X76379836Y-76038138D01*
X76380165Y-75661862D01*
X76235841Y-75312571D01*
X75968835Y-75045098D01*
X75619796Y-74900165D01*
X75241862Y-74899835D01*
X74892571Y-75044159D01*
X74625098Y-75311165D01*
X74480165Y-75660204D01*
X74479835Y-76038138D01*
X66779816Y-76038138D01*
X66779816Y-72929000D01*
X66744891Y-72753419D01*
X66645432Y-72604568D01*
X66496581Y-72505109D01*
X66321000Y-72470184D01*
X60500000Y-72470184D01*
X60500000Y-62957106D01*
X62207106Y-61250000D01*
X117792894Y-61250000D01*
X119500000Y-62957106D01*
X119500000Y-62957106D01*
G37*
X119500000Y-62957106D02*
X119500000Y-72470184D01*
X113679000Y-72470184D01*
X113503419Y-72505109D01*
X113354568Y-72604568D01*
X113255109Y-72753419D01*
X113220184Y-72929000D01*
X113220184Y-78771000D01*
X113255109Y-78946581D01*
X113354568Y-79095432D01*
X113503419Y-79194891D01*
X113679000Y-79229816D01*
X119500000Y-79229816D01*
X119500000Y-158542894D01*
X117792894Y-160250000D01*
X117397115Y-160250000D01*
X117401000Y-160240620D01*
X117401000Y-158787500D01*
X117313500Y-158700000D01*
X115580000Y-158700000D01*
X115580000Y-158720000D01*
X112680000Y-158720000D01*
X112680000Y-158700000D01*
X110946500Y-158700000D01*
X110859000Y-158787500D01*
X110859000Y-160240620D01*
X110862885Y-160250000D01*
X82407106Y-160250000D01*
X78884656Y-156727550D01*
X83669783Y-156727550D01*
X83859684Y-157187143D01*
X84211007Y-157539081D01*
X84670269Y-157729783D01*
X85167550Y-157730217D01*
X85627143Y-157540316D01*
X85979081Y-157188993D01*
X86169783Y-156729731D01*
X86170217Y-156232450D01*
X85980316Y-155772857D01*
X85628993Y-155420919D01*
X85169731Y-155230217D01*
X84672450Y-155229783D01*
X84212857Y-155419684D01*
X83860919Y-155771007D01*
X83670217Y-156230269D01*
X83669783Y-156727550D01*
X78884656Y-156727550D01*
X78053553Y-155896447D01*
X77891342Y-155788060D01*
X77700000Y-155750000D01*
X62207106Y-155750000D01*
X60549244Y-154092138D01*
X89557835Y-154092138D01*
X89702159Y-154441429D01*
X89969165Y-154708902D01*
X90318204Y-154853835D01*
X90696138Y-154854165D01*
X91045429Y-154709841D01*
X91312902Y-154442835D01*
X91457835Y-154093796D01*
X91457836Y-154092138D01*
X92097835Y-154092138D01*
X92242159Y-154441429D01*
X92509165Y-154708902D01*
X92858204Y-154853835D01*
X93236138Y-154854165D01*
X93585429Y-154709841D01*
X93852902Y-154442835D01*
X93929078Y-154259380D01*
X110859000Y-154259380D01*
X110859000Y-155712500D01*
X110946500Y-155800000D01*
X112680000Y-155800000D01*
X112680000Y-154066500D01*
X115580000Y-154066500D01*
X115580000Y-155800000D01*
X117313500Y-155800000D01*
X117401000Y-155712500D01*
X117401000Y-154259380D01*
X117347715Y-154130741D01*
X117249259Y-154032284D01*
X117120619Y-153979000D01*
X115667500Y-153979000D01*
X115580000Y-154066500D01*
X112680000Y-154066500D01*
X112592500Y-153979000D01*
X111139381Y-153979000D01*
X111010741Y-154032284D01*
X110912285Y-154130741D01*
X110859000Y-154259380D01*
X93929078Y-154259380D01*
X93997835Y-154093796D01*
X93998165Y-153715862D01*
X93853841Y-153366571D01*
X93586835Y-153099098D01*
X93237796Y-152954165D01*
X92859862Y-152953835D01*
X92510571Y-153098159D01*
X92243098Y-153365165D01*
X92098165Y-153714204D01*
X92097835Y-154092138D01*
X91457836Y-154092138D01*
X91458165Y-153715862D01*
X91313841Y-153366571D01*
X91046835Y-153099098D01*
X90697796Y-152954165D01*
X90319862Y-152953835D01*
X89970571Y-153098159D01*
X89703098Y-153365165D01*
X89558165Y-153714204D01*
X89557835Y-154092138D01*
X60549244Y-154092138D01*
X60500000Y-154042894D01*
X60500000Y-130582646D01*
X60746000Y-130828646D01*
X60746000Y-146094000D01*
X60788018Y-146305242D01*
X60907677Y-146484323D01*
X62113677Y-147690323D01*
X62292759Y-147809982D01*
X62504000Y-147852000D01*
X69172000Y-147852000D01*
X69383242Y-147809982D01*
X69562323Y-147690323D01*
X70924646Y-146328000D01*
X80373354Y-146328000D01*
X82497677Y-148452323D01*
X82676758Y-148571982D01*
X82888000Y-148614000D01*
X84018201Y-148614000D01*
X83860919Y-148771007D01*
X83670217Y-149230269D01*
X83669783Y-149727550D01*
X83859684Y-150187143D01*
X84211007Y-150539081D01*
X84670269Y-150729783D01*
X85167550Y-150730217D01*
X85627143Y-150540316D01*
X85979081Y-150188993D01*
X86169783Y-149729731D01*
X86170217Y-149232450D01*
X85980316Y-148772857D01*
X85821737Y-148614000D01*
X98382000Y-148614000D01*
X98593242Y-148571982D01*
X98772323Y-148452323D01*
X101936501Y-145288145D01*
X102255115Y-145288423D01*
X102728753Y-145092719D01*
X102787771Y-145033804D01*
X104098893Y-145033804D01*
X104210937Y-145165932D01*
X104682169Y-145203108D01*
X104869063Y-145165932D01*
X104981107Y-145033804D01*
X104540000Y-144592697D01*
X104098893Y-145033804D01*
X102787771Y-145033804D01*
X103091446Y-144730659D01*
X103287976Y-144257363D01*
X103288076Y-144142169D01*
X103336892Y-144142169D01*
X103374068Y-144329063D01*
X103506196Y-144441107D01*
X103947303Y-144000000D01*
X105132697Y-144000000D01*
X105573804Y-144441107D01*
X105705932Y-144329063D01*
X105743108Y-143857831D01*
X105705932Y-143670937D01*
X105573804Y-143558893D01*
X105132697Y-144000000D01*
X103947303Y-144000000D01*
X103506196Y-143558893D01*
X103374068Y-143670937D01*
X103336892Y-144142169D01*
X103288076Y-144142169D01*
X103288423Y-143744885D01*
X103092719Y-143271247D01*
X102788201Y-142966196D01*
X104098893Y-142966196D01*
X104540000Y-143407303D01*
X104981107Y-142966196D01*
X104869063Y-142834068D01*
X104397831Y-142796892D01*
X104210937Y-142834068D01*
X104098893Y-142966196D01*
X102788201Y-142966196D01*
X102730659Y-142908554D01*
X102257363Y-142712024D01*
X101744885Y-142711577D01*
X101271247Y-142907281D01*
X100908554Y-143269341D01*
X100729803Y-143699821D01*
X100552719Y-143271247D01*
X100190659Y-142908554D01*
X99717363Y-142712024D01*
X99204885Y-142711577D01*
X98731247Y-142907281D01*
X98368554Y-143269341D01*
X98172024Y-143742637D01*
X98171577Y-144255115D01*
X98367281Y-144728753D01*
X98505879Y-144867593D01*
X96609472Y-146764000D01*
X91836528Y-146764000D01*
X90242086Y-145169558D01*
X90242130Y-145119470D01*
X90128189Y-144843714D01*
X89917395Y-144632552D01*
X89641839Y-144518131D01*
X89343470Y-144517870D01*
X89067714Y-144631811D01*
X88856552Y-144842605D01*
X88742131Y-145118161D01*
X88741870Y-145416530D01*
X88855811Y-145692286D01*
X89066605Y-145903448D01*
X89342161Y-146017869D01*
X89393386Y-146017914D01*
X90885472Y-147510000D01*
X83116646Y-147510000D01*
X80992323Y-145385677D01*
X80813242Y-145266018D01*
X80602000Y-145224000D01*
X78411030Y-145224000D01*
X78728753Y-145092719D01*
X78787771Y-145033804D01*
X80098893Y-145033804D01*
X80210937Y-145165932D01*
X80682169Y-145203108D01*
X80869063Y-145165932D01*
X80981107Y-145033804D01*
X80540000Y-144592697D01*
X80098893Y-145033804D01*
X78787771Y-145033804D01*
X79091446Y-144730659D01*
X79287976Y-144257363D01*
X79288076Y-144142169D01*
X79336892Y-144142169D01*
X79374068Y-144329063D01*
X79506196Y-144441107D01*
X79947303Y-144000000D01*
X81132697Y-144000000D01*
X81573804Y-144441107D01*
X81705932Y-144329063D01*
X81743108Y-143857831D01*
X81705932Y-143670937D01*
X81573804Y-143558893D01*
X81132697Y-144000000D01*
X79947303Y-144000000D01*
X79506196Y-143558893D01*
X79374068Y-143670937D01*
X79336892Y-144142169D01*
X79288076Y-144142169D01*
X79288423Y-143744885D01*
X79092719Y-143271247D01*
X78788201Y-142966196D01*
X80098893Y-142966196D01*
X80540000Y-143407303D01*
X80981107Y-142966196D01*
X80869063Y-142834068D01*
X80397831Y-142796892D01*
X80210937Y-142834068D01*
X80098893Y-142966196D01*
X78788201Y-142966196D01*
X78730659Y-142908554D01*
X78257363Y-142712024D01*
X77744885Y-142711577D01*
X77271247Y-142907281D01*
X76908554Y-143269341D01*
X76729803Y-143699821D01*
X76552719Y-143271247D01*
X76190659Y-142908554D01*
X75717363Y-142712024D01*
X75204885Y-142711577D01*
X74731247Y-142907281D01*
X74368554Y-143269341D01*
X74172024Y-143742637D01*
X74171577Y-144255115D01*
X74362012Y-144716000D01*
X70442000Y-144716000D01*
X70230759Y-144758018D01*
X70116561Y-144834323D01*
X70051677Y-144877677D01*
X68689354Y-146240000D01*
X63558646Y-146240000D01*
X62358000Y-145039354D01*
X62358000Y-142416177D01*
X63919662Y-142416177D01*
X64215906Y-143133143D01*
X64763971Y-143682166D01*
X65480419Y-143979661D01*
X66256177Y-143980338D01*
X66973143Y-143684094D01*
X67522166Y-143136029D01*
X67819661Y-142419581D01*
X67820338Y-141643823D01*
X67524094Y-140926857D01*
X66976029Y-140377834D01*
X66259581Y-140080339D01*
X65483823Y-140079662D01*
X64766857Y-140375906D01*
X64217834Y-140923971D01*
X63920339Y-141640419D01*
X63919662Y-142416177D01*
X62358000Y-142416177D01*
X62358000Y-137034530D01*
X67151870Y-137034530D01*
X67265811Y-137310286D01*
X67476605Y-137521448D01*
X67752161Y-137635869D01*
X67871327Y-137635973D01*
X71321677Y-141086323D01*
X71500758Y-141205982D01*
X71712000Y-141248000D01*
X76283302Y-141248000D01*
X76366605Y-141331448D01*
X76642161Y-141445869D01*
X76940530Y-141446130D01*
X77216286Y-141332189D01*
X77427448Y-141121395D01*
X77541869Y-140845839D01*
X77542130Y-140547470D01*
X77428189Y-140271714D01*
X77217395Y-140060552D01*
X76941839Y-139946131D01*
X76643470Y-139945870D01*
X76367714Y-140059811D01*
X76283378Y-140144000D01*
X71940646Y-140144000D01*
X68652027Y-136855381D01*
X68652130Y-136737470D01*
X68538189Y-136461714D01*
X68327395Y-136250552D01*
X68051839Y-136136131D01*
X67753470Y-136135870D01*
X67477714Y-136249811D01*
X67266552Y-136460605D01*
X67152131Y-136736161D01*
X67151870Y-137034530D01*
X62358000Y-137034530D01*
X62358000Y-135400000D01*
X71441184Y-135400000D01*
X71441184Y-138600000D01*
X71476109Y-138775581D01*
X71575568Y-138924432D01*
X71724419Y-139023891D01*
X71900000Y-139058816D01*
X75100000Y-139058816D01*
X75275581Y-139023891D01*
X75424432Y-138924432D01*
X75523891Y-138775581D01*
X75558816Y-138600000D01*
X75558816Y-135400000D01*
X80441184Y-135400000D01*
X80441184Y-138600000D01*
X80476109Y-138775581D01*
X80575568Y-138924432D01*
X80724419Y-139023891D01*
X80900000Y-139058816D01*
X84100000Y-139058816D01*
X84275581Y-139023891D01*
X84424432Y-138924432D01*
X84523891Y-138775581D01*
X84558816Y-138600000D01*
X84558816Y-135400000D01*
X84523891Y-135224419D01*
X84424432Y-135075568D01*
X84275581Y-134976109D01*
X84100000Y-134941184D01*
X80900000Y-134941184D01*
X80724419Y-134976109D01*
X80575568Y-135075568D01*
X80476109Y-135224419D01*
X80441184Y-135400000D01*
X75558816Y-135400000D01*
X75523891Y-135224419D01*
X75424432Y-135075568D01*
X75275581Y-134976109D01*
X75100000Y-134941184D01*
X71900000Y-134941184D01*
X71724419Y-134976109D01*
X71575568Y-135075568D01*
X71476109Y-135224419D01*
X71441184Y-135400000D01*
X62358000Y-135400000D01*
X62358000Y-130938530D01*
X68167870Y-130938530D01*
X68281811Y-131214286D01*
X68492605Y-131425448D01*
X68768161Y-131539869D01*
X69066530Y-131540130D01*
X69342286Y-131426189D01*
X69378538Y-131390000D01*
X73617000Y-131390000D01*
X73846610Y-131344328D01*
X74041264Y-131214264D01*
X74422264Y-130833264D01*
X74552328Y-130638611D01*
X74598000Y-130409000D01*
X74598000Y-129612000D01*
X84920000Y-129612000D01*
X85149610Y-129566328D01*
X85344264Y-129436264D01*
X86184528Y-128596000D01*
X88895542Y-128596000D01*
X88813714Y-128629811D01*
X88602552Y-128840605D01*
X88488131Y-129116161D01*
X88487870Y-129414530D01*
X88601811Y-129690286D01*
X88686000Y-129774622D01*
X88686000Y-136886000D01*
X88728018Y-137097242D01*
X88847677Y-137276323D01*
X92242000Y-140670646D01*
X92242000Y-143743302D01*
X92158552Y-143826605D01*
X92044131Y-144102161D01*
X92043870Y-144400530D01*
X92157811Y-144676286D01*
X92368605Y-144887448D01*
X92644161Y-145001869D01*
X92942530Y-145002130D01*
X93218286Y-144888189D01*
X93301961Y-144804660D01*
X93384605Y-144887448D01*
X93660161Y-145001869D01*
X93958530Y-145002130D01*
X94234286Y-144888189D01*
X94445448Y-144677395D01*
X94559869Y-144401839D01*
X94560130Y-144103470D01*
X94446189Y-143827714D01*
X94362000Y-143743378D01*
X94362000Y-141146177D01*
X112179662Y-141146177D01*
X112475906Y-141863143D01*
X113023971Y-142412166D01*
X113740419Y-142709661D01*
X114516177Y-142710338D01*
X115233143Y-142414094D01*
X115782166Y-141866029D01*
X116079661Y-141149581D01*
X116080338Y-140373823D01*
X115784094Y-139656857D01*
X115236029Y-139107834D01*
X114519581Y-138810339D01*
X113743823Y-138809662D01*
X113026857Y-139105906D01*
X112477834Y-139653971D01*
X112180339Y-140370419D01*
X112179662Y-141146177D01*
X94362000Y-141146177D01*
X94362000Y-139680000D01*
X94345569Y-139597395D01*
X94319982Y-139468758D01*
X94200323Y-139289677D01*
X90552000Y-135641354D01*
X90552000Y-135424646D01*
X94329973Y-139202619D01*
X94329870Y-139320530D01*
X94443811Y-139596286D01*
X94654605Y-139807448D01*
X94930161Y-139921869D01*
X95228530Y-139922130D01*
X95504286Y-139808189D01*
X95715448Y-139597395D01*
X95829869Y-139321839D01*
X95830111Y-139044914D01*
X95900000Y-139058816D01*
X99100000Y-139058816D01*
X99275581Y-139023891D01*
X99424432Y-138924432D01*
X99523891Y-138775581D01*
X99558816Y-138600000D01*
X99558816Y-135400000D01*
X104441184Y-135400000D01*
X104441184Y-138600000D01*
X104476109Y-138775581D01*
X104575568Y-138924432D01*
X104724419Y-139023891D01*
X104900000Y-139058816D01*
X108100000Y-139058816D01*
X108275581Y-139023891D01*
X108424432Y-138924432D01*
X108523891Y-138775581D01*
X108558816Y-138600000D01*
X108558816Y-135400000D01*
X108523891Y-135224419D01*
X108424432Y-135075568D01*
X108275581Y-134976109D01*
X108100000Y-134941184D01*
X104900000Y-134941184D01*
X104724419Y-134976109D01*
X104575568Y-135075568D01*
X104476109Y-135224419D01*
X104441184Y-135400000D01*
X99558816Y-135400000D01*
X99523891Y-135224419D01*
X99424432Y-135075568D01*
X99275581Y-134976109D01*
X99100000Y-134941184D01*
X95900000Y-134941184D01*
X95724419Y-134976109D01*
X95575568Y-135075568D01*
X95476109Y-135224419D01*
X95441184Y-135400000D01*
X95441184Y-138509889D01*
X95229839Y-138422131D01*
X95110673Y-138422027D01*
X91314000Y-134625354D01*
X91314000Y-131274000D01*
X112821184Y-131274000D01*
X112821184Y-132974000D01*
X112856109Y-133149581D01*
X112955568Y-133298432D01*
X113104419Y-133397891D01*
X113280000Y-133432816D01*
X114980000Y-133432816D01*
X115155581Y-133397891D01*
X115304432Y-133298432D01*
X115403891Y-133149581D01*
X115438816Y-132974000D01*
X115438816Y-131274000D01*
X115403891Y-131098419D01*
X115304432Y-130949568D01*
X115155581Y-130850109D01*
X114980000Y-130815184D01*
X113280000Y-130815184D01*
X113104419Y-130850109D01*
X112955568Y-130949568D01*
X112856109Y-131098419D01*
X112821184Y-131274000D01*
X91314000Y-131274000D01*
X91314000Y-129774698D01*
X91397448Y-129691395D01*
X91511869Y-129415839D01*
X91512130Y-129117470D01*
X91398189Y-128841714D01*
X91187395Y-128630552D01*
X91104185Y-128596000D01*
X96905219Y-128596000D01*
X96940605Y-128631448D01*
X97216161Y-128745869D01*
X97514530Y-128746130D01*
X97790286Y-128632189D01*
X97826538Y-128596000D01*
X106124651Y-128596000D01*
X106014131Y-128862161D01*
X106013870Y-129160530D01*
X106110051Y-129393303D01*
X105773354Y-129730000D01*
X105240698Y-129730000D01*
X105157395Y-129646552D01*
X104881839Y-129532131D01*
X104583470Y-129531870D01*
X104307714Y-129645811D01*
X104096552Y-129856605D01*
X103982131Y-130132161D01*
X103981870Y-130430530D01*
X104095811Y-130706286D01*
X104306605Y-130917448D01*
X104582161Y-131031869D01*
X104880530Y-131032130D01*
X105156286Y-130918189D01*
X105240622Y-130834000D01*
X106002000Y-130834000D01*
X106213242Y-130791982D01*
X106392323Y-130672323D01*
X106968146Y-130096500D01*
X112930000Y-130096500D01*
X112930000Y-130503619D01*
X112983284Y-130632259D01*
X113081741Y-130730715D01*
X113210380Y-130784000D01*
X113617500Y-130784000D01*
X113705000Y-130696500D01*
X113705000Y-130009000D01*
X114555000Y-130009000D01*
X114555000Y-130696500D01*
X114642500Y-130784000D01*
X115049620Y-130784000D01*
X115178259Y-130730715D01*
X115276716Y-130632259D01*
X115330000Y-130503619D01*
X115330000Y-130096500D01*
X115242500Y-130009000D01*
X114555000Y-130009000D01*
X113705000Y-130009000D01*
X113017500Y-130009000D01*
X112930000Y-130096500D01*
X106968146Y-130096500D01*
X107154323Y-129910323D01*
X107273982Y-129731242D01*
X107315827Y-129520870D01*
X107399448Y-129437395D01*
X107513869Y-129161839D01*
X107514130Y-128863470D01*
X107431443Y-128663354D01*
X107630161Y-128745869D01*
X107928530Y-128746130D01*
X108126376Y-128664381D01*
X112930000Y-128664381D01*
X112930000Y-129071500D01*
X113017500Y-129159000D01*
X113705000Y-129159000D01*
X113705000Y-128471500D01*
X114555000Y-128471500D01*
X114555000Y-129159000D01*
X115242500Y-129159000D01*
X115330000Y-129071500D01*
X115330000Y-128664381D01*
X115276716Y-128535741D01*
X115178259Y-128437285D01*
X115049620Y-128384000D01*
X114642500Y-128384000D01*
X114555000Y-128471500D01*
X113705000Y-128471500D01*
X113617500Y-128384000D01*
X113210380Y-128384000D01*
X113081741Y-128437285D01*
X112983284Y-128535741D01*
X112930000Y-128664381D01*
X108126376Y-128664381D01*
X108204286Y-128632189D01*
X108415448Y-128421395D01*
X108529869Y-128145839D01*
X108530130Y-127847470D01*
X108504731Y-127786000D01*
X111082000Y-127786000D01*
X111293242Y-127743982D01*
X111472323Y-127624323D01*
X112821184Y-126275462D01*
X112821184Y-127894000D01*
X112856109Y-128069581D01*
X112955568Y-128218432D01*
X113104419Y-128317891D01*
X113280000Y-128352816D01*
X114980000Y-128352816D01*
X115155581Y-128317891D01*
X115304432Y-128218432D01*
X115403891Y-128069581D01*
X115438816Y-127894000D01*
X115438816Y-126262000D01*
X115718000Y-126262000D01*
X115929242Y-126219982D01*
X116108323Y-126100323D01*
X117568323Y-124640323D01*
X117588393Y-124610286D01*
X117687982Y-124461241D01*
X117730000Y-124250000D01*
X117730000Y-118382646D01*
X118584323Y-117528323D01*
X118703982Y-117349242D01*
X118746000Y-117138000D01*
X118746000Y-113556646D01*
X119092323Y-113210323D01*
X119119555Y-113169568D01*
X119211982Y-113031241D01*
X119254000Y-112820000D01*
X119254000Y-104882000D01*
X119211982Y-104670759D01*
X119211982Y-104670758D01*
X119092323Y-104491677D01*
X117984000Y-103383354D01*
X117984000Y-101580000D01*
X117967569Y-101497395D01*
X117941982Y-101368758D01*
X117822323Y-101189677D01*
X116362323Y-99729677D01*
X116183242Y-99610018D01*
X115972000Y-99568000D01*
X115438816Y-99568000D01*
X115438816Y-99270000D01*
X115403891Y-99094419D01*
X115304432Y-98945568D01*
X115161404Y-98850000D01*
X115304432Y-98754432D01*
X115403891Y-98605581D01*
X115438816Y-98430000D01*
X115438816Y-96730000D01*
X115403891Y-96554419D01*
X115304432Y-96405568D01*
X115161404Y-96310000D01*
X115304432Y-96214432D01*
X115403891Y-96065581D01*
X115438816Y-95890000D01*
X115438816Y-94190000D01*
X115403891Y-94014419D01*
X115304432Y-93865568D01*
X115161404Y-93770000D01*
X115304432Y-93674432D01*
X115403891Y-93525581D01*
X115438816Y-93350000D01*
X115438816Y-91650000D01*
X115403891Y-91474419D01*
X115304432Y-91325568D01*
X115155581Y-91226109D01*
X114980000Y-91191184D01*
X113280000Y-91191184D01*
X113104419Y-91226109D01*
X112955568Y-91325568D01*
X112856109Y-91474419D01*
X112821184Y-91650000D01*
X112821184Y-93350000D01*
X112856109Y-93525581D01*
X112955568Y-93674432D01*
X113098596Y-93770000D01*
X112955568Y-93865568D01*
X112856109Y-94014419D01*
X112821184Y-94190000D01*
X112821184Y-95890000D01*
X112856109Y-96065581D01*
X112955568Y-96214432D01*
X113098596Y-96310000D01*
X112955568Y-96405568D01*
X112856109Y-96554419D01*
X112821184Y-96730000D01*
X112821184Y-98430000D01*
X112856109Y-98605581D01*
X112955568Y-98754432D01*
X113098596Y-98850000D01*
X112955568Y-98945568D01*
X112856109Y-99094419D01*
X112821184Y-99270000D01*
X112821184Y-100970000D01*
X112856109Y-101145581D01*
X112955568Y-101294432D01*
X113098596Y-101390000D01*
X112955568Y-101485568D01*
X112856109Y-101634419D01*
X112821184Y-101810000D01*
X112821184Y-103510000D01*
X112856109Y-103685581D01*
X112955568Y-103834432D01*
X113098596Y-103930000D01*
X112955568Y-104025568D01*
X112856109Y-104174419D01*
X112821184Y-104350000D01*
X112821184Y-105650538D01*
X112650000Y-105479354D01*
X112650000Y-96056000D01*
X112607982Y-95844759D01*
X112607982Y-95844758D01*
X112488323Y-95665677D01*
X111932323Y-95109677D01*
X111753242Y-94990018D01*
X111542000Y-94948000D01*
X111008816Y-94948000D01*
X111008816Y-94250000D01*
X110973891Y-94074419D01*
X110874432Y-93925568D01*
X110725581Y-93826109D01*
X110550000Y-93791184D01*
X108050000Y-93791184D01*
X107874419Y-93826109D01*
X107725568Y-93925568D01*
X107626109Y-94074419D01*
X107591184Y-94250000D01*
X107591184Y-96750000D01*
X107626109Y-96925581D01*
X107725568Y-97074432D01*
X107874419Y-97173891D01*
X108050000Y-97208816D01*
X110550000Y-97208816D01*
X110725581Y-97173891D01*
X110874432Y-97074432D01*
X110973891Y-96925581D01*
X111008816Y-96750000D01*
X111008816Y-96052000D01*
X111313354Y-96052000D01*
X111546000Y-96284646D01*
X111546000Y-105708000D01*
X111588018Y-105919242D01*
X111707677Y-106098323D01*
X112821184Y-107211830D01*
X112821184Y-108590000D01*
X112856109Y-108765581D01*
X112955568Y-108914432D01*
X113098596Y-109010000D01*
X112955568Y-109105568D01*
X112856109Y-109254419D01*
X112821184Y-109430000D01*
X112821184Y-110236170D01*
X110564677Y-112492677D01*
X110445018Y-112671758D01*
X110419431Y-112800395D01*
X110403000Y-112883000D01*
X110403000Y-114698112D01*
X110342839Y-114673131D01*
X110044470Y-114672870D01*
X109768714Y-114786811D01*
X109557552Y-114997605D01*
X109443131Y-115273161D01*
X109443027Y-115392327D01*
X109294677Y-115540677D01*
X109175018Y-115719758D01*
X109149431Y-115848395D01*
X109133000Y-115931000D01*
X109133000Y-116845354D01*
X108821354Y-117157000D01*
X100642646Y-117157000D01*
X100458000Y-116972354D01*
X100458000Y-113400000D01*
X104441184Y-113400000D01*
X104441184Y-116600000D01*
X104476109Y-116775581D01*
X104575568Y-116924432D01*
X104724419Y-117023891D01*
X104900000Y-117058816D01*
X108100000Y-117058816D01*
X108275581Y-117023891D01*
X108424432Y-116924432D01*
X108523891Y-116775581D01*
X108558816Y-116600000D01*
X108558816Y-113400000D01*
X108523891Y-113224419D01*
X108424432Y-113075568D01*
X108275581Y-112976109D01*
X108100000Y-112941184D01*
X104900000Y-112941184D01*
X104724419Y-112976109D01*
X104575568Y-113075568D01*
X104476109Y-113224419D01*
X104441184Y-113400000D01*
X100458000Y-113400000D01*
X100458000Y-113264000D01*
X100415982Y-113052759D01*
X100331952Y-112927000D01*
X108922302Y-112927000D01*
X109005605Y-113010448D01*
X109281161Y-113124869D01*
X109579530Y-113125130D01*
X109855286Y-113011189D01*
X110066448Y-112800395D01*
X110180869Y-112524839D01*
X110181130Y-112226470D01*
X110067189Y-111950714D01*
X109856395Y-111739552D01*
X109580839Y-111625131D01*
X109282470Y-111624870D01*
X109006714Y-111738811D01*
X108922378Y-111823000D01*
X91498646Y-111823000D01*
X90009323Y-110333677D01*
X89830242Y-110214018D01*
X89619000Y-110172000D01*
X89282000Y-110172000D01*
X89282000Y-110089000D01*
X89239982Y-109877759D01*
X89120323Y-109698677D01*
X88612323Y-109190677D01*
X88433242Y-109071018D01*
X88222000Y-109029000D01*
X84386646Y-109029000D01*
X84202000Y-108844354D01*
X84202000Y-104628000D01*
X84159982Y-104416759D01*
X84159982Y-104416758D01*
X84040323Y-104237677D01*
X83938404Y-104135758D01*
X83905982Y-103972759D01*
X83905982Y-103972758D01*
X83786323Y-103793677D01*
X81213176Y-101220530D01*
X86709870Y-101220530D01*
X86823811Y-101496286D01*
X87034605Y-101707448D01*
X87310161Y-101821869D01*
X87608530Y-101822130D01*
X87884286Y-101708189D01*
X88095448Y-101497395D01*
X88209869Y-101221839D01*
X88209973Y-101102673D01*
X90898323Y-98414323D01*
X91017982Y-98235242D01*
X91060000Y-98024000D01*
X91060000Y-96982646D01*
X92062619Y-95980027D01*
X92180530Y-95980130D01*
X92456286Y-95866189D01*
X92667448Y-95655395D01*
X92781869Y-95379839D01*
X92782130Y-95081470D01*
X92668189Y-94805714D01*
X92457395Y-94594552D01*
X92181839Y-94480131D01*
X91883470Y-94479870D01*
X91607714Y-94593811D01*
X91396552Y-94804605D01*
X91282131Y-95080161D01*
X91282027Y-95199327D01*
X90117677Y-96363677D01*
X89998018Y-96542758D01*
X89998018Y-96542759D01*
X89956000Y-96754000D01*
X89956000Y-97795354D01*
X87429381Y-100321973D01*
X87311470Y-100321870D01*
X87035714Y-100435811D01*
X86824552Y-100646605D01*
X86710131Y-100922161D01*
X86709870Y-101220530D01*
X81213176Y-101220530D01*
X77598000Y-97605354D01*
X77598000Y-97580698D01*
X77681448Y-97497395D01*
X77795869Y-97221839D01*
X77796130Y-96923470D01*
X77682189Y-96647714D01*
X77471395Y-96436552D01*
X77195839Y-96322131D01*
X76897470Y-96321870D01*
X76621714Y-96435811D01*
X76410552Y-96646605D01*
X76296131Y-96922161D01*
X76295870Y-97220530D01*
X76301977Y-97235309D01*
X76201395Y-97134552D01*
X75925839Y-97020131D01*
X75719695Y-97019951D01*
X76687646Y-96052000D01*
X80621184Y-96052000D01*
X80621184Y-96100000D01*
X80656109Y-96275581D01*
X80755568Y-96424432D01*
X80904419Y-96523891D01*
X81080000Y-96558816D01*
X85080000Y-96558816D01*
X85255581Y-96523891D01*
X85404432Y-96424432D01*
X85503891Y-96275581D01*
X85538816Y-96100000D01*
X85538816Y-94900000D01*
X85503891Y-94724419D01*
X85404432Y-94575568D01*
X85255581Y-94476109D01*
X85080000Y-94441184D01*
X81080000Y-94441184D01*
X80904419Y-94476109D01*
X80755568Y-94575568D01*
X80656109Y-94724419D01*
X80621184Y-94900000D01*
X80621184Y-94948000D01*
X76459000Y-94948000D01*
X76247759Y-94990018D01*
X76112851Y-95080161D01*
X76068677Y-95109677D01*
X75270000Y-95908354D01*
X75270000Y-95887500D01*
X75182500Y-95800000D01*
X73920000Y-95800000D01*
X73920000Y-96100000D01*
X71920000Y-96100000D01*
X71920000Y-95800000D01*
X70657500Y-95800000D01*
X70570000Y-95887500D01*
X70570000Y-96169619D01*
X70623284Y-96298259D01*
X70721741Y-96396715D01*
X70850380Y-96450000D01*
X72188354Y-96450000D01*
X70305677Y-98332677D01*
X70186018Y-98511758D01*
X70173240Y-98576000D01*
X70144000Y-98723000D01*
X70144000Y-99103302D01*
X70060552Y-99186605D01*
X69946131Y-99462161D01*
X69945870Y-99760530D01*
X70059811Y-100036286D01*
X70270605Y-100247448D01*
X70546161Y-100361869D01*
X70844530Y-100362130D01*
X71120286Y-100248189D01*
X71331448Y-100037395D01*
X71445869Y-99761839D01*
X71446130Y-99463470D01*
X71332189Y-99187714D01*
X71248000Y-99103378D01*
X71248000Y-98951646D01*
X72829646Y-97370000D01*
X75130007Y-97370000D01*
X75026131Y-97620161D01*
X75025870Y-97918530D01*
X75139811Y-98194286D01*
X75350605Y-98405448D01*
X75626161Y-98519869D01*
X75745327Y-98519973D01*
X81828000Y-104602646D01*
X81828000Y-110343000D01*
X81870018Y-110554242D01*
X81989677Y-110733323D01*
X82082000Y-110825646D01*
X82082000Y-110851000D01*
X82124018Y-111062242D01*
X82243677Y-111241323D01*
X83943538Y-112941184D01*
X80900000Y-112941184D01*
X80724419Y-112976109D01*
X80575568Y-113075568D01*
X80476109Y-113224419D01*
X80441184Y-113400000D01*
X80441184Y-116600000D01*
X80476109Y-116775581D01*
X80530240Y-116856594D01*
X77598000Y-113924354D01*
X77598000Y-113010698D01*
X77681448Y-112927395D01*
X77795869Y-112651839D01*
X77796130Y-112353470D01*
X77682189Y-112077714D01*
X77471395Y-111866552D01*
X77195839Y-111752131D01*
X76897470Y-111751870D01*
X76621714Y-111865811D01*
X76410552Y-112076605D01*
X76296131Y-112352161D01*
X76295870Y-112650530D01*
X76409811Y-112926286D01*
X76494000Y-113010622D01*
X76494000Y-114153000D01*
X76536018Y-114364242D01*
X76655677Y-114543323D01*
X80084677Y-117972323D01*
X80263759Y-118091982D01*
X80475000Y-118134000D01*
X84793000Y-118134000D01*
X85004242Y-118091982D01*
X85183323Y-117972323D01*
X85437323Y-117718323D01*
X85556982Y-117539242D01*
X85599000Y-117328000D01*
X85599000Y-116781554D01*
X85764605Y-116947448D01*
X86040161Y-117061869D01*
X86338530Y-117062130D01*
X86614286Y-116948189D01*
X86825448Y-116737395D01*
X86862536Y-116648078D01*
X87034605Y-116820448D01*
X87310161Y-116934869D01*
X87608530Y-116935130D01*
X87884286Y-116821189D01*
X88095448Y-116610395D01*
X88209869Y-116334839D01*
X88210130Y-116036470D01*
X88096189Y-115760714D01*
X88012000Y-115676378D01*
X88012000Y-114026000D01*
X88000208Y-113966715D01*
X87996021Y-113945667D01*
X88686000Y-114635646D01*
X88686000Y-119016112D01*
X88625839Y-118991131D01*
X88327470Y-118990870D01*
X88051714Y-119104811D01*
X88015462Y-119141000D01*
X75093781Y-119141000D01*
X75058395Y-119105552D01*
X74782839Y-118991131D01*
X74484470Y-118990870D01*
X74208714Y-119104811D01*
X74172462Y-119141000D01*
X70902781Y-119141000D01*
X70867395Y-119105552D01*
X70591839Y-118991131D01*
X70293470Y-118990870D01*
X70017714Y-119104811D01*
X69806552Y-119315605D01*
X69692131Y-119591161D01*
X69691870Y-119889530D01*
X69805811Y-120165286D01*
X70016605Y-120376448D01*
X70292161Y-120490869D01*
X70590530Y-120491130D01*
X70866286Y-120377189D01*
X70902538Y-120341000D01*
X74172219Y-120341000D01*
X74207605Y-120376448D01*
X74483161Y-120490869D01*
X74781530Y-120491130D01*
X75057286Y-120377189D01*
X75093538Y-120341000D01*
X88015219Y-120341000D01*
X88050605Y-120376448D01*
X88326161Y-120490869D01*
X88536343Y-120491053D01*
X88488131Y-120607161D01*
X88487870Y-120905530D01*
X88601811Y-121181286D01*
X88812605Y-121392448D01*
X89088161Y-121506869D01*
X89250010Y-121507011D01*
X89249870Y-121667530D01*
X89363811Y-121943286D01*
X89574605Y-122154448D01*
X89850161Y-122268869D01*
X90148530Y-122269130D01*
X90424286Y-122155189D01*
X90635448Y-121944395D01*
X90749869Y-121668839D01*
X90750011Y-121506990D01*
X90910530Y-121507130D01*
X91186286Y-121393189D01*
X91397448Y-121182395D01*
X91511869Y-120906839D01*
X91512130Y-120608470D01*
X91398189Y-120332714D01*
X91314000Y-120248378D01*
X91314000Y-116807927D01*
X91545530Y-116808130D01*
X91821286Y-116694189D01*
X91905622Y-116610000D01*
X93047302Y-116610000D01*
X93130605Y-116693448D01*
X93406161Y-116807869D01*
X93704530Y-116808130D01*
X93893000Y-116730255D01*
X93893000Y-119106000D01*
X93935018Y-119317242D01*
X94054677Y-119496323D01*
X95197677Y-120639323D01*
X95376758Y-120758982D01*
X95588000Y-120801000D01*
X98988466Y-120801000D01*
X98731247Y-120907281D01*
X98368554Y-121269341D01*
X98355823Y-121300000D01*
X95201528Y-121300000D01*
X93544086Y-119642558D01*
X93544130Y-119592470D01*
X93430189Y-119316714D01*
X93219395Y-119105552D01*
X92943839Y-118991131D01*
X92645470Y-118990870D01*
X92369714Y-119104811D01*
X92158552Y-119315605D01*
X92044131Y-119591161D01*
X92043870Y-119889530D01*
X92157811Y-120165286D01*
X92368605Y-120376448D01*
X92644161Y-120490869D01*
X92695386Y-120490914D01*
X94528736Y-122324264D01*
X94723390Y-122454328D01*
X94953000Y-122500000D01*
X98272762Y-122500000D01*
X98367281Y-122728753D01*
X98729341Y-123091446D01*
X98812556Y-123126000D01*
X80902925Y-123126000D01*
X80981107Y-123033804D01*
X80540000Y-122592697D01*
X80098893Y-123033804D01*
X80177075Y-123126000D01*
X78648207Y-123126000D01*
X78728753Y-123092719D01*
X79091446Y-122730659D01*
X79287976Y-122257363D01*
X79288076Y-122142169D01*
X79336892Y-122142169D01*
X79374068Y-122329063D01*
X79506196Y-122441107D01*
X79947303Y-122000000D01*
X81132697Y-122000000D01*
X81573804Y-122441107D01*
X81705932Y-122329063D01*
X81743108Y-121857831D01*
X81705932Y-121670937D01*
X81573804Y-121558893D01*
X81132697Y-122000000D01*
X79947303Y-122000000D01*
X79506196Y-121558893D01*
X79374068Y-121670937D01*
X79336892Y-122142169D01*
X79288076Y-122142169D01*
X79288423Y-121744885D01*
X79092719Y-121271247D01*
X78788201Y-120966196D01*
X80098893Y-120966196D01*
X80540000Y-121407303D01*
X80981107Y-120966196D01*
X80869063Y-120834068D01*
X80397831Y-120796892D01*
X80210937Y-120834068D01*
X80098893Y-120966196D01*
X78788201Y-120966196D01*
X78730659Y-120908554D01*
X78257363Y-120712024D01*
X77744885Y-120711577D01*
X77271247Y-120907281D01*
X76908554Y-121269341D01*
X76729803Y-121699821D01*
X76552719Y-121271247D01*
X76190659Y-120908554D01*
X75717363Y-120712024D01*
X75204885Y-120711577D01*
X74731247Y-120907281D01*
X74368554Y-121269341D01*
X74172024Y-121742637D01*
X74171577Y-122255115D01*
X74367281Y-122728753D01*
X74510278Y-122872000D01*
X69934698Y-122872000D01*
X69851395Y-122788552D01*
X69575839Y-122674131D01*
X69277470Y-122673870D01*
X69001714Y-122787811D01*
X68790552Y-122998605D01*
X68676131Y-123274161D01*
X68675870Y-123572530D01*
X68789811Y-123848286D01*
X68944005Y-124002749D01*
X68930131Y-124036161D01*
X68929870Y-124334530D01*
X69043811Y-124610286D01*
X69254605Y-124821448D01*
X69530161Y-124935869D01*
X69828530Y-124936130D01*
X70104286Y-124822189D01*
X70188622Y-124738000D01*
X76792000Y-124738000D01*
X77003242Y-124695982D01*
X77182323Y-124576323D01*
X77528646Y-124230000D01*
X100668000Y-124230000D01*
X100879242Y-124187982D01*
X101058323Y-124068323D01*
X101838586Y-123288060D01*
X102255115Y-123288423D01*
X102728753Y-123092719D01*
X102787771Y-123033804D01*
X104098893Y-123033804D01*
X104210937Y-123165932D01*
X104682169Y-123203108D01*
X104869063Y-123165932D01*
X104981107Y-123033804D01*
X104540000Y-122592697D01*
X104098893Y-123033804D01*
X102787771Y-123033804D01*
X103091446Y-122730659D01*
X103287976Y-122257363D01*
X103288076Y-122142169D01*
X103336892Y-122142169D01*
X103374068Y-122329063D01*
X103506196Y-122441107D01*
X103947303Y-122000000D01*
X105132697Y-122000000D01*
X105573804Y-122441107D01*
X105705932Y-122329063D01*
X105743108Y-121857831D01*
X105705932Y-121670937D01*
X105573804Y-121558893D01*
X105132697Y-122000000D01*
X103947303Y-122000000D01*
X103506196Y-121558893D01*
X103374068Y-121670937D01*
X103336892Y-122142169D01*
X103288076Y-122142169D01*
X103288423Y-121744885D01*
X103092719Y-121271247D01*
X102730659Y-120908554D01*
X102471641Y-120801000D01*
X104377179Y-120801000D01*
X104210937Y-120834068D01*
X104098893Y-120966196D01*
X104540000Y-121407303D01*
X104981107Y-120966196D01*
X104869063Y-120834068D01*
X104449903Y-120801000D01*
X109431000Y-120801000D01*
X109642242Y-120758982D01*
X109821323Y-120639323D01*
X112488323Y-117972323D01*
X112607982Y-117793241D01*
X112650000Y-117582000D01*
X112650000Y-113444370D01*
X112776286Y-113392189D01*
X112867976Y-113300659D01*
X112856109Y-113318419D01*
X112821184Y-113494000D01*
X112821184Y-115194000D01*
X112856109Y-115369581D01*
X112955568Y-115518432D01*
X113098596Y-115614000D01*
X112955568Y-115709568D01*
X112856109Y-115858419D01*
X112821184Y-116034000D01*
X112821184Y-117734000D01*
X112856109Y-117909581D01*
X112955568Y-118058432D01*
X113098596Y-118154000D01*
X112955568Y-118249568D01*
X112856109Y-118398419D01*
X112821184Y-118574000D01*
X112821184Y-120274000D01*
X112856109Y-120449581D01*
X112955568Y-120598432D01*
X113098596Y-120694000D01*
X112955568Y-120789568D01*
X112856109Y-120938419D01*
X112821184Y-121114000D01*
X112821184Y-122814000D01*
X112856109Y-122989581D01*
X112955568Y-123138432D01*
X113098596Y-123234000D01*
X112955568Y-123329568D01*
X112856109Y-123478419D01*
X112821184Y-123654000D01*
X112821184Y-125158000D01*
X112606000Y-125158000D01*
X112394758Y-125200018D01*
X112215677Y-125319677D01*
X110853354Y-126682000D01*
X84920000Y-126682000D01*
X84708758Y-126724018D01*
X84529677Y-126843677D01*
X83873381Y-127499973D01*
X83755470Y-127499870D01*
X83479714Y-127613811D01*
X83268552Y-127824605D01*
X83154131Y-128100161D01*
X83153870Y-128398530D01*
X83159436Y-128412000D01*
X74637349Y-128412000D01*
X74747869Y-128145839D01*
X74748130Y-127847470D01*
X74634189Y-127571714D01*
X74423395Y-127360552D01*
X74147839Y-127246131D01*
X73849470Y-127245870D01*
X73573714Y-127359811D01*
X73534000Y-127399456D01*
X73534000Y-125964000D01*
X73491982Y-125752759D01*
X73372323Y-125573677D01*
X73193241Y-125454018D01*
X72982000Y-125412000D01*
X72220698Y-125412000D01*
X72137395Y-125328552D01*
X71861839Y-125214131D01*
X71563470Y-125213870D01*
X71287714Y-125327811D01*
X71076552Y-125538605D01*
X70962131Y-125814161D01*
X70961870Y-126112530D01*
X71075811Y-126388286D01*
X71286605Y-126599448D01*
X71562161Y-126713869D01*
X71860530Y-126714130D01*
X72136286Y-126600189D01*
X72220622Y-126516000D01*
X72430000Y-126516000D01*
X72430000Y-129520000D01*
X72472018Y-129731242D01*
X72486019Y-129752196D01*
X72485870Y-129922530D01*
X72596387Y-130190000D01*
X69378781Y-130190000D01*
X69343395Y-130154552D01*
X69067839Y-130040131D01*
X68769470Y-130039870D01*
X68493714Y-130153811D01*
X68282552Y-130364605D01*
X68168131Y-130640161D01*
X68167870Y-130938530D01*
X62358000Y-130938530D01*
X62358000Y-129838000D01*
X62315982Y-129626759D01*
X62196323Y-129447677D01*
X61850000Y-129101354D01*
X61850000Y-121518646D01*
X62270000Y-121938646D01*
X62270000Y-124185302D01*
X62186552Y-124268605D01*
X62072131Y-124544161D01*
X62071870Y-124842530D01*
X62185811Y-125118286D01*
X62396605Y-125329448D01*
X62672161Y-125443869D01*
X62970530Y-125444130D01*
X63246286Y-125330189D01*
X63457448Y-125119395D01*
X63571869Y-124843839D01*
X63572130Y-124545470D01*
X63458189Y-124269714D01*
X63374000Y-124185378D01*
X63374000Y-121710000D01*
X63331982Y-121498759D01*
X63331982Y-121498758D01*
X63212323Y-121319677D01*
X62358000Y-120465354D01*
X62358000Y-119184549D01*
X62480000Y-119208816D01*
X64780503Y-119208816D01*
X64695568Y-119265568D01*
X64596109Y-119414419D01*
X64561184Y-119590000D01*
X64561184Y-121290000D01*
X64596109Y-121465581D01*
X64695568Y-121614432D01*
X64838596Y-121710000D01*
X64695568Y-121805568D01*
X64596109Y-121954419D01*
X64561184Y-122130000D01*
X64561184Y-123830000D01*
X64596109Y-124005581D01*
X64695568Y-124154432D01*
X64844419Y-124253891D01*
X65020000Y-124288816D01*
X66720000Y-124288816D01*
X66895581Y-124253891D01*
X67044432Y-124154432D01*
X67143891Y-124005581D01*
X67178816Y-123830000D01*
X67178816Y-122130000D01*
X67143891Y-121954419D01*
X67044432Y-121805568D01*
X66901404Y-121710000D01*
X67044432Y-121614432D01*
X67143891Y-121465581D01*
X67178816Y-121290000D01*
X67178816Y-119590000D01*
X67143891Y-119414419D01*
X67044432Y-119265568D01*
X66901404Y-119170000D01*
X67044432Y-119074432D01*
X67143891Y-118925581D01*
X67178816Y-118750000D01*
X67178816Y-117050000D01*
X67143891Y-116874419D01*
X67044432Y-116725568D01*
X66895581Y-116626109D01*
X66720000Y-116591184D01*
X65689497Y-116591184D01*
X65774432Y-116534432D01*
X65873891Y-116385581D01*
X65908816Y-116210000D01*
X65908816Y-115785000D01*
X66295000Y-115785000D01*
X66295000Y-116472500D01*
X66382500Y-116560000D01*
X66789620Y-116560000D01*
X66918259Y-116506715D01*
X67016716Y-116408259D01*
X67070000Y-116279619D01*
X67070000Y-115872500D01*
X66982500Y-115785000D01*
X66295000Y-115785000D01*
X65908816Y-115785000D01*
X65908816Y-114510000D01*
X65873891Y-114334419D01*
X65815814Y-114247500D01*
X66295000Y-114247500D01*
X66295000Y-114935000D01*
X66982500Y-114935000D01*
X67070000Y-114847500D01*
X67070000Y-114440381D01*
X67016716Y-114311741D01*
X66918259Y-114213285D01*
X66789620Y-114160000D01*
X66382500Y-114160000D01*
X66295000Y-114247500D01*
X65815814Y-114247500D01*
X65774432Y-114185568D01*
X65625581Y-114086109D01*
X65450000Y-114051184D01*
X65020000Y-114051184D01*
X65020000Y-114020000D01*
X65357500Y-114020000D01*
X65445000Y-113932500D01*
X65445000Y-113245000D01*
X66295000Y-113245000D01*
X66295000Y-113932500D01*
X66382500Y-114020000D01*
X66789620Y-114020000D01*
X66918259Y-113966715D01*
X67016716Y-113868259D01*
X67070000Y-113739619D01*
X67070000Y-113400000D01*
X71441184Y-113400000D01*
X71441184Y-116600000D01*
X71476109Y-116775581D01*
X71575568Y-116924432D01*
X71724419Y-117023891D01*
X71900000Y-117058816D01*
X75100000Y-117058816D01*
X75275581Y-117023891D01*
X75424432Y-116924432D01*
X75523891Y-116775581D01*
X75558816Y-116600000D01*
X75558816Y-113400000D01*
X75523891Y-113224419D01*
X75424432Y-113075568D01*
X75275581Y-112976109D01*
X75100000Y-112941184D01*
X71900000Y-112941184D01*
X71724419Y-112976109D01*
X71575568Y-113075568D01*
X71476109Y-113224419D01*
X71441184Y-113400000D01*
X67070000Y-113400000D01*
X67070000Y-113332500D01*
X66982500Y-113245000D01*
X66295000Y-113245000D01*
X65445000Y-113245000D01*
X64757500Y-113245000D01*
X64670000Y-113332500D01*
X64670000Y-113739619D01*
X64723284Y-113868259D01*
X64765023Y-113909998D01*
X64670000Y-113909998D01*
X64670000Y-114051184D01*
X64530000Y-114051184D01*
X64530000Y-113909998D01*
X64180000Y-113909998D01*
X64180000Y-114051184D01*
X63750000Y-114051184D01*
X63574419Y-114086109D01*
X63425568Y-114185568D01*
X63326109Y-114334419D01*
X63291184Y-114510000D01*
X63291184Y-116210000D01*
X63326109Y-116385581D01*
X63425568Y-116534432D01*
X63510503Y-116591184D01*
X62480000Y-116591184D01*
X62480000Y-116560000D01*
X62817500Y-116560000D01*
X62905000Y-116472500D01*
X62905000Y-115785000D01*
X62480000Y-115785000D01*
X62480000Y-114935000D01*
X62905000Y-114935000D01*
X62905000Y-114247500D01*
X62817500Y-114160000D01*
X62480000Y-114160000D01*
X62480000Y-113909998D01*
X62358000Y-113909998D01*
X62358000Y-111900381D01*
X64670000Y-111900381D01*
X64670000Y-112307500D01*
X64757500Y-112395000D01*
X65445000Y-112395000D01*
X65445000Y-111707500D01*
X66295000Y-111707500D01*
X66295000Y-112395000D01*
X66982500Y-112395000D01*
X67070000Y-112307500D01*
X67070000Y-111900381D01*
X67016716Y-111771741D01*
X66918259Y-111673285D01*
X66789620Y-111620000D01*
X66382500Y-111620000D01*
X66295000Y-111707500D01*
X65445000Y-111707500D01*
X65357500Y-111620000D01*
X64950380Y-111620000D01*
X64821741Y-111673285D01*
X64723284Y-111771741D01*
X64670000Y-111900381D01*
X62358000Y-111900381D01*
X62358000Y-109430000D01*
X64561184Y-109430000D01*
X64561184Y-111130000D01*
X64596109Y-111305581D01*
X64695568Y-111454432D01*
X64844419Y-111553891D01*
X65020000Y-111588816D01*
X66720000Y-111588816D01*
X66895581Y-111553891D01*
X67044432Y-111454432D01*
X67143891Y-111305581D01*
X67178816Y-111130000D01*
X67178816Y-109430000D01*
X67143891Y-109254419D01*
X67044432Y-109105568D01*
X66895581Y-109006109D01*
X66720000Y-108971184D01*
X65020000Y-108971184D01*
X64844419Y-109006109D01*
X64695568Y-109105568D01*
X64596109Y-109254419D01*
X64561184Y-109430000D01*
X62358000Y-109430000D01*
X62358000Y-107570530D01*
X77565870Y-107570530D01*
X77679811Y-107846286D01*
X77890605Y-108057448D01*
X78166161Y-108171869D01*
X78464530Y-108172130D01*
X78740286Y-108058189D01*
X78776538Y-108022000D01*
X79332000Y-108022000D01*
X79561610Y-107976328D01*
X79756264Y-107846264D01*
X80954442Y-106648086D01*
X81004530Y-106648130D01*
X81280286Y-106534189D01*
X81491448Y-106323395D01*
X81605869Y-106047839D01*
X81606130Y-105749470D01*
X81492189Y-105473714D01*
X81281395Y-105262552D01*
X81005839Y-105148131D01*
X80707470Y-105147870D01*
X80431714Y-105261811D01*
X80220552Y-105472605D01*
X80106131Y-105748161D01*
X80106086Y-105799386D01*
X79083472Y-106822000D01*
X78776781Y-106822000D01*
X78741395Y-106786552D01*
X78465839Y-106672131D01*
X78167470Y-106671870D01*
X77891714Y-106785811D01*
X77680552Y-106996605D01*
X77566131Y-107272161D01*
X77565870Y-107570530D01*
X62358000Y-107570530D01*
X62358000Y-106484549D01*
X62480000Y-106508816D01*
X66720000Y-106508816D01*
X66895581Y-106473891D01*
X67044432Y-106374432D01*
X67143891Y-106225581D01*
X67178816Y-106050000D01*
X67178816Y-104350000D01*
X67143891Y-104174419D01*
X67044432Y-104025568D01*
X66901404Y-103930000D01*
X67044432Y-103834432D01*
X67143891Y-103685581D01*
X67178816Y-103510000D01*
X67178816Y-101810000D01*
X67143891Y-101634419D01*
X67044432Y-101485568D01*
X66901404Y-101390000D01*
X67044432Y-101294432D01*
X67143891Y-101145581D01*
X67178816Y-100970000D01*
X67178816Y-99270000D01*
X67143891Y-99094419D01*
X67044432Y-98945568D01*
X66901404Y-98850000D01*
X67044432Y-98754432D01*
X67143891Y-98605581D01*
X67178816Y-98430000D01*
X67178816Y-96730000D01*
X67143891Y-96554419D01*
X67044432Y-96405568D01*
X66901404Y-96310000D01*
X67044432Y-96214432D01*
X67143891Y-96065581D01*
X67178816Y-95890000D01*
X67178816Y-94830381D01*
X70570000Y-94830381D01*
X70570000Y-95112500D01*
X70657500Y-95200000D01*
X71920000Y-95200000D01*
X71920000Y-94637500D01*
X73920000Y-94637500D01*
X73920000Y-95200000D01*
X75182500Y-95200000D01*
X75270000Y-95112500D01*
X75270000Y-94830381D01*
X75216716Y-94701741D01*
X75118259Y-94603285D01*
X74989620Y-94550000D01*
X74007500Y-94550000D01*
X73920000Y-94637500D01*
X71920000Y-94637500D01*
X71832500Y-94550000D01*
X70850380Y-94550000D01*
X70721741Y-94603285D01*
X70623284Y-94701741D01*
X70570000Y-94830381D01*
X67178816Y-94830381D01*
X67178816Y-94250000D01*
X92991184Y-94250000D01*
X92991184Y-96750000D01*
X93026109Y-96925581D01*
X93125568Y-97074432D01*
X93274419Y-97173891D01*
X93450000Y-97208816D01*
X95950000Y-97208816D01*
X96125581Y-97173891D01*
X96274432Y-97074432D01*
X96373891Y-96925581D01*
X96408816Y-96750000D01*
X96408816Y-94250000D01*
X96373891Y-94074419D01*
X96274432Y-93925568D01*
X96125581Y-93826109D01*
X95950000Y-93791184D01*
X93450000Y-93791184D01*
X93274419Y-93826109D01*
X93125568Y-93925568D01*
X93026109Y-94074419D01*
X92991184Y-94250000D01*
X67178816Y-94250000D01*
X67178816Y-94190000D01*
X67143891Y-94014419D01*
X67044432Y-93865568D01*
X66901404Y-93770000D01*
X67044432Y-93674432D01*
X67143891Y-93525581D01*
X67178816Y-93350000D01*
X67178816Y-91650000D01*
X67143891Y-91474419D01*
X67044432Y-91325568D01*
X66895581Y-91226109D01*
X66720000Y-91191184D01*
X62480000Y-91191184D01*
X62304419Y-91226109D01*
X62155568Y-91325568D01*
X62056109Y-91474419D01*
X62021184Y-91650000D01*
X62021184Y-93350000D01*
X62056109Y-93525581D01*
X62155568Y-93674432D01*
X62298596Y-93770000D01*
X62155568Y-93865568D01*
X62056109Y-94014419D01*
X62021184Y-94190000D01*
X62021184Y-95890000D01*
X62056109Y-96065581D01*
X62155568Y-96214432D01*
X62298596Y-96310000D01*
X62155568Y-96405568D01*
X62056109Y-96554419D01*
X62021184Y-96730000D01*
X62021184Y-97028000D01*
X61552000Y-97028000D01*
X61340758Y-97070018D01*
X61161677Y-97189677D01*
X60500000Y-97851354D01*
X60500000Y-90887500D01*
X70570000Y-90887500D01*
X70570000Y-91169619D01*
X70623284Y-91298259D01*
X70721741Y-91396715D01*
X70850380Y-91450000D01*
X71832500Y-91450000D01*
X71920000Y-91362500D01*
X71920000Y-90800000D01*
X73920000Y-90800000D01*
X73920000Y-91362500D01*
X74007500Y-91450000D01*
X74989620Y-91450000D01*
X75118259Y-91396715D01*
X75216716Y-91298259D01*
X75270000Y-91169619D01*
X75270000Y-90887500D01*
X75182500Y-90800000D01*
X73920000Y-90800000D01*
X71920000Y-90800000D01*
X70657500Y-90800000D01*
X70570000Y-90887500D01*
X60500000Y-90887500D01*
X60500000Y-89830381D01*
X70570000Y-89830381D01*
X70570000Y-90112500D01*
X70657500Y-90200000D01*
X71920000Y-90200000D01*
X71920000Y-89637500D01*
X73920000Y-89637500D01*
X73920000Y-90200000D01*
X75182500Y-90200000D01*
X75270000Y-90112500D01*
X75270000Y-90108530D01*
X77819870Y-90108530D01*
X77933811Y-90384286D01*
X78144605Y-90595448D01*
X78420161Y-90709869D01*
X78539327Y-90709973D01*
X78687677Y-90858323D01*
X78866759Y-90977982D01*
X79078000Y-91020000D01*
X80621184Y-91020000D01*
X80621184Y-91100000D01*
X80656109Y-91275581D01*
X80755568Y-91424432D01*
X80904419Y-91523891D01*
X81080000Y-91558816D01*
X85080000Y-91558816D01*
X85255581Y-91523891D01*
X85404432Y-91424432D01*
X85503891Y-91275581D01*
X85516438Y-91212500D01*
X93100000Y-91212500D01*
X93100000Y-91819620D01*
X93153285Y-91948259D01*
X93251741Y-92046716D01*
X93380381Y-92100000D01*
X93987500Y-92100000D01*
X94075000Y-92012500D01*
X94075000Y-91125000D01*
X95325000Y-91125000D01*
X95325000Y-92012500D01*
X95412500Y-92100000D01*
X96019619Y-92100000D01*
X96148259Y-92046716D01*
X96246715Y-91948259D01*
X96300000Y-91819620D01*
X96300000Y-91212500D01*
X107700000Y-91212500D01*
X107700000Y-91819620D01*
X107753285Y-91948259D01*
X107851741Y-92046716D01*
X107980381Y-92100000D01*
X108587500Y-92100000D01*
X108675000Y-92012500D01*
X108675000Y-91125000D01*
X109925000Y-91125000D01*
X109925000Y-92012500D01*
X110012500Y-92100000D01*
X110619619Y-92100000D01*
X110748259Y-92046716D01*
X110846715Y-91948259D01*
X110900000Y-91819620D01*
X110900000Y-91212500D01*
X110812500Y-91125000D01*
X109925000Y-91125000D01*
X108675000Y-91125000D01*
X107787500Y-91125000D01*
X107700000Y-91212500D01*
X96300000Y-91212500D01*
X96212500Y-91125000D01*
X95325000Y-91125000D01*
X94075000Y-91125000D01*
X93187500Y-91125000D01*
X93100000Y-91212500D01*
X85516438Y-91212500D01*
X85538816Y-91100000D01*
X85538816Y-89900000D01*
X85503891Y-89724419D01*
X85404432Y-89575568D01*
X85255581Y-89476109D01*
X85080000Y-89441184D01*
X81080000Y-89441184D01*
X80904419Y-89476109D01*
X80755568Y-89575568D01*
X80656109Y-89724419D01*
X80621184Y-89900000D01*
X80621184Y-89916000D01*
X79320039Y-89916000D01*
X79320130Y-89811470D01*
X79206189Y-89535714D01*
X78995395Y-89324552D01*
X78719839Y-89210131D01*
X78421470Y-89209870D01*
X78145714Y-89323811D01*
X77934552Y-89534605D01*
X77820131Y-89810161D01*
X77819870Y-90108530D01*
X75270000Y-90108530D01*
X75270000Y-89830381D01*
X75216716Y-89701741D01*
X75118259Y-89603285D01*
X74989620Y-89550000D01*
X74007500Y-89550000D01*
X73920000Y-89637500D01*
X71920000Y-89637500D01*
X71832500Y-89550000D01*
X70850380Y-89550000D01*
X70721741Y-89603285D01*
X70623284Y-89701741D01*
X70570000Y-89830381D01*
X60500000Y-89830381D01*
X60500000Y-89180380D01*
X93100000Y-89180380D01*
X93100000Y-89787500D01*
X93187500Y-89875000D01*
X94075000Y-89875000D01*
X94075000Y-88987500D01*
X95325000Y-88987500D01*
X95325000Y-89875000D01*
X96212500Y-89875000D01*
X96300000Y-89787500D01*
X96300000Y-89180380D01*
X107700000Y-89180380D01*
X107700000Y-89787500D01*
X107787500Y-89875000D01*
X108675000Y-89875000D01*
X108675000Y-88987500D01*
X109925000Y-88987500D01*
X109925000Y-89875000D01*
X110812500Y-89875000D01*
X110900000Y-89787500D01*
X110900000Y-89180380D01*
X110846715Y-89051741D01*
X110748259Y-88953284D01*
X110619619Y-88900000D01*
X110012500Y-88900000D01*
X109925000Y-88987500D01*
X108675000Y-88987500D01*
X108587500Y-88900000D01*
X107980381Y-88900000D01*
X107851741Y-88953284D01*
X107753285Y-89051741D01*
X107700000Y-89180380D01*
X96300000Y-89180380D01*
X96246715Y-89051741D01*
X96148259Y-88953284D01*
X96019619Y-88900000D01*
X95412500Y-88900000D01*
X95325000Y-88987500D01*
X94075000Y-88987500D01*
X93987500Y-88900000D01*
X93380381Y-88900000D01*
X93251741Y-88953284D01*
X93153285Y-89051741D01*
X93100000Y-89180380D01*
X60500000Y-89180380D01*
X60500000Y-79229816D01*
X66321000Y-79229816D01*
X66496581Y-79194891D01*
X66645432Y-79095432D01*
X66744891Y-78946581D01*
X66779816Y-78771000D01*
X66779816Y-76038138D01*
X74479835Y-76038138D01*
X74624159Y-76387429D01*
X74891165Y-76654902D01*
X75240204Y-76799835D01*
X75618138Y-76800165D01*
X75967429Y-76655841D01*
X76234902Y-76388835D01*
X76379835Y-76039796D01*
X76379836Y-76038138D01*
X103619835Y-76038138D01*
X103764159Y-76387429D01*
X104031165Y-76654902D01*
X104380204Y-76799835D01*
X104758138Y-76800165D01*
X105107429Y-76655841D01*
X105374902Y-76388835D01*
X105519835Y-76039796D01*
X105520165Y-75661862D01*
X105375841Y-75312571D01*
X105108835Y-75045098D01*
X104759796Y-74900165D01*
X104381862Y-74899835D01*
X104032571Y-75044159D01*
X103765098Y-75311165D01*
X103620165Y-75660204D01*
X103619835Y-76038138D01*
X76379836Y-76038138D01*
X76380165Y-75661862D01*
X76235841Y-75312571D01*
X75968835Y-75045098D01*
X75619796Y-74900165D01*
X75241862Y-74899835D01*
X74892571Y-75044159D01*
X74625098Y-75311165D01*
X74480165Y-75660204D01*
X74479835Y-76038138D01*
X66779816Y-76038138D01*
X66779816Y-72929000D01*
X66744891Y-72753419D01*
X66645432Y-72604568D01*
X66496581Y-72505109D01*
X66321000Y-72470184D01*
X60500000Y-72470184D01*
X60500000Y-62957106D01*
X62207106Y-61250000D01*
X117792894Y-61250000D01*
X119500000Y-62957106D01*
G36*
X116880000Y-101808646D02*
X116880000Y-103612000D01*
X116922018Y-103823242D01*
X117041677Y-104002323D01*
X118150000Y-105110646D01*
X118150000Y-112591354D01*
X117803677Y-112937677D01*
X117684018Y-113116758D01*
X117657143Y-113251869D01*
X117642000Y-113328000D01*
X117642000Y-116909354D01*
X116787677Y-117763677D01*
X116668018Y-117942758D01*
X116668018Y-117942759D01*
X116626000Y-118154000D01*
X116626000Y-124021354D01*
X115489354Y-125158000D01*
X115438816Y-125158000D01*
X115438816Y-123654000D01*
X115403891Y-123478419D01*
X115304432Y-123329568D01*
X115161404Y-123234000D01*
X115304432Y-123138432D01*
X115403891Y-122989581D01*
X115438816Y-122814000D01*
X115438816Y-121114000D01*
X115403891Y-120938419D01*
X115304432Y-120789568D01*
X115161404Y-120694000D01*
X115304432Y-120598432D01*
X115403891Y-120449581D01*
X115438816Y-120274000D01*
X115438816Y-118574000D01*
X115403891Y-118398419D01*
X115304432Y-118249568D01*
X115161404Y-118154000D01*
X115304432Y-118058432D01*
X115403891Y-117909581D01*
X115438816Y-117734000D01*
X115438816Y-116034000D01*
X115403891Y-115858419D01*
X115304432Y-115709568D01*
X115161404Y-115614000D01*
X115304432Y-115518432D01*
X115403891Y-115369581D01*
X115438816Y-115194000D01*
X115438816Y-113494000D01*
X115403891Y-113318419D01*
X115304432Y-113169568D01*
X115155581Y-113070109D01*
X114980000Y-113035184D01*
X113280000Y-113035184D01*
X113104419Y-113070109D01*
X113006486Y-113135545D01*
X113101869Y-112905839D01*
X113102130Y-112607470D01*
X112988189Y-112331714D01*
X112777395Y-112120552D01*
X112580042Y-112038604D01*
X113080642Y-111538004D01*
X113104419Y-111553891D01*
X113280000Y-111588816D01*
X114980000Y-111588816D01*
X115155581Y-111553891D01*
X115304432Y-111454432D01*
X115403891Y-111305581D01*
X115438816Y-111130000D01*
X115438816Y-109430000D01*
X115403891Y-109254419D01*
X115304432Y-109105568D01*
X115219497Y-109048816D01*
X117520000Y-109048816D01*
X117695581Y-109013891D01*
X117844432Y-108914432D01*
X117943891Y-108765581D01*
X117978816Y-108590000D01*
X117978816Y-106890000D01*
X117943891Y-106714419D01*
X117844432Y-106565568D01*
X117695581Y-106466109D01*
X117520000Y-106431184D01*
X115219497Y-106431184D01*
X115304432Y-106374432D01*
X115403891Y-106225581D01*
X115438816Y-106050000D01*
X115438816Y-104350000D01*
X115403891Y-104174419D01*
X115304432Y-104025568D01*
X115161404Y-103930000D01*
X115304432Y-103834432D01*
X115403891Y-103685581D01*
X115438816Y-103510000D01*
X115438816Y-101810000D01*
X115403891Y-101634419D01*
X115304432Y-101485568D01*
X115161404Y-101390000D01*
X115304432Y-101294432D01*
X115403891Y-101145581D01*
X115438816Y-100970000D01*
X115438816Y-100672000D01*
X115743354Y-100672000D01*
X116880000Y-101808646D01*
X116880000Y-101808646D01*
G37*
X116880000Y-101808646D02*
X116880000Y-103612000D01*
X116922018Y-103823242D01*
X117041677Y-104002323D01*
X118150000Y-105110646D01*
X118150000Y-112591354D01*
X117803677Y-112937677D01*
X117684018Y-113116758D01*
X117657143Y-113251869D01*
X117642000Y-113328000D01*
X117642000Y-116909354D01*
X116787677Y-117763677D01*
X116668018Y-117942758D01*
X116668018Y-117942759D01*
X116626000Y-118154000D01*
X116626000Y-124021354D01*
X115489354Y-125158000D01*
X115438816Y-125158000D01*
X115438816Y-123654000D01*
X115403891Y-123478419D01*
X115304432Y-123329568D01*
X115161404Y-123234000D01*
X115304432Y-123138432D01*
X115403891Y-122989581D01*
X115438816Y-122814000D01*
X115438816Y-121114000D01*
X115403891Y-120938419D01*
X115304432Y-120789568D01*
X115161404Y-120694000D01*
X115304432Y-120598432D01*
X115403891Y-120449581D01*
X115438816Y-120274000D01*
X115438816Y-118574000D01*
X115403891Y-118398419D01*
X115304432Y-118249568D01*
X115161404Y-118154000D01*
X115304432Y-118058432D01*
X115403891Y-117909581D01*
X115438816Y-117734000D01*
X115438816Y-116034000D01*
X115403891Y-115858419D01*
X115304432Y-115709568D01*
X115161404Y-115614000D01*
X115304432Y-115518432D01*
X115403891Y-115369581D01*
X115438816Y-115194000D01*
X115438816Y-113494000D01*
X115403891Y-113318419D01*
X115304432Y-113169568D01*
X115155581Y-113070109D01*
X114980000Y-113035184D01*
X113280000Y-113035184D01*
X113104419Y-113070109D01*
X113006486Y-113135545D01*
X113101869Y-112905839D01*
X113102130Y-112607470D01*
X112988189Y-112331714D01*
X112777395Y-112120552D01*
X112580042Y-112038604D01*
X113080642Y-111538004D01*
X113104419Y-111553891D01*
X113280000Y-111588816D01*
X114980000Y-111588816D01*
X115155581Y-111553891D01*
X115304432Y-111454432D01*
X115403891Y-111305581D01*
X115438816Y-111130000D01*
X115438816Y-109430000D01*
X115403891Y-109254419D01*
X115304432Y-109105568D01*
X115219497Y-109048816D01*
X117520000Y-109048816D01*
X117695581Y-109013891D01*
X117844432Y-108914432D01*
X117943891Y-108765581D01*
X117978816Y-108590000D01*
X117978816Y-106890000D01*
X117943891Y-106714419D01*
X117844432Y-106565568D01*
X117695581Y-106466109D01*
X117520000Y-106431184D01*
X115219497Y-106431184D01*
X115304432Y-106374432D01*
X115403891Y-106225581D01*
X115438816Y-106050000D01*
X115438816Y-104350000D01*
X115403891Y-104174419D01*
X115304432Y-104025568D01*
X115161404Y-103930000D01*
X115304432Y-103834432D01*
X115403891Y-103685581D01*
X115438816Y-103510000D01*
X115438816Y-101810000D01*
X115403891Y-101634419D01*
X115304432Y-101485568D01*
X115161404Y-101390000D01*
X115304432Y-101294432D01*
X115403891Y-101145581D01*
X115438816Y-100970000D01*
X115438816Y-100672000D01*
X115743354Y-100672000D01*
X116880000Y-101808646D01*
M02*
