G04 #@! TF.FileFunction,Soldermask,Bot*
%FSLAX46Y46*%
G04 Gerber Fmt 4.6, Leading zero omitted, Abs format (unit mm)*
G04 Created by KiCad (PCBNEW 4.1.0-alpha+201607190716+6983~46~ubuntu14.04.1-product) date Mon Jan  9 09:03:27 2017*
%MOMM*%
%LPD*%
G01*
G04 APERTURE LIST*
%ADD10C,0.100000*%
%ADD11C,0.010000*%
%ADD12R,2.100000X2.100000*%
%ADD13R,6.242000X6.242000*%
%ADD14C,1.400000*%
%ADD15R,2.900000X2.900000*%
%ADD16R,3.600000X3.600000*%
%ADD17C,2.076400*%
%ADD18R,4.400000X1.600000*%
%ADD19C,2.000000*%
G04 APERTURE END LIST*
D10*
D11*
G36*
X86358666Y-77147500D02*
X86760833Y-77147500D01*
X86886066Y-77148285D01*
X86995392Y-77150470D01*
X87082308Y-77153803D01*
X87140315Y-77158028D01*
X87162912Y-77162891D01*
X87163000Y-77163222D01*
X87148550Y-77181308D01*
X87107445Y-77225769D01*
X87043054Y-77293135D01*
X86958746Y-77379935D01*
X86857891Y-77482700D01*
X86743856Y-77597960D01*
X86628733Y-77713520D01*
X86094466Y-78248095D01*
X86464464Y-78618547D01*
X86566696Y-78720482D01*
X86658977Y-78811687D01*
X86737141Y-78888112D01*
X86797024Y-78945705D01*
X86834459Y-78980415D01*
X86845364Y-78989000D01*
X86861854Y-78974438D01*
X86905645Y-78932460D01*
X86974148Y-78865626D01*
X87064772Y-78776496D01*
X87174928Y-78667630D01*
X87302026Y-78541589D01*
X87443476Y-78400932D01*
X87596687Y-78248221D01*
X87759070Y-78086014D01*
X87776833Y-78068250D01*
X88697401Y-77147500D01*
X89618333Y-77147500D01*
X89618333Y-78777333D01*
X90676666Y-78777333D01*
X90676666Y-75517666D01*
X89618333Y-75517666D01*
X89618333Y-76089166D01*
X87395833Y-76089166D01*
X87395833Y-75517666D01*
X89618333Y-75517666D01*
X90676666Y-75517666D01*
X90676666Y-74459333D01*
X86358666Y-74459333D01*
X86358666Y-77147500D01*
X86358666Y-77147500D01*
G37*
X86358666Y-77147500D02*
X86760833Y-77147500D01*
X86886066Y-77148285D01*
X86995392Y-77150470D01*
X87082308Y-77153803D01*
X87140315Y-77158028D01*
X87162912Y-77162891D01*
X87163000Y-77163222D01*
X87148550Y-77181308D01*
X87107445Y-77225769D01*
X87043054Y-77293135D01*
X86958746Y-77379935D01*
X86857891Y-77482700D01*
X86743856Y-77597960D01*
X86628733Y-77713520D01*
X86094466Y-78248095D01*
X86464464Y-78618547D01*
X86566696Y-78720482D01*
X86658977Y-78811687D01*
X86737141Y-78888112D01*
X86797024Y-78945705D01*
X86834459Y-78980415D01*
X86845364Y-78989000D01*
X86861854Y-78974438D01*
X86905645Y-78932460D01*
X86974148Y-78865626D01*
X87064772Y-78776496D01*
X87174928Y-78667630D01*
X87302026Y-78541589D01*
X87443476Y-78400932D01*
X87596687Y-78248221D01*
X87759070Y-78086014D01*
X87776833Y-78068250D01*
X88697401Y-77147500D01*
X89618333Y-77147500D01*
X89618333Y-78777333D01*
X90676666Y-78777333D01*
X90676666Y-75517666D01*
X89618333Y-75517666D01*
X89618333Y-76089166D01*
X87395833Y-76089166D01*
X87395833Y-75517666D01*
X89618333Y-75517666D01*
X90676666Y-75517666D01*
X90676666Y-74459333D01*
X86358666Y-74459333D01*
X86358666Y-77147500D01*
G36*
X108720735Y-76617818D02*
X110879143Y-78776304D01*
X111625830Y-78782110D01*
X111798857Y-78783166D01*
X111957705Y-78783577D01*
X112097604Y-78783374D01*
X112213784Y-78782588D01*
X112301474Y-78781250D01*
X112355904Y-78779391D01*
X112372509Y-78777294D01*
X112357811Y-78761357D01*
X112314834Y-78717184D01*
X112245249Y-78646453D01*
X112150729Y-78550845D01*
X112032945Y-78432040D01*
X111893569Y-78291718D01*
X111734273Y-78131558D01*
X111556729Y-77953242D01*
X111362609Y-77758449D01*
X111153584Y-77548859D01*
X110931327Y-77326152D01*
X110697509Y-77092008D01*
X110453802Y-76848107D01*
X110218753Y-76613002D01*
X108065006Y-74459333D01*
X106562328Y-74459333D01*
X108720735Y-76617818D01*
X108720735Y-76617818D01*
G37*
X108720735Y-76617818D02*
X110879143Y-78776304D01*
X111625830Y-78782110D01*
X111798857Y-78783166D01*
X111957705Y-78783577D01*
X112097604Y-78783374D01*
X112213784Y-78782588D01*
X112301474Y-78781250D01*
X112355904Y-78779391D01*
X112372509Y-78777294D01*
X112357811Y-78761357D01*
X112314834Y-78717184D01*
X112245249Y-78646453D01*
X112150729Y-78550845D01*
X112032945Y-78432040D01*
X111893569Y-78291718D01*
X111734273Y-78131558D01*
X111556729Y-77953242D01*
X111362609Y-77758449D01*
X111153584Y-77548859D01*
X110931327Y-77326152D01*
X110697509Y-77092008D01*
X110453802Y-76848107D01*
X110218753Y-76613002D01*
X108065006Y-74459333D01*
X106562328Y-74459333D01*
X108720735Y-76617818D01*
G36*
X105980166Y-76089166D02*
X105101875Y-76089166D01*
X106445319Y-77432735D01*
X107788762Y-78776304D01*
X108535473Y-78782110D01*
X108708503Y-78783165D01*
X108867354Y-78783575D01*
X109007256Y-78783371D01*
X109123440Y-78782584D01*
X109211133Y-78781244D01*
X109265566Y-78779382D01*
X109282176Y-78777282D01*
X109267514Y-78761208D01*
X109224807Y-78717144D01*
X109155963Y-78647013D01*
X109062892Y-78552737D01*
X108947505Y-78436238D01*
X108811712Y-78299438D01*
X108657422Y-78144259D01*
X108486546Y-77972624D01*
X108300994Y-77786455D01*
X108102676Y-77587674D01*
X107893501Y-77378203D01*
X107675380Y-77159964D01*
X107631166Y-77115750D01*
X105980166Y-75464851D01*
X105980166Y-76089166D01*
X105980166Y-76089166D01*
G37*
X105980166Y-76089166D02*
X105101875Y-76089166D01*
X106445319Y-77432735D01*
X107788762Y-78776304D01*
X108535473Y-78782110D01*
X108708503Y-78783165D01*
X108867354Y-78783575D01*
X109007256Y-78783371D01*
X109123440Y-78782584D01*
X109211133Y-78781244D01*
X109265566Y-78779382D01*
X109282176Y-78777282D01*
X109267514Y-78761208D01*
X109224807Y-78717144D01*
X109155963Y-78647013D01*
X109062892Y-78552737D01*
X108947505Y-78436238D01*
X108811712Y-78299438D01*
X108657422Y-78144259D01*
X108486546Y-77972624D01*
X108300994Y-77786455D01*
X108102676Y-77587674D01*
X107893501Y-77378203D01*
X107675380Y-77159964D01*
X107631166Y-77115750D01*
X105980166Y-75464851D01*
X105980166Y-76089166D01*
G36*
X104351080Y-77658964D02*
X104350333Y-78413846D01*
X104709629Y-78766750D01*
X105461327Y-78777333D01*
X105634949Y-78779777D01*
X105794408Y-78782022D01*
X105934950Y-78784001D01*
X106051821Y-78785647D01*
X106140266Y-78786892D01*
X106195531Y-78787670D01*
X106212985Y-78787916D01*
X106198521Y-78773283D01*
X106156824Y-78731084D01*
X106090412Y-78663867D01*
X106001802Y-78574181D01*
X105893513Y-78464576D01*
X105768064Y-78337600D01*
X105627972Y-78195801D01*
X105475756Y-78041729D01*
X105313935Y-77877933D01*
X105282386Y-77846000D01*
X104351827Y-76904083D01*
X104351080Y-77658964D01*
X104351080Y-77658964D01*
G37*
X104351080Y-77658964D02*
X104350333Y-78413846D01*
X104709629Y-78766750D01*
X105461327Y-78777333D01*
X105634949Y-78779777D01*
X105794408Y-78782022D01*
X105934950Y-78784001D01*
X106051821Y-78785647D01*
X106140266Y-78786892D01*
X106195531Y-78787670D01*
X106212985Y-78787916D01*
X106198521Y-78773283D01*
X106156824Y-78731084D01*
X106090412Y-78663867D01*
X106001802Y-78574181D01*
X105893513Y-78464576D01*
X105768064Y-78337600D01*
X105627972Y-78195801D01*
X105475756Y-78041729D01*
X105313935Y-77877933D01*
X105282386Y-77846000D01*
X104351827Y-76904083D01*
X104351080Y-77658964D01*
G36*
X103233791Y-74459317D02*
X101069500Y-74459333D01*
X101069500Y-75517666D01*
X102699333Y-75517666D01*
X102699333Y-78777333D01*
X103757666Y-78777333D01*
X103757666Y-75517666D01*
X105386083Y-75517666D01*
X105392083Y-74988484D01*
X105398083Y-74459301D01*
X103233791Y-74459317D01*
X103233791Y-74459317D01*
G37*
X103233791Y-74459317D02*
X101069500Y-74459333D01*
X101069500Y-75517666D01*
X102699333Y-75517666D01*
X102699333Y-78777333D01*
X103757666Y-78777333D01*
X103757666Y-75517666D01*
X105386083Y-75517666D01*
X105392083Y-74988484D01*
X105398083Y-74459301D01*
X103233791Y-74459317D01*
G36*
X99439666Y-76089166D02*
X97217166Y-76089166D01*
X97217166Y-74459333D01*
X96158833Y-74459333D01*
X96158833Y-78777333D01*
X97217166Y-78777333D01*
X97217166Y-77147122D01*
X98323125Y-77152602D01*
X99429083Y-77158083D01*
X99434626Y-77967708D01*
X99440170Y-78777333D01*
X100498000Y-78777333D01*
X100498000Y-74459333D01*
X99439666Y-74459333D01*
X99439666Y-76089166D01*
X99439666Y-76089166D01*
G37*
X99439666Y-76089166D02*
X97217166Y-76089166D01*
X97217166Y-74459333D01*
X96158833Y-74459333D01*
X96158833Y-78777333D01*
X97217166Y-78777333D01*
X97217166Y-77147122D01*
X98323125Y-77152602D01*
X99429083Y-77158083D01*
X99434626Y-77967708D01*
X99440170Y-78777333D01*
X100498000Y-78777333D01*
X100498000Y-74459333D01*
X99439666Y-74459333D01*
X99439666Y-76089166D01*
G36*
X91248166Y-75517666D02*
X94529000Y-75517666D01*
X94529000Y-76089166D01*
X91248166Y-76089166D01*
X91248166Y-77147500D01*
X94530194Y-77147500D01*
X94524305Y-77438541D01*
X94518416Y-77729583D01*
X91248166Y-77740427D01*
X91248166Y-78777333D01*
X95587333Y-78777333D01*
X95587333Y-74459333D01*
X91248166Y-74459333D01*
X91248166Y-75517666D01*
X91248166Y-75517666D01*
G37*
X91248166Y-75517666D02*
X94529000Y-75517666D01*
X94529000Y-76089166D01*
X91248166Y-76089166D01*
X91248166Y-77147500D01*
X94530194Y-77147500D01*
X94524305Y-77438541D01*
X94518416Y-77729583D01*
X91248166Y-77740427D01*
X91248166Y-78777333D01*
X95587333Y-78777333D01*
X95587333Y-74459333D01*
X91248166Y-74459333D01*
X91248166Y-75517666D01*
G36*
X81448000Y-75517666D02*
X84707666Y-75517666D01*
X84707666Y-76089166D01*
X81448000Y-76089166D01*
X81448000Y-77147500D01*
X84707666Y-77147500D01*
X84707666Y-77740166D01*
X81448000Y-77740166D01*
X81448000Y-78777333D01*
X85766000Y-78777333D01*
X85766000Y-74459333D01*
X81448000Y-74459333D01*
X81448000Y-75517666D01*
X81448000Y-75517666D01*
G37*
X81448000Y-75517666D02*
X84707666Y-75517666D01*
X84707666Y-76089166D01*
X81448000Y-76089166D01*
X81448000Y-77147500D01*
X84707666Y-77147500D01*
X84707666Y-77740166D01*
X81448000Y-77740166D01*
X81448000Y-78777333D01*
X85766000Y-78777333D01*
X85766000Y-74459333D01*
X81448000Y-74459333D01*
X81448000Y-75517666D01*
G36*
X76537333Y-78777333D02*
X77595666Y-78777333D01*
X77595666Y-75517666D01*
X78167166Y-75517666D01*
X78167166Y-78777333D01*
X79225500Y-78777333D01*
X79225500Y-75517666D01*
X79818166Y-75517666D01*
X79818166Y-78777333D01*
X80855333Y-78777333D01*
X80855333Y-74459333D01*
X76537333Y-74459333D01*
X76537333Y-78777333D01*
X76537333Y-78777333D01*
G37*
X76537333Y-78777333D02*
X77595666Y-78777333D01*
X77595666Y-75517666D01*
X78167166Y-75517666D01*
X78167166Y-78777333D01*
X79225500Y-78777333D01*
X79225500Y-75517666D01*
X79818166Y-75517666D01*
X79818166Y-78777333D01*
X80855333Y-78777333D01*
X80855333Y-74459333D01*
X76537333Y-74459333D01*
X76537333Y-78777333D01*
G36*
X74907500Y-78777333D02*
X75965833Y-78777333D01*
X75965833Y-74459333D01*
X74907500Y-74459333D01*
X74907500Y-78777333D01*
X74907500Y-78777333D01*
G37*
X74907500Y-78777333D02*
X75965833Y-78777333D01*
X75965833Y-74459333D01*
X74907500Y-74459333D01*
X74907500Y-78777333D01*
G36*
X69996833Y-78777333D02*
X71055166Y-78777333D01*
X71055166Y-75517666D01*
X73256500Y-75517666D01*
X73256500Y-78777333D01*
X74314833Y-78777333D01*
X74314833Y-74459333D01*
X69996833Y-74459333D01*
X69996833Y-78777333D01*
X69996833Y-78777333D01*
G37*
X69996833Y-78777333D02*
X71055166Y-78777333D01*
X71055166Y-75517666D01*
X73256500Y-75517666D01*
X73256500Y-78777333D01*
X74314833Y-78777333D01*
X74314833Y-74459333D01*
X69996833Y-74459333D01*
X69996833Y-78777333D01*
G36*
X68367000Y-78777333D02*
X69425333Y-78777333D01*
X69425333Y-77740166D01*
X68367000Y-77740166D01*
X68367000Y-78777333D01*
X68367000Y-78777333D01*
G37*
X68367000Y-78777333D02*
X69425333Y-78777333D01*
X69425333Y-77740166D01*
X68367000Y-77740166D01*
X68367000Y-78777333D01*
G36*
X110389676Y-74464362D02*
X109644211Y-74469916D01*
X111050529Y-75877500D01*
X112456846Y-77285083D01*
X112456912Y-76533666D01*
X112456977Y-75782250D01*
X111796059Y-75120529D01*
X111135141Y-74458809D01*
X110389676Y-74464362D01*
X110389676Y-74464362D01*
G37*
X110389676Y-74464362D02*
X109644211Y-74469916D01*
X111050529Y-75877500D01*
X112456846Y-77285083D01*
X112456912Y-76533666D01*
X112456977Y-75782250D01*
X111796059Y-75120529D01*
X111135141Y-74458809D01*
X110389676Y-74464362D01*
G36*
X109980666Y-71718250D02*
X112150172Y-73887833D01*
X112457166Y-73887833D01*
X112457166Y-72691810D01*
X110885489Y-71120238D01*
X109313811Y-69548666D01*
X107811161Y-69548666D01*
X109980666Y-71718250D01*
X109980666Y-71718250D01*
G37*
X109980666Y-71718250D02*
X112150172Y-73887833D01*
X112457166Y-73887833D01*
X112457166Y-72691810D01*
X110885489Y-71120238D01*
X109313811Y-69548666D01*
X107811161Y-69548666D01*
X109980666Y-71718250D01*
G36*
X106911500Y-71718250D02*
X109081006Y-73887833D01*
X109816586Y-73887833D01*
X109988279Y-73887607D01*
X110145757Y-73886965D01*
X110284214Y-73885960D01*
X110398842Y-73884646D01*
X110484834Y-73883075D01*
X110537384Y-73881302D01*
X110552166Y-73879676D01*
X110537504Y-73863997D01*
X110494626Y-73820012D01*
X110425201Y-73749400D01*
X110330894Y-73653842D01*
X110213372Y-73535019D01*
X110074303Y-73394610D01*
X109915352Y-73234295D01*
X109738187Y-73055756D01*
X109544474Y-72860672D01*
X109335880Y-72650724D01*
X109114071Y-72427592D01*
X108880714Y-72192956D01*
X108637476Y-71948497D01*
X108400161Y-71710092D01*
X106248155Y-69548666D01*
X104741994Y-69548666D01*
X106911500Y-71718250D01*
X106911500Y-71718250D01*
G37*
X106911500Y-71718250D02*
X109081006Y-73887833D01*
X109816586Y-73887833D01*
X109988279Y-73887607D01*
X110145757Y-73886965D01*
X110284214Y-73885960D01*
X110398842Y-73884646D01*
X110484834Y-73883075D01*
X110537384Y-73881302D01*
X110552166Y-73879676D01*
X110537504Y-73863997D01*
X110494626Y-73820012D01*
X110425201Y-73749400D01*
X110330894Y-73653842D01*
X110213372Y-73535019D01*
X110074303Y-73394610D01*
X109915352Y-73234295D01*
X109738187Y-73055756D01*
X109544474Y-72860672D01*
X109335880Y-72650724D01*
X109114071Y-72427592D01*
X108880714Y-72192956D01*
X108637476Y-71948497D01*
X108400161Y-71710092D01*
X106248155Y-69548666D01*
X104741994Y-69548666D01*
X106911500Y-71718250D01*
G36*
X103821166Y-71718250D02*
X105990672Y-73887833D01*
X107493506Y-73887833D01*
X105324000Y-71718250D01*
X103154494Y-69548666D01*
X101651661Y-69548666D01*
X103821166Y-71718250D01*
X103821166Y-71718250D01*
G37*
X103821166Y-71718250D02*
X105990672Y-73887833D01*
X107493506Y-73887833D01*
X105324000Y-71718250D01*
X103154494Y-69548666D01*
X101651661Y-69548666D01*
X103821166Y-71718250D01*
G36*
X99156931Y-69549106D02*
X98999534Y-69550355D01*
X98861188Y-69552310D01*
X98746694Y-69554867D01*
X98660852Y-69557923D01*
X98608461Y-69561374D01*
X98593815Y-69564541D01*
X98608608Y-69581100D01*
X98651678Y-69625891D01*
X98721352Y-69697230D01*
X98815957Y-69793431D01*
X98933820Y-69912809D01*
X99073269Y-70053677D01*
X99232630Y-70214351D01*
X99410231Y-70393146D01*
X99604398Y-70588375D01*
X99813459Y-70798353D01*
X100035741Y-71021395D01*
X100269571Y-71255816D01*
X100513275Y-71499929D01*
X100747523Y-71734383D01*
X102900416Y-73888351D01*
X104403172Y-73887833D01*
X102233666Y-71718250D01*
X100064161Y-69548666D01*
X99328580Y-69548666D01*
X99156931Y-69549106D01*
X99156931Y-69549106D01*
G37*
X99156931Y-69549106D02*
X98999534Y-69550355D01*
X98861188Y-69552310D01*
X98746694Y-69554867D01*
X98660852Y-69557923D01*
X98608461Y-69561374D01*
X98593815Y-69564541D01*
X98608608Y-69581100D01*
X98651678Y-69625891D01*
X98721352Y-69697230D01*
X98815957Y-69793431D01*
X98933820Y-69912809D01*
X99073269Y-70053677D01*
X99232630Y-70214351D01*
X99410231Y-70393146D01*
X99604398Y-70588375D01*
X99813459Y-70798353D01*
X100035741Y-71021395D01*
X100269571Y-71255816D01*
X100513275Y-71499929D01*
X100747523Y-71734383D01*
X102900416Y-73888351D01*
X104403172Y-73887833D01*
X102233666Y-71718250D01*
X100064161Y-69548666D01*
X99328580Y-69548666D01*
X99156931Y-69549106D01*
G36*
X97661666Y-71718250D02*
X99831172Y-73887833D01*
X100566753Y-73887833D01*
X100738445Y-73887392D01*
X100895922Y-73886140D01*
X101034379Y-73884179D01*
X101149007Y-73881615D01*
X101235000Y-73878551D01*
X101287550Y-73875091D01*
X101302333Y-73871919D01*
X101287632Y-73855360D01*
X101244645Y-73810578D01*
X101175043Y-73739256D01*
X101080499Y-73643079D01*
X100962686Y-73523733D01*
X100823277Y-73382902D01*
X100663943Y-73222270D01*
X100486358Y-73043524D01*
X100292193Y-72848347D01*
X100083123Y-72638424D01*
X99860818Y-72415441D01*
X99626951Y-72181082D01*
X99383196Y-71937032D01*
X99148586Y-71702336D01*
X96994839Y-69548666D01*
X95492161Y-69548666D01*
X97661666Y-71718250D01*
X97661666Y-71718250D01*
G37*
X97661666Y-71718250D02*
X99831172Y-73887833D01*
X100566753Y-73887833D01*
X100738445Y-73887392D01*
X100895922Y-73886140D01*
X101034379Y-73884179D01*
X101149007Y-73881615D01*
X101235000Y-73878551D01*
X101287550Y-73875091D01*
X101302333Y-73871919D01*
X101287632Y-73855360D01*
X101244645Y-73810578D01*
X101175043Y-73739256D01*
X101080499Y-73643079D01*
X100962686Y-73523733D01*
X100823277Y-73382902D01*
X100663943Y-73222270D01*
X100486358Y-73043524D01*
X100292193Y-72848347D01*
X100083123Y-72638424D01*
X99860818Y-72415441D01*
X99626951Y-72181082D01*
X99383196Y-71937032D01*
X99148586Y-71702336D01*
X96994839Y-69548666D01*
X95492161Y-69548666D01*
X97661666Y-71718250D01*
G36*
X94571333Y-71718250D02*
X96740839Y-73887833D01*
X98243672Y-73887833D01*
X96074166Y-71718250D01*
X93904661Y-69548666D01*
X92401827Y-69548666D01*
X94571333Y-71718250D01*
X94571333Y-71718250D01*
G37*
X94571333Y-71718250D02*
X96740839Y-73887833D01*
X98243672Y-73887833D01*
X96074166Y-71718250D01*
X93904661Y-69548666D01*
X92401827Y-69548666D01*
X94571333Y-71718250D01*
G36*
X89618333Y-69855666D02*
X91634500Y-71871749D01*
X93650666Y-73887833D01*
X95153339Y-73887833D01*
X92983833Y-71718250D01*
X90814327Y-69548666D01*
X89618333Y-69548666D01*
X89618333Y-69855666D01*
X89618333Y-69855666D01*
G37*
X89618333Y-69855666D02*
X91634500Y-71871749D01*
X93650666Y-73887833D01*
X95153339Y-73887833D01*
X92983833Y-71718250D01*
X90814327Y-69548666D01*
X89618333Y-69548666D01*
X89618333Y-69855666D01*
G36*
X89623317Y-72199712D02*
X89617718Y-72945916D01*
X90089936Y-73416875D01*
X90562155Y-73887833D01*
X92062945Y-73887833D01*
X90845931Y-72670670D01*
X89628916Y-71453507D01*
X89623317Y-72199712D01*
X89623317Y-72199712D01*
G37*
X89623317Y-72199712D02*
X89617718Y-72945916D01*
X90089936Y-73416875D01*
X90562155Y-73887833D01*
X92062945Y-73887833D01*
X90845931Y-72670670D01*
X89628916Y-71453507D01*
X89623317Y-72199712D01*
G36*
X84707666Y-73887833D02*
X89046833Y-73887833D01*
X89046833Y-71703950D01*
X87988500Y-71703950D01*
X87988232Y-71915582D01*
X87987462Y-72114329D01*
X87986242Y-72296185D01*
X87984623Y-72457147D01*
X87982657Y-72593210D01*
X87980396Y-72700369D01*
X87977890Y-72774620D01*
X87975191Y-72811959D01*
X87974200Y-72815577D01*
X87950872Y-72818235D01*
X87889226Y-72820524D01*
X87793278Y-72822413D01*
X87667044Y-72823869D01*
X87514537Y-72824860D01*
X87339774Y-72825354D01*
X87146768Y-72825319D01*
X86939535Y-72824724D01*
X86868242Y-72824396D01*
X85776583Y-72818916D01*
X85776583Y-70617583D01*
X86882541Y-70612102D01*
X87988500Y-70606622D01*
X87988500Y-71703950D01*
X89046833Y-71703950D01*
X89046833Y-69548666D01*
X84707666Y-69548666D01*
X84707666Y-73887833D01*
X84707666Y-73887833D01*
G37*
X84707666Y-73887833D02*
X89046833Y-73887833D01*
X89046833Y-71703950D01*
X87988500Y-71703950D01*
X87988232Y-71915582D01*
X87987462Y-72114329D01*
X87986242Y-72296185D01*
X87984623Y-72457147D01*
X87982657Y-72593210D01*
X87980396Y-72700369D01*
X87977890Y-72774620D01*
X87975191Y-72811959D01*
X87974200Y-72815577D01*
X87950872Y-72818235D01*
X87889226Y-72820524D01*
X87793278Y-72822413D01*
X87667044Y-72823869D01*
X87514537Y-72824860D01*
X87339774Y-72825354D01*
X87146768Y-72825319D01*
X86939535Y-72824724D01*
X86868242Y-72824396D01*
X85776583Y-72818916D01*
X85776583Y-70617583D01*
X86882541Y-70612102D01*
X87988500Y-70606622D01*
X87988500Y-71703950D01*
X89046833Y-71703950D01*
X89046833Y-69548666D01*
X84707666Y-69548666D01*
X84707666Y-73887833D01*
G36*
X79818166Y-72236570D02*
X83067250Y-72247416D01*
X83072790Y-73067625D01*
X83078330Y-73887833D01*
X84136166Y-73887833D01*
X84136166Y-71178877D01*
X83077833Y-71178877D01*
X81971875Y-71173397D01*
X80865916Y-71167916D01*
X80865916Y-70617583D01*
X81971875Y-70612102D01*
X83077833Y-70606622D01*
X83077833Y-71178877D01*
X84136166Y-71178877D01*
X84136166Y-69548666D01*
X79818166Y-69548666D01*
X79818166Y-72236570D01*
X79818166Y-72236570D01*
G37*
X79818166Y-72236570D02*
X83067250Y-72247416D01*
X83072790Y-73067625D01*
X83078330Y-73887833D01*
X84136166Y-73887833D01*
X84136166Y-71178877D01*
X83077833Y-71178877D01*
X81971875Y-71173397D01*
X80865916Y-71167916D01*
X80865916Y-70617583D01*
X81971875Y-70612102D01*
X83077833Y-70606622D01*
X83077833Y-71178877D01*
X84136166Y-71178877D01*
X84136166Y-69548666D01*
X79818166Y-69548666D01*
X79818166Y-72236570D01*
G36*
X74907500Y-70607000D02*
X78167166Y-70607000D01*
X78167166Y-71178500D01*
X74907500Y-71178500D01*
X74907500Y-72236833D01*
X78168361Y-72236833D01*
X78162472Y-72527875D01*
X78156583Y-72818916D01*
X76532041Y-72824339D01*
X74907500Y-72829762D01*
X74907500Y-73887833D01*
X79225500Y-73887833D01*
X79225500Y-69548666D01*
X74907500Y-69548666D01*
X74907500Y-70607000D01*
X74907500Y-70607000D01*
G37*
X74907500Y-70607000D02*
X78167166Y-70607000D01*
X78167166Y-71178500D01*
X74907500Y-71178500D01*
X74907500Y-72236833D01*
X78168361Y-72236833D01*
X78162472Y-72527875D01*
X78156583Y-72818916D01*
X76532041Y-72824339D01*
X74907500Y-72829762D01*
X74907500Y-73887833D01*
X79225500Y-73887833D01*
X79225500Y-69548666D01*
X74907500Y-69548666D01*
X74907500Y-70607000D01*
G36*
X69996833Y-73887833D02*
X71055166Y-73887833D01*
X71055166Y-70607000D01*
X73256239Y-70607000D01*
X73267083Y-73877250D01*
X74314833Y-73888572D01*
X74314833Y-69548666D01*
X69996833Y-69548666D01*
X69996833Y-73887833D01*
X69996833Y-73887833D01*
G37*
X69996833Y-73887833D02*
X71055166Y-73887833D01*
X71055166Y-70607000D01*
X73256239Y-70607000D01*
X73267083Y-73877250D01*
X74314833Y-73888572D01*
X74314833Y-69548666D01*
X69996833Y-69548666D01*
X69996833Y-73887833D01*
G36*
X68367000Y-73887833D02*
X68882055Y-73887833D01*
X69025642Y-73887276D01*
X69154974Y-73885711D01*
X69264095Y-73883297D01*
X69347050Y-73880192D01*
X69397881Y-73876556D01*
X69411222Y-73873722D01*
X69415141Y-73849473D01*
X69418641Y-73788849D01*
X69421565Y-73697804D01*
X69423752Y-73582296D01*
X69425045Y-73448280D01*
X69425333Y-73344555D01*
X69425333Y-72829500D01*
X68367000Y-72829500D01*
X68367000Y-73887833D01*
X68367000Y-73887833D01*
G37*
X68367000Y-73887833D02*
X68882055Y-73887833D01*
X69025642Y-73887276D01*
X69154974Y-73885711D01*
X69264095Y-73883297D01*
X69347050Y-73880192D01*
X69397881Y-73876556D01*
X69411222Y-73873722D01*
X69415141Y-73849473D01*
X69418641Y-73788849D01*
X69421565Y-73697804D01*
X69423752Y-73582296D01*
X69425045Y-73448280D01*
X69425333Y-73344555D01*
X69425333Y-72829500D01*
X68367000Y-72829500D01*
X68367000Y-73887833D01*
G36*
X118161583Y-70628166D02*
X119240928Y-71707666D01*
X119380353Y-71707666D01*
X119453655Y-71705668D01*
X119509142Y-71700443D01*
X119533889Y-71693555D01*
X119537582Y-71669489D01*
X119540913Y-71608666D01*
X119543753Y-71516663D01*
X119545968Y-71399055D01*
X119547426Y-71261420D01*
X119547997Y-71109333D01*
X119548000Y-71096651D01*
X119548000Y-70513858D01*
X118586136Y-69548666D01*
X117082239Y-69548666D01*
X118161583Y-70628166D01*
X118161583Y-70628166D01*
G37*
X118161583Y-70628166D02*
X119240928Y-71707666D01*
X119380353Y-71707666D01*
X119453655Y-71705668D01*
X119509142Y-71700443D01*
X119533889Y-71693555D01*
X119537582Y-71669489D01*
X119540913Y-71608666D01*
X119543753Y-71516663D01*
X119545968Y-71399055D01*
X119547426Y-71261420D01*
X119547997Y-71109333D01*
X119548000Y-71096651D01*
X119548000Y-70513858D01*
X118586136Y-69548666D01*
X117082239Y-69548666D01*
X118161583Y-70628166D01*
G36*
X115071250Y-70628166D02*
X116150594Y-71707666D01*
X117653428Y-71707666D01*
X116574083Y-70628166D01*
X115494739Y-69548666D01*
X113991905Y-69548666D01*
X115071250Y-70628166D01*
X115071250Y-70628166D01*
G37*
X115071250Y-70628166D02*
X116150594Y-71707666D01*
X117653428Y-71707666D01*
X116574083Y-70628166D01*
X115494739Y-69548666D01*
X113991905Y-69548666D01*
X115071250Y-70628166D01*
G36*
X111980916Y-70628166D02*
X113060261Y-71707666D01*
X114563094Y-71707666D01*
X113483750Y-70628166D01*
X112404405Y-69548666D01*
X110901572Y-69548666D01*
X111980916Y-70628166D01*
X111980916Y-70628166D01*
G37*
X111980916Y-70628166D02*
X113060261Y-71707666D01*
X114563094Y-71707666D01*
X113483750Y-70628166D01*
X112404405Y-69548666D01*
X110901572Y-69548666D01*
X111980916Y-70628166D01*
G36*
X115374600Y-152318470D02*
X116004309Y-152324076D01*
X116634017Y-152329683D01*
X116639998Y-152795350D01*
X116641237Y-152934208D01*
X116641343Y-153060981D01*
X116640393Y-153168775D01*
X116638463Y-153250700D01*
X116635629Y-153299865D01*
X116634303Y-153308641D01*
X116628995Y-153325569D01*
X116618650Y-153337919D01*
X116597326Y-153346413D01*
X116559079Y-153351773D01*
X116497968Y-153354720D01*
X116408049Y-153355976D01*
X116283381Y-153356262D01*
X116242031Y-153356266D01*
X115861434Y-153356266D01*
X115861434Y-153059933D01*
X116094267Y-153059933D01*
X116094267Y-152594266D01*
X115374600Y-152594266D01*
X115374600Y-153800766D01*
X117099684Y-153800766D01*
X117099684Y-151853433D01*
X115374600Y-151853433D01*
X115374600Y-152318470D01*
X115374600Y-152318470D01*
G37*
X115374600Y-152318470D02*
X116004309Y-152324076D01*
X116634017Y-152329683D01*
X116639998Y-152795350D01*
X116641237Y-152934208D01*
X116641343Y-153060981D01*
X116640393Y-153168775D01*
X116638463Y-153250700D01*
X116635629Y-153299865D01*
X116634303Y-153308641D01*
X116628995Y-153325569D01*
X116618650Y-153337919D01*
X116597326Y-153346413D01*
X116559079Y-153351773D01*
X116497968Y-153354720D01*
X116408049Y-153355976D01*
X116283381Y-153356262D01*
X116242031Y-153356266D01*
X115861434Y-153356266D01*
X115861434Y-153059933D01*
X116094267Y-153059933D01*
X116094267Y-152594266D01*
X115374600Y-152594266D01*
X115374600Y-153800766D01*
X117099684Y-153800766D01*
X117099684Y-151853433D01*
X115374600Y-151853433D01*
X115374600Y-152318470D01*
G36*
X114252767Y-152223850D02*
X114150262Y-152325855D01*
X114057362Y-152417110D01*
X113978298Y-152493556D01*
X113917303Y-152551131D01*
X113878610Y-152585773D01*
X113866702Y-152594266D01*
X113861490Y-152574229D01*
X113856981Y-152518635D01*
X113853470Y-152434256D01*
X113851251Y-152327867D01*
X113850600Y-152223850D01*
X113850600Y-151853433D01*
X113384934Y-151853433D01*
X113384934Y-153800766D01*
X113850600Y-153800766D01*
X113850600Y-153281742D01*
X114226523Y-152906254D01*
X114329906Y-152803589D01*
X114423658Y-152711628D01*
X114503582Y-152634396D01*
X114565479Y-152575919D01*
X114605153Y-152540220D01*
X114618107Y-152530766D01*
X114622030Y-152551070D01*
X114625593Y-152608533D01*
X114628669Y-152697982D01*
X114631131Y-152814242D01*
X114632850Y-152952140D01*
X114633699Y-153106502D01*
X114633767Y-153165766D01*
X114633767Y-153800766D01*
X115099434Y-153800766D01*
X115099434Y-151853433D01*
X114622730Y-151853433D01*
X114252767Y-152223850D01*
X114252767Y-152223850D01*
G37*
X114252767Y-152223850D02*
X114150262Y-152325855D01*
X114057362Y-152417110D01*
X113978298Y-152493556D01*
X113917303Y-152551131D01*
X113878610Y-152585773D01*
X113866702Y-152594266D01*
X113861490Y-152574229D01*
X113856981Y-152518635D01*
X113853470Y-152434256D01*
X113851251Y-152327867D01*
X113850600Y-152223850D01*
X113850600Y-151853433D01*
X113384934Y-151853433D01*
X113384934Y-153800766D01*
X113850600Y-153800766D01*
X113850600Y-153281742D01*
X114226523Y-152906254D01*
X114329906Y-152803589D01*
X114423658Y-152711628D01*
X114503582Y-152634396D01*
X114565479Y-152575919D01*
X114605153Y-152540220D01*
X114618107Y-152530766D01*
X114622030Y-152551070D01*
X114625593Y-152608533D01*
X114628669Y-152697982D01*
X114631131Y-152814242D01*
X114632850Y-152952140D01*
X114633699Y-153106502D01*
X114633767Y-153165766D01*
X114633767Y-153800766D01*
X115099434Y-153800766D01*
X115099434Y-151853433D01*
X114622730Y-151853433D01*
X114252767Y-152223850D01*
G36*
X111141267Y-152330345D02*
X111141267Y-153325207D01*
X111379723Y-153562986D01*
X111618180Y-153800766D01*
X113109767Y-153800766D01*
X113109767Y-153083228D01*
X112640650Y-153083228D01*
X112639977Y-153190199D01*
X112638454Y-153270955D01*
X112636138Y-153319142D01*
X112634591Y-153329350D01*
X112619802Y-153339621D01*
X112581476Y-153347134D01*
X112515146Y-153352200D01*
X112416342Y-153355130D01*
X112280597Y-153356236D01*
X112248459Y-153356266D01*
X111872656Y-153356266D01*
X111606934Y-153092906D01*
X111606934Y-152561191D01*
X111729755Y-152439652D01*
X111852576Y-152318112D01*
X112243046Y-152323898D01*
X112633517Y-152329683D01*
X112639219Y-152816058D01*
X112640417Y-152956396D01*
X112640650Y-153083228D01*
X113109767Y-153083228D01*
X113109767Y-151853433D01*
X111616827Y-151853433D01*
X111141267Y-152330345D01*
X111141267Y-152330345D01*
G37*
X111141267Y-152330345D02*
X111141267Y-153325207D01*
X111379723Y-153562986D01*
X111618180Y-153800766D01*
X113109767Y-153800766D01*
X113109767Y-153083228D01*
X112640650Y-153083228D01*
X112639977Y-153190199D01*
X112638454Y-153270955D01*
X112636138Y-153319142D01*
X112634591Y-153329350D01*
X112619802Y-153339621D01*
X112581476Y-153347134D01*
X112515146Y-153352200D01*
X112416342Y-153355130D01*
X112280597Y-153356236D01*
X112248459Y-153356266D01*
X111872656Y-153356266D01*
X111606934Y-153092906D01*
X111606934Y-152561191D01*
X111729755Y-152439652D01*
X111852576Y-152318112D01*
X112243046Y-152323898D01*
X112633517Y-152329683D01*
X112639219Y-152816058D01*
X112640417Y-152956396D01*
X112640650Y-153083228D01*
X113109767Y-153083228D01*
X113109767Y-151853433D01*
X111616827Y-151853433D01*
X111141267Y-152330345D01*
D12*
X64600000Y-117900000D03*
X65870000Y-117900000D03*
X65870000Y-122980000D03*
X65870000Y-120440000D03*
X65870000Y-115360000D03*
X65870000Y-112820000D03*
X65870000Y-110280000D03*
D13*
X63400000Y-75850000D03*
X116600000Y-75850000D03*
D14*
X104570000Y-75850000D03*
X75430000Y-75850000D03*
X90508000Y-153904000D03*
D12*
X114130000Y-100120000D03*
X114130000Y-105200000D03*
X114130000Y-102660000D03*
X114130000Y-107740000D03*
D10*
G36*
X115180000Y-111330000D02*
X113080000Y-111330000D01*
X113080000Y-109230000D01*
X115180000Y-109230000D01*
X115180000Y-111330000D01*
X115180000Y-111330000D01*
G37*
D12*
X114130000Y-97580000D03*
X114130000Y-95040000D03*
X114130000Y-92500000D03*
X114130000Y-121964000D03*
X114130000Y-127044000D03*
X114130000Y-124504000D03*
X114130000Y-129584000D03*
D10*
G36*
X115180000Y-133174000D02*
X113080000Y-133174000D01*
X113080000Y-131074000D01*
X115180000Y-131074000D01*
X115180000Y-133174000D01*
X115180000Y-133174000D01*
G37*
D12*
X114130000Y-119424000D03*
X114130000Y-116884000D03*
X114130000Y-114344000D03*
X65870000Y-100120000D03*
X65870000Y-105200000D03*
X65870000Y-102660000D03*
X65870000Y-97580000D03*
X65870000Y-95040000D03*
X65870000Y-92500000D03*
D13*
X114130000Y-157250000D03*
D12*
X116670000Y-107740000D03*
X63330000Y-117900000D03*
X63330000Y-115360000D03*
X63330000Y-100120000D03*
X63330000Y-105200000D03*
X63330000Y-102660000D03*
X63330000Y-97580000D03*
X63330000Y-95040000D03*
X63330000Y-92500000D03*
X115400000Y-107740000D03*
X64600000Y-92500000D03*
X64600000Y-95040000D03*
X64600000Y-97580000D03*
X64600000Y-100120000D03*
X64600000Y-102660000D03*
X64600000Y-105200000D03*
D15*
X109300000Y-95500000D03*
X109300000Y-90500000D03*
X94700000Y-95500000D03*
X94700000Y-90500000D03*
D16*
X82500000Y-115000000D03*
X73500000Y-115000000D03*
D17*
X75460000Y-122000000D03*
X78000000Y-122000000D03*
X80540000Y-122000000D03*
D16*
X106500000Y-115000000D03*
X97500000Y-115000000D03*
D17*
X99460000Y-122000000D03*
X102000000Y-122000000D03*
X104540000Y-122000000D03*
D16*
X106500000Y-137000000D03*
X97500000Y-137000000D03*
D17*
X99460000Y-144000000D03*
X102000000Y-144000000D03*
X104540000Y-144000000D03*
D16*
X82500000Y-137000000D03*
X73500000Y-137000000D03*
D17*
X75460000Y-144000000D03*
X78000000Y-144000000D03*
X80540000Y-144000000D03*
D12*
X64600000Y-115360000D03*
D18*
X72920000Y-90500000D03*
X83080000Y-90500000D03*
X72920000Y-95500000D03*
X83080000Y-95500000D03*
D14*
X93048000Y-153904000D03*
D19*
X84920000Y-156480000D03*
X84920000Y-149480000D03*
M02*
