G04 #@! TF.FileFunction,Soldermask,Bot*
%FSLAX46Y46*%
G04 Gerber Fmt 4.6, Leading zero omitted, Abs format (unit mm)*
G04 Created by KiCad (PCBNEW 4.1.0-alpha+201607190716+6983~46~ubuntu14.04.1-product) date Fri Sep 16 20:27:53 2016*
%MOMM*%
%LPD*%
G01*
G04 APERTURE LIST*
%ADD10C,0.100000*%
%ADD11C,0.010000*%
%ADD12R,2.100000X2.100000*%
%ADD13R,6.242000X6.242000*%
%ADD14C,1.400000*%
%ADD15C,1.900000*%
%ADD16R,2.900000X2.900000*%
%ADD17R,3.600000X3.600000*%
%ADD18C,2.076400*%
%ADD19R,4.400000X1.600000*%
G04 APERTURE END LIST*
D10*
D11*
G36*
X86358666Y-78897500D02*
X86760833Y-78897500D01*
X86886066Y-78898285D01*
X86995392Y-78900470D01*
X87082308Y-78903803D01*
X87140315Y-78908028D01*
X87162912Y-78912891D01*
X87163000Y-78913222D01*
X87148550Y-78931308D01*
X87107445Y-78975769D01*
X87043054Y-79043135D01*
X86958746Y-79129935D01*
X86857891Y-79232700D01*
X86743856Y-79347960D01*
X86628733Y-79463520D01*
X86094466Y-79998095D01*
X86464464Y-80368547D01*
X86566696Y-80470482D01*
X86658977Y-80561687D01*
X86737141Y-80638112D01*
X86797024Y-80695705D01*
X86834459Y-80730415D01*
X86845364Y-80739000D01*
X86861854Y-80724438D01*
X86905645Y-80682460D01*
X86974148Y-80615626D01*
X87064772Y-80526496D01*
X87174928Y-80417630D01*
X87302026Y-80291589D01*
X87443476Y-80150932D01*
X87596687Y-79998221D01*
X87759070Y-79836014D01*
X87776833Y-79818250D01*
X88697401Y-78897500D01*
X89618333Y-78897500D01*
X89618333Y-80527333D01*
X90676666Y-80527333D01*
X90676666Y-77267666D01*
X89618333Y-77267666D01*
X89618333Y-77839166D01*
X87395833Y-77839166D01*
X87395833Y-77267666D01*
X89618333Y-77267666D01*
X90676666Y-77267666D01*
X90676666Y-76209333D01*
X86358666Y-76209333D01*
X86358666Y-78897500D01*
X86358666Y-78897500D01*
G37*
X86358666Y-78897500D02*
X86760833Y-78897500D01*
X86886066Y-78898285D01*
X86995392Y-78900470D01*
X87082308Y-78903803D01*
X87140315Y-78908028D01*
X87162912Y-78912891D01*
X87163000Y-78913222D01*
X87148550Y-78931308D01*
X87107445Y-78975769D01*
X87043054Y-79043135D01*
X86958746Y-79129935D01*
X86857891Y-79232700D01*
X86743856Y-79347960D01*
X86628733Y-79463520D01*
X86094466Y-79998095D01*
X86464464Y-80368547D01*
X86566696Y-80470482D01*
X86658977Y-80561687D01*
X86737141Y-80638112D01*
X86797024Y-80695705D01*
X86834459Y-80730415D01*
X86845364Y-80739000D01*
X86861854Y-80724438D01*
X86905645Y-80682460D01*
X86974148Y-80615626D01*
X87064772Y-80526496D01*
X87174928Y-80417630D01*
X87302026Y-80291589D01*
X87443476Y-80150932D01*
X87596687Y-79998221D01*
X87759070Y-79836014D01*
X87776833Y-79818250D01*
X88697401Y-78897500D01*
X89618333Y-78897500D01*
X89618333Y-80527333D01*
X90676666Y-80527333D01*
X90676666Y-77267666D01*
X89618333Y-77267666D01*
X89618333Y-77839166D01*
X87395833Y-77839166D01*
X87395833Y-77267666D01*
X89618333Y-77267666D01*
X90676666Y-77267666D01*
X90676666Y-76209333D01*
X86358666Y-76209333D01*
X86358666Y-78897500D01*
G36*
X108720735Y-78367818D02*
X110879143Y-80526304D01*
X111625830Y-80532110D01*
X111798857Y-80533166D01*
X111957705Y-80533577D01*
X112097604Y-80533374D01*
X112213784Y-80532588D01*
X112301474Y-80531250D01*
X112355904Y-80529391D01*
X112372509Y-80527294D01*
X112357811Y-80511357D01*
X112314834Y-80467184D01*
X112245249Y-80396453D01*
X112150729Y-80300845D01*
X112032945Y-80182040D01*
X111893569Y-80041718D01*
X111734273Y-79881558D01*
X111556729Y-79703242D01*
X111362609Y-79508449D01*
X111153584Y-79298859D01*
X110931327Y-79076152D01*
X110697509Y-78842008D01*
X110453802Y-78598107D01*
X110218753Y-78363002D01*
X108065006Y-76209333D01*
X106562328Y-76209333D01*
X108720735Y-78367818D01*
X108720735Y-78367818D01*
G37*
X108720735Y-78367818D02*
X110879143Y-80526304D01*
X111625830Y-80532110D01*
X111798857Y-80533166D01*
X111957705Y-80533577D01*
X112097604Y-80533374D01*
X112213784Y-80532588D01*
X112301474Y-80531250D01*
X112355904Y-80529391D01*
X112372509Y-80527294D01*
X112357811Y-80511357D01*
X112314834Y-80467184D01*
X112245249Y-80396453D01*
X112150729Y-80300845D01*
X112032945Y-80182040D01*
X111893569Y-80041718D01*
X111734273Y-79881558D01*
X111556729Y-79703242D01*
X111362609Y-79508449D01*
X111153584Y-79298859D01*
X110931327Y-79076152D01*
X110697509Y-78842008D01*
X110453802Y-78598107D01*
X110218753Y-78363002D01*
X108065006Y-76209333D01*
X106562328Y-76209333D01*
X108720735Y-78367818D01*
G36*
X105980166Y-77839166D02*
X105101875Y-77839166D01*
X106445319Y-79182735D01*
X107788762Y-80526304D01*
X108535473Y-80532110D01*
X108708503Y-80533165D01*
X108867354Y-80533575D01*
X109007256Y-80533371D01*
X109123440Y-80532584D01*
X109211133Y-80531244D01*
X109265566Y-80529382D01*
X109282176Y-80527282D01*
X109267514Y-80511208D01*
X109224807Y-80467144D01*
X109155963Y-80397013D01*
X109062892Y-80302737D01*
X108947505Y-80186238D01*
X108811712Y-80049438D01*
X108657422Y-79894259D01*
X108486546Y-79722624D01*
X108300994Y-79536455D01*
X108102676Y-79337674D01*
X107893501Y-79128203D01*
X107675380Y-78909964D01*
X107631166Y-78865750D01*
X105980166Y-77214851D01*
X105980166Y-77839166D01*
X105980166Y-77839166D01*
G37*
X105980166Y-77839166D02*
X105101875Y-77839166D01*
X106445319Y-79182735D01*
X107788762Y-80526304D01*
X108535473Y-80532110D01*
X108708503Y-80533165D01*
X108867354Y-80533575D01*
X109007256Y-80533371D01*
X109123440Y-80532584D01*
X109211133Y-80531244D01*
X109265566Y-80529382D01*
X109282176Y-80527282D01*
X109267514Y-80511208D01*
X109224807Y-80467144D01*
X109155963Y-80397013D01*
X109062892Y-80302737D01*
X108947505Y-80186238D01*
X108811712Y-80049438D01*
X108657422Y-79894259D01*
X108486546Y-79722624D01*
X108300994Y-79536455D01*
X108102676Y-79337674D01*
X107893501Y-79128203D01*
X107675380Y-78909964D01*
X107631166Y-78865750D01*
X105980166Y-77214851D01*
X105980166Y-77839166D01*
G36*
X104351080Y-79408964D02*
X104350333Y-80163846D01*
X104709629Y-80516750D01*
X105461327Y-80527333D01*
X105634949Y-80529777D01*
X105794408Y-80532022D01*
X105934950Y-80534001D01*
X106051821Y-80535647D01*
X106140266Y-80536892D01*
X106195531Y-80537670D01*
X106212985Y-80537916D01*
X106198521Y-80523283D01*
X106156824Y-80481084D01*
X106090412Y-80413867D01*
X106001802Y-80324181D01*
X105893513Y-80214576D01*
X105768064Y-80087600D01*
X105627972Y-79945801D01*
X105475756Y-79791729D01*
X105313935Y-79627933D01*
X105282386Y-79596000D01*
X104351827Y-78654083D01*
X104351080Y-79408964D01*
X104351080Y-79408964D01*
G37*
X104351080Y-79408964D02*
X104350333Y-80163846D01*
X104709629Y-80516750D01*
X105461327Y-80527333D01*
X105634949Y-80529777D01*
X105794408Y-80532022D01*
X105934950Y-80534001D01*
X106051821Y-80535647D01*
X106140266Y-80536892D01*
X106195531Y-80537670D01*
X106212985Y-80537916D01*
X106198521Y-80523283D01*
X106156824Y-80481084D01*
X106090412Y-80413867D01*
X106001802Y-80324181D01*
X105893513Y-80214576D01*
X105768064Y-80087600D01*
X105627972Y-79945801D01*
X105475756Y-79791729D01*
X105313935Y-79627933D01*
X105282386Y-79596000D01*
X104351827Y-78654083D01*
X104351080Y-79408964D01*
G36*
X103233791Y-76209317D02*
X101069500Y-76209333D01*
X101069500Y-77267666D01*
X102699333Y-77267666D01*
X102699333Y-80527333D01*
X103757666Y-80527333D01*
X103757666Y-77267666D01*
X105386083Y-77267666D01*
X105392083Y-76738484D01*
X105398083Y-76209301D01*
X103233791Y-76209317D01*
X103233791Y-76209317D01*
G37*
X103233791Y-76209317D02*
X101069500Y-76209333D01*
X101069500Y-77267666D01*
X102699333Y-77267666D01*
X102699333Y-80527333D01*
X103757666Y-80527333D01*
X103757666Y-77267666D01*
X105386083Y-77267666D01*
X105392083Y-76738484D01*
X105398083Y-76209301D01*
X103233791Y-76209317D01*
G36*
X99439666Y-77839166D02*
X97217166Y-77839166D01*
X97217166Y-76209333D01*
X96158833Y-76209333D01*
X96158833Y-80527333D01*
X97217166Y-80527333D01*
X97217166Y-78897122D01*
X98323125Y-78902602D01*
X99429083Y-78908083D01*
X99434626Y-79717708D01*
X99440170Y-80527333D01*
X100498000Y-80527333D01*
X100498000Y-76209333D01*
X99439666Y-76209333D01*
X99439666Y-77839166D01*
X99439666Y-77839166D01*
G37*
X99439666Y-77839166D02*
X97217166Y-77839166D01*
X97217166Y-76209333D01*
X96158833Y-76209333D01*
X96158833Y-80527333D01*
X97217166Y-80527333D01*
X97217166Y-78897122D01*
X98323125Y-78902602D01*
X99429083Y-78908083D01*
X99434626Y-79717708D01*
X99440170Y-80527333D01*
X100498000Y-80527333D01*
X100498000Y-76209333D01*
X99439666Y-76209333D01*
X99439666Y-77839166D01*
G36*
X91248166Y-77267666D02*
X94529000Y-77267666D01*
X94529000Y-77839166D01*
X91248166Y-77839166D01*
X91248166Y-78897500D01*
X94530194Y-78897500D01*
X94524305Y-79188541D01*
X94518416Y-79479583D01*
X91248166Y-79490427D01*
X91248166Y-80527333D01*
X95587333Y-80527333D01*
X95587333Y-76209333D01*
X91248166Y-76209333D01*
X91248166Y-77267666D01*
X91248166Y-77267666D01*
G37*
X91248166Y-77267666D02*
X94529000Y-77267666D01*
X94529000Y-77839166D01*
X91248166Y-77839166D01*
X91248166Y-78897500D01*
X94530194Y-78897500D01*
X94524305Y-79188541D01*
X94518416Y-79479583D01*
X91248166Y-79490427D01*
X91248166Y-80527333D01*
X95587333Y-80527333D01*
X95587333Y-76209333D01*
X91248166Y-76209333D01*
X91248166Y-77267666D01*
G36*
X81448000Y-77267666D02*
X84707666Y-77267666D01*
X84707666Y-77839166D01*
X81448000Y-77839166D01*
X81448000Y-78897500D01*
X84707666Y-78897500D01*
X84707666Y-79490166D01*
X81448000Y-79490166D01*
X81448000Y-80527333D01*
X85766000Y-80527333D01*
X85766000Y-76209333D01*
X81448000Y-76209333D01*
X81448000Y-77267666D01*
X81448000Y-77267666D01*
G37*
X81448000Y-77267666D02*
X84707666Y-77267666D01*
X84707666Y-77839166D01*
X81448000Y-77839166D01*
X81448000Y-78897500D01*
X84707666Y-78897500D01*
X84707666Y-79490166D01*
X81448000Y-79490166D01*
X81448000Y-80527333D01*
X85766000Y-80527333D01*
X85766000Y-76209333D01*
X81448000Y-76209333D01*
X81448000Y-77267666D01*
G36*
X76537333Y-80527333D02*
X77595666Y-80527333D01*
X77595666Y-77267666D01*
X78167166Y-77267666D01*
X78167166Y-80527333D01*
X79225500Y-80527333D01*
X79225500Y-77267666D01*
X79818166Y-77267666D01*
X79818166Y-80527333D01*
X80855333Y-80527333D01*
X80855333Y-76209333D01*
X76537333Y-76209333D01*
X76537333Y-80527333D01*
X76537333Y-80527333D01*
G37*
X76537333Y-80527333D02*
X77595666Y-80527333D01*
X77595666Y-77267666D01*
X78167166Y-77267666D01*
X78167166Y-80527333D01*
X79225500Y-80527333D01*
X79225500Y-77267666D01*
X79818166Y-77267666D01*
X79818166Y-80527333D01*
X80855333Y-80527333D01*
X80855333Y-76209333D01*
X76537333Y-76209333D01*
X76537333Y-80527333D01*
G36*
X74907500Y-80527333D02*
X75965833Y-80527333D01*
X75965833Y-76209333D01*
X74907500Y-76209333D01*
X74907500Y-80527333D01*
X74907500Y-80527333D01*
G37*
X74907500Y-80527333D02*
X75965833Y-80527333D01*
X75965833Y-76209333D01*
X74907500Y-76209333D01*
X74907500Y-80527333D01*
G36*
X69996833Y-80527333D02*
X71055166Y-80527333D01*
X71055166Y-77267666D01*
X73256500Y-77267666D01*
X73256500Y-80527333D01*
X74314833Y-80527333D01*
X74314833Y-76209333D01*
X69996833Y-76209333D01*
X69996833Y-80527333D01*
X69996833Y-80527333D01*
G37*
X69996833Y-80527333D02*
X71055166Y-80527333D01*
X71055166Y-77267666D01*
X73256500Y-77267666D01*
X73256500Y-80527333D01*
X74314833Y-80527333D01*
X74314833Y-76209333D01*
X69996833Y-76209333D01*
X69996833Y-80527333D01*
G36*
X68367000Y-80527333D02*
X69425333Y-80527333D01*
X69425333Y-79490166D01*
X68367000Y-79490166D01*
X68367000Y-80527333D01*
X68367000Y-80527333D01*
G37*
X68367000Y-80527333D02*
X69425333Y-80527333D01*
X69425333Y-79490166D01*
X68367000Y-79490166D01*
X68367000Y-80527333D01*
G36*
X110389676Y-76214362D02*
X109644211Y-76219916D01*
X111050529Y-77627500D01*
X112456846Y-79035083D01*
X112456912Y-78283666D01*
X112456977Y-77532250D01*
X111796059Y-76870529D01*
X111135141Y-76208809D01*
X110389676Y-76214362D01*
X110389676Y-76214362D01*
G37*
X110389676Y-76214362D02*
X109644211Y-76219916D01*
X111050529Y-77627500D01*
X112456846Y-79035083D01*
X112456912Y-78283666D01*
X112456977Y-77532250D01*
X111796059Y-76870529D01*
X111135141Y-76208809D01*
X110389676Y-76214362D01*
G36*
X109980666Y-73468250D02*
X112150172Y-75637833D01*
X112457166Y-75637833D01*
X112457166Y-74441810D01*
X110885489Y-72870238D01*
X109313811Y-71298666D01*
X107811161Y-71298666D01*
X109980666Y-73468250D01*
X109980666Y-73468250D01*
G37*
X109980666Y-73468250D02*
X112150172Y-75637833D01*
X112457166Y-75637833D01*
X112457166Y-74441810D01*
X110885489Y-72870238D01*
X109313811Y-71298666D01*
X107811161Y-71298666D01*
X109980666Y-73468250D01*
G36*
X106911500Y-73468250D02*
X109081006Y-75637833D01*
X109816586Y-75637833D01*
X109988279Y-75637607D01*
X110145757Y-75636965D01*
X110284214Y-75635960D01*
X110398842Y-75634646D01*
X110484834Y-75633075D01*
X110537384Y-75631302D01*
X110552166Y-75629676D01*
X110537504Y-75613997D01*
X110494626Y-75570012D01*
X110425201Y-75499400D01*
X110330894Y-75403842D01*
X110213372Y-75285019D01*
X110074303Y-75144610D01*
X109915352Y-74984295D01*
X109738187Y-74805756D01*
X109544474Y-74610672D01*
X109335880Y-74400724D01*
X109114071Y-74177592D01*
X108880714Y-73942956D01*
X108637476Y-73698497D01*
X108400161Y-73460092D01*
X106248155Y-71298666D01*
X104741994Y-71298666D01*
X106911500Y-73468250D01*
X106911500Y-73468250D01*
G37*
X106911500Y-73468250D02*
X109081006Y-75637833D01*
X109816586Y-75637833D01*
X109988279Y-75637607D01*
X110145757Y-75636965D01*
X110284214Y-75635960D01*
X110398842Y-75634646D01*
X110484834Y-75633075D01*
X110537384Y-75631302D01*
X110552166Y-75629676D01*
X110537504Y-75613997D01*
X110494626Y-75570012D01*
X110425201Y-75499400D01*
X110330894Y-75403842D01*
X110213372Y-75285019D01*
X110074303Y-75144610D01*
X109915352Y-74984295D01*
X109738187Y-74805756D01*
X109544474Y-74610672D01*
X109335880Y-74400724D01*
X109114071Y-74177592D01*
X108880714Y-73942956D01*
X108637476Y-73698497D01*
X108400161Y-73460092D01*
X106248155Y-71298666D01*
X104741994Y-71298666D01*
X106911500Y-73468250D01*
G36*
X103821166Y-73468250D02*
X105990672Y-75637833D01*
X107493506Y-75637833D01*
X105324000Y-73468250D01*
X103154494Y-71298666D01*
X101651661Y-71298666D01*
X103821166Y-73468250D01*
X103821166Y-73468250D01*
G37*
X103821166Y-73468250D02*
X105990672Y-75637833D01*
X107493506Y-75637833D01*
X105324000Y-73468250D01*
X103154494Y-71298666D01*
X101651661Y-71298666D01*
X103821166Y-73468250D01*
G36*
X99156931Y-71299106D02*
X98999534Y-71300355D01*
X98861188Y-71302310D01*
X98746694Y-71304867D01*
X98660852Y-71307923D01*
X98608461Y-71311374D01*
X98593815Y-71314541D01*
X98608608Y-71331100D01*
X98651678Y-71375891D01*
X98721352Y-71447230D01*
X98815957Y-71543431D01*
X98933820Y-71662809D01*
X99073269Y-71803677D01*
X99232630Y-71964351D01*
X99410231Y-72143146D01*
X99604398Y-72338375D01*
X99813459Y-72548353D01*
X100035741Y-72771395D01*
X100269571Y-73005816D01*
X100513275Y-73249929D01*
X100747523Y-73484383D01*
X102900416Y-75638351D01*
X104403172Y-75637833D01*
X102233666Y-73468250D01*
X100064161Y-71298666D01*
X99328580Y-71298666D01*
X99156931Y-71299106D01*
X99156931Y-71299106D01*
G37*
X99156931Y-71299106D02*
X98999534Y-71300355D01*
X98861188Y-71302310D01*
X98746694Y-71304867D01*
X98660852Y-71307923D01*
X98608461Y-71311374D01*
X98593815Y-71314541D01*
X98608608Y-71331100D01*
X98651678Y-71375891D01*
X98721352Y-71447230D01*
X98815957Y-71543431D01*
X98933820Y-71662809D01*
X99073269Y-71803677D01*
X99232630Y-71964351D01*
X99410231Y-72143146D01*
X99604398Y-72338375D01*
X99813459Y-72548353D01*
X100035741Y-72771395D01*
X100269571Y-73005816D01*
X100513275Y-73249929D01*
X100747523Y-73484383D01*
X102900416Y-75638351D01*
X104403172Y-75637833D01*
X102233666Y-73468250D01*
X100064161Y-71298666D01*
X99328580Y-71298666D01*
X99156931Y-71299106D01*
G36*
X97661666Y-73468250D02*
X99831172Y-75637833D01*
X100566753Y-75637833D01*
X100738445Y-75637392D01*
X100895922Y-75636140D01*
X101034379Y-75634179D01*
X101149007Y-75631615D01*
X101235000Y-75628551D01*
X101287550Y-75625091D01*
X101302333Y-75621919D01*
X101287632Y-75605360D01*
X101244645Y-75560578D01*
X101175043Y-75489256D01*
X101080499Y-75393079D01*
X100962686Y-75273733D01*
X100823277Y-75132902D01*
X100663943Y-74972270D01*
X100486358Y-74793524D01*
X100292193Y-74598347D01*
X100083123Y-74388424D01*
X99860818Y-74165441D01*
X99626951Y-73931082D01*
X99383196Y-73687032D01*
X99148586Y-73452336D01*
X96994839Y-71298666D01*
X95492161Y-71298666D01*
X97661666Y-73468250D01*
X97661666Y-73468250D01*
G37*
X97661666Y-73468250D02*
X99831172Y-75637833D01*
X100566753Y-75637833D01*
X100738445Y-75637392D01*
X100895922Y-75636140D01*
X101034379Y-75634179D01*
X101149007Y-75631615D01*
X101235000Y-75628551D01*
X101287550Y-75625091D01*
X101302333Y-75621919D01*
X101287632Y-75605360D01*
X101244645Y-75560578D01*
X101175043Y-75489256D01*
X101080499Y-75393079D01*
X100962686Y-75273733D01*
X100823277Y-75132902D01*
X100663943Y-74972270D01*
X100486358Y-74793524D01*
X100292193Y-74598347D01*
X100083123Y-74388424D01*
X99860818Y-74165441D01*
X99626951Y-73931082D01*
X99383196Y-73687032D01*
X99148586Y-73452336D01*
X96994839Y-71298666D01*
X95492161Y-71298666D01*
X97661666Y-73468250D01*
G36*
X94571333Y-73468250D02*
X96740839Y-75637833D01*
X98243672Y-75637833D01*
X96074166Y-73468250D01*
X93904661Y-71298666D01*
X92401827Y-71298666D01*
X94571333Y-73468250D01*
X94571333Y-73468250D01*
G37*
X94571333Y-73468250D02*
X96740839Y-75637833D01*
X98243672Y-75637833D01*
X96074166Y-73468250D01*
X93904661Y-71298666D01*
X92401827Y-71298666D01*
X94571333Y-73468250D01*
G36*
X89618333Y-71605666D02*
X91634500Y-73621749D01*
X93650666Y-75637833D01*
X95153339Y-75637833D01*
X92983833Y-73468250D01*
X90814327Y-71298666D01*
X89618333Y-71298666D01*
X89618333Y-71605666D01*
X89618333Y-71605666D01*
G37*
X89618333Y-71605666D02*
X91634500Y-73621749D01*
X93650666Y-75637833D01*
X95153339Y-75637833D01*
X92983833Y-73468250D01*
X90814327Y-71298666D01*
X89618333Y-71298666D01*
X89618333Y-71605666D01*
G36*
X89623317Y-73949712D02*
X89617718Y-74695916D01*
X90089936Y-75166875D01*
X90562155Y-75637833D01*
X92062945Y-75637833D01*
X90845931Y-74420670D01*
X89628916Y-73203507D01*
X89623317Y-73949712D01*
X89623317Y-73949712D01*
G37*
X89623317Y-73949712D02*
X89617718Y-74695916D01*
X90089936Y-75166875D01*
X90562155Y-75637833D01*
X92062945Y-75637833D01*
X90845931Y-74420670D01*
X89628916Y-73203507D01*
X89623317Y-73949712D01*
G36*
X84707666Y-75637833D02*
X89046833Y-75637833D01*
X89046833Y-73453950D01*
X87988500Y-73453950D01*
X87988232Y-73665582D01*
X87987462Y-73864329D01*
X87986242Y-74046185D01*
X87984623Y-74207147D01*
X87982657Y-74343210D01*
X87980396Y-74450369D01*
X87977890Y-74524620D01*
X87975191Y-74561959D01*
X87974200Y-74565577D01*
X87950872Y-74568235D01*
X87889226Y-74570524D01*
X87793278Y-74572413D01*
X87667044Y-74573869D01*
X87514537Y-74574860D01*
X87339774Y-74575354D01*
X87146768Y-74575319D01*
X86939535Y-74574724D01*
X86868242Y-74574396D01*
X85776583Y-74568916D01*
X85776583Y-72367583D01*
X86882541Y-72362102D01*
X87988500Y-72356622D01*
X87988500Y-73453950D01*
X89046833Y-73453950D01*
X89046833Y-71298666D01*
X84707666Y-71298666D01*
X84707666Y-75637833D01*
X84707666Y-75637833D01*
G37*
X84707666Y-75637833D02*
X89046833Y-75637833D01*
X89046833Y-73453950D01*
X87988500Y-73453950D01*
X87988232Y-73665582D01*
X87987462Y-73864329D01*
X87986242Y-74046185D01*
X87984623Y-74207147D01*
X87982657Y-74343210D01*
X87980396Y-74450369D01*
X87977890Y-74524620D01*
X87975191Y-74561959D01*
X87974200Y-74565577D01*
X87950872Y-74568235D01*
X87889226Y-74570524D01*
X87793278Y-74572413D01*
X87667044Y-74573869D01*
X87514537Y-74574860D01*
X87339774Y-74575354D01*
X87146768Y-74575319D01*
X86939535Y-74574724D01*
X86868242Y-74574396D01*
X85776583Y-74568916D01*
X85776583Y-72367583D01*
X86882541Y-72362102D01*
X87988500Y-72356622D01*
X87988500Y-73453950D01*
X89046833Y-73453950D01*
X89046833Y-71298666D01*
X84707666Y-71298666D01*
X84707666Y-75637833D01*
G36*
X79818166Y-73986570D02*
X83067250Y-73997416D01*
X83072790Y-74817625D01*
X83078330Y-75637833D01*
X84136166Y-75637833D01*
X84136166Y-72928877D01*
X83077833Y-72928877D01*
X81971875Y-72923397D01*
X80865916Y-72917916D01*
X80865916Y-72367583D01*
X81971875Y-72362102D01*
X83077833Y-72356622D01*
X83077833Y-72928877D01*
X84136166Y-72928877D01*
X84136166Y-71298666D01*
X79818166Y-71298666D01*
X79818166Y-73986570D01*
X79818166Y-73986570D01*
G37*
X79818166Y-73986570D02*
X83067250Y-73997416D01*
X83072790Y-74817625D01*
X83078330Y-75637833D01*
X84136166Y-75637833D01*
X84136166Y-72928877D01*
X83077833Y-72928877D01*
X81971875Y-72923397D01*
X80865916Y-72917916D01*
X80865916Y-72367583D01*
X81971875Y-72362102D01*
X83077833Y-72356622D01*
X83077833Y-72928877D01*
X84136166Y-72928877D01*
X84136166Y-71298666D01*
X79818166Y-71298666D01*
X79818166Y-73986570D01*
G36*
X74907500Y-72357000D02*
X78167166Y-72357000D01*
X78167166Y-72928500D01*
X74907500Y-72928500D01*
X74907500Y-73986833D01*
X78168361Y-73986833D01*
X78162472Y-74277875D01*
X78156583Y-74568916D01*
X76532041Y-74574339D01*
X74907500Y-74579762D01*
X74907500Y-75637833D01*
X79225500Y-75637833D01*
X79225500Y-71298666D01*
X74907500Y-71298666D01*
X74907500Y-72357000D01*
X74907500Y-72357000D01*
G37*
X74907500Y-72357000D02*
X78167166Y-72357000D01*
X78167166Y-72928500D01*
X74907500Y-72928500D01*
X74907500Y-73986833D01*
X78168361Y-73986833D01*
X78162472Y-74277875D01*
X78156583Y-74568916D01*
X76532041Y-74574339D01*
X74907500Y-74579762D01*
X74907500Y-75637833D01*
X79225500Y-75637833D01*
X79225500Y-71298666D01*
X74907500Y-71298666D01*
X74907500Y-72357000D01*
G36*
X69996833Y-75637833D02*
X71055166Y-75637833D01*
X71055166Y-72357000D01*
X73256239Y-72357000D01*
X73267083Y-75627250D01*
X74314833Y-75638572D01*
X74314833Y-71298666D01*
X69996833Y-71298666D01*
X69996833Y-75637833D01*
X69996833Y-75637833D01*
G37*
X69996833Y-75637833D02*
X71055166Y-75637833D01*
X71055166Y-72357000D01*
X73256239Y-72357000D01*
X73267083Y-75627250D01*
X74314833Y-75638572D01*
X74314833Y-71298666D01*
X69996833Y-71298666D01*
X69996833Y-75637833D01*
G36*
X68367000Y-75637833D02*
X68882055Y-75637833D01*
X69025642Y-75637276D01*
X69154974Y-75635711D01*
X69264095Y-75633297D01*
X69347050Y-75630192D01*
X69397881Y-75626556D01*
X69411222Y-75623722D01*
X69415141Y-75599473D01*
X69418641Y-75538849D01*
X69421565Y-75447804D01*
X69423752Y-75332296D01*
X69425045Y-75198280D01*
X69425333Y-75094555D01*
X69425333Y-74579500D01*
X68367000Y-74579500D01*
X68367000Y-75637833D01*
X68367000Y-75637833D01*
G37*
X68367000Y-75637833D02*
X68882055Y-75637833D01*
X69025642Y-75637276D01*
X69154974Y-75635711D01*
X69264095Y-75633297D01*
X69347050Y-75630192D01*
X69397881Y-75626556D01*
X69411222Y-75623722D01*
X69415141Y-75599473D01*
X69418641Y-75538849D01*
X69421565Y-75447804D01*
X69423752Y-75332296D01*
X69425045Y-75198280D01*
X69425333Y-75094555D01*
X69425333Y-74579500D01*
X68367000Y-74579500D01*
X68367000Y-75637833D01*
G36*
X118161583Y-72378166D02*
X119240928Y-73457666D01*
X119380353Y-73457666D01*
X119453655Y-73455668D01*
X119509142Y-73450443D01*
X119533889Y-73443555D01*
X119537582Y-73419489D01*
X119540913Y-73358666D01*
X119543753Y-73266663D01*
X119545968Y-73149055D01*
X119547426Y-73011420D01*
X119547997Y-72859333D01*
X119548000Y-72846651D01*
X119548000Y-72263858D01*
X118586136Y-71298666D01*
X117082239Y-71298666D01*
X118161583Y-72378166D01*
X118161583Y-72378166D01*
G37*
X118161583Y-72378166D02*
X119240928Y-73457666D01*
X119380353Y-73457666D01*
X119453655Y-73455668D01*
X119509142Y-73450443D01*
X119533889Y-73443555D01*
X119537582Y-73419489D01*
X119540913Y-73358666D01*
X119543753Y-73266663D01*
X119545968Y-73149055D01*
X119547426Y-73011420D01*
X119547997Y-72859333D01*
X119548000Y-72846651D01*
X119548000Y-72263858D01*
X118586136Y-71298666D01*
X117082239Y-71298666D01*
X118161583Y-72378166D01*
G36*
X115071250Y-72378166D02*
X116150594Y-73457666D01*
X117653428Y-73457666D01*
X116574083Y-72378166D01*
X115494739Y-71298666D01*
X113991905Y-71298666D01*
X115071250Y-72378166D01*
X115071250Y-72378166D01*
G37*
X115071250Y-72378166D02*
X116150594Y-73457666D01*
X117653428Y-73457666D01*
X116574083Y-72378166D01*
X115494739Y-71298666D01*
X113991905Y-71298666D01*
X115071250Y-72378166D01*
G36*
X111980916Y-72378166D02*
X113060261Y-73457666D01*
X114563094Y-73457666D01*
X113483750Y-72378166D01*
X112404405Y-71298666D01*
X110901572Y-71298666D01*
X111980916Y-72378166D01*
X111980916Y-72378166D01*
G37*
X111980916Y-72378166D02*
X113060261Y-73457666D01*
X114563094Y-73457666D01*
X113483750Y-72378166D01*
X112404405Y-71298666D01*
X110901572Y-71298666D01*
X111980916Y-72378166D01*
G36*
X115374600Y-154068470D02*
X116004309Y-154074076D01*
X116634017Y-154079683D01*
X116639998Y-154545350D01*
X116641237Y-154684208D01*
X116641343Y-154810981D01*
X116640393Y-154918775D01*
X116638463Y-155000700D01*
X116635629Y-155049865D01*
X116634303Y-155058641D01*
X116628995Y-155075569D01*
X116618650Y-155087919D01*
X116597326Y-155096413D01*
X116559079Y-155101773D01*
X116497968Y-155104720D01*
X116408049Y-155105976D01*
X116283381Y-155106262D01*
X116242031Y-155106266D01*
X115861434Y-155106266D01*
X115861434Y-154809933D01*
X116094267Y-154809933D01*
X116094267Y-154344266D01*
X115374600Y-154344266D01*
X115374600Y-155550766D01*
X117099684Y-155550766D01*
X117099684Y-153603433D01*
X115374600Y-153603433D01*
X115374600Y-154068470D01*
X115374600Y-154068470D01*
G37*
X115374600Y-154068470D02*
X116004309Y-154074076D01*
X116634017Y-154079683D01*
X116639998Y-154545350D01*
X116641237Y-154684208D01*
X116641343Y-154810981D01*
X116640393Y-154918775D01*
X116638463Y-155000700D01*
X116635629Y-155049865D01*
X116634303Y-155058641D01*
X116628995Y-155075569D01*
X116618650Y-155087919D01*
X116597326Y-155096413D01*
X116559079Y-155101773D01*
X116497968Y-155104720D01*
X116408049Y-155105976D01*
X116283381Y-155106262D01*
X116242031Y-155106266D01*
X115861434Y-155106266D01*
X115861434Y-154809933D01*
X116094267Y-154809933D01*
X116094267Y-154344266D01*
X115374600Y-154344266D01*
X115374600Y-155550766D01*
X117099684Y-155550766D01*
X117099684Y-153603433D01*
X115374600Y-153603433D01*
X115374600Y-154068470D01*
G36*
X114252767Y-153973850D02*
X114150262Y-154075855D01*
X114057362Y-154167110D01*
X113978298Y-154243556D01*
X113917303Y-154301131D01*
X113878610Y-154335773D01*
X113866702Y-154344266D01*
X113861490Y-154324229D01*
X113856981Y-154268635D01*
X113853470Y-154184256D01*
X113851251Y-154077867D01*
X113850600Y-153973850D01*
X113850600Y-153603433D01*
X113384934Y-153603433D01*
X113384934Y-155550766D01*
X113850600Y-155550766D01*
X113850600Y-155031742D01*
X114226523Y-154656254D01*
X114329906Y-154553589D01*
X114423658Y-154461628D01*
X114503582Y-154384396D01*
X114565479Y-154325919D01*
X114605153Y-154290220D01*
X114618107Y-154280766D01*
X114622030Y-154301070D01*
X114625593Y-154358533D01*
X114628669Y-154447982D01*
X114631131Y-154564242D01*
X114632850Y-154702140D01*
X114633699Y-154856502D01*
X114633767Y-154915766D01*
X114633767Y-155550766D01*
X115099434Y-155550766D01*
X115099434Y-153603433D01*
X114622730Y-153603433D01*
X114252767Y-153973850D01*
X114252767Y-153973850D01*
G37*
X114252767Y-153973850D02*
X114150262Y-154075855D01*
X114057362Y-154167110D01*
X113978298Y-154243556D01*
X113917303Y-154301131D01*
X113878610Y-154335773D01*
X113866702Y-154344266D01*
X113861490Y-154324229D01*
X113856981Y-154268635D01*
X113853470Y-154184256D01*
X113851251Y-154077867D01*
X113850600Y-153973850D01*
X113850600Y-153603433D01*
X113384934Y-153603433D01*
X113384934Y-155550766D01*
X113850600Y-155550766D01*
X113850600Y-155031742D01*
X114226523Y-154656254D01*
X114329906Y-154553589D01*
X114423658Y-154461628D01*
X114503582Y-154384396D01*
X114565479Y-154325919D01*
X114605153Y-154290220D01*
X114618107Y-154280766D01*
X114622030Y-154301070D01*
X114625593Y-154358533D01*
X114628669Y-154447982D01*
X114631131Y-154564242D01*
X114632850Y-154702140D01*
X114633699Y-154856502D01*
X114633767Y-154915766D01*
X114633767Y-155550766D01*
X115099434Y-155550766D01*
X115099434Y-153603433D01*
X114622730Y-153603433D01*
X114252767Y-153973850D01*
G36*
X111141267Y-154080345D02*
X111141267Y-155075207D01*
X111379723Y-155312986D01*
X111618180Y-155550766D01*
X113109767Y-155550766D01*
X113109767Y-154833228D01*
X112640650Y-154833228D01*
X112639977Y-154940199D01*
X112638454Y-155020955D01*
X112636138Y-155069142D01*
X112634591Y-155079350D01*
X112619802Y-155089621D01*
X112581476Y-155097134D01*
X112515146Y-155102200D01*
X112416342Y-155105130D01*
X112280597Y-155106236D01*
X112248459Y-155106266D01*
X111872656Y-155106266D01*
X111606934Y-154842906D01*
X111606934Y-154311191D01*
X111729755Y-154189652D01*
X111852576Y-154068112D01*
X112243046Y-154073898D01*
X112633517Y-154079683D01*
X112639219Y-154566058D01*
X112640417Y-154706396D01*
X112640650Y-154833228D01*
X113109767Y-154833228D01*
X113109767Y-153603433D01*
X111616827Y-153603433D01*
X111141267Y-154080345D01*
X111141267Y-154080345D01*
G37*
X111141267Y-154080345D02*
X111141267Y-155075207D01*
X111379723Y-155312986D01*
X111618180Y-155550766D01*
X113109767Y-155550766D01*
X113109767Y-154833228D01*
X112640650Y-154833228D01*
X112639977Y-154940199D01*
X112638454Y-155020955D01*
X112636138Y-155069142D01*
X112634591Y-155079350D01*
X112619802Y-155089621D01*
X112581476Y-155097134D01*
X112515146Y-155102200D01*
X112416342Y-155105130D01*
X112280597Y-155106236D01*
X112248459Y-155106266D01*
X111872656Y-155106266D01*
X111606934Y-154842906D01*
X111606934Y-154311191D01*
X111729755Y-154189652D01*
X111852576Y-154068112D01*
X112243046Y-154073898D01*
X112633517Y-154079683D01*
X112639219Y-154566058D01*
X112640417Y-154706396D01*
X112640650Y-154833228D01*
X113109767Y-154833228D01*
X113109767Y-153603433D01*
X111616827Y-153603433D01*
X111141267Y-154080345D01*
D12*
X64600000Y-117900000D03*
X65870000Y-117900000D03*
X65870000Y-122980000D03*
X65870000Y-120440000D03*
X65870000Y-115360000D03*
X65870000Y-112820000D03*
X65870000Y-110280000D03*
D13*
X63400000Y-77600000D03*
X116600000Y-77600000D03*
D14*
X104570000Y-77600000D03*
X75430000Y-77600000D03*
X90508000Y-153904000D03*
X93048000Y-153904000D03*
D12*
X114130000Y-100120000D03*
X114130000Y-105200000D03*
X114130000Y-102660000D03*
X114130000Y-107740000D03*
D10*
G36*
X115180000Y-111330000D02*
X113080000Y-111330000D01*
X113080000Y-109230000D01*
X115180000Y-109230000D01*
X115180000Y-111330000D01*
X115180000Y-111330000D01*
G37*
D12*
X114130000Y-97580000D03*
X114130000Y-95040000D03*
X114130000Y-92500000D03*
X114130000Y-121964000D03*
X114130000Y-127044000D03*
X114130000Y-124504000D03*
X114130000Y-129584000D03*
D10*
G36*
X115180000Y-133174000D02*
X113080000Y-133174000D01*
X113080000Y-131074000D01*
X115180000Y-131074000D01*
X115180000Y-133174000D01*
X115180000Y-133174000D01*
G37*
D12*
X114130000Y-119424000D03*
X114130000Y-116884000D03*
X114130000Y-114344000D03*
X65870000Y-100120000D03*
X65870000Y-105200000D03*
X65870000Y-102660000D03*
X65870000Y-97580000D03*
X65870000Y-95040000D03*
X65870000Y-92500000D03*
D13*
X114130000Y-159000000D03*
D12*
X116670000Y-107740000D03*
X63330000Y-117900000D03*
X63330000Y-115360000D03*
X63330000Y-100120000D03*
X63330000Y-105200000D03*
X63330000Y-102660000D03*
X63330000Y-97580000D03*
X63330000Y-95040000D03*
X63330000Y-92500000D03*
X115400000Y-107740000D03*
X64600000Y-92500000D03*
X64600000Y-95040000D03*
X64600000Y-97580000D03*
X64600000Y-100120000D03*
X64600000Y-102660000D03*
X64600000Y-105200000D03*
D15*
X84920000Y-156480000D03*
X84920000Y-149480000D03*
D16*
X109300000Y-95500000D03*
X109300000Y-90500000D03*
X94700000Y-95500000D03*
X94700000Y-90500000D03*
D17*
X82500000Y-115000000D03*
X73500000Y-115000000D03*
D18*
X75460000Y-122000000D03*
X78000000Y-122000000D03*
X80540000Y-122000000D03*
D17*
X106500000Y-115000000D03*
X97500000Y-115000000D03*
D18*
X99460000Y-122000000D03*
X102000000Y-122000000D03*
X104540000Y-122000000D03*
D17*
X106500000Y-137000000D03*
X97500000Y-137000000D03*
D18*
X99460000Y-144000000D03*
X102000000Y-144000000D03*
X104540000Y-144000000D03*
D17*
X82500000Y-137000000D03*
X73500000Y-137000000D03*
D18*
X75460000Y-144000000D03*
X78000000Y-144000000D03*
X80540000Y-144000000D03*
D12*
X64600000Y-115360000D03*
D19*
X72920000Y-90500000D03*
X83080000Y-90500000D03*
X72920000Y-95500000D03*
X83080000Y-95500000D03*
M02*
