<?xml version="1.0" standalone="no"?>
 <!DOCTYPE svg PUBLIC "-//W3C//DTD SVG 1.1//EN" 
 "http://www.w3.org/Graphics/SVG/1.1/DTD/svg11.dtd"> 
<svg xmlns="http://www.w3.org/2000/svg" version="1.1" 
    width="29.7002cm" height="21.0007cm" viewBox="0 0 116930 82680 ">
<title>SVG Picture created as OpenThereminCC-brd.svg date 2016/09/26 14:42:48 </title>
  <desc>Picture generated by PCBNEW </desc>
<g style="fill:#000000; fill-opacity:1;stroke:#000000; stroke-opacity:1;
stroke-linecap:round; stroke-linejoin:round; "
 transform="translate(0 0) scale(1 1)">
</g>
<g style="fill:#000000; fill-opacity:0.0; 
stroke:#000000; stroke-width:-0.000393701; stroke-opacity:1; 
stroke-linecap:round; stroke-linejoin:round;">
</g>
<g style="fill:#000000; fill-opacity:0.0; 
stroke:#000000; stroke-width:39.3701; stroke-opacity:1; 
stroke-linecap:round; stroke-linejoin:round;">
</g>
<g style="fill:#000000; fill-opacity:0.0; 
stroke:#000000; stroke-width:59.0551; stroke-opacity:1; 
stroke-linecap:round; stroke-linejoin:round;">
<rect x="69685.9" y="65357.2" width="42519.7" height="12598.4" rx="0" />
</g>
<g style="fill:#000000; fill-opacity:0.0; 
stroke:#000000; stroke-width:39.3701; stroke-opacity:1; 
stroke-linecap:round; stroke-linejoin:round;">
</g>
<g style="fill:#000000; fill-opacity:0.0; 
stroke:#000000; stroke-width:59.0551; stroke-opacity:1; 
stroke-linecap:round; stroke-linejoin:round;">
<rect x="3937.01" y="3937.01" width="109056" height="74806" rx="0" />
</g>
<g style="fill:#000000; fill-opacity:0.0; 
stroke:#000000; stroke-width:39.3701; stroke-opacity:1; 
stroke-linecap:round; stroke-linejoin:round;">
</g>
<g style="fill:#000000; fill-opacity:0.0; 
stroke:#000000; stroke-width:59.0551; stroke-opacity:1; 
stroke-linecap:round; stroke-linejoin:round;">
<rect x="4724.41" y="4724.41" width="107481" height="73231.2" rx="0" />
</g>
<g style="fill:#000000; fill-opacity:0.0; 
stroke:#000000; stroke-width:39.3701; stroke-opacity:1; 
stroke-linecap:round; stroke-linejoin:round;">
</g>
<g style="fill:#000000; fill-opacity:0.0; 
stroke:#000000; stroke-width:59.0551; stroke-opacity:1; 
stroke-linecap:round; stroke-linejoin:round;">
<path d="M23622 4724
L23622 3937
" />
</g>
<g style="fill:#000000; fill-opacity:0.0; 
stroke:#000000; stroke-width:39.3701; stroke-opacity:1; 
stroke-linecap:round; stroke-linejoin:round;">
</g>
<g style="fill:#000000; fill-opacity:0.0; 
stroke:#000000; stroke-width:59.0551; stroke-opacity:1; 
stroke-linecap:round; stroke-linejoin:round;">
<path d="M43307 4724
L43307 3937
" />
</g>
<g style="fill:#000000; fill-opacity:0.0; 
stroke:#000000; stroke-width:39.3701; stroke-opacity:1; 
stroke-linecap:round; stroke-linejoin:round;">
</g>
<g style="fill:#000000; fill-opacity:0.0; 
stroke:#000000; stroke-width:59.0551; stroke-opacity:1; 
stroke-linecap:round; stroke-linejoin:round;">
<path d="M62992 4724
L62992 3937
" />
</g>
<g style="fill:#000000; fill-opacity:0.0; 
stroke:#000000; stroke-width:39.3701; stroke-opacity:1; 
stroke-linecap:round; stroke-linejoin:round;">
</g>
<g style="fill:#000000; fill-opacity:0.0; 
stroke:#000000; stroke-width:59.0551; stroke-opacity:1; 
stroke-linecap:round; stroke-linejoin:round;">
<path d="M82677 4724
L82677 3937
" />
</g>
<g style="fill:#000000; fill-opacity:0.0; 
stroke:#000000; stroke-width:39.3701; stroke-opacity:1; 
stroke-linecap:round; stroke-linejoin:round;">
</g>
<g style="fill:#000000; fill-opacity:0.0; 
stroke:#000000; stroke-width:59.0551; stroke-opacity:1; 
stroke-linecap:round; stroke-linejoin:round;">
<path d="M102362 4724
L102362 3937
" />
</g>
<g style="fill:#000000; fill-opacity:0.0; 
stroke:#000000; stroke-width:39.3701; stroke-opacity:1; 
stroke-linecap:round; stroke-linejoin:round;">
</g>
<g style="fill:#000000; fill-opacity:0.0; 
stroke:#000000; stroke-width:59.0551; stroke-opacity:1; 
stroke-linecap:round; stroke-linejoin:round;">
<path d="M14199 4562
L13906 4562
" />
<path d="M14052 4562
L14052 4050
L14004 4123
L13955 4172
L13906 4196
" />
</g>
<g style="fill:#000000; fill-opacity:0.0; 
stroke:#000000; stroke-width:39.3701; stroke-opacity:1; 
stroke-linecap:round; stroke-linejoin:round;">
</g>
<g style="fill:#000000; fill-opacity:0.0; 
stroke:#000000; stroke-width:59.0551; stroke-opacity:1; 
stroke-linecap:round; stroke-linejoin:round;">
<path d="M33591 4099
L33615 4074
L33664 4050
L33786 4050
L33835 4074
L33859 4099
L33884 4147
L33884 4196
L33859 4269
L33567 4562
L33884 4562
" />
</g>
<g style="fill:#000000; fill-opacity:0.0; 
stroke:#000000; stroke-width:39.3701; stroke-opacity:1; 
stroke-linecap:round; stroke-linejoin:round;">
</g>
<g style="fill:#000000; fill-opacity:0.0; 
stroke:#000000; stroke-width:59.0551; stroke-opacity:1; 
stroke-linecap:round; stroke-linejoin:round;">
<path d="M53252 4050
L53569 4050
L53398 4245
L53471 4245
L53520 4269
L53544 4294
L53569 4342
L53569 4464
L53544 4513
L53520 4537
L53471 4562
L53325 4562
L53276 4537
L53252 4513
" />
</g>
<g style="fill:#000000; fill-opacity:0.0; 
stroke:#000000; stroke-width:39.3701; stroke-opacity:1; 
stroke-linecap:round; stroke-linejoin:round;">
</g>
<g style="fill:#000000; fill-opacity:0.0; 
stroke:#000000; stroke-width:59.0551; stroke-opacity:1; 
stroke-linecap:round; stroke-linejoin:round;">
<path d="M73205 4221
L73205 4562
" />
<path d="M73083 4026
L72961 4391
L73278 4391
" />
</g>
<g style="fill:#000000; fill-opacity:0.0; 
stroke:#000000; stroke-width:39.3701; stroke-opacity:1; 
stroke-linecap:round; stroke-linejoin:round;">
</g>
<g style="fill:#000000; fill-opacity:0.0; 
stroke:#000000; stroke-width:59.0551; stroke-opacity:1; 
stroke-linecap:round; stroke-linejoin:round;">
<path d="M92914 4050
L92671 4050
L92646 4294
L92671 4269
L92719 4245
L92841 4245
L92890 4269
L92914 4294
L92939 4342
L92939 4464
L92914 4513
L92890 4537
L92841 4562
L92719 4562
L92671 4537
L92646 4513
" />
</g>
<g style="fill:#000000; fill-opacity:0.0; 
stroke:#000000; stroke-width:39.3701; stroke-opacity:1; 
stroke-linecap:round; stroke-linejoin:round;">
</g>
<g style="fill:#000000; fill-opacity:0.0; 
stroke:#000000; stroke-width:59.0551; stroke-opacity:1; 
stroke-linecap:round; stroke-linejoin:round;">
<path d="M112575 4050
L112477 4050
L112429 4074
L112404 4099
L112356 4172
L112331 4269
L112331 4464
L112356 4513
L112380 4537
L112429 4562
L112526 4562
L112575 4537
L112599 4513
L112624 4464
L112624 4342
L112599 4294
L112575 4269
L112526 4245
L112429 4245
L112380 4269
L112356 4294
L112331 4342
" />
</g>
<g style="fill:#000000; fill-opacity:0.0; 
stroke:#000000; stroke-width:39.3701; stroke-opacity:1; 
stroke-linecap:round; stroke-linejoin:round;">
</g>
<g style="fill:#000000; fill-opacity:0.0; 
stroke:#000000; stroke-width:59.0551; stroke-opacity:1; 
stroke-linecap:round; stroke-linejoin:round;">
<path d="M23622 77955
L23622 78742
" />
</g>
<g style="fill:#000000; fill-opacity:0.0; 
stroke:#000000; stroke-width:39.3701; stroke-opacity:1; 
stroke-linecap:round; stroke-linejoin:round;">
</g>
<g style="fill:#000000; fill-opacity:0.0; 
stroke:#000000; stroke-width:59.0551; stroke-opacity:1; 
stroke-linecap:round; stroke-linejoin:round;">
<path d="M43307 77955
L43307 78742
" />
</g>
<g style="fill:#000000; fill-opacity:0.0; 
stroke:#000000; stroke-width:39.3701; stroke-opacity:1; 
stroke-linecap:round; stroke-linejoin:round;">
</g>
<g style="fill:#000000; fill-opacity:0.0; 
stroke:#000000; stroke-width:59.0551; stroke-opacity:1; 
stroke-linecap:round; stroke-linejoin:round;">
<path d="M62992 77955
L62992 78742
" />
</g>
<g style="fill:#000000; fill-opacity:0.0; 
stroke:#000000; stroke-width:39.3701; stroke-opacity:1; 
stroke-linecap:round; stroke-linejoin:round;">
</g>
<g style="fill:#000000; fill-opacity:0.0; 
stroke:#000000; stroke-width:59.0551; stroke-opacity:1; 
stroke-linecap:round; stroke-linejoin:round;">
<path d="M82677 77955
L82677 78742
" />
</g>
<g style="fill:#000000; fill-opacity:0.0; 
stroke:#000000; stroke-width:39.3701; stroke-opacity:1; 
stroke-linecap:round; stroke-linejoin:round;">
</g>
<g style="fill:#000000; fill-opacity:0.0; 
stroke:#000000; stroke-width:59.0551; stroke-opacity:1; 
stroke-linecap:round; stroke-linejoin:round;">
<path d="M102362 77955
L102362 78742
" />
</g>
<g style="fill:#000000; fill-opacity:0.0; 
stroke:#000000; stroke-width:39.3701; stroke-opacity:1; 
stroke-linecap:round; stroke-linejoin:round;">
</g>
<g style="fill:#000000; fill-opacity:0.0; 
stroke:#000000; stroke-width:59.0551; stroke-opacity:1; 
stroke-linecap:round; stroke-linejoin:round;">
<path d="M14199 78580
L13906 78580
" />
<path d="M14052 78580
L14052 78069
L14004 78142
L13955 78190
L13906 78215
" />
</g>
<g style="fill:#000000; fill-opacity:0.0; 
stroke:#000000; stroke-width:39.3701; stroke-opacity:1; 
stroke-linecap:round; stroke-linejoin:round;">
</g>
<g style="fill:#000000; fill-opacity:0.0; 
stroke:#000000; stroke-width:59.0551; stroke-opacity:1; 
stroke-linecap:round; stroke-linejoin:round;">
<path d="M33591 78117
L33615 78093
L33664 78069
L33786 78069
L33835 78093
L33859 78117
L33884 78166
L33884 78215
L33859 78288
L33567 78580
L33884 78580
" />
</g>
<g style="fill:#000000; fill-opacity:0.0; 
stroke:#000000; stroke-width:39.3701; stroke-opacity:1; 
stroke-linecap:round; stroke-linejoin:round;">
</g>
<g style="fill:#000000; fill-opacity:0.0; 
stroke:#000000; stroke-width:59.0551; stroke-opacity:1; 
stroke-linecap:round; stroke-linejoin:round;">
<path d="M53252 78069
L53569 78069
L53398 78263
L53471 78263
L53520 78288
L53544 78312
L53569 78361
L53569 78483
L53544 78532
L53520 78556
L53471 78580
L53325 78580
L53276 78556
L53252 78532
" />
</g>
<g style="fill:#000000; fill-opacity:0.0; 
stroke:#000000; stroke-width:39.3701; stroke-opacity:1; 
stroke-linecap:round; stroke-linejoin:round;">
</g>
<g style="fill:#000000; fill-opacity:0.0; 
stroke:#000000; stroke-width:59.0551; stroke-opacity:1; 
stroke-linecap:round; stroke-linejoin:round;">
<path d="M73205 78239
L73205 78580
" />
<path d="M73083 78044
L72961 78410
L73278 78410
" />
</g>
<g style="fill:#000000; fill-opacity:0.0; 
stroke:#000000; stroke-width:39.3701; stroke-opacity:1; 
stroke-linecap:round; stroke-linejoin:round;">
</g>
<g style="fill:#000000; fill-opacity:0.0; 
stroke:#000000; stroke-width:59.0551; stroke-opacity:1; 
stroke-linecap:round; stroke-linejoin:round;">
<path d="M92914 78069
L92671 78069
L92646 78312
L92671 78288
L92719 78263
L92841 78263
L92890 78288
L92914 78312
L92939 78361
L92939 78483
L92914 78532
L92890 78556
L92841 78580
L92719 78580
L92671 78556
L92646 78532
" />
</g>
<g style="fill:#000000; fill-opacity:0.0; 
stroke:#000000; stroke-width:39.3701; stroke-opacity:1; 
stroke-linecap:round; stroke-linejoin:round;">
</g>
<g style="fill:#000000; fill-opacity:0.0; 
stroke:#000000; stroke-width:59.0551; stroke-opacity:1; 
stroke-linecap:round; stroke-linejoin:round;">
<path d="M112575 78069
L112477 78069
L112429 78093
L112404 78117
L112356 78190
L112331 78288
L112331 78483
L112356 78532
L112380 78556
L112429 78580
L112526 78580
L112575 78556
L112599 78532
L112624 78483
L112624 78361
L112599 78312
L112575 78288
L112526 78263
L112429 78263
L112380 78288
L112356 78312
L112331 78361
" />
</g>
<g style="fill:#000000; fill-opacity:0.0; 
stroke:#000000; stroke-width:39.3701; stroke-opacity:1; 
stroke-linecap:round; stroke-linejoin:round;">
</g>
<g style="fill:#000000; fill-opacity:0.0; 
stroke:#000000; stroke-width:59.0551; stroke-opacity:1; 
stroke-linecap:round; stroke-linejoin:round;">
<path d="M3937 23622
L4724 23622
" />
</g>
<g style="fill:#000000; fill-opacity:0.0; 
stroke:#000000; stroke-width:39.3701; stroke-opacity:1; 
stroke-linecap:round; stroke-linejoin:round;">
</g>
<g style="fill:#000000; fill-opacity:0.0; 
stroke:#000000; stroke-width:59.0551; stroke-opacity:1; 
stroke-linecap:round; stroke-linejoin:round;">
<path d="M3937 43307
L4724 43307
" />
</g>
<g style="fill:#000000; fill-opacity:0.0; 
stroke:#000000; stroke-width:39.3701; stroke-opacity:1; 
stroke-linecap:round; stroke-linejoin:round;">
</g>
<g style="fill:#000000; fill-opacity:0.0; 
stroke:#000000; stroke-width:59.0551; stroke-opacity:1; 
stroke-linecap:round; stroke-linejoin:round;">
<path d="M3937 62992
L4724 62992
" />
</g>
<g style="fill:#000000; fill-opacity:0.0; 
stroke:#000000; stroke-width:39.3701; stroke-opacity:1; 
stroke-linecap:round; stroke-linejoin:round;">
</g>
<g style="fill:#000000; fill-opacity:0.0; 
stroke:#000000; stroke-width:59.0551; stroke-opacity:1; 
stroke-linecap:round; stroke-linejoin:round;">
<path d="M4208 13864
L4452 13864
" />
<path d="M4160 14011
L4330 13499
L4501 14011
" />
</g>
<g style="fill:#000000; fill-opacity:0.0; 
stroke:#000000; stroke-width:39.3701; stroke-opacity:1; 
stroke-linecap:round; stroke-linejoin:round;">
</g>
<g style="fill:#000000; fill-opacity:0.0; 
stroke:#000000; stroke-width:59.0551; stroke-opacity:1; 
stroke-linecap:round; stroke-linejoin:round;">
<path d="M4367 33428
L4440 33452
L4464 33476
L4489 33525
L4489 33598
L4464 33647
L4440 33671
L4391 33696
L4196 33696
L4196 33184
L4367 33184
L4416 33208
L4440 33233
L4464 33281
L4464 33330
L4440 33379
L4416 33403
L4367 33428
L4196 33428
" />
</g>
<g style="fill:#000000; fill-opacity:0.0; 
stroke:#000000; stroke-width:39.3701; stroke-opacity:1; 
stroke-linecap:round; stroke-linejoin:round;">
</g>
<g style="fill:#000000; fill-opacity:0.0; 
stroke:#000000; stroke-width:59.0551; stroke-opacity:1; 
stroke-linecap:round; stroke-linejoin:round;">
<path d="M4489 53332
L4464 53356
L4391 53381
L4342 53381
L4269 53356
L4221 53308
L4196 53259
L4172 53161
L4172 53088
L4196 52991
L4221 52942
L4269 52893
L4342 52869
L4391 52869
L4464 52893
L4489 52918
" />
</g>
<g style="fill:#000000; fill-opacity:0.0; 
stroke:#000000; stroke-width:39.3701; stroke-opacity:1; 
stroke-linecap:round; stroke-linejoin:round;">
</g>
<g style="fill:#000000; fill-opacity:0.0; 
stroke:#000000; stroke-width:59.0551; stroke-opacity:1; 
stroke-linecap:round; stroke-linejoin:round;">
<path d="M4196 73066
L4196 72554
L4318 72554
L4391 72578
L4440 72627
L4464 72676
L4489 72773
L4489 72846
L4464 72944
L4440 72993
L4391 73041
L4318 73066
L4196 73066
" />
</g>
<g style="fill:#000000; fill-opacity:0.0; 
stroke:#000000; stroke-width:39.3701; stroke-opacity:1; 
stroke-linecap:round; stroke-linejoin:round;">
</g>
<g style="fill:#000000; fill-opacity:0.0; 
stroke:#000000; stroke-width:59.0551; stroke-opacity:1; 
stroke-linecap:round; stroke-linejoin:round;">
<path d="M112992 23622
L112205 23622
" />
</g>
<g style="fill:#000000; fill-opacity:0.0; 
stroke:#000000; stroke-width:39.3701; stroke-opacity:1; 
stroke-linecap:round; stroke-linejoin:round;">
</g>
<g style="fill:#000000; fill-opacity:0.0; 
stroke:#000000; stroke-width:59.0551; stroke-opacity:1; 
stroke-linecap:round; stroke-linejoin:round;">
<path d="M112992 43307
L112205 43307
" />
</g>
<g style="fill:#000000; fill-opacity:0.0; 
stroke:#000000; stroke-width:39.3701; stroke-opacity:1; 
stroke-linecap:round; stroke-linejoin:round;">
</g>
<g style="fill:#000000; fill-opacity:0.0; 
stroke:#000000; stroke-width:59.0551; stroke-opacity:1; 
stroke-linecap:round; stroke-linejoin:round;">
<path d="M112992 62992
L112205 62992
" />
</g>
<g style="fill:#000000; fill-opacity:0.0; 
stroke:#000000; stroke-width:39.3701; stroke-opacity:1; 
stroke-linecap:round; stroke-linejoin:round;">
</g>
<g style="fill:#000000; fill-opacity:0.0; 
stroke:#000000; stroke-width:59.0551; stroke-opacity:1; 
stroke-linecap:round; stroke-linejoin:round;">
<path d="M112477 13864
L112721 13864
" />
<path d="M112428 14011
L112599 13499
L112769 14011
" />
</g>
<g style="fill:#000000; fill-opacity:0.0; 
stroke:#000000; stroke-width:39.3701; stroke-opacity:1; 
stroke-linecap:round; stroke-linejoin:round;">
</g>
<g style="fill:#000000; fill-opacity:0.0; 
stroke:#000000; stroke-width:59.0551; stroke-opacity:1; 
stroke-linecap:round; stroke-linejoin:round;">
<path d="M112635 33428
L112708 33452
L112733 33476
L112757 33525
L112757 33598
L112733 33647
L112708 33671
L112660 33696
L112465 33696
L112465 33184
L112635 33184
L112684 33208
L112708 33233
L112733 33281
L112733 33330
L112708 33379
L112684 33403
L112635 33428
L112465 33428
" />
</g>
<g style="fill:#000000; fill-opacity:0.0; 
stroke:#000000; stroke-width:39.3701; stroke-opacity:1; 
stroke-linecap:round; stroke-linejoin:round;">
</g>
<g style="fill:#000000; fill-opacity:0.0; 
stroke:#000000; stroke-width:59.0551; stroke-opacity:1; 
stroke-linecap:round; stroke-linejoin:round;">
<path d="M112757 53332
L112733 53356
L112660 53381
L112611 53381
L112538 53356
L112489 53308
L112465 53259
L112440 53161
L112440 53088
L112465 52991
L112489 52942
L112538 52893
L112611 52869
L112660 52869
L112733 52893
L112757 52918
" />
</g>
<g style="fill:#000000; fill-opacity:0.0; 
stroke:#000000; stroke-width:39.3701; stroke-opacity:1; 
stroke-linecap:round; stroke-linejoin:round;">
</g>
<g style="fill:#000000; fill-opacity:0.0; 
stroke:#000000; stroke-width:59.0551; stroke-opacity:1; 
stroke-linecap:round; stroke-linejoin:round;">
<path d="M112465 73066
L112465 72554
L112587 72554
L112660 72578
L112708 72627
L112733 72676
L112757 72773
L112757 72846
L112733 72944
L112708 72993
L112660 73041
L112587 73066
L112465 73066
" />
</g>
<g style="fill:#000000; fill-opacity:0.0; 
stroke:#000000; stroke-width:39.3701; stroke-opacity:1; 
stroke-linecap:round; stroke-linejoin:round;">
</g>
<g style="fill:#000000; fill-opacity:0.0; 
stroke:#000000; stroke-width:59.0551; stroke-opacity:1; 
stroke-linecap:round; stroke-linejoin:round;">
<path d="M78911 76293
L78911 75703
L79051 75703
L79136 75731
L79192 75787
L79220 75843
L79248 75956
L79248 76040
L79220 76153
L79192 76209
L79136 76265
L79051 76293
L78911 76293
" />
<path d="M79754 76293
L79754 75984
L79726 75928
L79670 75899
L79557 75899
L79501 75928
" />
<path d="M79754 76265
L79698 76293
L79557 76293
L79501 76265
L79473 76209
L79473 76153
L79501 76096
L79557 76068
L79698 76068
L79754 76040
" />
<path d="M79951 75899
L80176 75899
" />
<path d="M80036 75703
L80036 76209
L80064 76265
L80120 76293
L80176 76293
" />
<path d="M80598 76265
L80542 76293
L80429 76293
L80373 76265
L80345 76209
L80345 75984
L80373 75928
L80429 75899
L80542 75899
L80598 75928
L80626 75984
L80626 76040
L80345 76096
" />
<path d="M80879 76237
L80907 76265
L80879 76293
L80851 76265
L80879 76237
L80879 76293
" />
<path d="M80879 75928
L80907 75956
L80879 75984
L80851 75956
L80879 75928
L80879 75984
" />
</g>
<g style="fill:#000000; fill-opacity:0.0; 
stroke:#000000; stroke-width:39.3701; stroke-opacity:1; 
stroke-linecap:round; stroke-linejoin:round;">
</g>
<g style="fill:#000000; fill-opacity:0.0; 
stroke:#000000; stroke-width:59.0551; stroke-opacity:1; 
stroke-linecap:round; stroke-linejoin:round;">
<path d="M69685 76577
L112205 76577
" />
</g>
<g style="fill:#000000; fill-opacity:0.0; 
stroke:#000000; stroke-width:39.3701; stroke-opacity:1; 
stroke-linecap:round; stroke-linejoin:round;">
</g>
<g style="fill:#000000; fill-opacity:0.0; 
stroke:#000000; stroke-width:59.0551; stroke-opacity:1; 
stroke-linecap:round; stroke-linejoin:round;">
<path d="M70249 77395
L70249 76805
" />
<path d="M70587 77395
L70334 77058
" />
<path d="M70587 76805
L70249 77142
" />
<path d="M70840 77395
L70840 77002
" />
<path d="M70840 76805
L70812 76833
L70840 76861
L70868 76833
L70840 76805
L70840 76861
" />
<path d="M71458 77339
L71430 77367
L71346 77395
L71290 77395
L71205 77367
L71149 77311
L71121 77255
L71093 77142
L71093 77058
L71121 76946
L71149 76889
L71205 76833
L71290 76805
L71346 76805
L71430 76833
L71458 76861
" />
<path d="M71965 77395
L71965 77086
L71937 77030
L71880 77002
L71768 77002
L71712 77030
" />
<path d="M71965 77367
L71908 77395
L71768 77395
L71712 77367
L71683 77311
L71683 77255
L71712 77199
L71768 77171
L71908 77171
L71965 77142
" />
<path d="M72499 77395
L72499 76805
" />
<path d="M72499 77367
L72443 77395
L72330 77395
L72274 77367
L72246 77339
L72218 77283
L72218 77114
L72246 77058
L72274 77030
L72330 77002
L72443 77002
L72499 77030
" />
<path d="M73230 77086
L73427 77086
" />
<path d="M73511 77395
L73230 77395
L73230 76805
L73511 76805
" />
<path d="M73764 77339
L73793 77367
L73764 77395
L73736 77367
L73764 77339
L73764 77395
" />
<path d="M74046 77395
L74046 76805
L74186 76805
L74271 76833
L74327 76889
L74355 76946
L74383 77058
L74383 77142
L74355 77255
L74327 77311
L74271 77367
L74186 77395
L74046 77395
" />
<path d="M74636 77339
L74664 77367
L74636 77395
L74608 77367
L74636 77339
L74636 77395
" />
<path d="M74889 77227
L75171 77227
" />
<path d="M74833 77395
L75030 76805
L75227 77395
" />
<path d="M75424 77339
L75452 77367
L75424 77395
L75395 77367
L75424 77339
L75424 77395
" />
<path d="M76605 77395
L76605 76805
" />
<path d="M76661 77171
L76830 77395
" />
<path d="M76830 77002
L76605 77227
" />
<path d="M77083 77395
L77083 77002
" />
<path d="M77083 76805
L77055 76833
L77083 76861
L77111 76833
L77083 76805
L77083 76861
" />
<path d="M77617 77367
L77561 77395
L77448 77395
L77392 77367
L77364 77339
L77336 77283
L77336 77114
L77364 77058
L77392 77030
L77448 77002
L77561 77002
L77617 77030
" />
<path d="M78123 77395
L78123 77086
L78095 77030
L78039 77002
L77926 77002
L77870 77030
" />
<path d="M78123 77367
L78067 77395
L77926 77395
L77870 77367
L77842 77311
L77842 77255
L77870 77199
L77926 77171
L78067 77171
L78123 77142
" />
<path d="M78658 77395
L78658 76805
" />
<path d="M78658 77367
L78601 77395
L78489 77395
L78433 77367
L78404 77339
L78376 77283
L78376 77114
L78404 77058
L78433 77030
L78489 77002
L78601 77002
L78658 77030
" />
<path d="M79642 77002
L79642 77395
" />
<path d="M79501 76777
L79361 77199
L79726 77199
" />
<path d="M79951 77339
L79979 77367
L79951 77395
L79923 77367
L79951 77339
L79951 77395
" />
<path d="M80542 77395
L80204 77395
" />
<path d="M80373 77395
L80373 76805
L80317 76889
L80260 76946
L80204 76974
" />
<path d="M80795 77339
L80823 77367
L80795 77395
L80767 77367
L80795 77339
L80795 77395
" />
<path d="M81188 76805
L81245 76805
L81301 76833
L81329 76861
L81357 76917
L81385 77030
L81385 77171
L81357 77283
L81329 77339
L81301 77367
L81245 77395
L81188 77395
L81132 77367
L81104 77339
L81076 77283
L81048 77171
L81048 77030
L81076 76917
L81104 76861
L81132 76833
L81188 76805
" />
<path d="M81638 77171
L82088 77171
" />
<path d="M82623 77395
L82623 77086
L82595 77030
L82538 77002
L82426 77002
L82370 77030
" />
<path d="M82623 77367
L82566 77395
L82426 77395
L82370 77367
L82341 77311
L82341 77255
L82370 77199
L82426 77171
L82566 77171
L82623 77142
" />
<path d="M82988 77395
L82932 77367
L82904 77311
L82904 76805
" />
<path d="M83213 77002
L83213 77592
" />
<path d="M83213 77030
L83269 77002
L83382 77002
L83438 77030
L83466 77058
L83494 77114
L83494 77283
L83466 77339
L83438 77367
L83382 77395
L83269 77395
L83213 77367
" />
<path d="M83748 77395
L83748 76805
" />
<path d="M84001 77395
L84001 77086
L83973 77030
L83916 77002
L83832 77002
L83776 77030
L83748 77058
" />
<path d="M84535 77395
L84535 77086
L84507 77030
L84451 77002
L84338 77002
L84282 77030
" />
<path d="M84535 77367
L84479 77395
L84338 77395
L84282 77367
L84254 77311
L84254 77255
L84282 77199
L84338 77171
L84479 77171
L84535 77142
" />
<path d="M84816 77171
L85266 77171
" />
<path d="M85041 77395
L85041 76946
" />
<path d="M85519 76861
L85547 76833
L85604 76805
L85744 76805
L85800 76833
L85829 76861
L85857 76917
L85857 76974
L85829 77058
L85491 77395
L85857 77395
" />
<path d="M86222 76805
L86278 76805
L86335 76833
L86363 76861
L86391 76917
L86419 77030
L86419 77171
L86391 77283
L86363 77339
L86335 77367
L86278 77395
L86222 77395
L86166 77367
L86138 77339
L86110 77283
L86082 77171
L86082 77030
L86110 76917
L86138 76861
L86166 76833
L86222 76805
" />
<path d="M86982 77395
L86644 77395
" />
<path d="M86813 77395
L86813 76805
L86757 76889
L86700 76946
L86644 76974
" />
<path d="M87488 76805
L87375 76805
L87319 76833
L87291 76861
L87235 76946
L87206 77058
L87206 77283
L87235 77339
L87263 77367
L87319 77395
L87431 77395
L87488 77367
L87516 77339
L87544 77283
L87544 77142
L87516 77086
L87488 77058
L87431 77030
L87319 77030
L87263 77058
L87235 77086
L87206 77142
" />
<path d="M87910 76805
L87966 76805
L88022 76833
L88050 76861
L88078 76917
L88106 77030
L88106 77171
L88078 77283
L88050 77339
L88022 77367
L87966 77395
L87910 77395
L87853 77367
L87825 77339
L87797 77283
L87769 77171
L87769 77030
L87797 76917
L87825 76861
L87853 76833
L87910 76805
" />
<path d="M88303 76805
L88697 76805
L88444 77395
" />
<path d="M89231 77395
L88894 77395
" />
<path d="M89063 77395
L89063 76805
L89006 76889
L88950 76946
L88894 76974
" />
<path d="M89512 77395
L89625 77395
L89681 77367
L89709 77339
L89766 77255
L89794 77142
L89794 76917
L89766 76861
L89737 76833
L89681 76805
L89569 76805
L89512 76833
L89484 76861
L89456 76917
L89456 77058
L89484 77114
L89512 77142
L89569 77171
L89681 77171
L89737 77142
L89766 77114
L89794 77058
" />
<path d="M90159 76805
L90215 76805
L90272 76833
L90300 76861
L90328 76917
L90356 77030
L90356 77171
L90328 77283
L90300 77339
L90272 77367
L90215 77395
L90159 77395
L90103 77367
L90075 77339
L90047 77283
L90019 77171
L90019 77030
L90047 76917
L90075 76861
L90103 76833
L90159 76805
" />
<path d="M90553 76805
L90947 76805
L90694 77395
" />
<path d="M91481 77395
L91144 77395
" />
<path d="M91312 77395
L91312 76805
L91256 76889
L91200 76946
L91144 76974
" />
<path d="M91987 76805
L91875 76805
L91818 76833
L91790 76861
L91734 76946
L91706 77058
L91706 77283
L91734 77339
L91762 77367
L91818 77395
L91931 77395
L91987 77367
L92015 77339
L92043 77283
L92043 77142
L92015 77086
L91987 77058
L91931 77030
L91818 77030
L91762 77058
L91734 77086
L91706 77142
" />
<path d="M92296 77171
L92746 77171
" />
<path d="M92521 77395
L92521 76946
" />
<path d="M93281 76805
L93168 76805
L93112 76833
L93084 76861
L93028 76946
L93000 77058
L93000 77283
L93028 77339
L93056 77367
L93112 77395
L93224 77395
L93281 77367
L93309 77339
L93337 77283
L93337 77142
L93309 77086
L93281 77058
L93224 77030
L93112 77030
L93056 77058
L93028 77086
L93000 77142
" />
<path d="M93618 77395
L93731 77395
L93787 77367
L93815 77339
L93871 77255
L93899 77142
L93899 76917
L93871 76861
L93843 76833
L93787 76805
L93674 76805
L93618 76833
L93590 76861
L93562 76917
L93562 77058
L93590 77114
L93618 77142
L93674 77171
L93787 77171
L93843 77142
L93871 77114
L93899 77058
" />
<path d="M94237 77058
L94181 77030
L94153 77002
L94124 76946
L94124 76917
L94153 76861
L94181 76833
L94237 76805
L94349 76805
L94406 76833
L94434 76861
L94462 76917
L94462 76946
L94434 77002
L94406 77030
L94349 77058
L94237 77058
L94181 77086
L94153 77114
L94124 77171
L94124 77283
L94153 77339
L94181 77367
L94237 77395
L94349 77395
L94406 77367
L94434 77339
L94462 77283
L94462 77171
L94434 77114
L94406 77086
L94349 77058
" />
<path d="M94659 76805
L95024 76805
L94827 77030
L94912 77030
L94968 77058
L94996 77086
L95024 77142
L95024 77283
L94996 77339
L94968 77367
L94912 77395
L94743 77395
L94687 77367
L94659 77339
" />
<path d="M95234 76644
L95699 76644
" />
<path d="M95530 77002
L95530 77395
" />
<path d="M95390 76777
L95249 77199
L95615 77199
" />
<path d="M95699 76644
L96262 76644
" />
<path d="M96093 76805
L95980 76805
L95924 76833
L95896 76861
L95840 76946
L95812 77058
L95812 77283
L95840 77339
L95868 77367
L95924 77395
L96037 77395
L96093 77367
L96121 77339
L96149 77283
L96149 77142
L96121 77086
L96093 77058
L96037 77030
L95924 77030
L95868 77058
L95840 77086
L95812 77142
" />
<path d="M96655 77002
L96655 77395
" />
<path d="M96402 77002
L96402 77311
L96430 77367
L96487 77395
L96571 77395
L96627 77367
L96655 77339
" />
<path d="M96937 77395
L96937 76805
" />
<path d="M96937 77030
L96993 77002
L97105 77002
L97162 77030
L97190 77058
L97218 77114
L97218 77283
L97190 77339
L97162 77367
L97105 77395
L96993 77395
L96937 77367
" />
<path d="M97724 77002
L97724 77395
" />
<path d="M97471 77002
L97471 77311
L97499 77367
L97555 77395
L97640 77395
L97696 77367
L97724 77339
" />
<path d="M98005 77002
L98005 77395
" />
<path d="M98005 77058
L98033 77030
L98090 77002
L98174 77002
L98230 77030
L98258 77086
L98258 77395
" />
<path d="M98455 77002
L98680 77002
" />
<path d="M98539 76805
L98539 77311
L98568 77367
L98624 77395
L98680 77395
" />
<path d="M99130 77002
L99130 77395
" />
<path d="M98877 77002
L98877 77311
L98905 77367
L98961 77395
L99046 77395
L99102 77367
L99130 77339
" />
<path d="M99721 77395
L99383 77395
" />
<path d="M99552 77395
L99552 76805
L99496 76889
L99439 76946
L99383 76974
" />
<path d="M100227 77002
L100227 77395
" />
<path d="M100086 76777
L99946 77199
L100311 77199
" />
<path d="M100536 77339
L100564 77367
L100536 77395
L100508 77367
L100536 77339
L100536 77395
" />
<path d="M100930 76805
L100986 76805
L101042 76833
L101070 76861
L101099 76917
L101127 77030
L101127 77171
L101099 77283
L101070 77339
L101042 77367
L100986 77395
L100930 77395
L100874 77367
L100845 77339
L100817 77283
L100789 77171
L100789 77030
L100817 76917
L100845 76861
L100874 76833
L100930 76805
" />
<path d="M101633 77002
L101633 77395
" />
<path d="M101492 76777
L101352 77199
L101717 77199
" />
<path d="M101942 77339
L101970 77367
L101942 77395
L101914 77367
L101942 77339
L101942 77395
" />
<path d="M102533 77395
L102195 77395
" />
<path d="M102364 77395
L102364 76805
L102308 76889
L102251 76946
L102195 76974
" />
<path d="M102786 77171
L103236 77171
" />
<path d="M103517 77002
L103517 77592
" />
<path d="M103517 77030
L103573 77002
L103686 77002
L103742 77030
L103770 77058
L103798 77114
L103798 77283
L103770 77339
L103742 77367
L103686 77395
L103573 77395
L103517 77367
" />
<path d="M104051 77395
L104051 77002
" />
<path d="M104051 77114
L104079 77058
L104108 77030
L104164 77002
L104220 77002
" />
<path d="M104501 77395
L104445 77367
L104417 77339
L104389 77283
L104389 77114
L104417 77058
L104445 77030
L104501 77002
L104586 77002
L104642 77030
L104670 77058
L104698 77114
L104698 77283
L104670 77339
L104642 77367
L104586 77395
L104501 77395
" />
<path d="M105204 77395
L105204 76805
" />
<path d="M105204 77367
L105148 77395
L105036 77395
L104979 77367
L104951 77339
L104923 77283
L104923 77114
L104951 77058
L104979 77030
L105036 77002
L105148 77002
L105204 77030
" />
<path d="M105739 77002
L105739 77395
" />
<path d="M105485 77002
L105485 77311
L105514 77367
L105570 77395
L105654 77395
L105710 77367
L105739 77339
" />
<path d="M106273 77367
L106217 77395
L106104 77395
L106048 77367
L106020 77339
L105992 77283
L105992 77114
L106020 77058
L106048 77030
L106104 77002
L106217 77002
L106273 77030
" />
<path d="M106442 77002
L106667 77002
" />
<path d="M106526 76805
L106526 77311
L106554 77367
L106610 77395
L106667 77395
" />
</g>
<g style="fill:#000000; fill-opacity:0.0; 
stroke:#000000; stroke-width:39.3701; stroke-opacity:1; 
stroke-linecap:round; stroke-linejoin:round;">
</g>
<g style="fill:#000000; fill-opacity:0.0; 
stroke:#000000; stroke-width:59.0551; stroke-opacity:1; 
stroke-linecap:round; stroke-linejoin:round;">
<path d="M69685 75396
L112205 75396
" />
</g>
<g style="fill:#000000; fill-opacity:0.0; 
stroke:#000000; stroke-width:39.3701; stroke-opacity:1; 
stroke-linecap:round; stroke-linejoin:round;">
</g>
<g style="fill:#000000; fill-opacity:0.0; 
stroke:#000000; stroke-width:118.11; stroke-opacity:1; 
stroke-linecap:round; stroke-linejoin:round;">
<path d="M104099 76293
L103902 76012
" />
<path d="M103761 76293
L103761 75703
L103986 75703
L104042 75731
L104070 75759
L104099 75815
L104099 75899
L104070 75956
L104042 75984
L103986 76012
L103761 76012
" />
<path d="M104577 76265
L104520 76293
L104408 76293
L104352 76265
L104323 76209
L104323 75984
L104352 75928
L104408 75899
L104520 75899
L104577 75928
L104605 75984
L104605 76040
L104323 76096
" />
<path d="M104802 75899
L104942 76293
L105083 75899
" />
<path d="M105308 76237
L105336 76265
L105308 76293
L105280 76265
L105308 76237
L105308 76293
" />
<path d="M105308 75928
L105336 75956
L105308 75984
L105280 75956
L105308 75928
L105308 75984
" />
</g>
<g style="fill:#000000; fill-opacity:0.0; 
stroke:#000000; stroke-width:39.3701; stroke-opacity:1; 
stroke-linecap:round; stroke-linejoin:round;">
</g>
<g style="fill:#000000; fill-opacity:0.0; 
stroke:#000000; stroke-width:59.0551; stroke-opacity:1; 
stroke-linecap:round; stroke-linejoin:round;">
<path d="M70221 76265
L70305 76293
L70446 76293
L70502 76265
L70530 76237
L70559 76181
L70559 76124
L70530 76068
L70502 76040
L70446 76012
L70334 75984
L70277 75956
L70249 75928
L70221 75871
L70221 75815
L70249 75759
L70277 75731
L70334 75703
L70474 75703
L70559 75731
" />
<path d="M70812 76293
L70812 75899
" />
<path d="M70812 75703
L70784 75731
L70812 75759
L70840 75731
L70812 75703
L70812 75759
" />
<path d="M71037 75899
L71346 75899
L71037 76293
L71346 76293
" />
<path d="M71796 76265
L71740 76293
L71627 76293
L71571 76265
L71543 76209
L71543 75984
L71571 75928
L71627 75899
L71740 75899
L71796 75928
L71824 75984
L71824 76040
L71543 76096
" />
<path d="M72077 76237
L72105 76265
L72077 76293
L72049 76265
L72077 76237
L72077 76293
" />
<path d="M72077 75928
L72105 75956
L72077 75984
L72049 75956
L72077 75928
L72077 75984
" />
<path d="M72780 76124
L73061 76124
" />
<path d="M72724 76293
L72921 75703
L73118 76293
" />
<path d="M73568 75899
L73568 76293
" />
<path d="M73427 75674
L73286 76096
L73652 76096
" />
</g>
<g style="fill:#000000; fill-opacity:0.0; 
stroke:#000000; stroke-width:39.3701; stroke-opacity:1; 
stroke-linecap:round; stroke-linejoin:round;">
</g>
<g style="fill:#000000; fill-opacity:0.0; 
stroke:#000000; stroke-width:59.0551; stroke-opacity:1; 
stroke-linecap:round; stroke-linejoin:round;">
<path d="M103714 77395
L103714 76805
" />
<path d="M104248 77395
L104248 76805
" />
<path d="M104248 77367
L104192 77395
L104079 77395
L104023 77367
L103995 77339
L103967 77283
L103967 77114
L103995 77058
L104023 77030
L104079 77002
L104192 77002
L104248 77030
" />
<path d="M104529 77339
L104557 77367
L104529 77395
L104501 77367
L104529 77339
L104529 77395
" />
<path d="M104529 77030
L104557 77058
L104529 77086
L104501 77058
L104529 77030
L104529 77086
" />
<path d="M105570 77395
L105232 77395
" />
<path d="M105401 77395
L105401 76805
L105345 76889
L105289 76946
L105232 76974
" />
<path d="M106245 76777
L105739 77536
" />
<path d="M106751 77395
L106413 77395
" />
<path d="M106582 77395
L106582 76805
L106526 76889
L106470 76946
L106413 76974
" />
</g>
<g style="fill:#000000; fill-opacity:0.0; 
stroke:#000000; stroke-width:39.3701; stroke-opacity:1; 
stroke-linecap:round; stroke-linejoin:round;">
</g>
<g style="fill:#000000; fill-opacity:0.0; 
stroke:#000000; stroke-width:59.0551; stroke-opacity:1; 
stroke-linecap:round; stroke-linejoin:round;">
<path d="M69685 73821
L112205 73821
" />
</g>
<g style="fill:#000000; fill-opacity:0.0; 
stroke:#000000; stroke-width:39.3701; stroke-opacity:1; 
stroke-linecap:round; stroke-linejoin:round;">
</g>
<g style="fill:#000000; fill-opacity:0.0; 
stroke:#000000; stroke-width:157.48; stroke-opacity:1; 
stroke-linecap:round; stroke-linejoin:round;">
<path d="M70360 74099
L70810 74099
" />
<path d="M70486 74886
L70585 74099
" />
<path d="M70974 74886
L71039 74361
" />
<path d="M71072 74099
L71030 74136
L71063 74174
L71105 74136
L71072 74099
L71063 74174
" />
<path d="M71302 74361
L71602 74361
" />
<path d="M71447 74099
L71363 74774
L71391 74849
L71461 74886
L71536 74886
" />
<path d="M71911 74886
L71841 74849
L71813 74774
L71897 74099
" />
<path d="M72516 74849
L72436 74886
L72286 74886
L72216 74849
L72187 74774
L72225 74474
L72272 74399
L72352 74361
L72501 74361
L72572 74399
L72600 74474
L72591 74549
L72206 74624
" />
<path d="M72895 74811
L72928 74849
L72886 74886
L72853 74849
L72895 74811
L72886 74886
" />
<path d="M72947 74399
L72980 74436
L72937 74474
L72905 74436
L72947 74399
L72937 74474
" />
</g>
<g style="fill:#000000; fill-opacity:0.0; 
stroke:#000000; stroke-width:39.3701; stroke-opacity:1; 
stroke-linecap:round; stroke-linejoin:round;">
</g>
<g style="fill:#000000; fill-opacity:0.0; 
stroke:#000000; stroke-width:59.0551; stroke-opacity:1; 
stroke-linecap:round; stroke-linejoin:round;">
<path d="M70446 73070
L70249 73070
" />
<path d="M70249 73380
L70249 72789
L70530 72789
" />
<path d="M70755 73380
L70755 72986
" />
<path d="M70755 72789
L70727 72817
L70755 72845
L70784 72817
L70755 72789
L70755 72845
" />
<path d="M71121 73380
L71065 73352
L71037 73295
L71037 72789
" />
<path d="M71571 73352
L71515 73380
L71402 73380
L71346 73352
L71318 73295
L71318 73070
L71346 73014
L71402 72986
L71515 72986
L71571 73014
L71599 73070
L71599 73127
L71318 73183
" />
<path d="M71852 73323
L71880 73352
L71852 73380
L71824 73352
L71852 73323
L71852 73380
" />
<path d="M71852 73014
L71880 73042
L71852 73070
L71824 73042
L71852 73014
L71852 73070
" />
<path d="M72696 72789
L72808 72789
L72865 72817
L72921 72874
L72949 72986
L72949 73183
L72921 73295
L72865 73352
L72808 73380
L72696 73380
L72640 73352
L72583 73295
L72555 73183
L72555 72986
L72583 72874
L72640 72817
L72696 72789
" />
<path d="M73202 72986
L73202 73577
" />
<path d="M73202 73014
L73258 72986
L73371 72986
L73427 73014
L73455 73042
L73483 73099
L73483 73267
L73455 73323
L73427 73352
L73371 73380
L73258 73380
L73202 73352
" />
<path d="M73961 73352
L73905 73380
L73793 73380
L73736 73352
L73708 73295
L73708 73070
L73736 73014
L73793 72986
L73905 72986
L73961 73014
L73989 73070
L73989 73127
L73708 73183
" />
<path d="M74242 72986
L74242 73380
" />
<path d="M74242 73042
L74271 73014
L74327 72986
L74411 72986
L74467 73014
L74496 73070
L74496 73380
" />
<path d="M74692 72789
L75030 72789
" />
<path d="M74861 73380
L74861 72789
" />
<path d="M75227 73380
L75227 72789
" />
<path d="M75480 73380
L75480 73070
L75452 73014
L75395 72986
L75311 72986
L75255 73014
L75227 73042
" />
<path d="M75986 73352
L75930 73380
L75817 73380
L75761 73352
L75733 73295
L75733 73070
L75761 73014
L75817 72986
L75930 72986
L75986 73014
L76014 73070
L76014 73127
L75733 73183
" />
<path d="M76267 73380
L76267 72986
" />
<path d="M76267 73099
L76295 73042
L76323 73014
L76380 72986
L76436 72986
" />
<path d="M76858 73352
L76802 73380
L76689 73380
L76633 73352
L76605 73295
L76605 73070
L76633 73014
L76689 72986
L76802 72986
L76858 73014
L76886 73070
L76886 73127
L76605 73183
" />
<path d="M77139 73380
L77139 72986
" />
<path d="M77139 73042
L77167 73014
L77223 72986
L77308 72986
L77364 73014
L77392 73070
L77392 73380
" />
<path d="M77392 73070
L77420 73014
L77476 72986
L77561 72986
L77617 73014
L77645 73070
L77645 73380
" />
<path d="M77926 73380
L77926 72986
" />
<path d="M77926 72789
L77898 72817
L77926 72845
L77955 72817
L77926 72789
L77926 72845
" />
<path d="M78208 72986
L78208 73380
" />
<path d="M78208 73042
L78236 73014
L78292 72986
L78376 72986
L78433 73014
L78461 73070
L78461 73380
" />
<path d="M79079 73323
L79051 73352
L78967 73380
L78911 73380
L78826 73352
L78770 73295
L78742 73239
L78714 73127
L78714 73042
L78742 72930
L78770 72874
L78826 72817
L78911 72789
L78967 72789
L79051 72817
L79079 72845
" />
<path d="M79670 73323
L79642 73352
L79557 73380
L79501 73380
L79417 73352
L79361 73295
L79332 73239
L79304 73127
L79304 73042
L79332 72930
L79361 72874
L79417 72817
L79501 72789
L79557 72789
L79642 72817
L79670 72845
" />
<path d="M79923 73323
L79951 73352
L79923 73380
L79895 73352
L79923 73323
L79923 73380
" />
<path d="M80204 73380
L80204 72789
" />
<path d="M80260 73155
L80429 73380
" />
<path d="M80429 72986
L80204 73211
" />
<path d="M80682 73380
L80682 72986
" />
<path d="M80682 72789
L80654 72817
L80682 72845
L80710 72817
L80682 72789
L80682 72845
" />
<path d="M81217 73352
L81160 73380
L81048 73380
L80992 73352
L80964 73323
L80935 73267
L80935 73099
L80964 73042
L80992 73014
L81048 72986
L81160 72986
L81217 73014
" />
<path d="M81723 73380
L81723 73070
L81695 73014
L81638 72986
L81526 72986
L81470 73014
" />
<path d="M81723 73352
L81667 73380
L81526 73380
L81470 73352
L81442 73295
L81442 73239
L81470 73183
L81526 73155
L81667 73155
L81723 73127
" />
<path d="M82257 73380
L82257 72789
" />
<path d="M82257 73352
L82201 73380
L82088 73380
L82032 73352
L82004 73323
L81976 73267
L81976 73099
L82004 73042
L82032 73014
L82088 72986
L82201 72986
L82257 73014
" />
<path d="M82398 73436
L82848 73436
" />
<path d="M82988 72986
L82988 73577
" />
<path d="M82988 73014
L83045 72986
L83157 72986
L83213 73014
L83241 73042
L83269 73099
L83269 73267
L83241 73323
L83213 73352
L83157 73380
L83045 73380
L82988 73352
" />
<path d="M83776 73352
L83719 73380
L83607 73380
L83551 73352
L83523 73323
L83494 73267
L83494 73099
L83523 73042
L83551 73014
L83607 72986
L83719 72986
L83776 73014
" />
<path d="M84029 73380
L84029 72789
" />
<path d="M84029 73014
L84085 72986
L84197 72986
L84254 73014
L84282 73042
L84310 73099
L84310 73267
L84282 73323
L84254 73352
L84197 73380
L84085 73380
L84029 73352
" />
</g>
<g style="fill:#000000; fill-opacity:0.0; 
stroke:#000000; stroke-width:39.3701; stroke-opacity:1; 
stroke-linecap:round; stroke-linejoin:round;">
</g>
<g style="fill:#000000; fill-opacity:0.0; 
stroke:#000000; stroke-width:59.0551; stroke-opacity:1; 
stroke-linecap:round; stroke-linejoin:round;">
<path d="M69685 71459
L112205 71459
" />
</g>
<g style="fill:#000000; fill-opacity:0.0; 
stroke:#000000; stroke-width:39.3701; stroke-opacity:1; 
stroke-linecap:round; stroke-linejoin:round;">
</g>
<g style="fill:#000000; fill-opacity:0.0; 
stroke:#000000; stroke-width:59.0551; stroke-opacity:1; 
stroke-linecap:round; stroke-linejoin:round;">
<path d="M70221 72289
L70305 72317
L70446 72317
L70502 72289
L70530 72260
L70559 72204
L70559 72148
L70530 72092
L70502 72064
L70446 72036
L70334 72007
L70277 71979
L70249 71951
L70221 71895
L70221 71839
L70249 71782
L70277 71754
L70334 71726
L70474 71726
L70559 71754
" />
<path d="M70812 72317
L70812 71726
" />
<path d="M71065 72317
L71065 72007
L71037 71951
L70980 71923
L70896 71923
L70840 71951
L70812 71979
" />
<path d="M71571 72289
L71515 72317
L71402 72317
L71346 72289
L71318 72232
L71318 72007
L71346 71951
L71402 71923
L71515 71923
L71571 71951
L71599 72007
L71599 72064
L71318 72120
" />
<path d="M72077 72289
L72021 72317
L71908 72317
L71852 72289
L71824 72232
L71824 72007
L71852 71951
L71908 71923
L72021 71923
L72077 71951
L72105 72007
L72105 72064
L71824 72120
" />
<path d="M72274 71923
L72499 71923
" />
<path d="M72358 71726
L72358 72232
L72386 72289
L72443 72317
L72499 72317
" />
<path d="M72696 72260
L72724 72289
L72696 72317
L72668 72289
L72696 72260
L72696 72317
" />
<path d="M72696 71951
L72724 71979
L72696 72007
L72668 71979
L72696 71951
L72696 72007
" />
</g>
<g style="fill:#000000; fill-opacity:0.0; 
stroke:#000000; stroke-width:39.3701; stroke-opacity:1; 
stroke-linecap:round; stroke-linejoin:round;">
</g>
<g style="fill:#000000; fill-opacity:0.0; 
stroke:#000000; stroke-width:59.0551; stroke-opacity:1; 
stroke-linecap:round; stroke-linejoin:round;">
<path d="M77559 75396
L77559 76577
" />
</g>
<g style="fill:#000000; fill-opacity:0.0; 
stroke:#000000; stroke-width:39.3701; stroke-opacity:1; 
stroke-linecap:round; stroke-linejoin:round;">
</g>
<g style="fill:#000000; fill-opacity:0.0; 
stroke:#000000; stroke-width:59.0551; stroke-opacity:1; 
stroke-linecap:round; stroke-linejoin:round;">
<path d="M102756 75396
L102756 77955
" />
</g>
<g style="fill:#000000; fill-opacity:0.0; 
stroke:#000000; stroke-width:0; stroke-opacity:1; 
stroke-linecap:round; stroke-linejoin:round;">
</g>
<g style="fill:#000000; fill-opacity:1.0; 
stroke:#000000; stroke-width:0; stroke-opacity:1; 
stroke-linecap:round; stroke-linejoin:round;">
<polyline style="fill-rule:evenodd;"
points="29203,39602
29203,38802
29463,38802
29463,39602
29203,39602
" /> 
<polyline style="fill-rule:evenodd;"
points="29703,39602
29703,38802
29963,38802
29963,39602
29703,39602
" /> 
<polyline style="fill-rule:evenodd;"
points="30203,39602
30203,38802
30463,38802
30463,39602
30203,39602
" /> 
<polyline style="fill-rule:evenodd;"
points="30703,39602
30703,38802
30963,38802
30963,39602
30703,39602
" /> 
<polyline style="fill-rule:evenodd;"
points="31203,39602
31203,38802
31463,38802
31463,39602
31203,39602
" /> 
<polyline style="fill-rule:evenodd;"
points="31703,39602
31703,38802
31963,38802
31963,39602
31703,39602
" /> 
<polyline style="fill-rule:evenodd;"
points="32203,39602
32203,38802
32463,38802
32463,39602
32203,39602
" /> 
<polyline style="fill-rule:evenodd;"
points="32203,37182
32203,36382
32463,36382
32463,37182
32203,37182
" /> 
<polyline style="fill-rule:evenodd;"
points="31703,37182
31703,36382
31963,36382
31963,37182
31703,37182
" /> 
<polyline style="fill-rule:evenodd;"
points="30703,37182
30703,36382
30963,36382
30963,37182
30703,37182
" /> 
<polyline style="fill-rule:evenodd;"
points="30203,37182
30203,36382
30463,36382
30463,37182
30203,37182
" /> 
<polyline style="fill-rule:evenodd;"
points="29703,37182
29703,36382
29963,36382
29963,37182
29703,37182
" /> 
<polyline style="fill-rule:evenodd;"
points="29203,37182
29203,36382
29463,36382
29463,37182
29203,37182
" /> 
<polyline style="fill-rule:evenodd;"
points="31203,37182
31203,36382
31463,36382
31463,37182
31203,37182
" /> 
<polyline style="fill-rule:evenodd;"
points="41283,39477
41283,38717
42783,38717
42783,39477
41283,39477
" /> 
<polyline style="fill-rule:evenodd;"
points="41283,37666
41283,36906
42783,36906
42783,37666
41283,37666
" /> 
<polyline style="fill-rule:evenodd;"
points="42783,41206
42783,41966
41283,41966
41283,41206
42783,41206
" /> 
<polyline style="fill-rule:evenodd;"
points="42783,43017
42783,43777
41283,43777
41283,43017
42783,43017
" /> 
<polyline style="fill-rule:evenodd;"
points="33849,47644
34676,47644
34676,49849
33849,49849
33849,47644
" /> 
<polyline style="fill-rule:evenodd;"
points="33819,51498
34646,51498
34646,53703
33819,53703
33819,51498
" /> 
<polyline style="fill-rule:evenodd;"
points="36211,47644
37038,47644
37038,49849
36211,49849
36211,47644
" /> 
<polyline style="fill-rule:evenodd;"
points="36219,51498
37046,51498
37046,53703
36219,53703
36219,51498
" /> 
<polyline style="fill-rule:evenodd;"
points="39501,37743
39501,37428
39816,37428
39816,37743
39501,37743
" /> 
<polyline style="fill-rule:evenodd;"
points="40249,37743
40249,37428
40564,37428
40564,37743
40249,37743
" /> 
<polyline style="fill-rule:evenodd;"
points="39875,36956
39875,36641
40190,36641
40190,36956
39875,36956
" /> 
<polyline style="fill-rule:evenodd;"
points="40564,42440
40564,42755
40249,42755
40249,42440
40564,42440
" /> 
<polyline style="fill-rule:evenodd;"
points="39816,42440
39816,42755
39501,42755
39501,42440
39816,42440
" /> 
<polyline style="fill-rule:evenodd;"
points="40190,43227
40190,43542
39875,43542
39875,43227
40190,43227
" /> 
<polyline style="fill-rule:evenodd;"
points="37337,42923
37337,42413
37928,42413
37928,42923
37337,42923
" /> 
<polyline style="fill-rule:evenodd;"
points="37337,43671
37337,43161
37928,43161
37928,43671
37337,43671
" /> 
<polyline style="fill-rule:evenodd;"
points="27528,38111
27528,38621
26937,38621
26937,38111
27528,38111
" /> 
<polyline style="fill-rule:evenodd;"
points="27528,37363
27528,37873
26937,37873
26937,37363
27528,37363
" /> 
<polyline style="fill-rule:evenodd;"
points="30052,34796
30562,34796
30562,35387
30052,35387
30052,34796
" /> 
<polyline style="fill-rule:evenodd;"
points="29304,34796
29814,34796
29814,35387
29304,35387
29304,34796
" /> 
<polyline style="fill-rule:evenodd;"
points="28137,37873
28137,37363
28728,37363
28728,37873
28137,37873
" /> 
<polyline style="fill-rule:evenodd;"
points="28137,38621
28137,38111
28728,38111
28728,38621
28137,38621
" /> 
<polyline style="fill-rule:evenodd;"
points="36414,59487
35904,59487
35904,58896
36414,58896
36414,59487
" /> 
<polyline style="fill-rule:evenodd;"
points="37162,59487
36652,59487
36652,58896
37162,58896
37162,59487
" /> 
<polyline style="fill-rule:evenodd;"
points="36252,42546
36762,42546
36762,43137
36252,43137
36252,42546
" /> 
<polyline style="fill-rule:evenodd;"
points="35504,42546
36014,42546
36014,43137
35504,43137
35504,42546
" /> 
<polyline style="fill-rule:evenodd;"
points="42637,50673
42637,50163
43228,50163
43228,50673
42637,50673
" /> 
<polyline style="fill-rule:evenodd;"
points="42637,51421
42637,50911
43228,50911
43228,51421
42637,51421
" /> 
<polyline style="fill-rule:evenodd;"
points="27737,50573
27737,50063
28328,50063
28328,50573
27737,50573
" /> 
<polyline style="fill-rule:evenodd;"
points="27737,51321
27737,50811
28328,50811
28328,51321
27737,51321
" /> 
<polyline style="fill-rule:evenodd;"
points="28087,42073
28087,41563
28678,41563
28678,42073
28087,42073
" /> 
<polyline style="fill-rule:evenodd;"
points="28087,42821
28087,42311
28678,42311
28678,42821
28087,42821
" /> 
<polyline style="fill-rule:evenodd;"
points="34552,54096
35062,54096
35062,54687
34552,54687
34552,54096
" /> 
<polyline style="fill-rule:evenodd;"
points="33804,54096
34314,54096
34314,54687
33804,54687
33804,54096
" /> 
<polyline style="fill-rule:evenodd;"
points="34537,55673
34537,55163
35128,55163
35128,55673
34537,55673
" /> 
<polyline style="fill-rule:evenodd;"
points="34537,56421
34537,55911
35128,55911
35128,56421
34537,56421
" /> 
<polyline style="fill-rule:evenodd;"
points="27728,40361
27728,40871
27137,40871
27137,40361
27728,40361
" /> 
<polyline style="fill-rule:evenodd;"
points="27728,39613
27728,40123
27137,40123
27137,39613
27728,39613
" /> 
<polyline style="fill-rule:evenodd;"
points="33537,55673
33537,55163
34128,55163
34128,55673
33537,55673
" /> 
<polyline style="fill-rule:evenodd;"
points="33537,56421
33537,55911
34128,55911
34128,56421
33537,56421
" /> 
<polyline style="fill-rule:evenodd;"
points="36552,54096
37062,54096
37062,54687
36552,54687
36552,54096
" /> 
<polyline style="fill-rule:evenodd;"
points="35804,54096
36314,54096
36314,54687
35804,54687
35804,54096
" /> 
<polyline style="fill-rule:evenodd;"
points="27137,42073
27137,41563
27728,41563
27728,42073
27137,42073
" /> 
<polyline style="fill-rule:evenodd;"
points="27137,42821
27137,42311
27728,42311
27728,42821
27137,42821
" /> 
<polyline style="fill-rule:evenodd;"
points="39437,53273
39437,52763
40028,52763
40028,53273
39437,53273
" /> 
<polyline style="fill-rule:evenodd;"
points="39437,54021
39437,53511
40028,53511
40028,54021
39437,54021
" /> 
<polyline style="fill-rule:evenodd;"
points="38228,47411
38228,47921
37637,47921
37637,47411
38228,47411
" /> 
<polyline style="fill-rule:evenodd;"
points="38228,46663
38228,47173
37637,47173
37637,46663
38228,46663
" /> 
<polyline style="fill-rule:evenodd;"
points="30837,53273
30837,52763
31428,52763
31428,53273
30837,53273
" /> 
<polyline style="fill-rule:evenodd;"
points="30837,54021
30837,53511
31428,53511
31428,54021
30837,54021
" /> 
<polyline style="fill-rule:evenodd;"
points="30852,46596
31362,46596
31362,47187
30852,47187
30852,46596
" /> 
<polyline style="fill-rule:evenodd;"
points="30104,46596
30614,46596
30614,47187
30104,47187
30104,46596
" /> 
<polyline style="fill-rule:evenodd;"
points="34137,42173
34137,41663
34728,41663
34728,42173
34137,42173
" /> 
<polyline style="fill-rule:evenodd;"
points="34137,42921
34137,42411
34728,42411
34728,42921
34137,42921
" /> 
<polyline style="fill-rule:evenodd;"
points="38337,42923
38337,42413
38928,42413
38928,42923
38337,42923
" /> 
<polyline style="fill-rule:evenodd;"
points="38337,43671
38337,43161
38928,43161
38928,43671
38337,43671
" /> 
<polyline style="fill-rule:evenodd;"
points="38928,41411
38928,41921
38337,41921
38337,41411
38928,41411
" /> 
<polyline style="fill-rule:evenodd;"
points="38928,40663
38928,41173
38337,41173
38337,40663
38928,40663
" /> 
<polyline style="fill-rule:evenodd;"
points="36928,41411
36928,41921
36337,41921
36337,41411
36928,41411
" /> 
<polyline style="fill-rule:evenodd;"
points="36928,40663
36928,41173
36337,41173
36337,40663
36928,40663
" /> 
<polyline style="fill-rule:evenodd;"
points="37337,41173
37337,40663
37928,40663
37928,41173
37337,41173
" /> 
<polyline style="fill-rule:evenodd;"
points="37337,41921
37337,41411
37928,41411
37928,41921
37337,41921
" /> 
<polyline style="fill-rule:evenodd;"
points="39337,41173
39337,40663
39928,40663
39928,41173
39337,41173
" /> 
<polyline style="fill-rule:evenodd;"
points="39337,41921
39337,41411
39928,41411
39928,41921
39337,41921
" /> 
<polyline style="fill-rule:evenodd;"
points="34137,40473
34137,39963
34728,39963
34728,40473
34137,40473
" /> 
<polyline style="fill-rule:evenodd;"
points="34137,41221
34137,40711
34728,40711
34728,41221
34137,41221
" /> 
<polyline style="fill-rule:evenodd;"
points="37928,37211
37928,37721
37337,37721
37337,37211
37928,37211
" /> 
<polyline style="fill-rule:evenodd;"
points="37928,36463
37928,36973
37337,36973
37337,36463
37928,36463
" /> 
<polyline style="fill-rule:evenodd;"
points="38337,38673
38337,38163
38928,38163
38928,38673
38337,38673
" /> 
<polyline style="fill-rule:evenodd;"
points="38337,39421
38337,38911
38928,38911
38928,39421
38337,39421
" /> 
<polyline style="fill-rule:evenodd;"
points="36337,38673
36337,38163
36928,38163
36928,38673
36337,38673
" /> 
<polyline style="fill-rule:evenodd;"
points="36337,39421
36337,38911
36928,38911
36928,39421
36337,39421
" /> 
<polyline style="fill-rule:evenodd;"
points="37928,38911
37928,39421
37337,39421
37337,38911
37928,38911
" /> 
<polyline style="fill-rule:evenodd;"
points="37928,38163
37928,38673
37337,38673
37337,38163
37928,38163
" /> 
<polyline style="fill-rule:evenodd;"
points="39928,38911
39928,39421
39337,39421
39337,38911
39928,38911
" /> 
<polyline style="fill-rule:evenodd;"
points="39928,38163
39928,38673
39337,38673
39337,38163
39928,38163
" /> 
<polyline style="fill-rule:evenodd;"
points="40237,53273
40237,52763
40828,52763
40828,53273
40237,53273
" /> 
<polyline style="fill-rule:evenodd;"
points="40237,54021
40237,53511
40828,53511
40828,54021
40237,54021
" /> 
<polyline style="fill-rule:evenodd;"
points="42928,47911
42928,48421
42337,48421
42337,47911
42928,47911
" /> 
<polyline style="fill-rule:evenodd;"
points="42928,47163
42928,47673
42337,47673
42337,47163
42928,47163
" /> 
<polyline style="fill-rule:evenodd;"
points="30037,53273
30037,52763
30628,52763
30628,53273
30037,53273
" /> 
<polyline style="fill-rule:evenodd;"
points="30037,54021
30037,53511
30628,53511
30628,54021
30037,54021
" /> 
<polyline style="fill-rule:evenodd;"
points="33228,47411
33228,47921
32637,47921
32637,47411
33228,47411
" /> 
<polyline style="fill-rule:evenodd;"
points="33228,46663
33228,47173
32637,47173
32637,46663
33228,46663
" /> 
<polyline style="fill-rule:evenodd;"
points="33137,42173
33137,41663
33728,41663
33728,42173
33137,42173
" /> 
<polyline style="fill-rule:evenodd;"
points="33137,42921
33137,42411
33728,42411
33728,42921
33137,42921
" /> 
<polyline style="fill-rule:evenodd;"
points="34728,38411
34728,38921
34137,38921
34137,38411
34728,38411
" /> 
<polyline style="fill-rule:evenodd;"
points="34728,37663
34728,38173
34137,38173
34137,37663
34728,37663
" /> 
<polyline style="fill-rule:evenodd;"
points="33137,38173
33137,37663
33728,37663
33728,38173
33137,38173
" /> 
<polyline style="fill-rule:evenodd;"
points="33137,38921
33137,38411
33728,38411
33728,38921
33137,38921
" /> 
<polyline style="fill-rule:evenodd;"
points="33137,40473
33137,39963
33728,39963
33728,40473
33137,40473
" /> 
<polyline style="fill-rule:evenodd;"
points="33137,41221
33137,40711
33728,40711
33728,41221
33137,41221
" /> 
<polyline style="fill-rule:evenodd;"
points="36928,37211
36928,37721
36337,37721
36337,37211
36928,37211
" /> 
<polyline style="fill-rule:evenodd;"
points="36928,36463
36928,36973
36337,36973
36337,36463
36928,36463
" /> 
<polyline style="fill-rule:evenodd;"
points="32152,35146
32662,35146
32662,35737
32152,35737
32152,35146
" /> 
<polyline style="fill-rule:evenodd;"
points="31404,35146
31914,35146
31914,35737
31404,35737
31404,35146
" /> 
<polyline style="fill-rule:evenodd;"
points="33952,36496
34462,36496
34462,37087
33952,37087
33952,36496
" /> 
<polyline style="fill-rule:evenodd;"
points="33204,36496
33714,36496
33714,37087
33204,37087
33204,36496
" /> 
<polyline style="fill-rule:evenodd;"
points="31328,59311
31328,59821
30737,59821
30737,59311
31328,59311
" /> 
<polyline style="fill-rule:evenodd;"
points="31328,58563
31328,59073
30737,59073
30737,58563
31328,58563
" /> 
<polyline style="fill-rule:evenodd;"
points="29203,43735
29203,42935
29463,42935
29463,43735
29203,43735
" /> 
<polyline style="fill-rule:evenodd;"
points="29703,43735
29703,42935
29963,42935
29963,43735
29703,43735
" /> 
<polyline style="fill-rule:evenodd;"
points="30203,43735
30203,42935
30463,42935
30463,43735
30203,43735
" /> 
<polyline style="fill-rule:evenodd;"
points="30703,43735
30703,42935
30963,42935
30963,43735
30703,43735
" /> 
<polyline style="fill-rule:evenodd;"
points="31203,43735
31203,42935
31463,42935
31463,43735
31203,43735
" /> 
<polyline style="fill-rule:evenodd;"
points="31703,43735
31703,42935
31963,42935
31963,43735
31703,43735
" /> 
<polyline style="fill-rule:evenodd;"
points="32203,43735
32203,42935
32463,42935
32463,43735
32203,43735
" /> 
<polyline style="fill-rule:evenodd;"
points="32203,41315
32203,40515
32463,40515
32463,41315
32203,41315
" /> 
<polyline style="fill-rule:evenodd;"
points="31703,41315
31703,40515
31963,40515
31963,41315
31703,41315
" /> 
<polyline style="fill-rule:evenodd;"
points="30703,41315
30703,40515
30963,40515
30963,41315
30703,41315
" /> 
<polyline style="fill-rule:evenodd;"
points="30203,41315
30203,40515
30463,40515
30463,41315
30203,41315
" /> 
<polyline style="fill-rule:evenodd;"
points="29703,41315
29703,40515
29963,40515
29963,41315
29703,41315
" /> 
<polyline style="fill-rule:evenodd;"
points="29203,41315
29203,40515
29463,40515
29463,41315
29203,41315
" /> 
<polyline style="fill-rule:evenodd;"
points="31203,41315
31203,40515
31463,40515
31463,41315
31203,41315
" /> 
<polyline style="fill-rule:evenodd;"
points="33803,46902
33803,46102
34063,46102
34063,46902
33803,46902
" /> 
<polyline style="fill-rule:evenodd;"
points="34303,46902
34303,46102
34563,46102
34563,46902
34303,46902
" /> 
<polyline style="fill-rule:evenodd;"
points="34803,46902
34803,46102
35063,46102
35063,46902
34803,46902
" /> 
<polyline style="fill-rule:evenodd;"
points="35303,46902
35303,46102
35563,46102
35563,46902
35303,46902
" /> 
<polyline style="fill-rule:evenodd;"
points="35803,46902
35803,46102
36063,46102
36063,46902
35803,46902
" /> 
<polyline style="fill-rule:evenodd;"
points="36303,46902
36303,46102
36563,46102
36563,46902
36303,46902
" /> 
<polyline style="fill-rule:evenodd;"
points="36803,46902
36803,46102
37063,46102
37063,46902
36803,46902
" /> 
<polyline style="fill-rule:evenodd;"
points="36803,44482
36803,43682
37063,43682
37063,44482
36803,44482
" /> 
<polyline style="fill-rule:evenodd;"
points="36303,44482
36303,43682
36563,43682
36563,44482
36303,44482
" /> 
<polyline style="fill-rule:evenodd;"
points="35303,44482
35303,43682
35563,43682
35563,44482
35303,44482
" /> 
<polyline style="fill-rule:evenodd;"
points="34803,44482
34803,43682
35063,43682
35063,44482
34803,44482
" /> 
<polyline style="fill-rule:evenodd;"
points="34303,44482
34303,43682
34563,43682
34563,44482
34303,44482
" /> 
<polyline style="fill-rule:evenodd;"
points="33803,44482
33803,43682
34063,43682
34063,44482
33803,44482
" /> 
<polyline style="fill-rule:evenodd;"
points="35803,44482
35803,43682
36063,43682
36063,44482
35803,44482
" /> 
<polyline style="fill-rule:evenodd;"
points="32453,52422
32453,51622
32713,51622
32713,52422
32453,52422
" /> 
<polyline style="fill-rule:evenodd;"
points="32453,49982
32453,49182
32713,49182
32713,49982
32453,49982
" /> 
<polyline style="fill-rule:evenodd;"
points="28953,52402
28953,51602
29213,51602
29213,52402
28953,52402
" /> 
<polyline style="fill-rule:evenodd;"
points="29453,52402
29453,51602
29713,51602
29713,52402
29453,52402
" /> 
<polyline style="fill-rule:evenodd;"
points="29953,52402
29953,51602
30213,51602
30213,52402
29953,52402
" /> 
<polyline style="fill-rule:evenodd;"
points="30453,52402
30453,51602
30713,51602
30713,52402
30453,52402
" /> 
<polyline style="fill-rule:evenodd;"
points="30953,52402
30953,51602
31213,51602
31213,52402
30953,52402
" /> 
<polyline style="fill-rule:evenodd;"
points="31453,52402
31453,51602
31713,51602
31713,52402
31453,52402
" /> 
<polyline style="fill-rule:evenodd;"
points="31953,52402
31953,51602
32213,51602
32213,52402
31953,52402
" /> 
<polyline style="fill-rule:evenodd;"
points="31953,49982
31953,49182
32213,49182
32213,49982
31953,49982
" /> 
<polyline style="fill-rule:evenodd;"
points="31453,49982
31453,49182
31713,49182
31713,49982
31453,49982
" /> 
<polyline style="fill-rule:evenodd;"
points="30453,49982
30453,49182
30713,49182
30713,49982
30453,49982
" /> 
<polyline style="fill-rule:evenodd;"
points="29953,49982
29953,49182
30213,49182
30213,49982
29953,49982
" /> 
<polyline style="fill-rule:evenodd;"
points="29453,49982
29453,49182
29713,49182
29713,49982
29453,49982
" /> 
<polyline style="fill-rule:evenodd;"
points="28953,49982
28953,49182
29213,49182
29213,49982
28953,49982
" /> 
<polyline style="fill-rule:evenodd;"
points="30953,49982
30953,49182
31213,49182
31213,49982
30953,49982
" /> 
<polyline style="fill-rule:evenodd;"
points="41653,52422
41653,51622
41913,51622
41913,52422
41653,52422
" /> 
<polyline style="fill-rule:evenodd;"
points="41653,49982
41653,49182
41913,49182
41913,49982
41653,49982
" /> 
<polyline style="fill-rule:evenodd;"
points="38153,52402
38153,51602
38413,51602
38413,52402
38153,52402
" /> 
<polyline style="fill-rule:evenodd;"
points="38653,52402
38653,51602
38913,51602
38913,52402
38653,52402
" /> 
<polyline style="fill-rule:evenodd;"
points="39153,52402
39153,51602
39413,51602
39413,52402
39153,52402
" /> 
<polyline style="fill-rule:evenodd;"
points="39653,52402
39653,51602
39913,51602
39913,52402
39653,52402
" /> 
<polyline style="fill-rule:evenodd;"
points="40153,52402
40153,51602
40413,51602
40413,52402
40153,52402
" /> 
<polyline style="fill-rule:evenodd;"
points="40653,52402
40653,51602
40913,51602
40913,52402
40653,52402
" /> 
<polyline style="fill-rule:evenodd;"
points="41153,52402
41153,51602
41413,51602
41413,52402
41153,52402
" /> 
<polyline style="fill-rule:evenodd;"
points="41153,49982
41153,49182
41413,49182
41413,49982
41153,49982
" /> 
<polyline style="fill-rule:evenodd;"
points="40653,49982
40653,49182
40913,49182
40913,49982
40653,49982
" /> 
<polyline style="fill-rule:evenodd;"
points="39653,49982
39653,49182
39913,49182
39913,49982
39653,49982
" /> 
<polyline style="fill-rule:evenodd;"
points="39153,49982
39153,49182
39413,49182
39413,49982
39153,49982
" /> 
<polyline style="fill-rule:evenodd;"
points="38653,49982
38653,49182
38913,49182
38913,49982
38653,49982
" /> 
<polyline style="fill-rule:evenodd;"
points="38153,49982
38153,49182
38413,49182
38413,49982
38153,49982
" /> 
<polyline style="fill-rule:evenodd;"
points="40153,49982
40153,49182
40413,49182
40413,49982
40153,49982
" /> 
<polyline style="fill-rule:evenodd;"
points="37153,55882
37153,55082
37413,55082
37413,55882
37153,55882
" /> 
<polyline style="fill-rule:evenodd;"
points="36653,55882
36653,55082
36913,55082
36913,55882
36653,55882
" /> 
<polyline style="fill-rule:evenodd;"
points="36153,55882
36153,55082
36413,55082
36413,55882
36153,55882
" /> 
<polyline style="fill-rule:evenodd;"
points="35653,55882
35653,55082
35913,55082
35913,55882
35653,55882
" /> 
<polyline style="fill-rule:evenodd;"
points="35653,58302
35653,57502
35913,57502
35913,58302
35653,58302
" /> 
<polyline style="fill-rule:evenodd;"
points="36153,58302
36153,57502
36413,57502
36413,58302
36153,58302
" /> 
<polyline style="fill-rule:evenodd;"
points="36653,58302
36653,57502
36913,57502
36913,58302
36653,58302
" /> 
<polyline style="fill-rule:evenodd;"
points="37153,58302
37153,57502
37413,57502
37413,58302
37153,58302
" /> 
<polyline style="fill-rule:evenodd;"
points="26453,51182
26453,50382
26713,50382
26713,51182
26453,51182
" /> 
<polyline style="fill-rule:evenodd;"
points="25953,51182
25953,50382
26213,50382
26213,51182
25953,51182
" /> 
<polyline style="fill-rule:evenodd;"
points="25453,51182
25453,50382
25713,50382
25713,51182
25453,51182
" /> 
<polyline style="fill-rule:evenodd;"
points="24953,51182
24953,50382
25213,50382
25213,51182
24953,51182
" /> 
<polyline style="fill-rule:evenodd;"
points="24953,53602
24953,52802
25213,52802
25213,53602
24953,53602
" /> 
<polyline style="fill-rule:evenodd;"
points="25453,53602
25453,52802
25713,52802
25713,53602
25453,53602
" /> 
<polyline style="fill-rule:evenodd;"
points="25953,53602
25953,52802
26213,52802
26213,53602
25953,53602
" /> 
<polyline style="fill-rule:evenodd;"
points="26453,53602
26453,52802
26713,52802
26713,53602
26453,53602
" /> 
<polyline style="fill-rule:evenodd;"
points="40337,41173
40337,40663
40928,40663
40928,41173
40337,41173
" /> 
<polyline style="fill-rule:evenodd;"
points="40337,41921
40337,41411
40928,41411
40928,41921
40337,41921
" /> 
<polyline style="fill-rule:evenodd;"
points="40928,38911
40928,39421
40337,39421
40337,38911
40928,38911
" /> 
<polyline style="fill-rule:evenodd;"
points="40928,38163
40928,38673
40337,38673
40337,38163
40928,38163
" /> 
<polyline style="fill-rule:evenodd;"
points="35381,57807
35381,58948
34299,58948
34299,57807
35381,57807
" /> 
<polyline style="fill-rule:evenodd;"
points="35381,61566
35381,62511
34377,62511
34377,61566
35381,61566
" /> 
<polyline style="fill-rule:evenodd;"
points="32488,60818
32488,61763
31484,61763
31484,60818
32488,60818
" /> 
<circle cx="28333.1" cy="47917.3" r="300" /> 
</g>
<g style="fill:#000000; fill-opacity:1.0; 
stroke:#000000; stroke-width:39.3701; stroke-opacity:1; 
stroke-linecap:round; stroke-linejoin:round;">
</g>
<g style="fill:#000000; fill-opacity:1.0; 
stroke:#000000; stroke-width:0; stroke-opacity:1; 
stroke-linecap:round; stroke-linejoin:round;">
<circle cx="43433.1" cy="47917.3" r="300" /> 
</g>
<g style="fill:#000000; fill-opacity:1.0; 
stroke:#000000; stroke-width:39.3701; stroke-opacity:1; 
stroke-linecap:round; stroke-linejoin:round;">
</g>
<g style="fill:#000000; fill-opacity:0.0; 
stroke:#000000; stroke-width:39.3701; stroke-opacity:1; 
stroke-linecap:round; stroke-linejoin:round;">
<path d="M47244 28189
L47244 28386
" />
<path d="M47244 25393
L47244 63188
" />
<path d="M46456 24606
L47244 25393
" />
<path d="M24409 24606
L46456 24606
" />
<path d="M23622 25393
L24409 24606
" />
<path d="M23622 61417
L23622 25393
" />
<path d="M24409 62204
L23622 61417
" />
<path d="M30590 62204
L24409 62204
" />
<path d="M32362 63976
L30590 62204
" />
<path d="M46456 63976
L32362 63976
" />
<path d="M47244 63188
L46456 63976
" />
<path d="M47244 27755
L47244 28189
" />
</g> 
</svg>
