  0
SECTION
  2
HEADER
  9
$ACADVER
  1
AC1014
  9
$HANDSEED
  5
FFFF
  9
$MEASUREMENT
 70
     1
  0
ENDSEC
  0
SECTION
  2
TABLES
  0
TABLE
  2
VPORT
  5
8
330
0
100
AcDbSymbolTable
 70
     4
  0
VPORT
  5
2E
330
8
100
AcDbSymbolTableRecord
100
AcDbViewportTableRecord
  2
*ACTIVE
 70
     0
 10
0.0
 20
0.0
 11
1.0
 21
1.0
 12
210.0
 22
148.5
 13
0.0
 23
0.0
 14
10.0
 24
10.0
 15
10.0
 25
10.0
 16
0.0
 26
0.0
 36
1.0
 17
0.0
 27
0.0
 37
0.0
 40
341.0
 41
1.24
 42
50.0
 43
0.0
 44
0.0
 50
0.0
 51
0.0
 71
     0
 72
   100
 73
     1
 74
     3
 75
     0
 76
     0
 77
     0
 78
     0
  0
ENDTAB
  0
TABLE
  2
LTYPE
  5
5
330
0
100
AcDbSymbolTable
 70
     1
  0
LTYPE
  5
14
330
5
100
AcDbSymbolTableRecord
100
AcDbLinetypeTableRecord
  2
BYBLOCK
 70
     0
  3

 72
    65
 73
     0
 40
0.0
  0
LTYPE
  5
15
330
5
100
AcDbSymbolTableRecord
100
AcDbLinetypeTableRecord
  2
BYLAYER
 70
     0
  3

 72
    65
 73
     0
 40
0.0
  0
LTYPE
  5
16
330
5
100
AcDbSymbolTableRecord
100
AcDbLinetypeTableRecord
  2
CONTINUOUS
 70
     0
  3
Solid line
 72
    65
 73
     0
 40
0.0
  0
ENDTAB
  0
TABLE
  2
LAYER
  5
2
100
AcDbSymbolTable
 70
2
  0
LAYER
  5
50
100
AcDbSymbolTableRecord
100
AcDbLayerTableRecord
  2
0
 70
0
  6
CONTINUOUS
  0
LAYER
  5
51
100
AcDbSymbolTableRecord
100
AcDbLayerTableRecord
  2
Layer_1
 70
0
  6
CONTINUOUS
  0
ENDTAB
  0
TABLE
  2
STYLE
  5
3
330
0
100
AcDbSymbolTable
 70
     1
  0
STYLE
  5
11
330
3
100
AcDbSymbolTableRecord
100
AcDbTextStyleTableRecord
  2
STANDARD
 70
     0
 40
0.0
 41
1.0
 50
0.0
 71
     0
 42
2.5
  3
txt
  4

  0
ENDTAB
  0
TABLE
  2
VIEW
  5
6
330
0
100
AcDbSymbolTable
 70
     0
  0
ENDTAB
  0
TABLE
  2
UCS
  5
7
330
0
100
AcDbSymbolTable
 70
     0
  0
ENDTAB
  0
TABLE
  2
APPID
  5
9
330
0
100
AcDbSymbolTable
 70
     2
  0
APPID
  5
12
330
9
100
AcDbSymbolTableRecord
100
AcDbRegAppTableRecord
  2
ACAD
 70
     0
  0
ENDTAB
  0
TABLE
  2
DIMSTYLE
  5
A
330
0
100
AcDbSymbolTable
 70
     1
  0
DIMSTYLE
105
27
330
A
100
AcDbSymbolTableRecord
100
AcDbDimStyleTableRecord
  2
ISO-25
 70
     0
  3

  4

  5

  6

  7

 40
1.0
 41
2.5
 42
0.625
 43
3.75
 44
1.25
 45
0.0
 46
0.0
 47
0.0
 48
0.0
140
2.5
141
2.5
142
0.0
143
0.03937007874016
144
1.0
145
0.0
146
1.0
147
0.625
 71
     0
 72
     0
 73
     0
 74
     0
 75
     0
 76
     0
 77
     1
 78
     8
170
     0
171
     3
172
     1
173
     0
174
     0
175
     0
176
     0
177
     0
178
     0
270
     2
271
     2
272
     2
273
     2
274
     3
340
11
275
     0
280
     0
281
     0
282
     0
283
     0
284
     8
285
     0
286
     0
287
     3
288
     0
  0
ENDTAB
  0
TABLE
  2
BLOCK_RECORD
  5
1
330
0
100
AcDbSymbolTable
 70
     1
  0
BLOCK_RECORD
  5
1F
330
1
100
AcDbSymbolTableRecord
100
AcDbBlockTableRecord
  2
*MODEL_SPACE
  0
BLOCK_RECORD
  5
1B
330
1
100
AcDbSymbolTableRecord
100
AcDbBlockTableRecord
  2
*PAPER_SPACE
  0
ENDTAB
  0
ENDSEC
  0
SECTION
  2
BLOCKS
  0
BLOCK
  5
20
330
1F
100
AcDbEntity
  8
0
100
AcDbBlockBegin
  2
*MODEL_SPACE
 70
     0
 10
0.0
 20
0.0
 30
0.0
  3
*MODEL_SPACE
  1

  0
ENDBLK
  5
21
330
1F
100
AcDbEntity
  8
0
100
AcDbBlockEnd
  0
BLOCK
  5
1C
330
1B
100
AcDbEntity
 67
     1
  8
0
100
AcDbBlockBegin
  2
*PAPER_SPACE
  1

  0
ENDBLK
  5
1D
330
1B
100
AcDbEntity
 67
     1
  8
0
100
AcDbBlockEnd
  0
ENDSEC
  0
SECTION
  2
ENTITIES
  0
LWPOLYLINE
  5
100
100
AcDbEntity
  8
Layer_1
 62
7
100
AcDbPolyline
 90
5
 70
0
 10
62.391687
 20
219.141799
 30
0.0
 10
62.391687
 20
221.173797
 30
0.0
 10
63.052087
 20
221.173797
 30
0.0
 10
63.052087
 20
219.141799
 30
0.0
 10
62.391687
 20
219.141799
 30
0.0
  0
LWPOLYLINE
  5
101
100
AcDbEntity
  8
Layer_1
 62
7
100
AcDbPolyline
 90
5
 70
0
 10
63.661686
 20
219.141799
 30
0.0
 10
63.661686
 20
221.173797
 30
0.0
 10
64.322085
 20
221.173797
 30
0.0
 10
64.322085
 20
219.141799
 30
0.0
 10
63.661686
 20
219.141799
 30
0.0
  0
LWPOLYLINE
  5
102
100
AcDbEntity
  8
Layer_1
 62
7
100
AcDbPolyline
 90
5
 70
0
 10
64.931685
 20
219.141799
 30
0.0
 10
64.931685
 20
221.173797
 30
0.0
 10
65.592084
 20
221.173797
 30
0.0
 10
65.592084
 20
219.141799
 30
0.0
 10
64.931685
 20
219.141799
 30
0.0
  0
LWPOLYLINE
  5
103
100
AcDbEntity
  8
Layer_1
 62
7
100
AcDbPolyline
 90
5
 70
0
 10
66.201683
 20
219.141799
 30
0.0
 10
66.201683
 20
221.173797
 30
0.0
 10
66.862082
 20
221.173797
 30
0.0
 10
66.862082
 20
219.141799
 30
0.0
 10
66.201683
 20
219.141799
 30
0.0
  0
LWPOLYLINE
  5
104
100
AcDbEntity
  8
Layer_1
 62
7
100
AcDbPolyline
 90
5
 70
0
 10
67.471682
 20
219.141799
 30
0.0
 10
67.471682
 20
221.173797
 30
0.0
 10
68.132081
 20
221.173797
 30
0.0
 10
68.132081
 20
219.141799
 30
0.0
 10
67.471682
 20
219.141799
 30
0.0
  0
LWPOLYLINE
  5
105
100
AcDbEntity
  8
Layer_1
 62
7
100
AcDbPolyline
 90
5
 70
0
 10
68.741680
 20
219.141799
 30
0.0
 10
68.741680
 20
221.173797
 30
0.0
 10
69.402080
 20
221.173797
 30
0.0
 10
69.402080
 20
219.141799
 30
0.0
 10
68.741680
 20
219.141799
 30
0.0
  0
LWPOLYLINE
  5
106
100
AcDbEntity
  8
Layer_1
 62
7
100
AcDbPolyline
 90
5
 70
0
 10
70.011679
 20
219.141799
 30
0.0
 10
70.011679
 20
221.173797
 30
0.0
 10
70.672078
 20
221.173797
 30
0.0
 10
70.672078
 20
219.141799
 30
0.0
 10
70.011679
 20
219.141799
 30
0.0
  0
LWPOLYLINE
  5
107
100
AcDbEntity
  8
Layer_1
 62
7
100
AcDbPolyline
 90
5
 70
0
 10
70.011679
 20
225.288592
 30
0.0
 10
70.011679
 20
227.320590
 30
0.0
 10
70.672078
 20
227.320590
 30
0.0
 10
70.672078
 20
225.288592
 30
0.0
 10
70.011679
 20
225.288592
 30
0.0
  0
LWPOLYLINE
  5
108
100
AcDbEntity
  8
Layer_1
 62
7
100
AcDbPolyline
 90
5
 70
0
 10
68.741680
 20
225.288592
 30
0.0
 10
68.741680
 20
227.320590
 30
0.0
 10
69.402080
 20
227.320590
 30
0.0
 10
69.402080
 20
225.288592
 30
0.0
 10
68.741680
 20
225.288592
 30
0.0
  0
LWPOLYLINE
  5
109
100
AcDbEntity
  8
Layer_1
 62
7
100
AcDbPolyline
 90
5
 70
0
 10
66.201683
 20
225.288592
 30
0.0
 10
66.201683
 20
227.320590
 30
0.0
 10
66.862082
 20
227.320590
 30
0.0
 10
66.862082
 20
225.288592
 30
0.0
 10
66.201683
 20
225.288592
 30
0.0
  0
LWPOLYLINE
  5
10a
100
AcDbEntity
  8
Layer_1
 62
7
100
AcDbPolyline
 90
5
 70
0
 10
64.931685
 20
225.288592
 30
0.0
 10
64.931685
 20
227.320590
 30
0.0
 10
65.592084
 20
227.320590
 30
0.0
 10
65.592084
 20
225.288592
 30
0.0
 10
64.931685
 20
225.288592
 30
0.0
  0
LWPOLYLINE
  5
10b
100
AcDbEntity
  8
Layer_1
 62
7
100
AcDbPolyline
 90
5
 70
0
 10
63.661686
 20
225.288592
 30
0.0
 10
63.661686
 20
227.320590
 30
0.0
 10
64.322085
 20
227.320590
 30
0.0
 10
64.322085
 20
225.288592
 30
0.0
 10
63.661686
 20
225.288592
 30
0.0
  0
LWPOLYLINE
  5
10c
100
AcDbEntity
  8
Layer_1
 62
7
100
AcDbPolyline
 90
5
 70
0
 10
62.391687
 20
225.288592
 30
0.0
 10
62.391687
 20
227.320590
 30
0.0
 10
63.052087
 20
227.320590
 30
0.0
 10
63.052087
 20
225.288592
 30
0.0
 10
62.391687
 20
225.288592
 30
0.0
  0
LWPOLYLINE
  5
10d
100
AcDbEntity
  8
Layer_1
 62
7
100
AcDbPolyline
 90
5
 70
0
 10
67.471682
 20
225.288592
 30
0.0
 10
67.471682
 20
227.320590
 30
0.0
 10
68.132081
 20
227.320590
 30
0.0
 10
68.132081
 20
225.288592
 30
0.0
 10
67.471682
 20
225.288592
 30
0.0
  0
LWPOLYLINE
  5
10e
100
AcDbEntity
  8
Layer_1
 62
7
100
AcDbPolyline
 90
5
 70
0
 10
93.074853
 20
219.459299
 30
0.0
 10
93.074853
 20
221.389697
 30
0.0
 10
96.884849
 20
221.389697
 30
0.0
 10
96.884849
 20
219.459299
 30
0.0
 10
93.074853
 20
219.459299
 30
0.0
  0
LWPOLYLINE
  5
10f
100
AcDbEntity
  8
Layer_1
 62
7
100
AcDbPolyline
 90
5
 70
0
 10
93.074853
 20
224.059234
 30
0.0
 10
93.074853
 20
225.989631
 30
0.0
 10
96.884849
 20
225.989631
 30
0.0
 10
96.884849
 20
224.059234
 30
0.0
 10
93.074853
 20
224.059234
 30
0.0
  0
LWPOLYLINE
  5
110
100
AcDbEntity
  8
Layer_1
 62
7
100
AcDbPolyline
 90
5
 70
0
 10
96.884849
 20
215.067644
 30
0.0
 10
96.884849
 20
213.137246
 30
0.0
 10
93.074853
 20
213.137246
 30
0.0
 10
93.074853
 20
215.067644
 30
0.0
 10
96.884849
 20
215.067644
 30
0.0
  0
LWPOLYLINE
  5
111
100
AcDbEntity
  8
Layer_1
 62
7
100
AcDbPolyline
 90
5
 70
0
 10
96.884849
 20
210.467709
 30
0.0
 10
96.884849
 20
208.537311
 30
0.0
 10
93.074853
 20
208.537311
 30
0.0
 10
93.074853
 20
210.467709
 30
0.0
 10
96.884849
 20
210.467709
 30
0.0
  0
LWPOLYLINE
  5
112
100
AcDbEntity
  8
Layer_1
 62
7
100
AcDbPolyline
 90
5
 70
0
 10
74.192514
 20
198.715142
 30
0.0
 10
76.293092
 20
198.715142
 30
0.0
 10
76.293092
 20
193.114448
 30
0.0
 10
74.192514
 20
193.114448
 30
0.0
 10
74.192514
 20
198.715142
 30
0.0
  0
LWPOLYLINE
  5
113
100
AcDbEntity
  8
Layer_1
 62
7
100
AcDbPolyline
 90
5
 70
0
 10
74.116314
 20
188.925993
 30
0.0
 10
76.216892
 20
188.925993
 30
0.0
 10
76.216892
 20
183.325299
 30
0.0
 10
74.116314
 20
183.325299
 30
0.0
 10
74.116314
 20
188.925993
 30
0.0
  0
LWPOLYLINE
  5
114
100
AcDbEntity
  8
Layer_1
 62
7
100
AcDbPolyline
 90
5
 70
0
 10
80.191988
 20
198.715142
 30
0.0
 10
82.292565
 20
198.715142
 30
0.0
 10
82.292565
 20
193.114448
 30
0.0
 10
80.191988
 20
193.114448
 30
0.0
 10
80.191988
 20
198.715142
 30
0.0
  0
LWPOLYLINE
  5
115
100
AcDbEntity
  8
Layer_1
 62
7
100
AcDbPolyline
 90
5
 70
0
 10
80.212308
 20
188.925993
 30
0.0
 10
82.312885
 20
188.925993
 30
0.0
 10
82.312885
 20
183.325299
 30
0.0
 10
80.212308
 20
183.325299
 30
0.0
 10
80.212308
 20
188.925993
 30
0.0
  0
LWPOLYLINE
  5
116
100
AcDbEntity
  8
Layer_1
 62
7
100
AcDbPolyline
 90
5
 70
0
 10
88.548578
 20
223.863654
 30
0.0
 10
88.548578
 20
224.663753
 30
0.0
 10
89.348677
 20
224.663753
 30
0.0
 10
89.348677
 20
223.863654
 30
0.0
 10
88.548578
 20
223.863654
 30
0.0
  0
LWPOLYLINE
  5
117
100
AcDbEntity
  8
Layer_1
 62
7
100
AcDbPolyline
 90
5
 70
0
 10
90.448496
 20
223.863654
 30
0.0
 10
90.448496
 20
224.663753
 30
0.0
 10
91.248595
 20
224.663753
 30
0.0
 10
91.248595
 20
223.863654
 30
0.0
 10
90.448496
 20
223.863654
 30
0.0
  0
LWPOLYLINE
  5
118
100
AcDbEntity
  8
Layer_1
 62
7
100
AcDbPolyline
 90
5
 70
0
 10
89.498537
 20
225.862632
 30
0.0
 10
89.498537
 20
226.662731
 30
0.0
 10
90.298636
 20
226.662731
 30
0.0
 10
90.298636
 20
225.862632
 30
0.0
 10
89.498537
 20
225.862632
 30
0.0
  0
LWPOLYLINE
  5
119
100
AcDbEntity
  8
Layer_1
 62
7
100
AcDbPolyline
 90
5
 70
0
 10
91.248595
 20
211.933287
 30
0.0
 10
91.248595
 20
211.133188
 30
0.0
 10
90.448496
 20
211.133188
 30
0.0
 10
90.448496
 20
211.933287
 30
0.0
 10
91.248595
 20
211.933287
 30
0.0
  0
LWPOLYLINE
  5
11a
100
AcDbEntity
  8
Layer_1
 62
7
100
AcDbPolyline
 90
5
 70
0
 10
89.348677
 20
211.933287
 30
0.0
 10
89.348677
 20
211.133188
 30
0.0
 10
88.548578
 20
211.133188
 30
0.0
 10
88.548578
 20
211.933287
 30
0.0
 10
89.348677
 20
211.933287
 30
0.0
  0
LWPOLYLINE
  5
11b
100
AcDbEntity
  8
Layer_1
 62
7
100
AcDbPolyline
 90
5
 70
0
 10
90.298636
 20
209.934309
 30
0.0
 10
90.298636
 20
209.134210
 30
0.0
 10
89.498537
 20
209.134210
 30
0.0
 10
89.498537
 20
209.934309
 30
0.0
 10
90.298636
 20
209.934309
 30
0.0
  0
LWPOLYLINE
  5
11c
100
AcDbEntity
  8
Layer_1
 62
7
100
AcDbPolyline
 90
5
 70
0
 10
83.052024
 20
210.706468
 30
0.0
 10
83.052024
 20
212.001867
 30
0.0
 10
84.553163
 20
212.001867
 30
0.0
 10
84.553163
 20
210.706468
 30
0.0
 10
83.052024
 20
210.706468
 30
0.0
  0
LWPOLYLINE
  5
11d
100
AcDbEntity
  8
Layer_1
 62
7
100
AcDbPolyline
 90
5
 70
0
 10
83.052024
 20
208.806551
 30
0.0
 10
83.052024
 20
210.101949
 30
0.0
 10
84.553163
 20
210.101949
 30
0.0
 10
84.553163
 20
208.806551
 30
0.0
 10
83.052024
 20
208.806551
 30
0.0
  0
LWPOLYLINE
  5
11e
100
AcDbEntity
  8
Layer_1
 62
7
100
AcDbPolyline
 90
5
 70
0
 10
58.137192
 20
222.928935
 30
0.0
 10
58.137192
 20
221.633536
 30
0.0
 10
56.636054
 20
221.633536
 30
0.0
 10
56.636054
 20
222.928935
 30
0.0
 10
58.137192
 20
222.928935
 30
0.0
  0
LWPOLYLINE
  5
11f
100
AcDbEntity
  8
Layer_1
 62
7
100
AcDbPolyline
 90
5
 70
0
 10
58.137192
 20
224.828853
 30
0.0
 10
58.137192
 20
223.533454
 30
0.0
 10
56.636054
 20
223.533454
 30
0.0
 10
56.636054
 20
224.828853
 30
0.0
 10
58.137192
 20
224.828853
 30
0.0
  0
LWPOLYLINE
  5
120
100
AcDbEntity
  8
Layer_1
 62
7
100
AcDbPolyline
 90
5
 70
0
 10
64.548145
 20
231.349026
 30
0.0
 10
65.843544
 20
231.349026
 30
0.0
 10
65.843544
 20
229.847887
 30
0.0
 10
64.548145
 20
229.847887
 30
0.0
 10
64.548145
 20
231.349026
 30
0.0
  0
LWPOLYLINE
  5
121
100
AcDbEntity
  8
Layer_1
 62
7
100
AcDbPolyline
 90
5
 70
0
 10
62.648227
 20
231.349026
 30
0.0
 10
63.943626
 20
231.349026
 30
0.0
 10
63.943626
 20
229.847887
 30
0.0
 10
62.648227
 20
229.847887
 30
0.0
 10
62.648227
 20
231.349026
 30
0.0
  0
LWPOLYLINE
  5
122
100
AcDbEntity
  8
Layer_1
 62
7
100
AcDbPolyline
 90
5
 70
0
 10
59.684050
 20
223.533454
 30
0.0
 10
59.684050
 20
224.828853
 30
0.0
 10
61.185189
 20
224.828853
 30
0.0
 10
61.185189
 20
223.533454
 30
0.0
 10
59.684050
 20
223.533454
 30
0.0
  0
LWPOLYLINE
  5
123
100
AcDbEntity
  8
Layer_1
 62
7
100
AcDbPolyline
 90
5
 70
0
 10
59.684050
 20
221.633536
 30
0.0
 10
59.684050
 20
222.928935
 30
0.0
 10
61.185189
 20
222.928935
 30
0.0
 10
61.185189
 20
221.633536
 30
0.0
 10
59.684050
 20
221.633536
 30
0.0
  0
LWPOLYLINE
  5
124
100
AcDbEntity
  8
Layer_1
 62
7
100
AcDbPolyline
 90
5
 70
0
 10
80.707607
 20
168.633955
 30
0.0
 10
79.412208
 20
168.633955
 30
0.0
 10
79.412208
 20
170.135094
 30
0.0
 10
80.707607
 20
170.135094
 30
0.0
 10
80.707607
 20
168.633955
 30
0.0
  0
LWPOLYLINE
  5
125
100
AcDbEntity
  8
Layer_1
 62
7
100
AcDbPolyline
 90
5
 70
0
 10
82.607525
 20
168.633955
 30
0.0
 10
81.312126
 20
168.633955
 30
0.0
 10
81.312126
 20
170.135094
 30
0.0
 10
82.607525
 20
170.135094
 30
0.0
 10
82.607525
 20
168.633955
 30
0.0
  0
LWPOLYLINE
  5
126
100
AcDbEntity
  8
Layer_1
 62
7
100
AcDbPolyline
 90
5
 70
0
 10
80.296127
 20
211.664047
 30
0.0
 10
81.591526
 20
211.664047
 30
0.0
 10
81.591526
 20
210.162909
 30
0.0
 10
80.296127
 20
210.162909
 30
0.0
 10
80.296127
 20
211.664047
 30
0.0
  0
LWPOLYLINE
  5
127
100
AcDbEntity
  8
Layer_1
 62
7
100
AcDbPolyline
 90
5
 70
0
 10
78.396210
 20
211.664047
 30
0.0
 10
79.691608
 20
211.664047
 30
0.0
 10
79.691608
 20
210.162909
 30
0.0
 10
78.396210
 20
210.162909
 30
0.0
 10
78.396210
 20
211.664047
 30
0.0
  0
LWPOLYLINE
  5
128
100
AcDbEntity
  8
Layer_1
 62
7
100
AcDbPolyline
 90
5
 70
0
 10
96.514009
 20
191.021490
 30
0.0
 10
96.514009
 20
192.316889
 30
0.0
 10
98.015148
 20
192.316889
 30
0.0
 10
98.015148
 20
191.021490
 30
0.0
 10
96.514009
 20
191.021490
 30
0.0
  0
LWPOLYLINE
  5
129
100
AcDbEntity
  8
Layer_1
 62
7
100
AcDbPolyline
 90
5
 70
0
 10
96.514009
 20
189.121572
 30
0.0
 10
96.514009
 20
190.416971
 30
0.0
 10
98.015148
 20
190.416971
 30
0.0
 10
98.015148
 20
189.121572
 30
0.0
 10
96.514009
 20
189.121572
 30
0.0
  0
LWPOLYLINE
  5
12a
100
AcDbEntity
  8
Layer_1
 62
7
100
AcDbPolyline
 90
5
 70
0
 10
58.668051
 20
191.275490
 30
0.0
 10
58.668051
 20
192.570889
 30
0.0
 10
60.169190
 20
192.570889
 30
0.0
 10
60.169190
 20
191.275490
 30
0.0
 10
58.668051
 20
191.275490
 30
0.0
  0
LWPOLYLINE
  5
12b
100
AcDbEntity
  8
Layer_1
 62
7
100
AcDbPolyline
 90
5
 70
0
 10
58.668051
 20
189.375572
 30
0.0
 10
58.668051
 20
190.670971
 30
0.0
 10
60.169190
 20
190.670971
 30
0.0
 10
60.169190
 20
189.375572
 30
0.0
 10
58.668051
 20
189.375572
 30
0.0
  0
LWPOLYLINE
  5
12c
100
AcDbEntity
  8
Layer_1
 62
7
100
AcDbPolyline
 90
5
 70
0
 10
59.557051
 20
212.865466
 30
0.0
 10
59.557051
 20
214.160865
 30
0.0
 10
61.058189
 20
214.160865
 30
0.0
 10
61.058189
 20
212.865466
 30
0.0
 10
59.557051
 20
212.865466
 30
0.0
  0
LWPOLYLINE
  5
12d
100
AcDbEntity
  8
Layer_1
 62
7
100
AcDbPolyline
 90
5
 70
0
 10
59.557051
 20
210.965548
 30
0.0
 10
59.557051
 20
212.260947
 30
0.0
 10
61.058189
 20
212.260947
 30
0.0
 10
61.058189
 20
210.965548
 30
0.0
 10
59.557051
 20
210.965548
 30
0.0
  0
LWPOLYLINE
  5
12e
100
AcDbEntity
  8
Layer_1
 62
7
100
AcDbPolyline
 90
5
 70
0
 10
75.978132
 20
182.327080
 30
0.0
 10
77.273531
 20
182.327080
 30
0.0
 10
77.273531
 20
180.825942
 30
0.0
 10
75.978132
 20
180.825942
 30
0.0
 10
75.978132
 20
182.327080
 30
0.0
  0
LWPOLYLINE
  5
12f
100
AcDbEntity
  8
Layer_1
 62
7
100
AcDbPolyline
 90
5
 70
0
 10
74.078214
 20
182.327080
 30
0.0
 10
75.373613
 20
182.327080
 30
0.0
 10
75.373613
 20
180.825942
 30
0.0
 10
74.078214
 20
180.825942
 30
0.0
 10
74.078214
 20
182.327080
 30
0.0
  0
LWPOLYLINE
  5
130
100
AcDbEntity
  8
Layer_1
 62
7
100
AcDbPolyline
 90
5
 70
0
 10
75.940032
 20
178.321504
 30
0.0
 10
75.940032
 20
179.616903
 30
0.0
 10
77.441171
 20
179.616903
 30
0.0
 10
77.441171
 20
178.321504
 30
0.0
 10
75.940032
 20
178.321504
 30
0.0
  0
LWPOLYLINE
  5
131
100
AcDbEntity
  8
Layer_1
 62
7
100
AcDbPolyline
 90
5
 70
0
 10
75.940032
 20
176.421587
 30
0.0
 10
75.940032
 20
177.716985
 30
0.0
 10
77.441171
 20
177.716985
 30
0.0
 10
77.441171
 20
176.421587
 30
0.0
 10
75.940032
 20
176.421587
 30
0.0
  0
LWPOLYLINE
  5
132
100
AcDbEntity
  8
Layer_1
 62
7
100
AcDbPolyline
 90
5
 70
0
 10
58.645192
 20
217.213941
 30
0.0
 10
58.645192
 20
215.918543
 30
0.0
 10
57.144053
 20
215.918543
 30
0.0
 10
57.144053
 20
217.213941
 30
0.0
 10
58.645192
 20
217.213941
 30
0.0
  0
LWPOLYLINE
  5
133
100
AcDbEntity
  8
Layer_1
 62
7
100
AcDbPolyline
 90
5
 70
0
 10
58.645192
 20
219.113859
 30
0.0
 10
58.645192
 20
217.818461
 30
0.0
 10
57.144053
 20
217.818461
 30
0.0
 10
57.144053
 20
219.113859
 30
0.0
 10
58.645192
 20
219.113859
 30
0.0
  0
LWPOLYLINE
  5
134
100
AcDbEntity
  8
Layer_1
 62
7
100
AcDbPolyline
 90
5
 70
0
 10
73.400035
 20
178.321504
 30
0.0
 10
73.400035
 20
179.616903
 30
0.0
 10
74.901173
 20
179.616903
 30
0.0
 10
74.901173
 20
178.321504
 30
0.0
 10
73.400035
 20
178.321504
 30
0.0
  0
LWPOLYLINE
  5
135
100
AcDbEntity
  8
Layer_1
 62
7
100
AcDbPolyline
 90
5
 70
0
 10
73.400035
 20
176.421587
 30
0.0
 10
73.400035
 20
177.716985
 30
0.0
 10
74.901173
 20
177.716985
 30
0.0
 10
74.901173
 20
176.421587
 30
0.0
 10
73.400035
 20
176.421587
 30
0.0
  0
LWPOLYLINE
  5
136
100
AcDbEntity
  8
Layer_1
 62
7
100
AcDbPolyline
 90
5
 70
0
 10
81.058127
 20
182.327080
 30
0.0
 10
82.353525
 20
182.327080
 30
0.0
 10
82.353525
 20
180.825942
 30
0.0
 10
81.058127
 20
180.825942
 30
0.0
 10
81.058127
 20
182.327080
 30
0.0
  0
LWPOLYLINE
  5
137
100
AcDbEntity
  8
Layer_1
 62
7
100
AcDbPolyline
 90
5
 70
0
 10
79.158209
 20
182.327080
 30
0.0
 10
80.453607
 20
182.327080
 30
0.0
 10
80.453607
 20
180.825942
 30
0.0
 10
79.158209
 20
180.825942
 30
0.0
 10
79.158209
 20
182.327080
 30
0.0
  0
LWPOLYLINE
  5
138
100
AcDbEntity
  8
Layer_1
 62
7
100
AcDbPolyline
 90
5
 70
0
 10
57.144053
 20
212.865466
 30
0.0
 10
57.144053
 20
214.160865
 30
0.0
 10
58.645192
 20
214.160865
 30
0.0
 10
58.645192
 20
212.865466
 30
0.0
 10
57.144053
 20
212.865466
 30
0.0
  0
LWPOLYLINE
  5
139
100
AcDbEntity
  8
Layer_1
 62
7
100
AcDbPolyline
 90
5
 70
0
 10
57.144053
 20
210.965548
 30
0.0
 10
57.144053
 20
212.260947
 30
0.0
 10
58.645192
 20
212.260947
 30
0.0
 10
58.645192
 20
210.965548
 30
0.0
 10
57.144053
 20
210.965548
 30
0.0
  0
LWPOLYLINE
  5
13a
100
AcDbEntity
  8
Layer_1
 62
7
100
AcDbPolyline
 90
5
 70
0
 10
88.386018
 20
184.417498
 30
0.0
 10
88.386018
 20
185.712896
 30
0.0
 10
89.887157
 20
185.712896
 30
0.0
 10
89.887157
 20
184.417498
 30
0.0
 10
88.386018
 20
184.417498
 30
0.0
  0
LWPOLYLINE
  5
13b
100
AcDbEntity
  8
Layer_1
 62
7
100
AcDbPolyline
 90
5
 70
0
 10
88.386018
 20
182.517580
 30
0.0
 10
88.386018
 20
183.812978
 30
0.0
 10
89.887157
 20
183.812978
 30
0.0
 10
89.887157
 20
182.517580
 30
0.0
 10
88.386018
 20
182.517580
 30
0.0
  0
LWPOLYLINE
  5
13c
100
AcDbEntity
  8
Layer_1
 62
7
100
AcDbPolyline
 90
5
 70
0
 10
85.315162
 20
199.306961
 30
0.0
 10
85.315162
 20
198.011563
 30
0.0
 10
83.814024
 20
198.011563
 30
0.0
 10
83.814024
 20
199.306961
 30
0.0
 10
85.315162
 20
199.306961
 30
0.0
  0
LWPOLYLINE
  5
13d
100
AcDbEntity
  8
Layer_1
 62
7
100
AcDbPolyline
 90
5
 70
0
 10
85.315162
 20
201.206879
 30
0.0
 10
85.315162
 20
199.911480
 30
0.0
 10
83.814024
 20
199.911480
 30
0.0
 10
83.814024
 20
201.206879
 30
0.0
 10
85.315162
 20
201.206879
 30
0.0
  0
LWPOLYLINE
  5
13e
100
AcDbEntity
  8
Layer_1
 62
7
100
AcDbPolyline
 90
5
 70
0
 10
66.542043
 20
184.417498
 30
0.0
 10
66.542043
 20
185.712896
 30
0.0
 10
68.043181
 20
185.712896
 30
0.0
 10
68.043181
 20
184.417498
 30
0.0
 10
66.542043
 20
184.417498
 30
0.0
  0
LWPOLYLINE
  5
13f
100
AcDbEntity
  8
Layer_1
 62
7
100
AcDbPolyline
 90
5
 70
0
 10
66.542043
 20
182.517580
 30
0.0
 10
66.542043
 20
183.812978
 30
0.0
 10
68.043181
 20
183.812978
 30
0.0
 10
68.043181
 20
182.517580
 30
0.0
 10
66.542043
 20
182.517580
 30
0.0
  0
LWPOLYLINE
  5
140
100
AcDbEntity
  8
Layer_1
 62
7
100
AcDbPolyline
 90
5
 70
0
 10
66.580143
 20
201.377059
 30
0.0
 10
67.875541
 20
201.377059
 30
0.0
 10
67.875541
 20
199.875921
 30
0.0
 10
66.580143
 20
199.875921
 30
0.0
 10
66.580143
 20
201.377059
 30
0.0
  0
LWPOLYLINE
  5
141
100
AcDbEntity
  8
Layer_1
 62
7
100
AcDbPolyline
 90
5
 70
0
 10
64.680225
 20
201.377059
 30
0.0
 10
65.975623
 20
201.377059
 30
0.0
 10
65.975623
 20
199.875921
 30
0.0
 10
64.680225
 20
199.875921
 30
0.0
 10
64.680225
 20
201.377059
 30
0.0
  0
LWPOLYLINE
  5
142
100
AcDbEntity
  8
Layer_1
 62
7
100
AcDbPolyline
 90
5
 70
0
 10
74.924033
 20
212.611466
 30
0.0
 10
74.924033
 20
213.906865
 30
0.0
 10
76.425172
 20
213.906865
 30
0.0
 10
76.425172
 20
212.611466
 30
0.0
 10
74.924033
 20
212.611466
 30
0.0
  0
LWPOLYLINE
  5
143
100
AcDbEntity
  8
Layer_1
 62
7
100
AcDbPolyline
 90
5
 70
0
 10
74.924033
 20
210.711548
 30
0.0
 10
74.924033
 20
212.006947
 30
0.0
 10
76.425172
 20
212.006947
 30
0.0
 10
76.425172
 20
210.711548
 30
0.0
 10
74.924033
 20
210.711548
 30
0.0
  0
LWPOLYLINE
  5
144
100
AcDbEntity
  8
Layer_1
 62
7
100
AcDbPolyline
 90
5
 70
0
 10
85.592022
 20
210.706468
 30
0.0
 10
85.592022
 20
212.001867
 30
0.0
 10
87.093160
 20
212.001867
 30
0.0
 10
87.093160
 20
210.706468
 30
0.0
 10
85.592022
 20
210.706468
 30
0.0
  0
LWPOLYLINE
  5
145
100
AcDbEntity
  8
Layer_1
 62
7
100
AcDbPolyline
 90
5
 70
0
 10
85.592022
 20
208.806551
 30
0.0
 10
85.592022
 20
210.101949
 30
0.0
 10
87.093160
 20
210.101949
 30
0.0
 10
87.093160
 20
208.806551
 30
0.0
 10
85.592022
 20
208.806551
 30
0.0
  0
LWPOLYLINE
  5
146
100
AcDbEntity
  8
Layer_1
 62
7
100
AcDbPolyline
 90
5
 70
0
 10
87.093160
 20
214.546944
 30
0.0
 10
87.093160
 20
213.251546
 30
0.0
 10
85.592022
 20
213.251546
 30
0.0
 10
85.592022
 20
214.546944
 30
0.0
 10
87.093160
 20
214.546944
 30
0.0
  0
LWPOLYLINE
  5
147
100
AcDbEntity
  8
Layer_1
 62
7
100
AcDbPolyline
 90
5
 70
0
 10
87.093160
 20
216.446862
 30
0.0
 10
87.093160
 20
215.151464
 30
0.0
 10
85.592022
 20
215.151464
 30
0.0
 10
85.592022
 20
216.446862
 30
0.0
 10
87.093160
 20
216.446862
 30
0.0
  0
LWPOLYLINE
  5
148
100
AcDbEntity
  8
Layer_1
 62
7
100
AcDbPolyline
 90
5
 70
0
 10
82.013166
 20
214.546944
 30
0.0
 10
82.013166
 20
213.251546
 30
0.0
 10
80.512027
 20
213.251546
 30
0.0
 10
80.512027
 20
214.546944
 30
0.0
 10
82.013166
 20
214.546944
 30
0.0
  0
LWPOLYLINE
  5
149
100
AcDbEntity
  8
Layer_1
 62
7
100
AcDbPolyline
 90
5
 70
0
 10
82.013166
 20
216.446862
 30
0.0
 10
82.013166
 20
215.151464
 30
0.0
 10
80.512027
 20
215.151464
 30
0.0
 10
80.512027
 20
216.446862
 30
0.0
 10
82.013166
 20
216.446862
 30
0.0
  0
LWPOLYLINE
  5
14a
100
AcDbEntity
  8
Layer_1
 62
7
100
AcDbPolyline
 90
5
 70
0
 10
83.052024
 20
215.151464
 30
0.0
 10
83.052024
 20
216.446862
 30
0.0
 10
84.553163
 20
216.446862
 30
0.0
 10
84.553163
 20
215.151464
 30
0.0
 10
83.052024
 20
215.151464
 30
0.0
  0
LWPOLYLINE
  5
14b
100
AcDbEntity
  8
Layer_1
 62
7
100
AcDbPolyline
 90
5
 70
0
 10
83.052024
 20
213.251546
 30
0.0
 10
83.052024
 20
214.546944
 30
0.0
 10
84.553163
 20
214.546944
 30
0.0
 10
84.553163
 20
213.251546
 30
0.0
 10
83.052024
 20
213.251546
 30
0.0
  0
LWPOLYLINE
  5
14c
100
AcDbEntity
  8
Layer_1
 62
7
100
AcDbPolyline
 90
5
 70
0
 10
88.132019
 20
215.151464
 30
0.0
 10
88.132019
 20
216.446862
 30
0.0
 10
89.633157
 20
216.446862
 30
0.0
 10
89.633157
 20
215.151464
 30
0.0
 10
88.132019
 20
215.151464
 30
0.0
  0
LWPOLYLINE
  5
14d
100
AcDbEntity
  8
Layer_1
 62
7
100
AcDbPolyline
 90
5
 70
0
 10
88.132019
 20
213.251546
 30
0.0
 10
88.132019
 20
214.546944
 30
0.0
 10
89.633157
 20
214.546944
 30
0.0
 10
89.633157
 20
213.251546
 30
0.0
 10
88.132019
 20
213.251546
 30
0.0
  0
LWPOLYLINE
  5
14e
100
AcDbEntity
  8
Layer_1
 62
7
100
AcDbPolyline
 90
5
 70
0
 10
74.924033
 20
216.929462
 30
0.0
 10
74.924033
 20
218.224860
 30
0.0
 10
76.425172
 20
218.224860
 30
0.0
 10
76.425172
 20
216.929462
 30
0.0
 10
74.924033
 20
216.929462
 30
0.0
  0
LWPOLYLINE
  5
14f
100
AcDbEntity
  8
Layer_1
 62
7
100
AcDbPolyline
 90
5
 70
0
 10
74.924033
 20
215.029544
 30
0.0
 10
74.924033
 20
216.324942
 30
0.0
 10
76.425172
 20
216.324942
 30
0.0
 10
76.425172
 20
215.029544
 30
0.0
 10
74.924033
 20
215.029544
 30
0.0
  0
LWPOLYLINE
  5
150
100
AcDbEntity
  8
Layer_1
 62
7
100
AcDbPolyline
 90
5
 70
0
 10
84.553163
 20
225.214932
 30
0.0
 10
84.553163
 20
223.919534
 30
0.0
 10
83.052024
 20
223.919534
 30
0.0
 10
83.052024
 20
225.214932
 30
0.0
 10
84.553163
 20
225.214932
 30
0.0
  0
LWPOLYLINE
  5
151
100
AcDbEntity
  8
Layer_1
 62
7
100
AcDbPolyline
 90
5
 70
0
 10
84.553163
 20
227.114850
 30
0.0
 10
84.553163
 20
225.819452
 30
0.0
 10
83.052024
 20
225.819452
 30
0.0
 10
83.052024
 20
227.114850
 30
0.0
 10
84.553163
 20
227.114850
 30
0.0
  0
LWPOLYLINE
  5
152
100
AcDbEntity
  8
Layer_1
 62
7
100
AcDbPolyline
 90
5
 70
0
 10
85.592022
 20
221.501456
 30
0.0
 10
85.592022
 20
222.796855
 30
0.0
 10
87.093160
 20
222.796855
 30
0.0
 10
87.093160
 20
221.501456
 30
0.0
 10
85.592022
 20
221.501456
 30
0.0
  0
LWPOLYLINE
  5
153
100
AcDbEntity
  8
Layer_1
 62
7
100
AcDbPolyline
 90
5
 70
0
 10
85.592022
 20
219.601539
 30
0.0
 10
85.592022
 20
220.896937
 30
0.0
 10
87.093160
 20
220.896937
 30
0.0
 10
87.093160
 20
219.601539
 30
0.0
 10
85.592022
 20
219.601539
 30
0.0
  0
LWPOLYLINE
  5
154
100
AcDbEntity
  8
Layer_1
 62
7
100
AcDbPolyline
 90
5
 70
0
 10
80.512027
 20
221.501456
 30
0.0
 10
80.512027
 20
222.796855
 30
0.0
 10
82.013166
 20
222.796855
 30
0.0
 10
82.013166
 20
221.501456
 30
0.0
 10
80.512027
 20
221.501456
 30
0.0
  0
LWPOLYLINE
  5
155
100
AcDbEntity
  8
Layer_1
 62
7
100
AcDbPolyline
 90
5
 70
0
 10
80.512027
 20
219.601539
 30
0.0
 10
80.512027
 20
220.896937
 30
0.0
 10
82.013166
 20
220.896937
 30
0.0
 10
82.013166
 20
219.601539
 30
0.0
 10
80.512027
 20
219.601539
 30
0.0
  0
LWPOLYLINE
  5
156
100
AcDbEntity
  8
Layer_1
 62
7
100
AcDbPolyline
 90
5
 70
0
 10
84.553163
 20
220.896937
 30
0.0
 10
84.553163
 20
219.601539
 30
0.0
 10
83.052024
 20
219.601539
 30
0.0
 10
83.052024
 20
220.896937
 30
0.0
 10
84.553163
 20
220.896937
 30
0.0
  0
LWPOLYLINE
  5
157
100
AcDbEntity
  8
Layer_1
 62
7
100
AcDbPolyline
 90
5
 70
0
 10
84.553163
 20
222.796855
 30
0.0
 10
84.553163
 20
221.501456
 30
0.0
 10
83.052024
 20
221.501456
 30
0.0
 10
83.052024
 20
222.796855
 30
0.0
 10
84.553163
 20
222.796855
 30
0.0
  0
LWPOLYLINE
  5
158
100
AcDbEntity
  8
Layer_1
 62
7
100
AcDbPolyline
 90
5
 70
0
 10
89.633157
 20
220.896937
 30
0.0
 10
89.633157
 20
219.601539
 30
0.0
 10
88.132019
 20
219.601539
 30
0.0
 10
88.132019
 20
220.896937
 30
0.0
 10
89.633157
 20
220.896937
 30
0.0
  0
LWPOLYLINE
  5
159
100
AcDbEntity
  8
Layer_1
 62
7
100
AcDbPolyline
 90
5
 70
0
 10
89.633157
 20
222.796855
 30
0.0
 10
89.633157
 20
221.501456
 30
0.0
 10
88.132019
 20
221.501456
 30
0.0
 10
88.132019
 20
222.796855
 30
0.0
 10
89.633157
 20
222.796855
 30
0.0
  0
LWPOLYLINE
  5
15a
100
AcDbEntity
  8
Layer_1
 62
7
100
AcDbPolyline
 90
5
 70
0
 10
90.418016
 20
184.417498
 30
0.0
 10
90.418016
 20
185.712896
 30
0.0
 10
91.919155
 20
185.712896
 30
0.0
 10
91.919155
 20
184.417498
 30
0.0
 10
90.418016
 20
184.417498
 30
0.0
  0
LWPOLYLINE
  5
15b
100
AcDbEntity
  8
Layer_1
 62
7
100
AcDbPolyline
 90
5
 70
0
 10
90.418016
 20
182.517580
 30
0.0
 10
90.418016
 20
183.812978
 30
0.0
 10
91.919155
 20
183.812978
 30
0.0
 10
91.919155
 20
182.517580
 30
0.0
 10
90.418016
 20
182.517580
 30
0.0
  0
LWPOLYLINE
  5
15c
100
AcDbEntity
  8
Layer_1
 62
7
100
AcDbPolyline
 90
5
 70
0
 10
97.253149
 20
198.036963
 30
0.0
 10
97.253149
 20
196.741564
 30
0.0
 10
95.752010
 20
196.741564
 30
0.0
 10
95.752010
 20
198.036963
 30
0.0
 10
97.253149
 20
198.036963
 30
0.0
  0
LWPOLYLINE
  5
15d
100
AcDbEntity
  8
Layer_1
 62
7
100
AcDbPolyline
 90
5
 70
0
 10
97.253149
 20
199.936880
 30
0.0
 10
97.253149
 20
198.641482
 30
0.0
 10
95.752010
 20
198.641482
 30
0.0
 10
95.752010
 20
199.936880
 30
0.0
 10
97.253149
 20
199.936880
 30
0.0
  0
LWPOLYLINE
  5
15e
100
AcDbEntity
  8
Layer_1
 62
7
100
AcDbPolyline
 90
5
 70
0
 10
64.510045
 20
184.417498
 30
0.0
 10
64.510045
 20
185.712896
 30
0.0
 10
66.011183
 20
185.712896
 30
0.0
 10
66.011183
 20
184.417498
 30
0.0
 10
64.510045
 20
184.417498
 30
0.0
  0
LWPOLYLINE
  5
15f
100
AcDbEntity
  8
Layer_1
 62
7
100
AcDbPolyline
 90
5
 70
0
 10
64.510045
 20
182.517580
 30
0.0
 10
64.510045
 20
183.812978
 30
0.0
 10
66.011183
 20
183.812978
 30
0.0
 10
66.011183
 20
182.517580
 30
0.0
 10
64.510045
 20
182.517580
 30
0.0
  0
LWPOLYLINE
  5
160
100
AcDbEntity
  8
Layer_1
 62
7
100
AcDbPolyline
 90
5
 70
0
 10
72.615176
 20
199.306961
 30
0.0
 10
72.615176
 20
198.011563
 30
0.0
 10
71.114038
 20
198.011563
 30
0.0
 10
71.114038
 20
199.306961
 30
0.0
 10
72.615176
 20
199.306961
 30
0.0
  0
LWPOLYLINE
  5
161
100
AcDbEntity
  8
Layer_1
 62
7
100
AcDbPolyline
 90
5
 70
0
 10
72.615176
 20
201.206879
 30
0.0
 10
72.615176
 20
199.911480
 30
0.0
 10
71.114038
 20
199.911480
 30
0.0
 10
71.114038
 20
201.206879
 30
0.0
 10
72.615176
 20
201.206879
 30
0.0
  0
LWPOLYLINE
  5
162
100
AcDbEntity
  8
Layer_1
 62
7
100
AcDbPolyline
 90
5
 70
0
 10
72.384036
 20
212.611466
 30
0.0
 10
72.384036
 20
213.906865
 30
0.0
 10
73.885175
 20
213.906865
 30
0.0
 10
73.885175
 20
212.611466
 30
0.0
 10
72.384036
 20
212.611466
 30
0.0
  0
LWPOLYLINE
  5
163
100
AcDbEntity
  8
Layer_1
 62
7
100
AcDbPolyline
 90
5
 70
0
 10
72.384036
 20
210.711548
 30
0.0
 10
72.384036
 20
212.006947
 30
0.0
 10
73.885175
 20
212.006947
 30
0.0
 10
73.885175
 20
210.711548
 30
0.0
 10
72.384036
 20
210.711548
 30
0.0
  0
LWPOLYLINE
  5
164
100
AcDbEntity
  8
Layer_1
 62
7
100
AcDbPolyline
 90
5
 70
0
 10
76.425172
 20
222.166936
 30
0.0
 10
76.425172
 20
220.871537
 30
0.0
 10
74.924033
 20
220.871537
 30
0.0
 10
74.924033
 20
222.166936
 30
0.0
 10
76.425172
 20
222.166936
 30
0.0
  0
LWPOLYLINE
  5
165
100
AcDbEntity
  8
Layer_1
 62
7
100
AcDbPolyline
 90
5
 70
0
 10
76.425172
 20
224.066854
 30
0.0
 10
76.425172
 20
222.771455
 30
0.0
 10
74.924033
 20
222.771455
 30
0.0
 10
74.924033
 20
224.066854
 30
0.0
 10
76.425172
 20
224.066854
 30
0.0
  0
LWPOLYLINE
  5
166
100
AcDbEntity
  8
Layer_1
 62
7
100
AcDbPolyline
 90
5
 70
0
 10
72.384036
 20
222.771455
 30
0.0
 10
72.384036
 20
224.066854
 30
0.0
 10
73.885175
 20
224.066854
 30
0.0
 10
73.885175
 20
222.771455
 30
0.0
 10
72.384036
 20
222.771455
 30
0.0
  0
LWPOLYLINE
  5
167
100
AcDbEntity
  8
Layer_1
 62
7
100
AcDbPolyline
 90
5
 70
0
 10
72.384036
 20
220.871537
 30
0.0
 10
72.384036
 20
222.166936
 30
0.0
 10
73.885175
 20
222.166936
 30
0.0
 10
73.885175
 20
220.871537
 30
0.0
 10
72.384036
 20
220.871537
 30
0.0
  0
LWPOLYLINE
  5
168
100
AcDbEntity
  8
Layer_1
 62
7
100
AcDbPolyline
 90
5
 70
0
 10
72.384036
 20
216.929462
 30
0.0
 10
72.384036
 20
218.224860
 30
0.0
 10
73.885175
 20
218.224860
 30
0.0
 10
73.885175
 20
216.929462
 30
0.0
 10
72.384036
 20
216.929462
 30
0.0
  0
LWPOLYLINE
  5
169
100
AcDbEntity
  8
Layer_1
 62
7
100
AcDbPolyline
 90
5
 70
0
 10
72.384036
 20
215.029544
 30
0.0
 10
72.384036
 20
216.324942
 30
0.0
 10
73.885175
 20
216.324942
 30
0.0
 10
73.885175
 20
215.029544
 30
0.0
 10
72.384036
 20
215.029544
 30
0.0
  0
LWPOLYLINE
  5
16a
100
AcDbEntity
  8
Layer_1
 62
7
100
AcDbPolyline
 90
5
 70
0
 10
82.013166
 20
225.214932
 30
0.0
 10
82.013166
 20
223.919534
 30
0.0
 10
80.512027
 20
223.919534
 30
0.0
 10
80.512027
 20
225.214932
 30
0.0
 10
82.013166
 20
225.214932
 30
0.0
  0
LWPOLYLINE
  5
16b
100
AcDbEntity
  8
Layer_1
 62
7
100
AcDbPolyline
 90
5
 70
0
 10
82.013166
 20
227.114850
 30
0.0
 10
82.013166
 20
225.819452
 30
0.0
 10
80.512027
 20
225.819452
 30
0.0
 10
80.512027
 20
227.114850
 30
0.0
 10
82.013166
 20
227.114850
 30
0.0
  0
LWPOLYLINE
  5
16c
100
AcDbEntity
  8
Layer_1
 62
7
100
AcDbPolyline
 90
5
 70
0
 10
69.882139
 20
230.460027
 30
0.0
 10
71.177538
 20
230.460027
 30
0.0
 10
71.177538
 20
228.958888
 30
0.0
 10
69.882139
 20
228.958888
 30
0.0
 10
69.882139
 20
230.460027
 30
0.0
  0
LWPOLYLINE
  5
16d
100
AcDbEntity
  8
Layer_1
 62
7
100
AcDbPolyline
 90
5
 70
0
 10
67.982221
 20
230.460027
 30
0.0
 10
69.277620
 20
230.460027
 30
0.0
 10
69.277620
 20
228.958888
 30
0.0
 10
67.982221
 20
228.958888
 30
0.0
 10
67.982221
 20
230.460027
 30
0.0
  0
LWPOLYLINE
  5
16e
100
AcDbEntity
  8
Layer_1
 62
7
100
AcDbPolyline
 90
5
 70
0
 10
74.454134
 20
227.031030
 30
0.0
 10
75.749533
 20
227.031030
 30
0.0
 10
75.749533
 20
225.529892
 30
0.0
 10
74.454134
 20
225.529892
 30
0.0
 10
74.454134
 20
227.031030
 30
0.0
  0
LWPOLYLINE
  5
16f
100
AcDbEntity
  8
Layer_1
 62
7
100
AcDbPolyline
 90
5
 70
0
 10
72.554216
 20
227.031030
 30
0.0
 10
73.849615
 20
227.031030
 30
0.0
 10
73.849615
 20
225.529892
 30
0.0
 10
72.554216
 20
225.529892
 30
0.0
 10
72.554216
 20
227.031030
 30
0.0
  0
LWPOLYLINE
  5
170
100
AcDbEntity
  8
Layer_1
 62
7
100
AcDbPolyline
 90
5
 70
0
 10
67.789181
 20
169.080995
 30
0.0
 10
67.789181
 20
167.785596
 30
0.0
 10
66.288043
 20
167.785596
 30
0.0
 10
66.288043
 20
169.080995
 30
0.0
 10
67.789181
 20
169.080995
 30
0.0
  0
LWPOLYLINE
  5
171
100
AcDbEntity
  8
Layer_1
 62
7
100
AcDbPolyline
 90
5
 70
0
 10
67.789181
 20
170.980913
 30
0.0
 10
67.789181
 20
169.685514
 30
0.0
 10
66.288043
 20
169.685514
 30
0.0
 10
66.288043
 20
170.980913
 30
0.0
 10
67.789181
 20
170.980913
 30
0.0
  0
LWPOLYLINE
  5
172
100
AcDbEntity
  8
Layer_1
 62
7
100
AcDbPolyline
 90
5
 70
0
 10
62.391687
 20
208.643991
 30
0.0
 10
62.391687
 20
210.675989
 30
0.0
 10
63.052087
 20
210.675989
 30
0.0
 10
63.052087
 20
208.643991
 30
0.0
 10
62.391687
 20
208.643991
 30
0.0
  0
LWPOLYLINE
  5
173
100
AcDbEntity
  8
Layer_1
 62
7
100
AcDbPolyline
 90
5
 70
0
 10
63.661686
 20
208.643991
 30
0.0
 10
63.661686
 20
210.675989
 30
0.0
 10
64.322085
 20
210.675989
 30
0.0
 10
64.322085
 20
208.643991
 30
0.0
 10
63.661686
 20
208.643991
 30
0.0
  0
LWPOLYLINE
  5
174
100
AcDbEntity
  8
Layer_1
 62
7
100
AcDbPolyline
 90
5
 70
0
 10
64.931685
 20
208.643991
 30
0.0
 10
64.931685
 20
210.675989
 30
0.0
 10
65.592084
 20
210.675989
 30
0.0
 10
65.592084
 20
208.643991
 30
0.0
 10
64.931685
 20
208.643991
 30
0.0
  0
LWPOLYLINE
  5
175
100
AcDbEntity
  8
Layer_1
 62
7
100
AcDbPolyline
 90
5
 70
0
 10
66.201683
 20
208.643991
 30
0.0
 10
66.201683
 20
210.675989
 30
0.0
 10
66.862082
 20
210.675989
 30
0.0
 10
66.862082
 20
208.643991
 30
0.0
 10
66.201683
 20
208.643991
 30
0.0
  0
LWPOLYLINE
  5
176
100
AcDbEntity
  8
Layer_1
 62
7
100
AcDbPolyline
 90
5
 70
0
 10
67.471682
 20
208.643991
 30
0.0
 10
67.471682
 20
210.675989
 30
0.0
 10
68.132081
 20
210.675989
 30
0.0
 10
68.132081
 20
208.643991
 30
0.0
 10
67.471682
 20
208.643991
 30
0.0
  0
LWPOLYLINE
  5
177
100
AcDbEntity
  8
Layer_1
 62
7
100
AcDbPolyline
 90
5
 70
0
 10
68.741680
 20
208.643991
 30
0.0
 10
68.741680
 20
210.675989
 30
0.0
 10
69.402080
 20
210.675989
 30
0.0
 10
69.402080
 20
208.643991
 30
0.0
 10
68.741680
 20
208.643991
 30
0.0
  0
LWPOLYLINE
  5
178
100
AcDbEntity
  8
Layer_1
 62
7
100
AcDbPolyline
 90
5
 70
0
 10
70.011679
 20
208.643991
 30
0.0
 10
70.011679
 20
210.675989
 30
0.0
 10
70.672078
 20
210.675989
 30
0.0
 10
70.672078
 20
208.643991
 30
0.0
 10
70.011679
 20
208.643991
 30
0.0
  0
LWPOLYLINE
  5
179
100
AcDbEntity
  8
Layer_1
 62
7
100
AcDbPolyline
 90
5
 70
0
 10
70.011679
 20
214.790784
 30
0.0
 10
70.011679
 20
216.822782
 30
0.0
 10
70.672078
 20
216.822782
 30
0.0
 10
70.672078
 20
214.790784
 30
0.0
 10
70.011679
 20
214.790784
 30
0.0
  0
LWPOLYLINE
  5
17a
100
AcDbEntity
  8
Layer_1
 62
7
100
AcDbPolyline
 90
5
 70
0
 10
68.741680
 20
214.790784
 30
0.0
 10
68.741680
 20
216.822782
 30
0.0
 10
69.402080
 20
216.822782
 30
0.0
 10
69.402080
 20
214.790784
 30
0.0
 10
68.741680
 20
214.790784
 30
0.0
  0
LWPOLYLINE
  5
17b
100
AcDbEntity
  8
Layer_1
 62
7
100
AcDbPolyline
 90
5
 70
0
 10
66.201683
 20
214.790784
 30
0.0
 10
66.201683
 20
216.822782
 30
0.0
 10
66.862082
 20
216.822782
 30
0.0
 10
66.862082
 20
214.790784
 30
0.0
 10
66.201683
 20
214.790784
 30
0.0
  0
LWPOLYLINE
  5
17c
100
AcDbEntity
  8
Layer_1
 62
7
100
AcDbPolyline
 90
5
 70
0
 10
64.931685
 20
214.790784
 30
0.0
 10
64.931685
 20
216.822782
 30
0.0
 10
65.592084
 20
216.822782
 30
0.0
 10
65.592084
 20
214.790784
 30
0.0
 10
64.931685
 20
214.790784
 30
0.0
  0
LWPOLYLINE
  5
17d
100
AcDbEntity
  8
Layer_1
 62
7
100
AcDbPolyline
 90
5
 70
0
 10
63.661686
 20
214.790784
 30
0.0
 10
63.661686
 20
216.822782
 30
0.0
 10
64.322085
 20
216.822782
 30
0.0
 10
64.322085
 20
214.790784
 30
0.0
 10
63.661686
 20
214.790784
 30
0.0
  0
LWPOLYLINE
  5
17e
100
AcDbEntity
  8
Layer_1
 62
7
100
AcDbPolyline
 90
5
 70
0
 10
62.391687
 20
214.790784
 30
0.0
 10
62.391687
 20
216.822782
 30
0.0
 10
63.052087
 20
216.822782
 30
0.0
 10
63.052087
 20
214.790784
 30
0.0
 10
62.391687
 20
214.790784
 30
0.0
  0
LWPOLYLINE
  5
17f
100
AcDbEntity
  8
Layer_1
 62
7
100
AcDbPolyline
 90
5
 70
0
 10
67.471682
 20
214.790784
 30
0.0
 10
67.471682
 20
216.822782
 30
0.0
 10
68.132081
 20
216.822782
 30
0.0
 10
68.132081
 20
214.790784
 30
0.0
 10
67.471682
 20
214.790784
 30
0.0
  0
LWPOLYLINE
  5
180
100
AcDbEntity
  8
Layer_1
 62
7
100
AcDbPolyline
 90
5
 70
0
 10
74.075674
 20
200.599820
 30
0.0
 10
74.075674
 20
202.631817
 30
0.0
 10
74.736074
 20
202.631817
 30
0.0
 10
74.736074
 20
200.599820
 30
0.0
 10
74.075674
 20
200.599820
 30
0.0
  0
LWPOLYLINE
  5
181
100
AcDbEntity
  8
Layer_1
 62
7
100
AcDbPolyline
 90
5
 70
0
 10
75.345673
 20
200.599820
 30
0.0
 10
75.345673
 20
202.631817
 30
0.0
 10
76.006072
 20
202.631817
 30
0.0
 10
76.006072
 20
200.599820
 30
0.0
 10
75.345673
 20
200.599820
 30
0.0
  0
LWPOLYLINE
  5
182
100
AcDbEntity
  8
Layer_1
 62
7
100
AcDbPolyline
 90
5
 70
0
 10
76.615672
 20
200.599820
 30
0.0
 10
76.615672
 20
202.631817
 30
0.0
 10
77.276071
 20
202.631817
 30
0.0
 10
77.276071
 20
200.599820
 30
0.0
 10
76.615672
 20
200.599820
 30
0.0
  0
LWPOLYLINE
  5
183
100
AcDbEntity
  8
Layer_1
 62
7
100
AcDbPolyline
 90
5
 70
0
 10
77.885670
 20
200.599820
 30
0.0
 10
77.885670
 20
202.631817
 30
0.0
 10
78.546069
 20
202.631817
 30
0.0
 10
78.546069
 20
200.599820
 30
0.0
 10
77.885670
 20
200.599820
 30
0.0
  0
LWPOLYLINE
  5
184
100
AcDbEntity
  8
Layer_1
 62
7
100
AcDbPolyline
 90
5
 70
0
 10
79.155669
 20
200.599820
 30
0.0
 10
79.155669
 20
202.631817
 30
0.0
 10
79.816068
 20
202.631817
 30
0.0
 10
79.816068
 20
200.599820
 30
0.0
 10
79.155669
 20
200.599820
 30
0.0
  0
LWPOLYLINE
  5
185
100
AcDbEntity
  8
Layer_1
 62
7
100
AcDbPolyline
 90
5
 70
0
 10
80.425667
 20
200.599820
 30
0.0
 10
80.425667
 20
202.631817
 30
0.0
 10
81.086067
 20
202.631817
 30
0.0
 10
81.086067
 20
200.599820
 30
0.0
 10
80.425667
 20
200.599820
 30
0.0
  0
LWPOLYLINE
  5
186
100
AcDbEntity
  8
Layer_1
 62
7
100
AcDbPolyline
 90
5
 70
0
 10
81.695666
 20
200.599820
 30
0.0
 10
81.695666
 20
202.631817
 30
0.0
 10
82.356065
 20
202.631817
 30
0.0
 10
82.356065
 20
200.599820
 30
0.0
 10
81.695666
 20
200.599820
 30
0.0
  0
LWPOLYLINE
  5
187
100
AcDbEntity
  8
Layer_1
 62
7
100
AcDbPolyline
 90
5
 70
0
 10
81.695666
 20
206.746613
 30
0.0
 10
81.695666
 20
208.778611
 30
0.0
 10
82.356065
 20
208.778611
 30
0.0
 10
82.356065
 20
206.746613
 30
0.0
 10
81.695666
 20
206.746613
 30
0.0
  0
LWPOLYLINE
  5
188
100
AcDbEntity
  8
Layer_1
 62
7
100
AcDbPolyline
 90
5
 70
0
 10
80.425667
 20
206.746613
 30
0.0
 10
80.425667
 20
208.778611
 30
0.0
 10
81.086067
 20
208.778611
 30
0.0
 10
81.086067
 20
206.746613
 30
0.0
 10
80.425667
 20
206.746613
 30
0.0
  0
LWPOLYLINE
  5
189
100
AcDbEntity
  8
Layer_1
 62
7
100
AcDbPolyline
 90
5
 70
0
 10
77.885670
 20
206.746613
 30
0.0
 10
77.885670
 20
208.778611
 30
0.0
 10
78.546069
 20
208.778611
 30
0.0
 10
78.546069
 20
206.746613
 30
0.0
 10
77.885670
 20
206.746613
 30
0.0
  0
LWPOLYLINE
  5
18a
100
AcDbEntity
  8
Layer_1
 62
7
100
AcDbPolyline
 90
5
 70
0
 10
76.615672
 20
206.746613
 30
0.0
 10
76.615672
 20
208.778611
 30
0.0
 10
77.276071
 20
208.778611
 30
0.0
 10
77.276071
 20
206.746613
 30
0.0
 10
76.615672
 20
206.746613
 30
0.0
  0
LWPOLYLINE
  5
18b
100
AcDbEntity
  8
Layer_1
 62
7
100
AcDbPolyline
 90
5
 70
0
 10
75.345673
 20
206.746613
 30
0.0
 10
75.345673
 20
208.778611
 30
0.0
 10
76.006072
 20
208.778611
 30
0.0
 10
76.006072
 20
206.746613
 30
0.0
 10
75.345673
 20
206.746613
 30
0.0
  0
LWPOLYLINE
  5
18c
100
AcDbEntity
  8
Layer_1
 62
7
100
AcDbPolyline
 90
5
 70
0
 10
74.075674
 20
206.746613
 30
0.0
 10
74.075674
 20
208.778611
 30
0.0
 10
74.736074
 20
208.778611
 30
0.0
 10
74.736074
 20
206.746613
 30
0.0
 10
74.075674
 20
206.746613
 30
0.0
  0
LWPOLYLINE
  5
18d
100
AcDbEntity
  8
Layer_1
 62
7
100
AcDbPolyline
 90
5
 70
0
 10
79.155669
 20
206.746613
 30
0.0
 10
79.155669
 20
208.778611
 30
0.0
 10
79.816068
 20
208.778611
 30
0.0
 10
79.816068
 20
206.746613
 30
0.0
 10
79.155669
 20
206.746613
 30
0.0
  0
LWPOLYLINE
  5
18e
100
AcDbEntity
  8
Layer_1
 62
7
100
AcDbPolyline
 90
5
 70
0
 10
70.646678
 20
186.579035
 30
0.0
 10
70.646678
 20
188.611033
 30
0.0
 10
71.307077
 20
188.611033
 30
0.0
 10
71.307077
 20
186.579035
 30
0.0
 10
70.646678
 20
186.579035
 30
0.0
  0
LWPOLYLINE
  5
18f
100
AcDbEntity
  8
Layer_1
 62
7
100
AcDbPolyline
 90
5
 70
0
 10
70.646678
 20
192.776628
 30
0.0
 10
70.646678
 20
194.808626
 30
0.0
 10
71.307077
 20
194.808626
 30
0.0
 10
71.307077
 20
192.776628
 30
0.0
 10
70.646678
 20
192.776628
 30
0.0
  0
LWPOLYLINE
  5
190
100
AcDbEntity
  8
Layer_1
 62
7
100
AcDbPolyline
 90
5
 70
0
 10
61.756688
 20
186.629835
 30
0.0
 10
61.756688
 20
188.661833
 30
0.0
 10
62.417087
 20
188.661833
 30
0.0
 10
62.417087
 20
186.629835
 30
0.0
 10
61.756688
 20
186.629835
 30
0.0
  0
LWPOLYLINE
  5
191
100
AcDbEntity
  8
Layer_1
 62
7
100
AcDbPolyline
 90
5
 70
0
 10
63.026687
 20
186.629835
 30
0.0
 10
63.026687
 20
188.661833
 30
0.0
 10
63.687086
 20
188.661833
 30
0.0
 10
63.687086
 20
186.629835
 30
0.0
 10
63.026687
 20
186.629835
 30
0.0
  0
LWPOLYLINE
  5
192
100
AcDbEntity
  8
Layer_1
 62
7
100
AcDbPolyline
 90
5
 70
0
 10
64.296685
 20
186.629835
 30
0.0
 10
64.296685
 20
188.661833
 30
0.0
 10
64.957085
 20
188.661833
 30
0.0
 10
64.957085
 20
186.629835
 30
0.0
 10
64.296685
 20
186.629835
 30
0.0
  0
LWPOLYLINE
  5
193
100
AcDbEntity
  8
Layer_1
 62
7
100
AcDbPolyline
 90
5
 70
0
 10
65.566684
 20
186.629835
 30
0.0
 10
65.566684
 20
188.661833
 30
0.0
 10
66.227083
 20
188.661833
 30
0.0
 10
66.227083
 20
186.629835
 30
0.0
 10
65.566684
 20
186.629835
 30
0.0
  0
LWPOLYLINE
  5
194
100
AcDbEntity
  8
Layer_1
 62
7
100
AcDbPolyline
 90
5
 70
0
 10
66.836682
 20
186.629835
 30
0.0
 10
66.836682
 20
188.661833
 30
0.0
 10
67.497082
 20
188.661833
 30
0.0
 10
67.497082
 20
186.629835
 30
0.0
 10
66.836682
 20
186.629835
 30
0.0
  0
LWPOLYLINE
  5
195
100
AcDbEntity
  8
Layer_1
 62
7
100
AcDbPolyline
 90
5
 70
0
 10
68.106681
 20
186.629835
 30
0.0
 10
68.106681
 20
188.661833
 30
0.0
 10
68.767080
 20
188.661833
 30
0.0
 10
68.767080
 20
186.629835
 30
0.0
 10
68.106681
 20
186.629835
 30
0.0
  0
LWPOLYLINE
  5
196
100
AcDbEntity
  8
Layer_1
 62
7
100
AcDbPolyline
 90
5
 70
0
 10
69.376680
 20
186.629835
 30
0.0
 10
69.376680
 20
188.661833
 30
0.0
 10
70.037079
 20
188.661833
 30
0.0
 10
70.037079
 20
186.629835
 30
0.0
 10
69.376680
 20
186.629835
 30
0.0
  0
LWPOLYLINE
  5
197
100
AcDbEntity
  8
Layer_1
 62
7
100
AcDbPolyline
 90
5
 70
0
 10
69.376680
 20
192.776628
 30
0.0
 10
69.376680
 20
194.808626
 30
0.0
 10
70.037079
 20
194.808626
 30
0.0
 10
70.037079
 20
192.776628
 30
0.0
 10
69.376680
 20
192.776628
 30
0.0
  0
LWPOLYLINE
  5
198
100
AcDbEntity
  8
Layer_1
 62
7
100
AcDbPolyline
 90
5
 70
0
 10
68.106681
 20
192.776628
 30
0.0
 10
68.106681
 20
194.808626
 30
0.0
 10
68.767080
 20
194.808626
 30
0.0
 10
68.767080
 20
192.776628
 30
0.0
 10
68.106681
 20
192.776628
 30
0.0
  0
LWPOLYLINE
  5
199
100
AcDbEntity
  8
Layer_1
 62
7
100
AcDbPolyline
 90
5
 70
0
 10
65.566684
 20
192.776628
 30
0.0
 10
65.566684
 20
194.808626
 30
0.0
 10
66.227083
 20
194.808626
 30
0.0
 10
66.227083
 20
192.776628
 30
0.0
 10
65.566684
 20
192.776628
 30
0.0
  0
LWPOLYLINE
  5
19a
100
AcDbEntity
  8
Layer_1
 62
7
100
AcDbPolyline
 90
5
 70
0
 10
64.296685
 20
192.776628
 30
0.0
 10
64.296685
 20
194.808626
 30
0.0
 10
64.957085
 20
194.808626
 30
0.0
 10
64.957085
 20
192.776628
 30
0.0
 10
64.296685
 20
192.776628
 30
0.0
  0
LWPOLYLINE
  5
19b
100
AcDbEntity
  8
Layer_1
 62
7
100
AcDbPolyline
 90
5
 70
0
 10
63.026687
 20
192.776628
 30
0.0
 10
63.026687
 20
194.808626
 30
0.0
 10
63.687086
 20
194.808626
 30
0.0
 10
63.687086
 20
192.776628
 30
0.0
 10
63.026687
 20
192.776628
 30
0.0
  0
LWPOLYLINE
  5
19c
100
AcDbEntity
  8
Layer_1
 62
7
100
AcDbPolyline
 90
5
 70
0
 10
61.756688
 20
192.776628
 30
0.0
 10
61.756688
 20
194.808626
 30
0.0
 10
62.417087
 20
194.808626
 30
0.0
 10
62.417087
 20
192.776628
 30
0.0
 10
61.756688
 20
192.776628
 30
0.0
  0
LWPOLYLINE
  5
19d
100
AcDbEntity
  8
Layer_1
 62
7
100
AcDbPolyline
 90
5
 70
0
 10
66.836682
 20
192.776628
 30
0.0
 10
66.836682
 20
194.808626
 30
0.0
 10
67.497082
 20
194.808626
 30
0.0
 10
67.497082
 20
192.776628
 30
0.0
 10
66.836682
 20
192.776628
 30
0.0
  0
LWPOLYLINE
  5
19e
100
AcDbEntity
  8
Layer_1
 62
7
100
AcDbPolyline
 90
5
 70
0
 10
94.014652
 20
186.579035
 30
0.0
 10
94.014652
 20
188.611033
 30
0.0
 10
94.675051
 20
188.611033
 30
0.0
 10
94.675051
 20
186.579035
 30
0.0
 10
94.014652
 20
186.579035
 30
0.0
  0
LWPOLYLINE
  5
19f
100
AcDbEntity
  8
Layer_1
 62
7
100
AcDbPolyline
 90
5
 70
0
 10
94.014652
 20
192.776628
 30
0.0
 10
94.014652
 20
194.808626
 30
0.0
 10
94.675051
 20
194.808626
 30
0.0
 10
94.675051
 20
192.776628
 30
0.0
 10
94.014652
 20
192.776628
 30
0.0
  0
LWPOLYLINE
  5
1a0
100
AcDbEntity
  8
Layer_1
 62
7
100
AcDbPolyline
 90
5
 70
0
 10
85.124662
 20
186.629835
 30
0.0
 10
85.124662
 20
188.661833
 30
0.0
 10
85.785061
 20
188.661833
 30
0.0
 10
85.785061
 20
186.629835
 30
0.0
 10
85.124662
 20
186.629835
 30
0.0
  0
LWPOLYLINE
  5
1a1
100
AcDbEntity
  8
Layer_1
 62
7
100
AcDbPolyline
 90
5
 70
0
 10
86.394661
 20
186.629835
 30
0.0
 10
86.394661
 20
188.661833
 30
0.0
 10
87.055060
 20
188.661833
 30
0.0
 10
87.055060
 20
186.629835
 30
0.0
 10
86.394661
 20
186.629835
 30
0.0
  0
LWPOLYLINE
  5
1a2
100
AcDbEntity
  8
Layer_1
 62
7
100
AcDbPolyline
 90
5
 70
0
 10
87.664659
 20
186.629835
 30
0.0
 10
87.664659
 20
188.661833
 30
0.0
 10
88.325059
 20
188.661833
 30
0.0
 10
88.325059
 20
186.629835
 30
0.0
 10
87.664659
 20
186.629835
 30
0.0
  0
LWPOLYLINE
  5
1a3
100
AcDbEntity
  8
Layer_1
 62
7
100
AcDbPolyline
 90
5
 70
0
 10
88.934658
 20
186.629835
 30
0.0
 10
88.934658
 20
188.661833
 30
0.0
 10
89.595057
 20
188.661833
 30
0.0
 10
89.595057
 20
186.629835
 30
0.0
 10
88.934658
 20
186.629835
 30
0.0
  0
LWPOLYLINE
  5
1a4
100
AcDbEntity
  8
Layer_1
 62
7
100
AcDbPolyline
 90
5
 70
0
 10
90.204656
 20
186.629835
 30
0.0
 10
90.204656
 20
188.661833
 30
0.0
 10
90.865056
 20
188.661833
 30
0.0
 10
90.865056
 20
186.629835
 30
0.0
 10
90.204656
 20
186.629835
 30
0.0
  0
LWPOLYLINE
  5
1a5
100
AcDbEntity
  8
Layer_1
 62
7
100
AcDbPolyline
 90
5
 70
0
 10
91.474655
 20
186.629835
 30
0.0
 10
91.474655
 20
188.661833
 30
0.0
 10
92.135054
 20
188.661833
 30
0.0
 10
92.135054
 20
186.629835
 30
0.0
 10
91.474655
 20
186.629835
 30
0.0
  0
LWPOLYLINE
  5
1a6
100
AcDbEntity
  8
Layer_1
 62
7
100
AcDbPolyline
 90
5
 70
0
 10
92.744654
 20
186.629835
 30
0.0
 10
92.744654
 20
188.661833
 30
0.0
 10
93.405053
 20
188.661833
 30
0.0
 10
93.405053
 20
186.629835
 30
0.0
 10
92.744654
 20
186.629835
 30
0.0
  0
LWPOLYLINE
  5
1a7
100
AcDbEntity
  8
Layer_1
 62
7
100
AcDbPolyline
 90
5
 70
0
 10
92.744654
 20
192.776628
 30
0.0
 10
92.744654
 20
194.808626
 30
0.0
 10
93.405053
 20
194.808626
 30
0.0
 10
93.405053
 20
192.776628
 30
0.0
 10
92.744654
 20
192.776628
 30
0.0
  0
LWPOLYLINE
  5
1a8
100
AcDbEntity
  8
Layer_1
 62
7
100
AcDbPolyline
 90
5
 70
0
 10
91.474655
 20
192.776628
 30
0.0
 10
91.474655
 20
194.808626
 30
0.0
 10
92.135054
 20
194.808626
 30
0.0
 10
92.135054
 20
192.776628
 30
0.0
 10
91.474655
 20
192.776628
 30
0.0
  0
LWPOLYLINE
  5
1a9
100
AcDbEntity
  8
Layer_1
 62
7
100
AcDbPolyline
 90
5
 70
0
 10
88.934658
 20
192.776628
 30
0.0
 10
88.934658
 20
194.808626
 30
0.0
 10
89.595057
 20
194.808626
 30
0.0
 10
89.595057
 20
192.776628
 30
0.0
 10
88.934658
 20
192.776628
 30
0.0
  0
LWPOLYLINE
  5
1aa
100
AcDbEntity
  8
Layer_1
 62
7
100
AcDbPolyline
 90
5
 70
0
 10
87.664659
 20
192.776628
 30
0.0
 10
87.664659
 20
194.808626
 30
0.0
 10
88.325059
 20
194.808626
 30
0.0
 10
88.325059
 20
192.776628
 30
0.0
 10
87.664659
 20
192.776628
 30
0.0
  0
LWPOLYLINE
  5
1ab
100
AcDbEntity
  8
Layer_1
 62
7
100
AcDbPolyline
 90
5
 70
0
 10
86.394661
 20
192.776628
 30
0.0
 10
86.394661
 20
194.808626
 30
0.0
 10
87.055060
 20
194.808626
 30
0.0
 10
87.055060
 20
192.776628
 30
0.0
 10
86.394661
 20
192.776628
 30
0.0
  0
LWPOLYLINE
  5
1ac
100
AcDbEntity
  8
Layer_1
 62
7
100
AcDbPolyline
 90
5
 70
0
 10
85.124662
 20
192.776628
 30
0.0
 10
85.124662
 20
194.808626
 30
0.0
 10
85.785061
 20
194.808626
 30
0.0
 10
85.785061
 20
192.776628
 30
0.0
 10
85.124662
 20
192.776628
 30
0.0
  0
LWPOLYLINE
  5
1ad
100
AcDbEntity
  8
Layer_1
 62
7
100
AcDbPolyline
 90
5
 70
0
 10
90.204656
 20
192.776628
 30
0.0
 10
90.204656
 20
194.808626
 30
0.0
 10
90.865056
 20
194.808626
 30
0.0
 10
90.865056
 20
192.776628
 30
0.0
 10
90.204656
 20
192.776628
 30
0.0
  0
LWPOLYLINE
  5
1ae
100
AcDbEntity
  8
Layer_1
 62
7
100
AcDbPolyline
 90
5
 70
0
 10
82.584665
 20
177.790645
 30
0.0
 10
82.584665
 20
179.822643
 30
0.0
 10
83.245064
 20
179.822643
 30
0.0
 10
83.245064
 20
177.790645
 30
0.0
 10
82.584665
 20
177.790645
 30
0.0
  0
LWPOLYLINE
  5
1af
100
AcDbEntity
  8
Layer_1
 62
7
100
AcDbPolyline
 90
5
 70
0
 10
81.314666
 20
177.790645
 30
0.0
 10
81.314666
 20
179.822643
 30
0.0
 10
81.975066
 20
179.822643
 30
0.0
 10
81.975066
 20
177.790645
 30
0.0
 10
81.314666
 20
177.790645
 30
0.0
  0
LWPOLYLINE
  5
1b0
100
AcDbEntity
  8
Layer_1
 62
7
100
AcDbPolyline
 90
5
 70
0
 10
80.044668
 20
177.790645
 30
0.0
 10
80.044668
 20
179.822643
 30
0.0
 10
80.705067
 20
179.822643
 30
0.0
 10
80.705067
 20
177.790645
 30
0.0
 10
80.044668
 20
177.790645
 30
0.0
  0
LWPOLYLINE
  5
1b1
100
AcDbEntity
  8
Layer_1
 62
7
100
AcDbPolyline
 90
5
 70
0
 10
78.774669
 20
177.790645
 30
0.0
 10
78.774669
 20
179.822643
 30
0.0
 10
79.435068
 20
179.822643
 30
0.0
 10
79.435068
 20
177.790645
 30
0.0
 10
78.774669
 20
177.790645
 30
0.0
  0
LWPOLYLINE
  5
1b2
100
AcDbEntity
  8
Layer_1
 62
7
100
AcDbPolyline
 90
5
 70
0
 10
78.774669
 20
171.643852
 30
0.0
 10
78.774669
 20
173.675850
 30
0.0
 10
79.435068
 20
173.675850
 30
0.0
 10
79.435068
 20
171.643852
 30
0.0
 10
78.774669
 20
171.643852
 30
0.0
  0
LWPOLYLINE
  5
1b3
100
AcDbEntity
  8
Layer_1
 62
7
100
AcDbPolyline
 90
5
 70
0
 10
80.044668
 20
171.643852
 30
0.0
 10
80.044668
 20
173.675850
 30
0.0
 10
80.705067
 20
173.675850
 30
0.0
 10
80.705067
 20
171.643852
 30
0.0
 10
80.044668
 20
171.643852
 30
0.0
  0
LWPOLYLINE
  5
1b4
100
AcDbEntity
  8
Layer_1
 62
7
100
AcDbPolyline
 90
5
 70
0
 10
81.314666
 20
171.643852
 30
0.0
 10
81.314666
 20
173.675850
 30
0.0
 10
81.975066
 20
173.675850
 30
0.0
 10
81.975066
 20
171.643852
 30
0.0
 10
81.314666
 20
171.643852
 30
0.0
  0
LWPOLYLINE
  5
1b5
100
AcDbEntity
  8
Layer_1
 62
7
100
AcDbPolyline
 90
5
 70
0
 10
82.584665
 20
171.643852
 30
0.0
 10
82.584665
 20
173.675850
 30
0.0
 10
83.245064
 20
173.675850
 30
0.0
 10
83.245064
 20
171.643852
 30
0.0
 10
82.584665
 20
171.643852
 30
0.0
  0
LWPOLYLINE
  5
1b6
100
AcDbEntity
  8
Layer_1
 62
7
100
AcDbPolyline
 90
5
 70
0
 10
55.406695
 20
189.728632
 30
0.0
 10
55.406695
 20
191.760630
 30
0.0
 10
56.067094
 20
191.760630
 30
0.0
 10
56.067094
 20
189.728632
 30
0.0
 10
55.406695
 20
189.728632
 30
0.0
  0
LWPOLYLINE
  5
1b7
100
AcDbEntity
  8
Layer_1
 62
7
100
AcDbPolyline
 90
5
 70
0
 10
54.136697
 20
189.728632
 30
0.0
 10
54.136697
 20
191.760630
 30
0.0
 10
54.797096
 20
191.760630
 30
0.0
 10
54.797096
 20
189.728632
 30
0.0
 10
54.136697
 20
189.728632
 30
0.0
  0
LWPOLYLINE
  5
1b8
100
AcDbEntity
  8
Layer_1
 62
7
100
AcDbPolyline
 90
5
 70
0
 10
52.866698
 20
189.728632
 30
0.0
 10
52.866698
 20
191.760630
 30
0.0
 10
53.527097
 20
191.760630
 30
0.0
 10
53.527097
 20
189.728632
 30
0.0
 10
52.866698
 20
189.728632
 30
0.0
  0
LWPOLYLINE
  5
1b9
100
AcDbEntity
  8
Layer_1
 62
7
100
AcDbPolyline
 90
5
 70
0
 10
51.596699
 20
189.728632
 30
0.0
 10
51.596699
 20
191.760630
 30
0.0
 10
52.257099
 20
191.760630
 30
0.0
 10
52.257099
 20
189.728632
 30
0.0
 10
51.596699
 20
189.728632
 30
0.0
  0
LWPOLYLINE
  5
1ba
100
AcDbEntity
  8
Layer_1
 62
7
100
AcDbPolyline
 90
5
 70
0
 10
51.596699
 20
183.581839
 30
0.0
 10
51.596699
 20
185.613836
 30
0.0
 10
52.257099
 20
185.613836
 30
0.0
 10
52.257099
 20
183.581839
 30
0.0
 10
51.596699
 20
183.581839
 30
0.0
  0
LWPOLYLINE
  5
1bb
100
AcDbEntity
  8
Layer_1
 62
7
100
AcDbPolyline
 90
5
 70
0
 10
52.866698
 20
183.581839
 30
0.0
 10
52.866698
 20
185.613836
 30
0.0
 10
53.527097
 20
185.613836
 30
0.0
 10
53.527097
 20
183.581839
 30
0.0
 10
52.866698
 20
183.581839
 30
0.0
  0
LWPOLYLINE
  5
1bc
100
AcDbEntity
  8
Layer_1
 62
7
100
AcDbPolyline
 90
5
 70
0
 10
54.136697
 20
183.581839
 30
0.0
 10
54.136697
 20
185.613836
 30
0.0
 10
54.797096
 20
185.613836
 30
0.0
 10
54.797096
 20
183.581839
 30
0.0
 10
54.136697
 20
183.581839
 30
0.0
  0
LWPOLYLINE
  5
1bd
100
AcDbEntity
  8
Layer_1
 62
7
100
AcDbPolyline
 90
5
 70
0
 10
55.406695
 20
183.581839
 30
0.0
 10
55.406695
 20
185.613836
 30
0.0
 10
56.067094
 20
185.613836
 30
0.0
 10
56.067094
 20
183.581839
 30
0.0
 10
55.406695
 20
183.581839
 30
0.0
  0
LWPOLYLINE
  5
1be
100
AcDbEntity
  8
Layer_1
 62
7
100
AcDbPolyline
 90
5
 70
0
 10
90.672016
 20
215.151464
 30
0.0
 10
90.672016
 20
216.446862
 30
0.0
 10
92.173154
 20
216.446862
 30
0.0
 10
92.173154
 20
215.151464
 30
0.0
 10
90.672016
 20
215.151464
 30
0.0
  0
LWPOLYLINE
  5
1bf
100
AcDbEntity
  8
Layer_1
 62
7
100
AcDbPolyline
 90
5
 70
0
 10
90.672016
 20
213.251546
 30
0.0
 10
90.672016
 20
214.546944
 30
0.0
 10
92.173154
 20
214.546944
 30
0.0
 10
92.173154
 20
213.251546
 30
0.0
 10
90.672016
 20
213.251546
 30
0.0
  0
LWPOLYLINE
  5
1c0
100
AcDbEntity
  8
Layer_1
 62
7
100
AcDbPolyline
 90
5
 70
0
 10
92.173154
 20
220.896937
 30
0.0
 10
92.173154
 20
219.601539
 30
0.0
 10
90.672016
 20
219.601539
 30
0.0
 10
90.672016
 20
220.896937
 30
0.0
 10
92.173154
 20
220.896937
 30
0.0
  0
LWPOLYLINE
  5
1c1
100
AcDbEntity
  8
Layer_1
 62
7
100
AcDbPolyline
 90
5
 70
0
 10
92.173154
 20
222.796855
 30
0.0
 10
92.173154
 20
221.501456
 30
0.0
 10
90.672016
 20
221.501456
 30
0.0
 10
90.672016
 20
222.796855
 30
0.0
 10
92.173154
 20
222.796855
 30
0.0
  0
LWPOLYLINE
  5
1c2
100
AcDbEntity
  8
Layer_1
 62
7
100
AcDbPolyline
 90
5
 70
0
 10
78.083790
 20
172.901150
 30
0.0
 10
78.083790
 20
170.003014
 30
0.0
 10
75.335513
 20
170.003014
 30
0.0
 10
75.335513
 20
172.901150
 30
0.0
 10
78.083790
 20
172.901150
 30
0.0
  0
LWPOLYLINE
  5
1c3
100
AcDbEntity
  8
Layer_1
 62
7
100
AcDbPolyline
 90
5
 70
0
 10
78.083790
 20
163.353301
 30
0.0
 10
78.083790
 20
160.953004
 30
0.0
 10
75.533633
 20
160.953004
 30
0.0
 10
75.533633
 20
163.353301
 30
0.0
 10
78.083790
 20
163.353301
 30
0.0
  0
SPLINE
  5
1c4
100
AcDbEntity
  8
Layer_1
 62
7
100
AcDbSpline
 70
8
 71
3
 72
8
 73
4
 74
0
 40
0
 40
0
 40
0
 40
0
 40
1
 40
1
 40
1
 40
1
 10
60.944143
 20
198.020958
 30
0.0
 10
60.944143
 20
197.600119
 30
0.0
 10
60.602983
 20
197.258959
 30
0.0
 10
60.182144
 20
197.258959
 30
0.0
  0
SPLINE
  5
1c5
100
AcDbEntity
  8
Layer_1
 62
7
100
AcDbSpline
 70
8
 71
3
 72
8
 73
4
 74
0
 40
0
 40
0
 40
0
 40
0
 40
1
 40
1
 40
1
 40
1
 10
60.182144
 20
197.258959
 30
0.0
 10
59.761302
 20
197.258959
 30
0.0
 10
59.420145
 20
197.600119
 30
0.0
 10
59.420145
 20
198.020958
 30
0.0
  0
SPLINE
  5
1c6
100
AcDbEntity
  8
Layer_1
 62
7
100
AcDbSpline
 70
8
 71
3
 72
8
 73
4
 74
0
 40
0
 40
0
 40
0
 40
0
 40
1
 40
1
 40
1
 40
1
 10
59.420145
 20
198.020958
 30
0.0
 10
59.420145
 20
198.441800
 30
0.0
 10
59.761302
 20
198.782957
 30
0.0
 10
60.182144
 20
198.782957
 30
0.0
  0
SPLINE
  5
1c7
100
AcDbEntity
  8
Layer_1
 62
7
100
AcDbSpline
 70
8
 71
3
 72
8
 73
4
 74
0
 40
0
 40
0
 40
0
 40
0
 40
1
 40
1
 40
1
 40
1
 10
60.182144
 20
198.782957
 30
0.0
 10
60.602983
 20
198.782957
 30
0.0
 10
60.944143
 20
198.441800
 30
0.0
 10
60.944143
 20
198.020958
 30
0.0
  0
LWPOLYLINE
  5
1c8
100
AcDbEntity
  8
Layer_1
 62
7
100
AcDbPolyline
 90
5
 70
0
 10
70.735578
 20
165.253219
 30
0.0
 10
70.735578
 20
162.852922
 30
0.0
 10
68.185421
 20
162.852922
 30
0.0
 10
68.185421
 20
165.253219
 30
0.0
 10
70.735578
 20
165.253219
 30
0.0
  0
SPLINE
  5
1c9
100
AcDbEntity
  8
Layer_1
 62
7
100
AcDbSpline
 70
8
 71
3
 72
8
 73
4
 74
0
 40
0
 40
0
 40
0
 40
0
 40
1
 40
1
 40
1
 40
1
 10
99.298105
 20
198.020958
 30
0.0
 10
99.298105
 20
197.600119
 30
0.0
 10
98.956946
 20
197.258959
 30
0.0
 10
98.536106
 20
197.258959
 30
0.0
  0
SPLINE
  5
1ca
100
AcDbEntity
  8
Layer_1
 62
7
100
AcDbSpline
 70
8
 71
3
 72
8
 73
4
 74
0
 40
0
 40
0
 40
0
 40
0
 40
1
 40
1
 40
1
 40
1
 10
98.536106
 20
197.258959
 30
0.0
 10
98.115264
 20
197.258959
 30
0.0
 10
97.774107
 20
197.600119
 30
0.0
 10
97.774107
 20
198.020958
 30
0.0
  0
SPLINE
  5
1cb
100
AcDbEntity
  8
Layer_1
 62
7
100
AcDbSpline
 70
8
 71
3
 72
8
 73
4
 74
0
 40
0
 40
0
 40
0
 40
0
 40
1
 40
1
 40
1
 40
1
 10
97.774107
 20
198.020958
 30
0.0
 10
97.774107
 20
198.441800
 30
0.0
 10
98.115264
 20
198.782957
 30
0.0
 10
98.536106
 20
198.782957
 30
0.0
  0
SPLINE
  5
1cc
100
AcDbEntity
  8
Layer_1
 62
7
100
AcDbSpline
 70
8
 71
3
 72
8
 73
4
 74
0
 40
0
 40
0
 40
0
 40
0
 40
1
 40
1
 40
1
 40
1
 10
98.536106
 20
198.782957
 30
0.0
 10
98.956946
 20
198.782957
 30
0.0
 10
99.298105
 20
198.441800
 30
0.0
 10
99.298105
 20
198.020958
 30
0.0
  0
LWPOLYLINE
  5
1cd
100
AcDbEntity
  8
Layer_1
 62
7
100
AcDbPolyline
 90
2
 70
0
 10
60.944143
 20
198.020958
 30
0.0
 10
60.944143
 20
198.020958
 30
0.0
  0
LWPOLYLINE
  5
1ce
100
AcDbEntity
  8
Layer_1
 62
7
100
AcDbPolyline
 90
2
 70
0
 10
99.298105
 20
198.020958
 30
0.0
 10
99.298105
 20
198.020958
 30
0.0
  0
LWPOLYLINE
  5
1cf
100
AcDbEntity
  8
Layer_1
 62
7
100
AcDbPolyline
 90
2
 70
0
 10
108.215776
 20
248.130787
 30
0.0
 10
108.215776
 20
247.630407
 30
0.0
  0
LWPOLYLINE
  5
1d0
100
AcDbEntity
  8
Layer_1
 62
7
100
AcDbPolyline
 90
2
 70
0
 10
108.215776
 20
255.232619
 30
0.0
 10
108.215776
 20
159.233426
 30
0.0
  0
LWPOLYLINE
  5
1d1
100
AcDbEntity
  8
Layer_1
 62
7
100
AcDbPolyline
 90
2
 70
0
 10
106.214259
 20
257.231597
 30
0.0
 10
108.215776
 20
255.232619
 30
0.0
  0
LWPOLYLINE
  5
1d2
100
AcDbEntity
  8
Layer_1
 62
7
100
AcDbPolyline
 90
2
 70
0
 10
50.214941
 20
257.231597
 30
0.0
 10
106.214259
 20
257.231597
 30
0.0
  0
LWPOLYLINE
  5
1d3
100
AcDbEntity
  8
Layer_1
 62
7
100
AcDbPolyline
 90
2
 70
0
 10
48.215963
 20
255.232619
 30
0.0
 10
50.214941
 20
257.231597
 30
0.0
  0
LWPOLYLINE
  5
1d4
100
AcDbEntity
  8
Layer_1
 62
7
100
AcDbPolyline
 90
2
 70
0
 10
48.215963
 20
163.731761
 30
0.0
 10
48.215963
 20
255.232619
 30
0.0
  0
LWPOLYLINE
  5
1d5
100
AcDbEntity
  8
Layer_1
 62
7
100
AcDbPolyline
 90
2
 70
0
 10
50.214941
 20
161.732783
 30
0.0
 10
48.215963
 20
163.731761
 30
0.0
  0
LWPOLYLINE
  5
1d6
100
AcDbEntity
  8
Layer_1
 62
7
100
AcDbPolyline
 90
2
 70
0
 10
65.914663
 20
161.732783
 30
0.0
 10
50.214941
 20
161.732783
 30
0.0
  0
LWPOLYLINE
  5
1d7
100
AcDbEntity
  8
Layer_1
 62
7
100
AcDbPolyline
 90
2
 70
0
 10
70.415538
 20
157.231908
 30
0.0
 10
65.914663
 20
161.732783
 30
0.0
  0
LWPOLYLINE
  5
1d8
100
AcDbEntity
  8
Layer_1
 62
7
100
AcDbPolyline
 90
2
 70
0
 10
106.214259
 20
157.231908
 30
0.0
 10
70.415538
 20
157.231908
 30
0.0
  0
LWPOLYLINE
  5
1d9
100
AcDbEntity
  8
Layer_1
 62
7
100
AcDbPolyline
 90
2
 70
0
 10
108.215776
 20
159.233426
 30
0.0
 10
106.214259
 20
157.231908
 30
0.0
  0
LWPOLYLINE
  5
1da
100
AcDbEntity
  8
Layer_1
 62
7
100
AcDbPolyline
 90
2
 70
0
 10
108.215776
 20
249.233146
 30
0.0
 10
108.215776
 20
248.130787
 30
0.0
  0
ENDSEC
  0
SECTION
  2
OBJECTS
  0
DICTIONARY
  5
C
330
0
100
AcDbDictionary
  3
ACAD_GROUP
350
D
  3
ACAD_MLINESTYLE
350
17
  0
DICTIONARY
  5
D
330
C
100
AcDbDictionary
  0
DICTIONARY
  5
1A
330
C
100
AcDbDictionary
  0
DICTIONARY
  5
17
330
C
100
AcDbDictionary
  3
STANDARD
350
18
  0
DICTIONARY
  5
19
330
C
100
AcDbDictionary
  0
ENDSEC
  0
EOF
